<?xml version="1.0" encoding="UTF-8" standalone="no"?><svg xmlns="http://www.w3.org/2000/svg" xmlns:xlink="http://www.w3.org/1999/xlink" clip-rule="evenodd" stroke-miterlimit="10" viewBox="0 0 283 42"><desc>SVG generated by Keynote</desc><defs></defs><g transform="matrix(1.00, 0.00, -0.00, -1.00, 0.0, 42.0)"><g><clipPath id="clip0x6000032ac480"><path d="M 0.0 1.6 L 39.6 1.6 L 39.6 41.2 L 0.0 41.2 Z M 0.0 1.6 "></path></clipPath><g clip-path="url(#clip0x6000032ac480)"><image xlink:href="167EF7657825FF8111BD7048C3F9F412.png" width="38.00" height="38.00" transform="matrix(0.99, 0.00, -0.00, -0.99, 1.0, 40.2)" opacity="0.35"></image><path d="M 0.0 14.9 L 0.0 14.8 C 0.0 6.6 6.6 0.0 14.8 0.0 L 14.8 0.0 C 22.9 0.0 30.0 6.6 30.0 14.8 L 30.0 14.9 C 30.0 23.0 22.9 29.6 14.8 29.6 L 14.8 29.6 C 6.6 29.6 0.0 23.0 0.0 14.9 Z M 0.0 14.9 " fill="none" stroke="#009900" stroke-width="2.00" stroke-linejoin="round" transform="matrix(1.00, 0.00, 0.00, -1.00, 5.0, 38.0)"></path></g></g><g><clipPath id="clip0x6000032ac180"><path d="M 81.0 0.9 L 120.6 0.9 L 120.6 40.5 L 81.0 40.5 Z M 81.0 0.9 "></path></clipPath><g clip-path="url(#clip0x6000032ac180)"><image xlink:href="../../62F53CAE-A979-4322-99F2-75F6DF468AC5/assets/167EF7657825FF8111BD7048C3F9F412.png" width="38.00" height="38.00" transform="matrix(0.99, 0.00, -0.00, -0.99, 82.0, 39.5)" opacity="0.35"></image><path d="M 0.0 14.9 L 0.0 14.8 C 0.0 6.6 6.6 0.0 14.8 0.0 L 14.8 0.0 C 22.9 0.0 30.0 6.6 30.0 14.8 L 30.0 14.9 C 30.0 23.0 22.9 29.6 14.8 29.6 L 14.8 29.6 C 6.6 29.6 0.0 23.0 0.0 14.9 Z M 0.0 14.9 " fill="none" stroke="#009900" stroke-width="2.00" stroke-linejoin="round" transform="matrix(1.00, 0.00, 0.00, -1.00, 86.0, 37.3)"></path></g></g><g><clipPath id="clip0x6000032aba00"><path d="M 161.0 0.9 L 200.6 0.9 L 200.6 40.5 L 161.0 40.5 Z M 161.0 0.9 "></path></clipPath><g clip-path="url(#clip0x6000032aba00)"><image xlink:href="../../62F53CAE-A979-4322-99F2-75F6DF468AC5/assets/167EF7657825FF8111BD7048C3F9F412.png" width="38.00" height="38.00" transform="matrix(0.99, 0.00, -0.00, -0.99, 162.0, 39.5)" opacity="0.35"></image><path d="M 0.0 14.9 L 0.0 14.8 C 0.0 6.6 6.6 0.0 14.8 0.0 L 14.8 0.0 C 22.9 0.0 30.0 6.6 30.0 14.8 L 30.0 14.9 C 30.0 23.0 22.9 29.6 14.8 29.6 L 14.8 29.6 C 6.6 29.6 0.0 23.0 0.0 14.9 Z M 0.0 14.9 " fill="none" stroke="#009900" stroke-width="2.00" stroke-linejoin="round" transform="matrix(1.00, 0.00, 0.00, -1.00, 166.0, 37.3)"></path></g></g><g><clipPath id="clip0x6000032ab3a0"><path d="M 243.0 0.9 L 282.6 0.9 L 282.6 40.5 L 243.0 40.5 Z M 243.0 0.9 "></path></clipPath><g clip-path="url(#clip0x6000032ab3a0)"><image xlink:href="../../62F53CAE-A979-4322-99F2-75F6DF468AC5/assets/167EF7657825FF8111BD7048C3F9F412.png" width="38.00" height="38.00" transform="matrix(0.99, 0.00, -0.00, -0.99, 244.0, 39.5)" opacity="0.35"></image><path d="M 0.0 14.9 L 0.0 14.8 C 0.0 6.6 6.6 0.0 14.8 0.0 L 14.8 0.0 C 22.9 0.0 30.0 6.6 30.0 14.8 L 30.0 14.9 C 30.0 23.0 22.9 29.6 14.8 29.6 L 14.8 29.6 C 6.6 29.6 0.0 23.0 0.0 14.9 Z M 0.0 14.9 " fill="none" stroke="#009900" stroke-width="2.00" stroke-linejoin="round" transform="matrix(1.00, 0.00, 0.00, -1.00, 248.0, 37.3)"></path></g></g></g></svg>