<?xml version="1.0" encoding="UTF-8" standalone="no"?><svg xmlns="http://www.w3.org/2000/svg" xmlns:xlink="http://www.w3.org/1999/xlink" clip-rule="evenodd" stroke-miterlimit="10" viewBox="0 0 124 101"><desc>SVG generated by Keynote</desc><defs></defs><g transform="matrix(1.00, 0.00, -0.00, -1.00, 0.0, 101.0)"><g><clipPath id="clip0x6000032a0de0"><path d="M 0.3 61.0 L 40.2 61.0 L 40.2 100.1 L 0.3 100.1 Z M 0.3 61.0 "></path></clipPath><g clip-path="url(#clip0x6000032a0de0)"><image xlink:href="07ECD275A48B729E3EABD2ED66C0D8D2.png" width="122.00" height="120.00" transform="matrix(0.33, 0.00, -0.00, -0.33, 0.3, 100.1)"></image></g></g><g><clipPath id="clip0x6080020a3360"><path d="M 1.1 2.3 L 40.6 2.3 L 40.6 41.4 L 1.1 41.4 Z M 1.1 2.3 "></path></clipPath><g clip-path="url(#clip0x6080020a3360)"><image xlink:href="0CD6FB41C5021977E18B525AD41065E8.png" width="121.00" height="120.00" transform="matrix(0.33, 0.00, -0.00, -0.33, 1.1, 41.4)"></image></g></g><g><clipPath id="clip0x6000032a1140"><path d="M 37.1 58.4 L 166.6 58.4 L 166.6 99.4 L 37.1 99.4 Z M 37.1 58.4 "></path></clipPath><g clip-path="url(#clip0x6000032a1140)"><text xml:space="preserve" font-family="Helvetica-Bold,Helvetica" font-weight="bold" font-size="14.0" fill="#009E60" transform="matrix(1.00, 0.00, -0.00, -1.00, 40.6, 82.1)">F</text><text xml:space="preserve" font-family="Helvetica-Bold,Helvetica" font-weight="bold" font-size="14.0" fill="#009E60" transform="matrix(1.00, 0.00, -0.00, -1.00, 49.1, 82.1)">i</text><text xml:space="preserve" font-family="Helvetica-Bold,Helvetica" font-weight="bold" font-size="14.0" fill="#009E60" transform="matrix(1.00, 0.00, -0.00, -1.00, 53.0, 82.1)">n</text><text xml:space="preserve" font-family="Helvetica-Bold,Helvetica" font-weight="bold" font-size="14.0" fill="#009E60" transform="matrix(1.00, 0.00, -0.00, -1.00, 61.6, 82.1)">g</text><text xml:space="preserve" font-family="Helvetica-Bold,Helvetica" font-weight="bold" font-size="14.0" fill="#009E60" transform="matrix(1.00, 0.00, -0.00, -1.00, 70.1, 82.1)">e</text><text xml:space="preserve" font-family="Helvetica-Bold,Helvetica" font-weight="bold" font-size="14.0" fill="#009E60" transform="matrix(1.00, 0.00, -0.00, -1.00, 77.9, 82.1)">r</text><text xml:space="preserve" font-family="Helvetica-Bold,Helvetica" font-weight="bold" font-size="14.0" fill="#009E60" transform="matrix(1.00, 0.00, -0.00, -1.00, 40.6, 65.1)">C</text><text xml:space="preserve" font-family="Helvetica-Bold,Helvetica" font-weight="bold" font-size="14.0" fill="#009E60" transform="matrix(1.00, 0.00, -0.00, -1.00, 50.7, 65.1)">o</text><text xml:space="preserve" font-family="Helvetica-Bold,Helvetica" font-weight="bold" font-size="14.0" fill="#009E60" transform="matrix(1.00, 0.00, -0.00, -1.00, 59.2, 65.1)">n</text><text xml:space="preserve" font-family="Helvetica-Bold,Helvetica" font-weight="bold" font-size="14.0" fill="#009E60" transform="matrix(1.00, 0.00, -0.00, -1.00, 67.8, 65.1)">n</text><text xml:space="preserve" font-family="Helvetica-Bold,Helvetica" font-weight="bold" font-size="14.0" fill="#009E60" transform="matrix(1.00, 0.00, -0.00, -1.00, 76.3, 65.1)">e</text><text xml:space="preserve" font-family="Helvetica-Bold,Helvetica" font-weight="bold" font-size="14.0" fill="#009E60" transform="matrix(1.00, 0.00, -0.00, -1.00, 84.1, 65.1)">c</text><text xml:space="preserve" font-family="Helvetica-Bold,Helvetica" font-weight="bold" font-size="14.0" fill="#009E60" transform="matrix(1.00, 0.00, -0.00, -1.00, 91.9, 65.1)">t</text><text xml:space="preserve" font-family="Helvetica-Bold,Helvetica" font-weight="bold" font-size="14.0" fill="#009E60" transform="matrix(1.00, 0.00, -0.00, -1.00, 96.6, 65.1)">i</text><text xml:space="preserve" font-family="Helvetica-Bold,Helvetica" font-weight="bold" font-size="14.0" fill="#009E60" transform="matrix(1.00, 0.00, -0.00, -1.00, 100.5, 65.1)">o</text><text xml:space="preserve" font-family="Helvetica-Bold,Helvetica" font-weight="bold" font-size="14.0" fill="#009E60" transform="matrix(1.00, 0.00, -0.00, -1.00, 109.0, 65.1)">n</text></g></g><g><clipPath id="clip0x6000032a1b00"><path d="M 38.2 0.1 L 158.4 0.1 L 158.4 41.1 L 38.2 41.1 Z M 38.2 0.1 "></path></clipPath><g clip-path="url(#clip0x6000032a1b00)"><text xml:space="preserve" font-family="Helvetica-Bold,Helvetica" font-weight="bold" font-size="14.0" fill="#C00000" transform="matrix(1.00, 0.00, -0.00, -1.00, 41.7, 23.8)">P</text><text xml:space="preserve" font-family="Helvetica-Bold,Helvetica" font-weight="bold" font-size="14.0" fill="#C00000" transform="matrix(1.00, 0.00, -0.00, -1.00, 51.1, 23.8)">a</text><text xml:space="preserve" font-family="Helvetica-Bold,Helvetica" font-weight="bold" font-size="14.0" fill="#C00000" transform="matrix(1.00, 0.00, -0.00, -1.00, 58.9, 23.8)">l</text><text xml:space="preserve" font-family="Helvetica-Bold,Helvetica" font-weight="bold" font-size="14.0" fill="#C00000" transform="matrix(1.00, 0.00, -0.00, -1.00, 62.7, 23.8)">m</text><text xml:space="preserve" font-family="Helvetica-Bold,Helvetica" font-weight="bold" font-size="14.0" fill="#C00000" transform="matrix(1.00, 0.00, -0.00, -1.00, 41.7, 6.8)">C</text><text xml:space="preserve" font-family="Helvetica-Bold,Helvetica" font-weight="bold" font-size="14.0" fill="#C00000" transform="matrix(1.00, 0.00, -0.00, -1.00, 51.8, 6.8)">o</text><text xml:space="preserve" font-family="Helvetica-Bold,Helvetica" font-weight="bold" font-size="14.0" fill="#C00000" transform="matrix(1.00, 0.00, -0.00, -1.00, 60.4, 6.8)">n</text><text xml:space="preserve" font-family="Helvetica-Bold,Helvetica" font-weight="bold" font-size="14.0" fill="#C00000" transform="matrix(1.00, 0.00, -0.00, -1.00, 68.9, 6.8)">n</text><text xml:space="preserve" font-family="Helvetica-Bold,Helvetica" font-weight="bold" font-size="14.0" fill="#C00000" transform="matrix(1.00, 0.00, -0.00, -1.00, 77.5, 6.8)">e</text><text xml:space="preserve" font-family="Helvetica-Bold,Helvetica" font-weight="bold" font-size="14.0" fill="#C00000" transform="matrix(1.00, 0.00, -0.00, -1.00, 85.3, 6.8)">c</text><text xml:space="preserve" font-family="Helvetica-Bold,Helvetica" font-weight="bold" font-size="14.0" fill="#C00000" transform="matrix(1.00, 0.00, -0.00, -1.00, 93.1, 6.8)">t</text><text xml:space="preserve" font-family="Helvetica-Bold,Helvetica" font-weight="bold" font-size="14.0" fill="#C00000" transform="matrix(1.00, 0.00, -0.00, -1.00, 97.7, 6.8)">i</text><text xml:space="preserve" font-family="Helvetica-Bold,Helvetica" font-weight="bold" font-size="14.0" fill="#C00000" transform="matrix(1.00, 0.00, -0.00, -1.00, 101.6, 6.8)">o</text><text xml:space="preserve" font-family="Helvetica-Bold,Helvetica" font-weight="bold" font-size="14.0" fill="#C00000" transform="matrix(1.00, 0.00, -0.00, -1.00, 110.2, 6.8)">n</text></g></g></g></svg>