<?xml version="1.0" encoding="UTF-8" standalone="no"?><svg xmlns="http://www.w3.org/2000/svg" xmlns:xlink="http://www.w3.org/1999/xlink" clip-rule="evenodd" stroke-miterlimit="10" viewBox="0 0 79 41"><desc>SVG generated by Keynote</desc><defs></defs><g transform="matrix(1.00, 0.00, -0.00, -1.00, 0.0, 41.0)"><g><clipPath id="clip0x6000044b23c0"><path d="M 0.4 0.7 L 78.2 0.7 L 78.2 40.2 L 0.4 40.2 Z M 0.4 0.7 "></path></clipPath><g clip-path="url(#clip0x6000044b23c0)"><image xlink:href="78D530C7A084F2B96294113ED96A4F09.png" width="76.00" height="38.00" transform="matrix(1.00, 0.00, -0.00, -0.99, 1.4, 39.2)" opacity="0.25"></image><path d="M 6.0 34.0 L 72.0 34.0 L 72.0 7.0 L 6.0 7.0 Z M 6.4 34.2 " fill="#000000" fill-opacity="0.40"></path></g></g><image xlink:href="16019F27F341701268F19B9149E21156.png" width="60.00" height="24.00" transform="matrix(1.00, 0.00, -0.00, -1.00, 13.0, 28.0)"></image><g><clipPath id="clip0x6000044b2420"><path d="M 1.0 -0.2 L 81.8 -0.2 L 81.8 36.8 L 1.0 36.8 Z M 1.0 -0.2 "></path></clipPath><g clip-path="url(#clip0x6000044b2420)"><text xml:space="preserve" font-family="Helvetica-Bold,Helvetica" font-weight="bold" font-size="18.0" fill="#B7FFB7" transform="matrix(1.00, 0.00, -0.00, -1.00, 14.3, 13.6)">V</text><text xml:space="preserve" font-family="Helvetica-Bold,Helvetica" font-weight="bold" font-size="18.0" fill="#B7FFB7" transform="matrix(1.00, 0.00, -0.00, -1.00, 26.3, 13.6)"> </text><text xml:space="preserve" font-family="Helvetica-Bold,Helvetica" font-weight="bold" font-size="18.0" fill="#B7FFB7" transform="matrix(1.00, 0.00, -0.00, -1.00, 31.3, 13.6)">s</text><text xml:space="preserve" font-family="Helvetica-Bold,Helvetica" font-weight="bold" font-size="18.0" fill="#B7FFB7" transform="matrix(1.00, 0.00, -0.00, -1.00, 41.3, 13.6)">i</text><text xml:space="preserve" font-family="Helvetica-Bold,Helvetica" font-weight="bold" font-size="18.0" fill="#B7FFB7" transform="matrix(1.00, 0.00, -0.00, -1.00, 46.3, 13.6)">g</text><text xml:space="preserve" font-family="Helvetica-Bold,Helvetica" font-weight="bold" font-size="18.0" fill="#B7FFB7" transform="matrix(1.00, 0.00, -0.00, -1.00, 57.3, 13.6)">n</text></g></g></g></svg>