<?xml version="1.0" encoding="UTF-8" standalone="no"?><svg xmlns="http://www.w3.org/2000/svg" xmlns:xlink="http://www.w3.org/1999/xlink" clip-rule="evenodd" stroke-miterlimit="10" viewBox="0 0 555 58"><desc>SVG generated by Keynote</desc><defs></defs><g transform="matrix(1.00, 0.00, -0.00, -1.00, 0.0, 58.0)"><image xlink:href="C77A86EEFC6151FDF4FC7BC37A20AE4F.png" width="551.00" height="53.00" transform="matrix(1.00, 0.00, -0.00, -1.00, 2.0, 57.0)"></image><text xml:space="preserve" font-family="Helvetica-Bold,Helvetica" font-weight="bold" font-size="37.0" fill="#000000" transform="matrix(1.00, 0.02, 0.02, -1.00, 7.5, 15.0)">T</text><text xml:space="preserve" font-family="Helvetica-Bold,Helvetica" font-weight="bold" font-size="37.0" fill="#000000" transform="matrix(1.00, 0.02, 0.02, -1.00, 30.1, 15.4)">h</text><text xml:space="preserve" font-family="Helvetica-Bold,Helvetica" font-weight="bold" font-size="37.0" fill="#000000" transform="matrix(1.00, 0.02, 0.02, -1.00, 52.7, 15.8)">a</text><text xml:space="preserve" font-family="Helvetica-Bold,Helvetica" font-weight="bold" font-size="37.0" fill="#000000" transform="matrix(1.00, 0.02, 0.02, -1.00, 73.3, 16.1)">n</text><text xml:space="preserve" font-family="Helvetica-Bold,Helvetica" font-weight="bold" font-size="37.0" fill="#000000" transform="matrix(1.00, 0.02, 0.02, -1.00, 95.9, 16.5)">k</text><text xml:space="preserve" font-family="Helvetica-Bold,Helvetica" font-weight="bold" font-size="37.0" fill="#000000" transform="matrix(1.00, 0.02, 0.02, -1.00, 116.4, 16.9)"> </text><text xml:space="preserve" font-family="Helvetica-Bold,Helvetica" font-weight="bold" font-size="37.0" fill="#000000" transform="matrix(1.00, 0.02, 0.02, -1.00, 126.7, 17.0)">y</text><text xml:space="preserve" font-family="Helvetica-Bold,Helvetica" font-weight="bold" font-size="37.0" fill="#000000" transform="matrix(1.00, 0.02, 0.02, -1.00, 147.3, 17.4)">o</text><text xml:space="preserve" font-family="Helvetica-Bold,Helvetica" font-weight="bold" font-size="37.0" fill="#000000" transform="matrix(1.00, 0.02, 0.02, -1.00, 169.9, 17.8)">u</text><text xml:space="preserve" font-family="Helvetica-Bold,Helvetica" font-weight="bold" font-size="37.0" fill="#000000" transform="matrix(1.00, 0.02, 0.02, -1.00, 192.5, 18.2)"> </text><text xml:space="preserve" font-family="Helvetica-Bold,Helvetica" font-weight="bold" font-size="37.0" fill="#000000" transform="matrix(1.00, 0.02, 0.02, -1.00, 202.7, 18.4)">a</text><text xml:space="preserve" font-family="Helvetica-Bold,Helvetica" font-weight="bold" font-size="37.0" fill="#000000" transform="matrix(1.00, 0.02, 0.02, -1.00, 223.3, 18.7)">n</text><text xml:space="preserve" font-family="Helvetica-Bold,Helvetica" font-weight="bold" font-size="37.0" fill="#000000" transform="matrix(1.00, 0.02, 0.02, -1.00, 245.9, 19.1)">d</text><text xml:space="preserve" font-family="Helvetica-Bold,Helvetica" font-weight="bold" font-size="37.0" fill="#000000" transform="matrix(1.00, 0.02, 0.02, -1.00, 268.5, 19.5)"> </text><text xml:space="preserve" font-family="Helvetica-Bold,Helvetica" font-weight="bold" font-size="37.0" fill="#000000" transform="matrix(1.00, 0.02, 0.02, -1.00, 278.8, 19.7)">a</text><text xml:space="preserve" font-family="Helvetica-Bold,Helvetica" font-weight="bold" font-size="37.0" fill="#000000" transform="matrix(1.00, 0.02, 0.02, -1.00, 299.4, 20.1)">n</text><text xml:space="preserve" font-family="Helvetica-Bold,Helvetica" font-weight="bold" font-size="37.0" fill="#000000" transform="matrix(1.00, 0.02, 0.02, -1.00, 321.9, 20.5)">y</text><text xml:space="preserve" font-family="Helvetica-Bold,Helvetica" font-weight="bold" font-size="37.0" fill="#000000" transform="matrix(1.00, 0.02, 0.02, -1.00, 342.5, 20.8)"> </text><text xml:space="preserve" font-family="Helvetica-Bold,Helvetica" font-weight="bold" font-size="37.0" fill="#000000" transform="matrix(1.00, 0.02, 0.02, -1.00, 352.8, 21.0)">q</text><text xml:space="preserve" font-family="Helvetica-Bold,Helvetica" font-weight="bold" font-size="37.0" fill="#000000" transform="matrix(1.00, 0.02, 0.02, -1.00, 375.4, 21.4)">u</text><text xml:space="preserve" font-family="Helvetica-Bold,Helvetica" font-weight="bold" font-size="37.0" fill="#000000" transform="matrix(1.00, 0.02, 0.02, -1.00, 398.0, 21.8)">e</text><text xml:space="preserve" font-family="Helvetica-Bold,Helvetica" font-weight="bold" font-size="37.0" fill="#000000" transform="matrix(1.00, 0.02, 0.02, -1.00, 418.6, 22.1)">s</text><text xml:space="preserve" font-family="Helvetica-Bold,Helvetica" font-weight="bold" font-size="37.0" fill="#000000" transform="matrix(1.00, 0.02, 0.02, -1.00, 439.1, 22.5)">t</text><text xml:space="preserve" font-family="Helvetica-Bold,Helvetica" font-weight="bold" font-size="37.0" fill="#000000" transform="matrix(1.00, 0.02, 0.02, -1.00, 451.5, 22.7)">i</text><text xml:space="preserve" font-family="Helvetica-Bold,Helvetica" font-weight="bold" font-size="37.0" fill="#000000" transform="matrix(1.00, 0.02, 0.02, -1.00, 461.7, 22.9)">o</text><text xml:space="preserve" font-family="Helvetica-Bold,Helvetica" font-weight="bold" font-size="37.0" fill="#000000" transform="matrix(1.00, 0.02, 0.02, -1.00, 484.3, 23.3)">n</text><text xml:space="preserve" font-family="Helvetica-Bold,Helvetica" font-weight="bold" font-size="37.0" fill="#000000" transform="matrix(1.00, 0.02, 0.02, -1.00, 506.9, 23.7)">s</text><text xml:space="preserve" font-family="Helvetica-Bold,Helvetica" font-weight="bold" font-size="37.0" fill="#000000" transform="matrix(1.00, 0.02, 0.02, -1.00, 527.5, 24.0)">?</text></g></svg>