<?xml version="1.0" encoding="UTF-8" standalone="no"?><svg xmlns="http://www.w3.org/2000/svg" xmlns:xlink="http://www.w3.org/1999/xlink" clip-rule="evenodd" stroke-miterlimit="10" viewBox="0 0 720 540"><desc>SVG generated by Keynote</desc><defs></defs><g transform="matrix(1.00, 0.00, -0.00, -1.00, 0.0, 540.0)"><path d="M 0.0 540.0 L 720.0 540.0 L 720.0 0.0 L 0.0 0.0 Z M 0.0 540.0 " fill="#FFFFFF"></path><path d="M 0.0 540.0 L 28.0 540.0 L 28.0 485.0 L 0.0 485.0 Z M 0.0 540.0 " fill="#4DC780"></path><path d="M 28.0 540.0 L 722.0 540.0 L 722.0 485.0 L 28.0 485.0 Z M 28.3 540.0 " fill="#009E60"></path><path d="M 0.0 27.0 L 722.0 27.0 L 722.0 -1.0 L 0.0 -1.0 Z M -0.0 27.0 " fill="#009E60"></path><path d="M 694.0 27.0 L 721.0 27.0 L 721.0 -1.0 L 694.0 -1.0 Z M 694.2 27.0 " fill="#4DC780"></path><image xlink:href="../../903B06D6-7074-4CAB-BC6C-5082EDBFA2FB/assets/F910DACFED2F2DB23B04FF08BD897C14.jpeg" width="2048.00" height="1356.00" transform="matrix(0.39, 0.00, -0.00, -0.39, -33.9, 526.5)"></image><image xlink:href="../../2B9F6D1A-18D3-49C3-8D11-A46AA69B9A61/assets/C77A86EEFC6151FDF4FC7BC37A20AE4F.png" width="551.00" height="53.00" transform="matrix(1.00, 0.00, -0.00, -1.00, 49.0, 481.0)"></image><text xml:space="preserve" font-family="Helvetica-Bold,Helvetica" font-weight="bold" font-size="37.0" fill="#000000" transform="matrix(1.00, 0.02, 0.02, -1.00, 54.5, 439.0)">T</text><text xml:space="preserve" font-family="Helvetica-Bold,Helvetica" font-weight="bold" font-size="37.0" fill="#000000" transform="matrix(1.00, 0.02, 0.02, -1.00, 77.1, 439.4)">h</text><text xml:space="preserve" font-family="Helvetica-Bold,Helvetica" font-weight="bold" font-size="37.0" fill="#000000" transform="matrix(1.00, 0.02, 0.02, -1.00, 99.7, 439.8)">a</text><text xml:space="preserve" font-family="Helvetica-Bold,Helvetica" font-weight="bold" font-size="37.0" fill="#000000" transform="matrix(1.00, 0.02, 0.02, -1.00, 120.3, 440.1)">n</text><text xml:space="preserve" font-family="Helvetica-Bold,Helvetica" font-weight="bold" font-size="37.0" fill="#000000" transform="matrix(1.00, 0.02, 0.02, -1.00, 142.9, 440.5)">k</text><text xml:space="preserve" font-family="Helvetica-Bold,Helvetica" font-weight="bold" font-size="37.0" fill="#000000" transform="matrix(1.00, 0.02, 0.02, -1.00, 163.4, 440.9)"> </text><text xml:space="preserve" font-family="Helvetica-Bold,Helvetica" font-weight="bold" font-size="37.0" fill="#000000" transform="matrix(1.00, 0.02, 0.02, -1.00, 173.7, 441.0)">y</text><text xml:space="preserve" font-family="Helvetica-Bold,Helvetica" font-weight="bold" font-size="37.0" fill="#000000" transform="matrix(1.00, 0.02, 0.02, -1.00, 194.3, 441.4)">o</text><text xml:space="preserve" font-family="Helvetica-Bold,Helvetica" font-weight="bold" font-size="37.0" fill="#000000" transform="matrix(1.00, 0.02, 0.02, -1.00, 216.9, 441.8)">u</text><text xml:space="preserve" font-family="Helvetica-Bold,Helvetica" font-weight="bold" font-size="37.0" fill="#000000" transform="matrix(1.00, 0.02, 0.02, -1.00, 239.5, 442.2)"> </text><text xml:space="preserve" font-family="Helvetica-Bold,Helvetica" font-weight="bold" font-size="37.0" fill="#000000" transform="matrix(1.00, 0.02, 0.02, -1.00, 249.7, 442.4)">a</text><text xml:space="preserve" font-family="Helvetica-Bold,Helvetica" font-weight="bold" font-size="37.0" fill="#000000" transform="matrix(1.00, 0.02, 0.02, -1.00, 270.3, 442.7)">n</text><text xml:space="preserve" font-family="Helvetica-Bold,Helvetica" font-weight="bold" font-size="37.0" fill="#000000" transform="matrix(1.00, 0.02, 0.02, -1.00, 292.9, 443.1)">d</text><text xml:space="preserve" font-family="Helvetica-Bold,Helvetica" font-weight="bold" font-size="37.0" fill="#000000" transform="matrix(1.00, 0.02, 0.02, -1.00, 315.5, 443.5)"> </text><text xml:space="preserve" font-family="Helvetica-Bold,Helvetica" font-weight="bold" font-size="37.0" fill="#000000" transform="matrix(1.00, 0.02, 0.02, -1.00, 325.8, 443.7)">a</text><text xml:space="preserve" font-family="Helvetica-Bold,Helvetica" font-weight="bold" font-size="37.0" fill="#000000" transform="matrix(1.00, 0.02, 0.02, -1.00, 346.4, 444.1)">n</text><text xml:space="preserve" font-family="Helvetica-Bold,Helvetica" font-weight="bold" font-size="37.0" fill="#000000" transform="matrix(1.00, 0.02, 0.02, -1.00, 368.9, 444.5)">y</text><text xml:space="preserve" font-family="Helvetica-Bold,Helvetica" font-weight="bold" font-size="37.0" fill="#000000" transform="matrix(1.00, 0.02, 0.02, -1.00, 389.5, 444.8)"> </text><text xml:space="preserve" font-family="Helvetica-Bold,Helvetica" font-weight="bold" font-size="37.0" fill="#000000" transform="matrix(1.00, 0.02, 0.02, -1.00, 399.8, 445.0)">q</text><text xml:space="preserve" font-family="Helvetica-Bold,Helvetica" font-weight="bold" font-size="37.0" fill="#000000" transform="matrix(1.00, 0.02, 0.02, -1.00, 422.4, 445.4)">u</text><text xml:space="preserve" font-family="Helvetica-Bold,Helvetica" font-weight="bold" font-size="37.0" fill="#000000" transform="matrix(1.00, 0.02, 0.02, -1.00, 445.0, 445.8)">e</text><text xml:space="preserve" font-family="Helvetica-Bold,Helvetica" font-weight="bold" font-size="37.0" fill="#000000" transform="matrix(1.00, 0.02, 0.02, -1.00, 465.6, 446.1)">s</text><text xml:space="preserve" font-family="Helvetica-Bold,Helvetica" font-weight="bold" font-size="37.0" fill="#000000" transform="matrix(1.00, 0.02, 0.02, -1.00, 486.1, 446.5)">t</text><text xml:space="preserve" font-family="Helvetica-Bold,Helvetica" font-weight="bold" font-size="37.0" fill="#000000" transform="matrix(1.00, 0.02, 0.02, -1.00, 498.5, 446.7)">i</text><text xml:space="preserve" font-family="Helvetica-Bold,Helvetica" font-weight="bold" font-size="37.0" fill="#000000" transform="matrix(1.00, 0.02, 0.02, -1.00, 508.7, 446.9)">o</text><text xml:space="preserve" font-family="Helvetica-Bold,Helvetica" font-weight="bold" font-size="37.0" fill="#000000" transform="matrix(1.00, 0.02, 0.02, -1.00, 531.3, 447.3)">n</text><text xml:space="preserve" font-family="Helvetica-Bold,Helvetica" font-weight="bold" font-size="37.0" fill="#000000" transform="matrix(1.00, 0.02, 0.02, -1.00, 553.9, 447.7)">s</text><text xml:space="preserve" font-family="Helvetica-Bold,Helvetica" font-weight="bold" font-size="37.0" fill="#000000" transform="matrix(1.00, 0.02, 0.02, -1.00, 574.5, 448.0)">?</text><g><clipPath id="clip0x6000044b5060"><path d="M 426.0 370.8 L 725.3 370.8 L 725.3 414.8 L 426.0 414.8 Z M 426.0 370.8 "></path></clipPath><g clip-path="url(#clip0x6000044b5060)"><image xlink:href="../../2B9F6D1A-18D3-49C3-8D11-A46AA69B9A61/assets/815A272B8007E3F5969F3E2BC5440DDE.png" width="297.00" height="42.00" transform="matrix(1.00, 0.00, -0.00, -1.00, 427.0, 413.8)" opacity="0.25"></image><path d="M 432.0 409.0 L 719.0 409.0 L 719.0 377.0 L 432.0 377.0 Z M 432.0 408.8 " fill="#000000" fill-opacity="0.40"></path></g></g><g><clipPath id="clip0x6000044b5360"><path d="M 427.2 376.6 L 724.1 376.6 L 724.1 409.1 L 427.2 409.1 Z M 427.2 376.6 "></path></clipPath><g clip-path="url(#clip0x6000044b5360)"><text xml:space="preserve" font-family="Helvetica-Bold,Helvetica" font-weight="bold" font-size="19.0" fill="#ADFFAD" transform="matrix(1.00, 0.00, -0.00, -1.00, 442.9, 385.7)">X</text><text xml:space="preserve" font-family="Helvetica-Bold,Helvetica" font-weight="bold" font-size="19.0" fill="#ADFFAD" transform="matrix(1.00, 0.00, -0.00, -1.00, 455.6, 385.7)">i</text><text xml:space="preserve" font-family="Helvetica-Bold,Helvetica" font-weight="bold" font-size="19.0" fill="#ADFFAD" transform="matrix(1.00, 0.00, -0.00, -1.00, 460.9, 385.7)">a</text><text xml:space="preserve" font-family="Helvetica-Bold,Helvetica" font-weight="bold" font-size="19.0" fill="#ADFFAD" transform="matrix(1.00, 0.00, -0.00, -1.00, 471.4, 385.7)">o</text><text xml:space="preserve" font-family="Helvetica-Bold,Helvetica" font-weight="bold" font-size="19.0" fill="#ADFFAD" transform="matrix(1.00, 0.00, -0.00, -1.00, 483.0, 385.7)">l</text><text xml:space="preserve" font-family="Helvetica-Bold,Helvetica" font-weight="bold" font-size="19.0" fill="#ADFFAD" transform="matrix(1.00, 0.00, -0.00, -1.00, 488.3, 385.7)">o</text><text xml:space="preserve" font-family="Helvetica-Bold,Helvetica" font-weight="bold" font-size="19.0" fill="#ADFFAD" transform="matrix(1.00, 0.00, -0.00, -1.00, 499.9, 385.7)">n</text><text xml:space="preserve" font-family="Helvetica-Bold,Helvetica" font-weight="bold" font-size="19.0" fill="#ADFFAD" transform="matrix(1.00, 0.00, -0.00, -1.00, 511.5, 385.7)">g</text><text xml:space="preserve" font-family="Helvetica-Bold,Helvetica" font-weight="bold" font-size="19.0" fill="#ADFFAD" transform="matrix(1.00, 0.00, -0.00, -1.00, 523.1, 385.7)"> </text><text xml:space="preserve" font-family="Helvetica-Bold,Helvetica" font-weight="bold" font-size="19.0" fill="#ADFFAD" transform="matrix(1.00, 0.00, -0.00, -1.00, 528.4, 385.7)">Z</text><text xml:space="preserve" font-family="Helvetica-Bold,Helvetica" font-weight="bold" font-size="19.0" fill="#ADFFAD" transform="matrix(1.00, 0.00, -0.00, -1.00, 540.0, 385.7)">h</text><text xml:space="preserve" font-family="Helvetica-Bold,Helvetica" font-weight="bold" font-size="19.0" fill="#ADFFAD" transform="matrix(1.00, 0.00, -0.00, -1.00, 551.6, 385.7)">u</text><text xml:space="preserve" font-family="Helvetica-Bold,Helvetica" font-weight="bold" font-size="19.0" fill="#ADFFAD" transform="matrix(1.00, 0.00, -0.00, -1.00, 563.2, 385.7)"> </text><text xml:space="preserve" font-family="Helvetica,Helvetica" font-size="19.0" fill="#ADFFAD" transform="matrix(1.00, 0.00, -0.00, -1.00, 568.5, 385.7)">x</text><text xml:space="preserve" font-family="Helvetica,Helvetica" font-size="19.0" fill="#ADFFAD" transform="matrix(1.00, 0.00, -0.00, -1.00, 578.0, 385.7)">l</text><text xml:space="preserve" font-family="Helvetica,Helvetica" font-size="19.0" fill="#ADFFAD" transform="matrix(1.00, 0.00, -0.00, -1.00, 582.2, 385.7)">z</text><text xml:space="preserve" font-family="Helvetica,Helvetica" font-size="19.0" fill="#ADFFAD" transform="matrix(1.00, 0.00, -0.00, -1.00, 591.7, 385.7)">h</text><text xml:space="preserve" font-family="Helvetica,Helvetica" font-size="19.0" fill="#ADFFAD" transform="matrix(1.00, 0.00, -0.00, -1.00, 602.3, 385.7)">u</text><text xml:space="preserve" font-family="Helvetica,Helvetica" font-size="19.0" fill="#ADFFAD" transform="matrix(1.00, 0.00, -0.00, -1.00, 612.9, 385.7)">@</text><text xml:space="preserve" font-family="Helvetica,Helvetica" font-size="19.0" fill="#ADFFAD" transform="matrix(1.00, 0.00, -0.00, -1.00, 632.2, 385.7)">c</text><text xml:space="preserve" font-family="Helvetica,Helvetica" font-size="19.0" fill="#ADFFAD" transform="matrix(1.00, 0.00, -0.00, -1.00, 641.7, 385.7)">s</text><text xml:space="preserve" font-family="Helvetica,Helvetica" font-size="19.0" fill="#ADFFAD" transform="matrix(1.00, 0.00, -0.00, -1.00, 651.2, 385.7)">.</text><text xml:space="preserve" font-family="Helvetica,Helvetica" font-size="19.0" fill="#ADFFAD" transform="matrix(1.00, 0.00, -0.00, -1.00, 656.4, 385.7)">h</text><text xml:space="preserve" font-family="Helvetica,Helvetica" font-size="19.0" fill="#ADFFAD" transform="matrix(1.00, 0.00, -0.00, -1.00, 667.0, 385.7)">k</text><text xml:space="preserve" font-family="Helvetica,Helvetica" font-size="19.0" fill="#ADFFAD" transform="matrix(1.00, 0.00, -0.00, -1.00, 676.5, 385.7)">u</text><text xml:space="preserve" font-family="Helvetica,Helvetica" font-size="19.0" fill="#ADFFAD" transform="matrix(1.00, 0.00, -0.00, -1.00, 687.1, 385.7)">.</text><text xml:space="preserve" font-family="Helvetica,Helvetica" font-size="19.0" fill="#ADFFAD" transform="matrix(1.00, 0.00, -0.00, -1.00, 692.3, 385.7)">h</text><text xml:space="preserve" font-family="Helvetica,Helvetica" font-size="19.0" fill="#ADFFAD" transform="matrix(1.00, 0.00, -0.00, -1.00, 702.9, 385.7)">k</text><path d="M 136.5 20.1 L 280.4 20.1 " fill="none" stroke="#ADFFAD" stroke-width="0.94" transform="matrix(1.00, 0.00, 0.00, -1.00, 432.0, 404.3)"></path></g></g><image xlink:href="../../2B9F6D1A-18D3-49C3-8D11-A46AA69B9A61/assets/1DA370ECC4AC9CCEE9C2FAA77E75DD7E.png" width="62.00" height="70.00" transform="matrix(0.99, 0.00, -0.00, -1.01, 503.4, 377.2)" opacity="0.35"></image><path d="M -0.4 0.0 L 51.6 0.0 L 51.6 60.0 L -0.4 60.0 Z M 0.0 0.0 " fill="none" stroke="#ADFFAD" stroke-width="4.00" stroke-linejoin="round" transform="matrix(1.00, 0.00, 0.00, -1.00, 508.4, 374.0)"></path><image xlink:href="../../903B06D6-7074-4CAB-BC6C-5082EDBFA2FB/assets/74C93BC6A6B38C5C693F4E269873639E.png" width="284.00" height="27.00" transform="matrix(1.00, 0.00, -0.00, -1.00, 435.0, 29.0)"></image><text xml:space="preserve" font-family="Helvetica-Bold,Helvetica" font-weight="bold" font-size="16.0" fill="#000000" transform="matrix(1.00, 0.00, -0.00, -1.00, 439.5, 11.2)">C</text><text xml:space="preserve" font-family="Helvetica-Bold,Helvetica" font-weight="bold" font-size="16.0" fill="#000000" transform="matrix(1.00, 0.00, -0.00, -1.00, 451.0, 11.2)">o</text><text xml:space="preserve" font-family="Helvetica-Bold,Helvetica" font-weight="bold" font-size="16.0" fill="#000000" transform="matrix(1.00, 0.00, -0.00, -1.00, 460.8, 11.2)">m</text><text xml:space="preserve" font-family="Helvetica-Bold,Helvetica" font-weight="bold" font-size="16.0" fill="#000000" transform="matrix(1.00, 0.00, -0.00, -1.00, 475.0, 11.2)">p</text><text xml:space="preserve" font-family="Helvetica-Bold,Helvetica" font-weight="bold" font-size="16.0" fill="#000000" transform="matrix(1.00, 0.00, -0.00, -1.00, 484.8, 11.2)">u</text><text xml:space="preserve" font-family="Helvetica-Bold,Helvetica" font-weight="bold" font-size="16.0" fill="#000000" transform="matrix(1.00, 0.00, -0.00, -1.00, 494.6, 11.2)">t</text><text xml:space="preserve" font-family="Helvetica-Bold,Helvetica" font-weight="bold" font-size="16.0" fill="#000000" transform="matrix(1.00, 0.00, -0.00, -1.00, 499.9, 11.2)">e</text><text xml:space="preserve" font-family="Helvetica-Bold,Helvetica" font-weight="bold" font-size="16.0" fill="#000000" transform="matrix(1.00, 0.00, -0.00, -1.00, 508.8, 11.2)">r</text><text xml:space="preserve" font-family="Helvetica-Bold,Helvetica" font-weight="bold" font-size="16.0" fill="#000000" transform="matrix(1.00, 0.00, -0.00, -1.00, 515.0, 11.2)"> </text><text xml:space="preserve" font-family="Helvetica-Bold,Helvetica" font-weight="bold" font-size="16.0" fill="#000000" transform="matrix(1.00, 0.00, -0.00, -1.00, 519.5, 11.2)">V</text><text xml:space="preserve" font-family="Helvetica-Bold,Helvetica" font-weight="bold" font-size="16.0" fill="#000000" transform="matrix(1.00, 0.00, -0.00, -1.00, 529.9, 11.2)">i</text><text xml:space="preserve" font-family="Helvetica-Bold,Helvetica" font-weight="bold" font-size="16.0" fill="#000000" transform="matrix(1.00, 0.00, -0.00, -1.00, 534.3, 11.2)">s</text><text xml:space="preserve" font-family="Helvetica-Bold,Helvetica" font-weight="bold" font-size="16.0" fill="#000000" transform="matrix(1.00, 0.00, -0.00, -1.00, 543.2, 11.2)">i</text><text xml:space="preserve" font-family="Helvetica-Bold,Helvetica" font-weight="bold" font-size="16.0" fill="#000000" transform="matrix(1.00, 0.00, -0.00, -1.00, 547.7, 11.2)">o</text><text xml:space="preserve" font-family="Helvetica-Bold,Helvetica" font-weight="bold" font-size="16.0" fill="#000000" transform="matrix(1.00, 0.00, -0.00, -1.00, 557.4, 11.2)">n</text><text xml:space="preserve" font-family="Helvetica-Bold,Helvetica" font-weight="bold" font-size="16.0" fill="#000000" transform="matrix(1.00, 0.00, -0.00, -1.00, 567.2, 11.2)"> </text><text xml:space="preserve" font-family="Helvetica-Bold,Helvetica" font-weight="bold" font-size="16.0" fill="#000000" transform="matrix(1.00, 0.00, -0.00, -1.00, 571.6, 11.2)">G</text><text xml:space="preserve" font-family="Helvetica-Bold,Helvetica" font-weight="bold" font-size="16.0" fill="#000000" transform="matrix(1.00, 0.00, -0.00, -1.00, 584.1, 11.2)">r</text><text xml:space="preserve" font-family="Helvetica-Bold,Helvetica" font-weight="bold" font-size="16.0" fill="#000000" transform="matrix(1.00, 0.00, -0.00, -1.00, 590.3, 11.2)">o</text><text xml:space="preserve" font-family="Helvetica-Bold,Helvetica" font-weight="bold" font-size="16.0" fill="#000000" transform="matrix(1.00, 0.00, -0.00, -1.00, 600.1, 11.2)">u</text><text xml:space="preserve" font-family="Helvetica-Bold,Helvetica" font-weight="bold" font-size="16.0" fill="#000000" transform="matrix(1.00, 0.00, -0.00, -1.00, 609.9, 11.2)">p</text><text xml:space="preserve" font-family="Helvetica-Bold,Helvetica" font-weight="bold" font-size="16.0" fill="#000000" transform="matrix(1.00, 0.00, -0.00, -1.00, 619.6, 11.2)">@</text><text xml:space="preserve" font-family="Helvetica-Bold,Helvetica" font-weight="bold" font-size="16.0" fill="#000000" transform="matrix(1.00, 0.00, -0.00, -1.00, 635.2, 11.2)">H</text><text xml:space="preserve" font-family="Helvetica-Bold,Helvetica" font-weight="bold" font-size="16.0" fill="#000000" transform="matrix(1.00, 0.00, -0.00, -1.00, 646.8, 11.2)">K</text><text xml:space="preserve" font-family="Helvetica-Bold,Helvetica" font-weight="bold" font-size="16.0" fill="#000000" transform="matrix(1.00, 0.00, -0.00, -1.00, 658.3, 11.2)">U</text><text xml:space="preserve" font-family="Helvetica-Bold,Helvetica" font-weight="bold" font-size="16.0" fill="#000000" transform="matrix(1.00, 0.00, -0.00, -1.00, 669.9, 11.2)">,</text><text xml:space="preserve" font-family="Helvetica-Bold,Helvetica" font-weight="bold" font-size="16.0" fill="#000000" transform="matrix(1.00, 0.00, -0.00, -1.00, 674.3, 11.2)"> </text><text xml:space="preserve" font-family="Helvetica-Bold,Helvetica" font-weight="bold" font-size="16.0" fill="#000000" transform="matrix(1.00, 0.00, -0.00, -1.00, 678.8, 11.2)">2</text><text xml:space="preserve" font-family="Helvetica-Bold,Helvetica" font-weight="bold" font-size="16.0" fill="#000000" transform="matrix(1.00, 0.00, -0.00, -1.00, 687.7, 11.2)">0</text><text xml:space="preserve" font-family="Helvetica-Bold,Helvetica" font-weight="bold" font-size="16.0" fill="#000000" transform="matrix(1.00, 0.00, -0.00, -1.00, 696.6, 11.2)">1</text><text xml:space="preserve" font-family="Helvetica-Bold,Helvetica" font-weight="bold" font-size="16.0" fill="#000000" transform="matrix(1.00, 0.00, -0.00, -1.00, 705.5, 11.2)">2</text><image xlink:href="../../2B9F6D1A-18D3-49C3-8D11-A46AA69B9A61/assets/89A4FBF209A5F70446A113F6291E9AEF.png" width="43.00" height="49.00" transform="matrix(1.00, 0.00, -0.00, -0.99, 364.0, 239.2)" opacity="0.35"></image><path d="M 0.0 0.0 L 33.0 0.0 L 33.0 39.0 L 0.0 39.0 Z M 0.0 0.0 " fill="none" stroke="#ADFFAD" stroke-width="4.00" stroke-linejoin="round" transform="matrix(1.00, 0.00, 0.00, -1.00, 369.0, 236.0)"></path><g><clipPath id="clip0x6000044b7040"><path d="M 346.4 160.7 L 424.2 160.7 L 424.2 200.2 L 346.4 200.2 Z M 346.4 160.7 "></path></clipPath><g clip-path="url(#clip0x6000044b7040)"><image xlink:href="../../2B9F6D1A-18D3-49C3-8D11-A46AA69B9A61/assets/78D530C7A084F2B96294113ED96A4F09.png" width="76.00" height="38.00" transform="matrix(1.00, 0.00, -0.00, -0.99, 347.4, 199.2)" opacity="0.25"></image><path d="M 352.0 194.0 L 418.0 194.0 L 418.0 167.0 L 352.0 167.0 Z M 352.4 194.2 " fill="#000000" fill-opacity="0.40"></path></g></g><image xlink:href="../../2B9F6D1A-18D3-49C3-8D11-A46AA69B9A61/assets/16019F27F341701268F19B9149E21156.png" width="60.00" height="24.00" transform="matrix(1.00, 0.00, -0.00, -1.00, 359.0, 188.0)"></image><g><clipPath id="clip0x6000044b7100"><path d="M 347.0 159.8 L 427.8 159.8 L 427.8 196.8 L 347.0 196.8 Z M 347.0 159.8 "></path></clipPath><g clip-path="url(#clip0x6000044b7100)"><text xml:space="preserve" font-family="Helvetica-Bold,Helvetica" font-weight="bold" font-size="18.0" fill="#B7FFB7" transform="matrix(1.00, 0.00, -0.00, -1.00, 360.3, 173.6)">V</text><text xml:space="preserve" font-family="Helvetica-Bold,Helvetica" font-weight="bold" font-size="18.0" fill="#B7FFB7" transform="matrix(1.00, 0.00, -0.00, -1.00, 372.3, 173.6)"> </text><text xml:space="preserve" font-family="Helvetica-Bold,Helvetica" font-weight="bold" font-size="18.0" fill="#B7FFB7" transform="matrix(1.00, 0.00, -0.00, -1.00, 377.3, 173.6)">s</text><text xml:space="preserve" font-family="Helvetica-Bold,Helvetica" font-weight="bold" font-size="18.0" fill="#B7FFB7" transform="matrix(1.00, 0.00, -0.00, -1.00, 387.3, 173.6)">i</text><text xml:space="preserve" font-family="Helvetica-Bold,Helvetica" font-weight="bold" font-size="18.0" fill="#B7FFB7" transform="matrix(1.00, 0.00, -0.00, -1.00, 392.3, 173.6)">g</text><text xml:space="preserve" font-family="Helvetica-Bold,Helvetica" font-weight="bold" font-size="18.0" fill="#B7FFB7" transform="matrix(1.00, 0.00, -0.00, -1.00, 403.3, 173.6)">n</text></g></g></g></svg>