<?xml version="1.0" encoding="UTF-8" standalone="no"?><svg xmlns="http://www.w3.org/2000/svg" xmlns:xlink="http://www.w3.org/1999/xlink" clip-rule="evenodd" stroke-miterlimit="10" viewBox="0 0 147 186"><desc>SVG generated by Keynote</desc><defs></defs><g transform="matrix(1.00, 0.00, -0.00, -1.00, 0.0, 186.0)"><g><clipPath id="clip0x6000028a83a0"><path d="M 64.1 97.8 L 77.5 97.8 L 77.5 103.9 L 64.1 103.9 Z M 64.1 97.8 "></path></clipPath><g clip-path="url(#clip0x6000028a83a0)"><path d="M 0.0 0.0 C 1.2 0.5 2.3 1.1 3.5 1.4 C 6.8 2.2 8.1 2.1 11.1 2.1 " fill="none" stroke="#009900" stroke-width="2.00" stroke-linejoin="round" transform="matrix(1.00, 0.00, 0.00, -1.00, 65.5, 101.9)"></path></g></g><g><clipPath id="clip0x6000028a8c40"><path d="M 62.9 89.4 L 77.5 89.4 L 77.5 94.2 L 62.9 94.2 Z M 62.9 89.4 "></path></clipPath><g clip-path="url(#clip0x6000028a8c40)"><path d="M 0.0 0.0 C 6.4 1.3 2.3 0.7 12.5 0.7 " fill="none" stroke="#009900" stroke-width="2.00" stroke-linejoin="round" transform="matrix(1.00, 0.00, 0.00, -1.00, 64.1, 92.2)"></path></g></g><g><clipPath id="clip0x6000028a8d00"><path d="M 62.8 80.3 L 87.5 80.3 L 87.5 125.4 L 62.8 125.4 Z M 62.8 80.3 "></path></clipPath><g clip-path="url(#clip0x6000028a8d00)"><path d="M 19.4 14.5 C 17.3 14.3 15.2 13.8 13.2 13.8 C 7.1 13.8 7.3 13.9 3.5 15.2 C 1.3 18.5 1.9 16.5 0.2 21.5 L 0.2 23.5 C 0.5 27.5 -0.5 31.5 0.7 35.3 C 1.3 37.2 3.0 38.8 4.8 39.5 L 9.0 40.8 C 23.4 39.8 16.8 43.3 19.4 38.1 C 19.8 37.3 20.3 36.7 20.8 36.0 C 20.5 25.2 20.5 14.3 20.1 3.5 C 20.0 2.7 19.8 2.0 19.4 1.4 C 18.9 0.7 18.0 0.5 17.3 0.0 C 16.4 0.2 15.2 -0.0 14.5 0.7 C 13.6 1.8 13.2 4.8 13.2 4.8 C 13.9 12.0 13.8 9.0 13.8 13.8 " fill="none" stroke="#009900" stroke-width="2.00" stroke-linejoin="round" transform="matrix(1.00, 0.00, 0.00, -1.00, 64.8, 123.4)"></path></g></g><g><clipPath id="clip0x6000028a8f40"><path d="M 55.6 0.1 L 112.8 0.1 L 112.8 107.9 L 55.6 107.9 Z M 55.6 0.1 "></path></clipPath><g clip-path="url(#clip0x6000028a8f40)"><image xlink:href="../../40E17611-308D-4D59-BD9A-E4633FB42768/assets/B77D3AD048AA8D106914F5DED05B8521.png" width="57.00" height="108.00" transform="matrix(1.00, 0.00, -0.00, -1.00, 55.6, 107.9)" opacity="0.40"></image><image xlink:href="../../40E17611-308D-4D59-BD9A-E4633FB42768/assets/F40163C28D8DA2013AAABE05B2DE9E7B.png" width="379.00" height="823.00" transform="matrix(0.11, 0.00, -0.00, -0.11, 68.2, 95.2)"></image></g></g><g><clipPath id="clip0x6100014a2ee0"><path d="M 0.8 55.5 L 146.6 55.5 L 146.6 149.8 L 0.8 149.8 Z M 0.8 55.5 "></path></clipPath><g clip-path="url(#clip0x6100014a2ee0)"><image xlink:href="../../40E17611-308D-4D59-BD9A-E4633FB42768/assets/DA84F88BB5CEA0228FA8391B86DC7E14.png" width="1570.00" height="1015.00" transform="matrix(0.09, 0.00, -0.00, -0.09, 0.8, 149.8)"></image></g></g><g><clipPath id="clip0x6100014a3000"><path d="M 52.0 158.9 L 137.8 158.9 L 137.8 184.4 L 52.0 184.4 Z M 52.0 158.9 "></path></clipPath><g clip-path="url(#clip0x6100014a3000)"><text xml:space="preserve" font-family="Helvetica,Helvetica" font-size="15.0" fill="#000000" transform="matrix(1.00, 0.00, -0.00, -1.00, 69.0, 166.1)">T</text><text xml:space="preserve" font-family="Helvetica,Helvetica" font-size="15.0" fill="#000000" transform="matrix(1.00, 0.00, -0.00, -1.00, 76.5, 166.1)">a</text><text xml:space="preserve" font-family="Helvetica,Helvetica" font-size="15.0" fill="#000000" transform="matrix(1.00, 0.00, -0.00, -1.00, 84.9, 166.1)">s</text><text xml:space="preserve" font-family="Helvetica,Helvetica" font-size="15.0" fill="#000000" transform="matrix(1.00, 0.00, -0.00, -1.00, 92.4, 166.1)">k</text><text xml:space="preserve" font-family="Helvetica,Helvetica" font-size="15.0" fill="#000000" transform="matrix(1.00, 0.00, -0.00, -1.00, 99.9, 166.1)"> </text><text xml:space="preserve" font-family="Helvetica,Helvetica" font-size="15.0" fill="#000000" transform="matrix(1.00, 0.00, -0.00, -1.00, 104.0, 166.1)">#</text><text xml:space="preserve" font-family="Helvetica,Helvetica" font-size="15.0" fill="#000000" transform="matrix(1.00, 0.00, -0.00, -1.00, 112.4, 166.1)">2</text></g></g></g></svg>