<?xml version="1.0" encoding="UTF-8" standalone="no"?><svg xmlns="http://www.w3.org/2000/svg" xmlns:xlink="http://www.w3.org/1999/xlink" clip-rule="evenodd" stroke-miterlimit="10" viewBox="0 0 147 170"><desc>SVG generated by Keynote</desc><defs></defs><g transform="matrix(1.00, 0.00, -0.00, -1.00, 0.0, 170.0)"><g><clipPath id="clip0x6000028a9120"><path d="M 53.5 57.1 L 84.8 57.1 L 84.8 94.7 L 53.5 94.7 Z M 53.5 57.1 "></path></clipPath><g clip-path="url(#clip0x6000028a9120)"><path d="M 13.2 0.7 C 11.4 0.5 7.5 -0.8 4.2 0.7 C 3.8 0.9 1.2 4.9 0.7 5.6 C 0.5 6.3 0.0 6.9 0.0 7.7 C 0.0 8.3 -0.5 21.7 2.1 25.7 C 4.2 28.8 4.1 29.7 7.0 31.2 C 9.5 32.4 14.0 32.4 16.0 32.6 C 19.5 31.9 19.4 32.6 21.5 29.8 C 22.5 28.5 24.3 25.7 24.3 25.7 C 24.5 24.5 24.7 23.3 25.0 22.2 C 25.1 21.5 25.5 20.8 25.7 20.1 C 25.9 19.2 26.1 18.3 26.4 17.3 C 26.1 14.3 26.8 11.1 25.7 8.3 C 25.0 6.8 22.9 6.5 21.5 5.6 C 18.8 3.8 20.2 4.5 17.4 3.5 C 16.7 3.0 16.1 2.4 15.3 2.1 C 13.9 1.7 15.0 1.0 13.2 0.7 Z M 13.2 0.7 " fill="none" stroke="#009500" stroke-width="3.00" stroke-linejoin="round" transform="matrix(1.00, 0.00, 0.00, -1.00, 56.0, 92.2)"></path></g></g><g><clipPath id="clip0x6000028a9c00"><path d="M 48.6 78.2 L 58.3 78.2 L 58.3 96.8 L 48.6 96.8 Z M 48.6 78.2 "></path></clipPath><g clip-path="url(#clip0x6000028a9c00)"><path d="M 6.2 14.5 C 5.8 13.4 5.4 12.2 4.8 11.1 C 4.5 10.3 3.8 9.7 3.5 9.0 C 2.9 7.8 2.4 5.3 2.1 4.2 C 0.8 -0.2 2.1 0.0 0.0 0.0 " fill="none" stroke="#009900" stroke-width="3.00" stroke-linejoin="round" transform="matrix(1.00, 0.00, 0.00, -1.00, 49.7, 94.3)"></path></g></g><g><clipPath id="clip0x6000028a9f00"><path d="M 59.7 87.0 L 65.4 87.0 L 65.4 115.5 L 59.7 115.5 Z M 59.7 87.0 "></path></clipPath><g clip-path="url(#clip0x6000028a9f00)"><path d="M 0.7 25.0 C 0.5 16.7 0.3 8.4 0.0 0.1 C -0.0 -0.4 0.0 1.0 0.0 1.5 " fill="none" stroke="#009900" stroke-width="3.00" stroke-linejoin="round" transform="matrix(1.00, 0.00, 0.00, -1.00, 62.2, 113.0)"></path></g></g><g><clipPath id="clip0x6000028aa080"><path d="M 67.4 88.9 L 73.3 88.9 L 73.3 115.3 L 67.4 115.3 Z M 67.4 88.9 "></path></clipPath><g clip-path="url(#clip0x6000028aa080)"><path d="M 0.0 24.2 C 1.5 12.5 0.7 20.6 0.7 0.0 " fill="none" stroke="#009900" stroke-width="3.00" stroke-linejoin="round" transform="matrix(1.00, 0.00, 0.00, -1.00, 69.8, 114.3)"></path></g></g><g><clipPath id="clip0x6000028aa1a0"><path d="M 72.2 84.6 L 86.1 84.6 L 86.1 113.7 L 72.2 113.7 Z M 72.2 84.6 "></path></clipPath><g clip-path="url(#clip0x6000028aa1a0)"><path d="M 0.0 26.3 C 1.3 19.7 -0.1 26.0 2.8 17.3 C 3.2 16.0 3.5 13.8 4.2 12.5 C 4.5 11.7 5.1 11.1 5.5 10.4 L 7.8 4.2 L 8.8 2.1 L 8.8 0.2 " fill="none" stroke="#009900" stroke-width="3.00" stroke-linejoin="round" transform="matrix(1.00, 0.00, 0.00, -1.00, 74.7, 112.2)"></path></g></g><g><clipPath id="clip0x6000028aa5c0"><path d="M 76.9 80.3 L 92.0 80.3 L 92.0 94.2 L 76.9 94.2 Z M 76.9 80.3 "></path></clipPath><g clip-path="url(#clip0x6000028aa5c0)"><path d="M 0.0 9.7 C 1.2 8.8 2.3 7.8 3.5 6.9 C 4.1 6.4 5.0 6.2 5.5 5.5 C 6.6 4.3 6.7 1.9 8.3 1.4 C 10.7 0.6 9.9 1.2 11.1 0.0 " fill="none" stroke="#009900" stroke-width="3.00" stroke-linejoin="round" transform="matrix(1.00, 0.00, 0.00, -1.00, 78.8, 92.2)"></path></g></g><g><clipPath id="clip0x6000028aa860"><path d="M 69.7 0.5 L 126.8 0.5 L 126.8 108.3 L 69.7 108.3 Z M 69.7 0.5 "></path></clipPath><g clip-path="url(#clip0x6000028aa860)"><image xlink:href="../../40E17611-308D-4D59-BD9A-E4633FB42768/assets/B77D3AD048AA8D106914F5DED05B8521.png" width="57.00" height="108.00" transform="matrix(1.00, 0.00, -0.00, -1.00, 69.7, 108.3)" opacity="0.40"></image><image xlink:href="../../40E17611-308D-4D59-BD9A-E4633FB42768/assets/F40163C28D8DA2013AAABE05B2DE9E7B.png" width="379.00" height="823.00" transform="matrix(0.11, 0.00, -0.00, -0.11, 82.3, 95.7)"></image></g></g><g><clipPath id="clip0x6100014a38a0"><path d="M 0.6 39.5 L 146.3 39.5 L 146.3 133.8 L 0.6 133.8 Z M 0.6 39.5 "></path></clipPath><g clip-path="url(#clip0x6100014a38a0)"><image xlink:href="../../40E17611-308D-4D59-BD9A-E4633FB42768/assets/DA84F88BB5CEA0228FA8391B86DC7E14.png" width="1570.00" height="1015.00" transform="matrix(0.09, 0.00, -0.00, -0.09, 0.6, 133.8)"></image></g></g><g><clipPath id="clip0x6000028aa920"><path d="M 26.7 143.3 L 112.5 143.3 L 112.5 168.8 L 26.7 168.8 Z M 26.7 143.3 "></path></clipPath><g clip-path="url(#clip0x6000028aa920)"><text xml:space="preserve" font-family="Helvetica,Helvetica" font-size="15.0" fill="#000000" transform="matrix(1.00, 0.00, -0.00, -1.00, 36.3, 150.5)">T</text><text xml:space="preserve" font-family="Helvetica,Helvetica" font-size="15.0" fill="#000000" transform="matrix(1.00, 0.00, -0.00, -1.00, 43.8, 150.5)">a</text><text xml:space="preserve" font-family="Helvetica,Helvetica" font-size="15.0" fill="#000000" transform="matrix(1.00, 0.00, -0.00, -1.00, 52.1, 150.5)">s</text><text xml:space="preserve" font-family="Helvetica,Helvetica" font-size="15.0" fill="#000000" transform="matrix(1.00, 0.00, -0.00, -1.00, 59.6, 150.5)">k</text><text xml:space="preserve" font-family="Helvetica,Helvetica" font-size="15.0" fill="#000000" transform="matrix(1.00, 0.00, -0.00, -1.00, 67.1, 150.5)"> </text><text xml:space="preserve" font-family="Helvetica,Helvetica" font-size="15.0" fill="#000000" transform="matrix(1.00, 0.00, -0.00, -1.00, 71.3, 150.5)">#</text><text xml:space="preserve" font-family="Helvetica,Helvetica" font-size="15.0" fill="#000000" transform="matrix(1.00, 0.00, -0.00, -1.00, 79.6, 150.5)">n</text><text xml:space="preserve" font-family="Helvetica,Helvetica" font-size="15.0" fill="#000000" transform="matrix(1.00, 0.00, -0.00, -1.00, 88.0, 150.5)">…</text></g></g></g></svg>