<?xml version="1.0" encoding="UTF-8" standalone="no"?><svg xmlns="http://www.w3.org/2000/svg" xmlns:xlink="http://www.w3.org/1999/xlink" clip-rule="evenodd" stroke-miterlimit="10" viewBox="0 0 687 183"><desc>SVG generated by Keynote</desc><defs></defs><g transform="matrix(1.00, 0.00, -0.00, -1.00, 0.0, 183.0)"><g><clipPath id="clip0x6000026b8540"><path d="M 0.8 0.4 L 686.5 0.4 L 686.5 182.8 L 0.8 182.8 Z M 0.8 0.4 "></path></clipPath><g clip-path="url(#clip0x6000026b8540)"><path d="M 2.0 182.0 L 685.0 182.0 L 685.0 1.0 L 2.0 1.0 Z M 1.8 181.8 " fill="#FFFFFF" fill-opacity="0.90"></path></g></g><g><clipPath id="clip0x6000026b88a0"><path d="M 177.3 152.5 L 528.2 173.4 L 535.9 43.6 L 185.1 22.7 Z M 177.3 152.5 "></path></clipPath><g clip-path="url(#clip0x6000026b88a0)"><path d="M 179.4 150.6 L 526.3 171.3 L 533.8 45.5 L 186.9 24.8 Z M 179.4 150.6 " fill="#FFFFFF"></path><path d="M 0.0 0.0 L 347.5 0.0 L 347.5 126.0 L 0.0 126.0 Z M 0.0 0.0 " fill="none" stroke="#990000" stroke-width="2.00" stroke-linejoin="round" transform="matrix(1.00, 0.06, 0.06, -1.00, 179.4, 150.6)"></path></g></g><g><clipPath id="clip0x6000026b8de0"><path d="M 179.4 128.6 L 529.1 149.4 L 533.9 67.5 L 184.2 46.7 Z M 179.4 128.6 "></path></clipPath><g clip-path="url(#clip0x6000026b8de0)"><text xml:space="preserve" font-family="Helvetica-Bold,Helvetica" font-weight="bold" font-size="20.0" fill="#C00000" transform="matrix(1.00, 0.06, 0.06, -1.00, 253.6, 108.6)">M</text><text xml:space="preserve" font-family="Helvetica-Bold,Helvetica" font-weight="bold" font-size="20.0" fill="#C00000" transform="matrix(1.00, 0.06, 0.06, -1.00, 270.2, 109.6)">a</text><text xml:space="preserve" font-family="Helvetica-Bold,Helvetica" font-weight="bold" font-size="20.0" fill="#C00000" transform="matrix(1.00, 0.06, 0.06, -1.00, 281.3, 110.2)">n</text><text xml:space="preserve" font-family="Helvetica-Bold,Helvetica" font-weight="bold" font-size="20.0" fill="#C00000" transform="matrix(1.00, 0.06, 0.06, -1.00, 293.5, 110.9)">y</text><text xml:space="preserve" font-family="Helvetica-Bold,Helvetica" font-weight="bold" font-size="20.0" fill="#C00000" transform="matrix(1.00, 0.06, 0.06, -1.00, 304.6, 111.6)"> </text><text xml:space="preserve" font-family="Helvetica-Bold,Helvetica" font-weight="bold" font-size="20.0" fill="#C00000" transform="matrix(1.00, 0.06, 0.06, -1.00, 310.2, 111.9)">t</text><text xml:space="preserve" font-family="Helvetica-Bold,Helvetica" font-weight="bold" font-size="20.0" fill="#C00000" transform="matrix(1.00, 0.06, 0.06, -1.00, 316.8, 112.3)">r</text><text xml:space="preserve" font-family="Helvetica-Bold,Helvetica" font-weight="bold" font-size="20.0" fill="#C00000" transform="matrix(1.00, 0.06, 0.06, -1.00, 324.6, 112.8)">a</text><text xml:space="preserve" font-family="Helvetica-Bold,Helvetica" font-weight="bold" font-size="20.0" fill="#C00000" transform="matrix(1.00, 0.06, 0.06, -1.00, 335.7, 113.5)">i</text><text xml:space="preserve" font-family="Helvetica-Bold,Helvetica" font-weight="bold" font-size="20.0" fill="#C00000" transform="matrix(1.00, 0.06, 0.06, -1.00, 341.2, 113.8)">n</text><text xml:space="preserve" font-family="Helvetica-Bold,Helvetica" font-weight="bold" font-size="20.0" fill="#C00000" transform="matrix(1.00, 0.06, 0.06, -1.00, 353.4, 114.5)">i</text><text xml:space="preserve" font-family="Helvetica-Bold,Helvetica" font-weight="bold" font-size="20.0" fill="#C00000" transform="matrix(1.00, 0.06, 0.06, -1.00, 359.0, 114.8)">n</text><text xml:space="preserve" font-family="Helvetica-Bold,Helvetica" font-weight="bold" font-size="20.0" fill="#C00000" transform="matrix(1.00, 0.06, 0.06, -1.00, 371.2, 115.6)">g</text><text xml:space="preserve" font-family="Helvetica-Bold,Helvetica" font-weight="bold" font-size="20.0" fill="#C00000" transform="matrix(1.00, 0.06, 0.06, -1.00, 383.4, 116.3)"> </text><text xml:space="preserve" font-family="Helvetica-Bold,Helvetica" font-weight="bold" font-size="20.0" fill="#C00000" transform="matrix(1.00, 0.06, 0.06, -1.00, 388.9, 116.6)">i</text><text xml:space="preserve" font-family="Helvetica-Bold,Helvetica" font-weight="bold" font-size="20.0" fill="#C00000" transform="matrix(1.00, 0.06, 0.06, -1.00, 394.4, 116.9)">m</text><text xml:space="preserve" font-family="Helvetica-Bold,Helvetica" font-weight="bold" font-size="20.0" fill="#C00000" transform="matrix(1.00, 0.06, 0.06, -1.00, 412.2, 118.0)">a</text><text xml:space="preserve" font-family="Helvetica-Bold,Helvetica" font-weight="bold" font-size="20.0" fill="#C00000" transform="matrix(1.00, 0.06, 0.06, -1.00, 423.3, 118.7)">g</text><text xml:space="preserve" font-family="Helvetica-Bold,Helvetica" font-weight="bold" font-size="20.0" fill="#C00000" transform="matrix(1.00, 0.06, 0.06, -1.00, 435.5, 119.4)">e</text><text xml:space="preserve" font-family="Helvetica-Bold,Helvetica" font-weight="bold" font-size="20.0" fill="#C00000" transform="matrix(1.00, 0.06, 0.06, -1.00, 446.6, 120.1)">s</text><text xml:space="preserve" font-family="Helvetica-Bold,Helvetica" font-weight="bold" font-size="20.0" fill="#C00000" transform="matrix(1.00, 0.06, 0.06, -1.00, 282.7, 86.3)">V</text><text xml:space="preserve" font-family="Helvetica-Bold,Helvetica" font-weight="bold" font-size="20.0" fill="#C00000" transform="matrix(1.00, 0.06, 0.06, -1.00, 295.0, 87.0)">a</text><text xml:space="preserve" font-family="Helvetica-Bold,Helvetica" font-weight="bold" font-size="20.0" fill="#C00000" transform="matrix(1.00, 0.06, 0.06, -1.00, 306.1, 87.6)">r</text><text xml:space="preserve" font-family="Helvetica-Bold,Helvetica" font-weight="bold" font-size="20.0" fill="#C00000" transform="matrix(1.00, 0.06, 0.06, -1.00, 313.8, 88.1)">i</text><text xml:space="preserve" font-family="Helvetica-Bold,Helvetica" font-weight="bold" font-size="20.0" fill="#C00000" transform="matrix(1.00, 0.06, 0.06, -1.00, 319.4, 88.4)">o</text><text xml:space="preserve" font-family="Helvetica-Bold,Helvetica" font-weight="bold" font-size="20.0" fill="#C00000" transform="matrix(1.00, 0.06, 0.06, -1.00, 331.6, 89.2)">u</text><text xml:space="preserve" font-family="Helvetica-Bold,Helvetica" font-weight="bold" font-size="20.0" fill="#C00000" transform="matrix(1.00, 0.06, 0.06, -1.00, 343.8, 89.9)">s</text><text xml:space="preserve" font-family="Helvetica-Bold,Helvetica" font-weight="bold" font-size="20.0" fill="#C00000" transform="matrix(1.00, 0.06, 0.06, -1.00, 354.9, 90.5)"> </text><text xml:space="preserve" font-family="Helvetica-Bold,Helvetica" font-weight="bold" font-size="20.0" fill="#C00000" transform="matrix(1.00, 0.06, 0.06, -1.00, 360.4, 90.9)">S</text><text xml:space="preserve" font-family="Helvetica-Bold,Helvetica" font-weight="bold" font-size="20.0" fill="#C00000" transform="matrix(1.00, 0.06, 0.06, -1.00, 373.7, 91.7)">h</text><text xml:space="preserve" font-family="Helvetica-Bold,Helvetica" font-weight="bold" font-size="20.0" fill="#C00000" transform="matrix(1.00, 0.06, 0.06, -1.00, 385.9, 92.4)">a</text><text xml:space="preserve" font-family="Helvetica-Bold,Helvetica" font-weight="bold" font-size="20.0" fill="#C00000" transform="matrix(1.00, 0.06, 0.06, -1.00, 397.0, 93.1)">p</text><text xml:space="preserve" font-family="Helvetica-Bold,Helvetica" font-weight="bold" font-size="20.0" fill="#C00000" transform="matrix(1.00, 0.06, 0.06, -1.00, 409.2, 93.8)">e</text><text xml:space="preserve" font-family="Helvetica-Bold,Helvetica" font-weight="bold" font-size="20.0" fill="#C00000" transform="matrix(1.00, 0.06, 0.06, -1.00, 420.3, 94.4)">s</text><text xml:space="preserve" font-family="Helvetica-Bold,Helvetica" font-weight="bold" font-size="20.0" fill="#C00000" transform="matrix(1.00, 0.06, 0.06, -1.00, 251.4, 60.4)">D</text><text xml:space="preserve" font-family="Helvetica-Bold,Helvetica" font-weight="bold" font-size="20.0" fill="#C00000" transform="matrix(1.00, 0.06, 0.06, -1.00, 265.9, 61.2)">i</text><text xml:space="preserve" font-family="Helvetica-Bold,Helvetica" font-weight="bold" font-size="20.0" fill="#C00000" transform="matrix(1.00, 0.06, 0.06, -1.00, 271.4, 61.5)">f</text><text xml:space="preserve" font-family="Helvetica-Bold,Helvetica" font-weight="bold" font-size="20.0" fill="#C00000" transform="matrix(1.00, 0.06, 0.06, -1.00, 278.1, 61.9)">f</text><text xml:space="preserve" font-family="Helvetica-Bold,Helvetica" font-weight="bold" font-size="20.0" fill="#C00000" transform="matrix(1.00, 0.06, 0.06, -1.00, 284.7, 62.3)">e</text><text xml:space="preserve" font-family="Helvetica-Bold,Helvetica" font-weight="bold" font-size="20.0" fill="#C00000" transform="matrix(1.00, 0.06, 0.06, -1.00, 295.8, 63.0)">r</text><text xml:space="preserve" font-family="Helvetica-Bold,Helvetica" font-weight="bold" font-size="20.0" fill="#C00000" transform="matrix(1.00, 0.06, 0.06, -1.00, 303.6, 63.5)">e</text><text xml:space="preserve" font-family="Helvetica-Bold,Helvetica" font-weight="bold" font-size="20.0" fill="#C00000" transform="matrix(1.00, 0.06, 0.06, -1.00, 314.7, 64.1)">n</text><text xml:space="preserve" font-family="Helvetica-Bold,Helvetica" font-weight="bold" font-size="20.0" fill="#C00000" transform="matrix(1.00, 0.06, 0.06, -1.00, 326.9, 64.8)">t</text><text xml:space="preserve" font-family="Helvetica-Bold,Helvetica" font-weight="bold" font-size="20.0" fill="#C00000" transform="matrix(1.00, 0.06, 0.06, -1.00, 333.5, 65.2)"> </text><text xml:space="preserve" font-family="Helvetica-Bold,Helvetica" font-weight="bold" font-size="20.0" fill="#C00000" transform="matrix(1.00, 0.06, 0.06, -1.00, 339.1, 65.6)">r</text><text xml:space="preserve" font-family="Helvetica-Bold,Helvetica" font-weight="bold" font-size="20.0" fill="#C00000" transform="matrix(1.00, 0.06, 0.06, -1.00, 346.9, 66.0)">e</text><text xml:space="preserve" font-family="Helvetica-Bold,Helvetica" font-weight="bold" font-size="20.0" fill="#C00000" transform="matrix(1.00, 0.06, 0.06, -1.00, 358.0, 66.7)">q</text><text xml:space="preserve" font-family="Helvetica-Bold,Helvetica" font-weight="bold" font-size="20.0" fill="#C00000" transform="matrix(1.00, 0.06, 0.06, -1.00, 370.2, 67.4)">u</text><text xml:space="preserve" font-family="Helvetica-Bold,Helvetica" font-weight="bold" font-size="20.0" fill="#C00000" transform="matrix(1.00, 0.06, 0.06, -1.00, 382.3, 68.1)">i</text><text xml:space="preserve" font-family="Helvetica-Bold,Helvetica" font-weight="bold" font-size="20.0" fill="#C00000" transform="matrix(1.00, 0.06, 0.06, -1.00, 387.9, 68.5)">r</text><text xml:space="preserve" font-family="Helvetica-Bold,Helvetica" font-weight="bold" font-size="20.0" fill="#C00000" transform="matrix(1.00, 0.06, 0.06, -1.00, 395.7, 68.9)">e</text><text xml:space="preserve" font-family="Helvetica-Bold,Helvetica" font-weight="bold" font-size="20.0" fill="#C00000" transform="matrix(1.00, 0.06, 0.06, -1.00, 406.8, 69.6)">m</text><text xml:space="preserve" font-family="Helvetica-Bold,Helvetica" font-weight="bold" font-size="20.0" fill="#C00000" transform="matrix(1.00, 0.06, 0.06, -1.00, 424.5, 70.7)">e</text><text xml:space="preserve" font-family="Helvetica-Bold,Helvetica" font-weight="bold" font-size="20.0" fill="#C00000" transform="matrix(1.00, 0.06, 0.06, -1.00, 435.6, 71.3)">n</text><text xml:space="preserve" font-family="Helvetica-Bold,Helvetica" font-weight="bold" font-size="20.0" fill="#C00000" transform="matrix(1.00, 0.06, 0.06, -1.00, 447.8, 72.0)">t</text><text xml:space="preserve" font-family="Helvetica-Bold,Helvetica" font-weight="bold" font-size="20.0" fill="#C00000" transform="matrix(1.00, 0.06, 0.06, -1.00, 454.5, 72.4)">s</text></g></g></g></svg>