<?xml version="1.0" encoding="UTF-8" standalone="no"?><svg xmlns="http://www.w3.org/2000/svg" xmlns:xlink="http://www.w3.org/1999/xlink" clip-rule="evenodd" stroke-miterlimit="10" viewBox="0 0 720 540"><desc>SVG generated by Keynote</desc><defs></defs><g transform="matrix(1.00, 0.00, -0.00, -1.00, 0.0, 540.0)"><path d="M 0.0 540.0 L 720.0 540.0 L 720.0 0.0 L 0.0 0.0 Z M 0.0 540.0 " fill="#FFFFFF"></path><path d="M 0.0 540.0 L 28.0 540.0 L 28.0 485.0 L 0.0 485.0 Z M 0.0 540.0 " fill="#4DC780"></path><path d="M 28.0 540.0 L 722.0 540.0 L 722.0 485.0 L 28.0 485.0 Z M 28.3 540.0 " fill="#009E60"></path><path d="M 0.0 27.0 L 722.0 27.0 L 722.0 -1.0 L 0.0 -1.0 Z M -0.0 27.0 " fill="#009E60"></path><path d="M 694.0 27.0 L 721.0 27.0 L 721.0 -1.0 L 694.0 -1.0 Z M 694.2 27.0 " fill="#4DC780"></path><text xml:space="preserve" font-family="Helvetica-Bold,Helvetica" font-weight="bold" font-size="36.0" fill="#FFFFFF" transform="matrix(1.00, 0.00, -0.00, -1.00, 31.9, 499.7)">S</text><text xml:space="preserve" font-family="Helvetica-Bold,Helvetica" font-weight="bold" font-size="36.0" fill="#FFFFFF" transform="matrix(1.00, 0.00, -0.00, -1.00, 56.0, 499.7)">k</text><text xml:space="preserve" font-family="Helvetica-Bold,Helvetica" font-weight="bold" font-size="36.0" fill="#FFFFFF" transform="matrix(1.00, 0.00, -0.00, -1.00, 76.0, 499.7)">e</text><text xml:space="preserve" font-family="Helvetica-Bold,Helvetica" font-weight="bold" font-size="36.0" fill="#FFFFFF" transform="matrix(1.00, 0.00, -0.00, -1.00, 96.0, 499.7)">t</text><text xml:space="preserve" font-family="Helvetica-Bold,Helvetica" font-weight="bold" font-size="36.0" fill="#FFFFFF" transform="matrix(1.00, 0.00, -0.00, -1.00, 108.0, 499.7)">c</text><text xml:space="preserve" font-family="Helvetica-Bold,Helvetica" font-weight="bold" font-size="36.0" fill="#FFFFFF" transform="matrix(1.00, 0.00, -0.00, -1.00, 128.0, 499.7)">h</text><text xml:space="preserve" font-family="Helvetica-Bold,Helvetica" font-weight="bold" font-size="36.0" fill="#FFFFFF" transform="matrix(1.00, 0.00, -0.00, -1.00, 150.0, 499.7)">i</text><text xml:space="preserve" font-family="Helvetica-Bold,Helvetica" font-weight="bold" font-size="36.0" fill="#FFFFFF" transform="matrix(1.00, 0.00, -0.00, -1.00, 160.0, 499.7)">n</text><text xml:space="preserve" font-family="Helvetica-Bold,Helvetica" font-weight="bold" font-size="36.0" fill="#FFFFFF" transform="matrix(1.00, 0.00, -0.00, -1.00, 182.0, 499.7)">g</text><text xml:space="preserve" font-family="Helvetica-Bold,Helvetica" font-weight="bold" font-size="36.0" fill="#FFFFFF" transform="matrix(1.00, 0.00, -0.00, -1.00, 204.0, 499.7)"> </text><text xml:space="preserve" font-family="Helvetica-Bold,Helvetica" font-weight="bold" font-size="36.0" fill="#FFFFFF" transform="matrix(1.00, 0.00, -0.00, -1.00, 214.0, 499.7)">a</text><text xml:space="preserve" font-family="Helvetica-Bold,Helvetica" font-weight="bold" font-size="36.0" fill="#FFFFFF" transform="matrix(1.00, 0.00, -0.00, -1.00, 234.0, 499.7)"> </text><text xml:space="preserve" font-family="Helvetica-Bold,Helvetica" font-weight="bold" font-size="36.0" fill="#FFFFFF" transform="matrix(1.00, 0.00, -0.00, -1.00, 244.0, 499.7)">H</text><text xml:space="preserve" font-family="Helvetica-Bold,Helvetica" font-weight="bold" font-size="36.0" fill="#FFFFFF" transform="matrix(1.00, 0.00, -0.00, -1.00, 270.0, 499.7)">a</text><text xml:space="preserve" font-family="Helvetica-Bold,Helvetica" font-weight="bold" font-size="36.0" fill="#FFFFFF" transform="matrix(1.00, 0.00, -0.00, -1.00, 290.0, 499.7)">n</text><text xml:space="preserve" font-family="Helvetica-Bold,Helvetica" font-weight="bold" font-size="36.0" fill="#FFFFFF" transform="matrix(1.00, 0.00, -0.00, -1.00, 312.0, 499.7)">d</text><text xml:space="preserve" font-family="Helvetica-Bold,Helvetica" font-weight="bold" font-size="36.0" fill="#FFFFFF" transform="matrix(1.00, 0.00, -0.00, -1.00, 334.0, 499.7)"> </text><text xml:space="preserve" font-family="Helvetica-Bold,Helvetica" font-weight="bold" font-size="36.0" fill="#FFFFFF" transform="matrix(1.00, 0.00, -0.00, -1.00, 344.0, 499.7)">S</text><text xml:space="preserve" font-family="Helvetica-Bold,Helvetica" font-weight="bold" font-size="36.0" fill="#FFFFFF" transform="matrix(1.00, 0.00, -0.00, -1.00, 368.0, 499.7)">h</text><text xml:space="preserve" font-family="Helvetica-Bold,Helvetica" font-weight="bold" font-size="36.0" fill="#FFFFFF" transform="matrix(1.00, 0.00, -0.00, -1.00, 390.0, 499.7)">a</text><text xml:space="preserve" font-family="Helvetica-Bold,Helvetica" font-weight="bold" font-size="36.0" fill="#FFFFFF" transform="matrix(1.00, 0.00, -0.00, -1.00, 410.0, 499.7)">p</text><text xml:space="preserve" font-family="Helvetica-Bold,Helvetica" font-weight="bold" font-size="36.0" fill="#FFFFFF" transform="matrix(1.00, 0.00, -0.00, -1.00, 432.0, 499.7)">e</text><text xml:space="preserve" font-family="Helvetica-Bold,Helvetica" font-weight="bold" font-size="36.0" fill="#FFFFFF" transform="matrix(1.00, 0.00, -0.00, -1.00, 452.0, 499.7)"> </text><text xml:space="preserve" font-family="Helvetica-Bold,Helvetica" font-weight="bold" font-size="36.0" fill="#FFFFFF" transform="matrix(1.00, 0.00, -0.00, -1.00, 462.0, 499.7)">R</text><text xml:space="preserve" font-family="Helvetica-Bold,Helvetica" font-weight="bold" font-size="36.0" fill="#FFFFFF" transform="matrix(1.00, 0.00, -0.00, -1.00, 488.0, 499.7)">e</text><text xml:space="preserve" font-family="Helvetica-Bold,Helvetica" font-weight="bold" font-size="36.0" fill="#FFFFFF" transform="matrix(1.00, 0.00, -0.00, -1.00, 508.1, 499.7)">c</text><text xml:space="preserve" font-family="Helvetica-Bold,Helvetica" font-weight="bold" font-size="36.0" fill="#FFFFFF" transform="matrix(1.00, 0.00, -0.00, -1.00, 528.1, 499.7)">o</text><text xml:space="preserve" font-family="Helvetica-Bold,Helvetica" font-weight="bold" font-size="36.0" fill="#FFFFFF" transform="matrix(1.00, 0.00, -0.00, -1.00, 550.1, 499.7)">g</text><text xml:space="preserve" font-family="Helvetica-Bold,Helvetica" font-weight="bold" font-size="36.0" fill="#FFFFFF" transform="matrix(1.00, 0.00, -0.00, -1.00, 572.0, 499.7)">n</text><text xml:space="preserve" font-family="Helvetica-Bold,Helvetica" font-weight="bold" font-size="36.0" fill="#FFFFFF" transform="matrix(1.00, 0.00, -0.00, -1.00, 594.0, 499.7)">i</text><text xml:space="preserve" font-family="Helvetica-Bold,Helvetica" font-weight="bold" font-size="36.0" fill="#FFFFFF" transform="matrix(1.00, 0.00, -0.00, -1.00, 604.0, 499.7)">s</text><text xml:space="preserve" font-family="Helvetica-Bold,Helvetica" font-weight="bold" font-size="36.0" fill="#FFFFFF" transform="matrix(1.00, 0.00, -0.00, -1.00, 624.1, 499.7)">e</text><text xml:space="preserve" font-family="Helvetica-Bold,Helvetica" font-weight="bold" font-size="36.0" fill="#FFFFFF" transform="matrix(1.00, 0.00, -0.00, -1.00, 644.1, 499.7)">r</text><text xml:space="preserve" font-family="Helvetica,Helvetica" font-size="12.0" fill="#000000" transform="matrix(1.00, 0.00, -0.00, -1.00, 701.1, 8.1)">3</text><text xml:space="preserve" font-family="Helvetica,Helvetica" font-size="12.0" fill="#000000" transform="matrix(1.00, 0.00, -0.00, -1.00, 707.8, 8.1)">2</text><text xml:space="preserve" font-family="Helvetica-Bold,Helvetica" font-weight="bold" font-size="14.0" fill="#DDDDDD" transform="matrix(1.00, 0.00, -0.00, -1.00, 7.6, 462.6)">N</text><text xml:space="preserve" font-family="Helvetica-Bold,Helvetica" font-weight="bold" font-size="14.0" fill="#DDDDDD" transform="matrix(1.00, 0.00, -0.00, -1.00, 17.7, 462.6)">U</text><text xml:space="preserve" font-family="Helvetica-Bold,Helvetica" font-weight="bold" font-size="14.0" fill="#DDDDDD" transform="matrix(1.00, 0.00, -0.00, -1.00, 27.8, 462.6)">I</text><text xml:space="preserve" font-family="Helvetica-Bold,Helvetica" font-weight="bold" font-size="14.0" fill="#DDDDDD" transform="matrix(1.00, 0.00, -0.00, -1.00, 55.1, 462.6)">G</text><text xml:space="preserve" font-family="Helvetica-Bold,Helvetica" font-weight="bold" font-size="14.0" fill="#DDDDDD" transform="matrix(1.00, 0.00, -0.00, -1.00, 66.0, 462.6)">e</text><text xml:space="preserve" font-family="Helvetica-Bold,Helvetica" font-weight="bold" font-size="14.0" fill="#DDDDDD" transform="matrix(1.00, 0.00, -0.00, -1.00, 73.8, 462.6)">s</text><text xml:space="preserve" font-family="Helvetica-Bold,Helvetica" font-weight="bold" font-size="14.0" fill="#DDDDDD" transform="matrix(1.00, 0.00, -0.00, -1.00, 81.6, 462.6)">t</text><text xml:space="preserve" font-family="Helvetica-Bold,Helvetica" font-weight="bold" font-size="14.0" fill="#DDDDDD" transform="matrix(1.00, 0.00, -0.00, -1.00, 86.2, 462.6)">u</text><text xml:space="preserve" font-family="Helvetica-Bold,Helvetica" font-weight="bold" font-size="14.0" fill="#DDDDDD" transform="matrix(1.00, 0.00, -0.00, -1.00, 94.8, 462.6)">r</text><text xml:space="preserve" font-family="Helvetica-Bold,Helvetica" font-weight="bold" font-size="14.0" fill="#DDDDDD" transform="matrix(1.00, 0.00, -0.00, -1.00, 100.2, 462.6)">e</text><text xml:space="preserve" font-family="Helvetica-Bold,Helvetica" font-weight="bold" font-size="14.0" fill="#DDDDDD" transform="matrix(1.00, 0.00, -0.00, -1.00, 41.0, 463.6)">&gt;</text><text xml:space="preserve" font-family="Helvetica-Bold,Helvetica" font-weight="bold" font-size="14.0" fill="#DDDDDD" transform="matrix(1.00, 0.00, -0.00, -1.00, 115.5, 463.6)">&gt;</text><text xml:space="preserve" font-family="Helvetica-Bold,Helvetica" font-weight="bold" font-size="14.0" fill="#DDDDDD" transform="matrix(1.00, 0.00, -0.00, -1.00, 131.3, 462.6)">H</text><text xml:space="preserve" font-family="Helvetica-Bold,Helvetica" font-weight="bold" font-size="14.0" fill="#DDDDDD" transform="matrix(1.00, 0.00, -0.00, -1.00, 141.5, 462.6)">a</text><text xml:space="preserve" font-family="Helvetica-Bold,Helvetica" font-weight="bold" font-size="14.0" fill="#DDDDDD" transform="matrix(1.00, 0.00, -0.00, -1.00, 149.3, 462.6)">n</text><text xml:space="preserve" font-family="Helvetica-Bold,Helvetica" font-weight="bold" font-size="14.0" fill="#DDDDDD" transform="matrix(1.00, 0.00, -0.00, -1.00, 157.8, 462.6)">d</text><text xml:space="preserve" font-family="Helvetica-Bold,Helvetica" font-weight="bold" font-size="14.0" fill="#DDDDDD" transform="matrix(1.00, 0.00, -0.00, -1.00, 166.3, 462.6)"> </text><text xml:space="preserve" font-family="Helvetica-Bold,Helvetica" font-weight="bold" font-size="14.0" fill="#DDDDDD" transform="matrix(1.00, 0.00, -0.00, -1.00, 170.2, 462.6)">S</text><text xml:space="preserve" font-family="Helvetica-Bold,Helvetica" font-weight="bold" font-size="14.0" fill="#DDDDDD" transform="matrix(1.00, 0.00, -0.00, -1.00, 179.6, 462.6)">h</text><text xml:space="preserve" font-family="Helvetica-Bold,Helvetica" font-weight="bold" font-size="14.0" fill="#DDDDDD" transform="matrix(1.00, 0.00, -0.00, -1.00, 188.1, 462.6)">a</text><text xml:space="preserve" font-family="Helvetica-Bold,Helvetica" font-weight="bold" font-size="14.0" fill="#DDDDDD" transform="matrix(1.00, 0.00, -0.00, -1.00, 195.9, 462.6)">p</text><text xml:space="preserve" font-family="Helvetica-Bold,Helvetica" font-weight="bold" font-size="14.0" fill="#DDDDDD" transform="matrix(1.00, 0.00, -0.00, -1.00, 204.5, 462.6)">e</text><text xml:space="preserve" font-family="Helvetica-Bold,Helvetica" font-weight="bold" font-size="14.0" fill="#DDDDDD" transform="matrix(1.00, 0.00, -0.00, -1.00, 212.3, 462.6)"> </text><text xml:space="preserve" font-family="Helvetica-Bold,Helvetica" font-weight="bold" font-size="14.0" fill="#DDDDDD" transform="matrix(1.00, 0.00, -0.00, -1.00, 216.1, 462.6)">R</text><text xml:space="preserve" font-family="Helvetica-Bold,Helvetica" font-weight="bold" font-size="14.0" fill="#DDDDDD" transform="matrix(1.00, 0.00, -0.00, -1.00, 226.3, 462.6)">e</text><text xml:space="preserve" font-family="Helvetica-Bold,Helvetica" font-weight="bold" font-size="14.0" fill="#DDDDDD" transform="matrix(1.00, 0.00, -0.00, -1.00, 234.0, 462.6)">c</text><text xml:space="preserve" font-family="Helvetica-Bold,Helvetica" font-weight="bold" font-size="14.0" fill="#DDDDDD" transform="matrix(1.00, 0.00, -0.00, -1.00, 241.8, 462.6)">o</text><text xml:space="preserve" font-family="Helvetica-Bold,Helvetica" font-weight="bold" font-size="14.0" fill="#DDDDDD" transform="matrix(1.00, 0.00, -0.00, -1.00, 250.4, 462.6)">g</text><text xml:space="preserve" font-family="Helvetica-Bold,Helvetica" font-weight="bold" font-size="14.0" fill="#DDDDDD" transform="matrix(1.00, 0.00, -0.00, -1.00, 258.9, 462.6)">n</text><text xml:space="preserve" font-family="Helvetica-Bold,Helvetica" font-weight="bold" font-size="14.0" fill="#DDDDDD" transform="matrix(1.00, 0.00, -0.00, -1.00, 267.5, 462.6)">i</text><text xml:space="preserve" font-family="Helvetica-Bold,Helvetica" font-weight="bold" font-size="14.0" fill="#DDDDDD" transform="matrix(1.00, 0.00, -0.00, -1.00, 271.4, 462.6)">t</text><text xml:space="preserve" font-family="Helvetica-Bold,Helvetica" font-weight="bold" font-size="14.0" fill="#DDDDDD" transform="matrix(1.00, 0.00, -0.00, -1.00, 276.0, 462.6)">i</text><text xml:space="preserve" font-family="Helvetica-Bold,Helvetica" font-weight="bold" font-size="14.0" fill="#DDDDDD" transform="matrix(1.00, 0.00, -0.00, -1.00, 279.9, 462.6)">o</text><text xml:space="preserve" font-family="Helvetica-Bold,Helvetica" font-weight="bold" font-size="14.0" fill="#DDDDDD" transform="matrix(1.00, 0.00, -0.00, -1.00, 288.5, 462.6)">n</text><text xml:space="preserve" font-family="Helvetica-Bold,Helvetica" font-weight="bold" font-size="14.0" fill="#DDDDDD" transform="matrix(1.00, 0.00, -0.00, -1.00, 302.3, 463.7)">&gt;</text><text xml:space="preserve" font-family="Helvetica-Bold,Helvetica" font-weight="bold" font-size="14.0" fill="#280000" transform="matrix(1.00, 0.00, -0.00, -1.00, 318.2, 462.7)">D</text><text xml:space="preserve" font-family="Helvetica-Bold,Helvetica" font-weight="bold" font-size="14.0" fill="#280000" transform="matrix(1.00, 0.00, -0.00, -1.00, 328.3, 462.7)">r</text><text xml:space="preserve" font-family="Helvetica-Bold,Helvetica" font-weight="bold" font-size="14.0" fill="#280000" transform="matrix(1.00, 0.00, -0.00, -1.00, 333.8, 462.7)">a</text><text xml:space="preserve" font-family="Helvetica-Bold,Helvetica" font-weight="bold" font-size="14.0" fill="#280000" transform="matrix(1.00, 0.00, -0.00, -1.00, 341.6, 462.7)">w</text><text xml:space="preserve" font-family="Helvetica-Bold,Helvetica" font-weight="bold" font-size="14.0" fill="#280000" transform="matrix(1.00, 0.00, -0.00, -1.00, 352.5, 462.7)">i</text><text xml:space="preserve" font-family="Helvetica-Bold,Helvetica" font-weight="bold" font-size="14.0" fill="#280000" transform="matrix(1.00, 0.00, -0.00, -1.00, 356.4, 462.7)">n</text><text xml:space="preserve" font-family="Helvetica-Bold,Helvetica" font-weight="bold" font-size="14.0" fill="#280000" transform="matrix(1.00, 0.00, -0.00, -1.00, 364.9, 462.7)">g</text><text xml:space="preserve" font-family="Helvetica-Bold,Helvetica" font-weight="bold" font-size="14.0" fill="#280000" transform="matrix(1.00, 0.00, -0.00, -1.00, 373.4, 462.7)"> </text><text xml:space="preserve" font-family="Helvetica-Bold,Helvetica" font-weight="bold" font-size="14.0" fill="#280000" transform="matrix(1.00, 0.00, -0.00, -1.00, 377.3, 462.7)">a</text><text xml:space="preserve" font-family="Helvetica-Bold,Helvetica" font-weight="bold" font-size="14.0" fill="#280000" transform="matrix(1.00, 0.00, -0.00, -1.00, 385.1, 462.7)"> </text><text xml:space="preserve" font-family="Helvetica-Bold,Helvetica" font-weight="bold" font-size="14.0" fill="#280000" transform="matrix(1.00, 0.00, -0.00, -1.00, 389.0, 462.7)">H</text><text xml:space="preserve" font-family="Helvetica-Bold,Helvetica" font-weight="bold" font-size="14.0" fill="#280000" transform="matrix(1.00, 0.00, -0.00, -1.00, 399.1, 462.7)">a</text><text xml:space="preserve" font-family="Helvetica-Bold,Helvetica" font-weight="bold" font-size="14.0" fill="#280000" transform="matrix(1.00, 0.00, -0.00, -1.00, 406.9, 462.7)">n</text><text xml:space="preserve" font-family="Helvetica-Bold,Helvetica" font-weight="bold" font-size="14.0" fill="#280000" transform="matrix(1.00, 0.00, -0.00, -1.00, 415.5, 462.7)">d</text><text xml:space="preserve" font-family="Helvetica-Bold,Helvetica" font-weight="bold" font-size="14.0" fill="#280000" transform="matrix(1.00, 0.00, -0.00, -1.00, 424.0, 462.7)"> </text><text xml:space="preserve" font-family="Helvetica-Bold,Helvetica" font-weight="bold" font-size="14.0" fill="#280000" transform="matrix(1.00, 0.00, -0.00, -1.00, 427.9, 462.7)">S</text><text xml:space="preserve" font-family="Helvetica-Bold,Helvetica" font-weight="bold" font-size="14.0" fill="#280000" transform="matrix(1.00, 0.00, -0.00, -1.00, 437.2, 462.7)">h</text><text xml:space="preserve" font-family="Helvetica-Bold,Helvetica" font-weight="bold" font-size="14.0" fill="#280000" transform="matrix(1.00, 0.00, -0.00, -1.00, 445.8, 462.7)">a</text><text xml:space="preserve" font-family="Helvetica-Bold,Helvetica" font-weight="bold" font-size="14.0" fill="#280000" transform="matrix(1.00, 0.00, -0.00, -1.00, 453.6, 462.7)">p</text><text xml:space="preserve" font-family="Helvetica-Bold,Helvetica" font-weight="bold" font-size="14.0" fill="#280000" transform="matrix(1.00, 0.00, -0.00, -1.00, 462.1, 462.7)">e</text><text xml:space="preserve" font-family="Helvetica-Bold,Helvetica" font-weight="bold" font-size="14.0" fill="#280000" transform="matrix(1.00, 0.00, -0.00, -1.00, 469.9, 462.7)"> </text><text xml:space="preserve" font-family="Helvetica-Bold,Helvetica" font-weight="bold" font-size="14.0" fill="#280000" transform="matrix(1.00, 0.00, -0.00, -1.00, 473.8, 462.7)">R</text><text xml:space="preserve" font-family="Helvetica-Bold,Helvetica" font-weight="bold" font-size="14.0" fill="#280000" transform="matrix(1.00, 0.00, -0.00, -1.00, 483.9, 462.7)">e</text><text xml:space="preserve" font-family="Helvetica-Bold,Helvetica" font-weight="bold" font-size="14.0" fill="#280000" transform="matrix(1.00, 0.00, -0.00, -1.00, 491.7, 462.7)">c</text><text xml:space="preserve" font-family="Helvetica-Bold,Helvetica" font-weight="bold" font-size="14.0" fill="#280000" transform="matrix(1.00, 0.00, -0.00, -1.00, 499.5, 462.7)">o</text><text xml:space="preserve" font-family="Helvetica-Bold,Helvetica" font-weight="bold" font-size="14.0" fill="#280000" transform="matrix(1.00, 0.00, -0.00, -1.00, 508.0, 462.7)">g</text><text xml:space="preserve" font-family="Helvetica-Bold,Helvetica" font-weight="bold" font-size="14.0" fill="#280000" transform="matrix(1.00, 0.00, -0.00, -1.00, 516.6, 462.7)">n</text><text xml:space="preserve" font-family="Helvetica-Bold,Helvetica" font-weight="bold" font-size="14.0" fill="#280000" transform="matrix(1.00, 0.00, -0.00, -1.00, 525.1, 462.7)">i</text><text xml:space="preserve" font-family="Helvetica-Bold,Helvetica" font-weight="bold" font-size="14.0" fill="#280000" transform="matrix(1.00, 0.00, -0.00, -1.00, 529.0, 462.7)">s</text><text xml:space="preserve" font-family="Helvetica-Bold,Helvetica" font-weight="bold" font-size="14.0" fill="#280000" transform="matrix(1.00, 0.00, -0.00, -1.00, 536.8, 462.7)">e</text><text xml:space="preserve" font-family="Helvetica-Bold,Helvetica" font-weight="bold" font-size="14.0" fill="#280000" transform="matrix(1.00, 0.00, -0.00, -1.00, 544.6, 462.7)">r</text><image xlink:href="../../A319BE83-C0AE-47D7-AD5D-CC227EE37EA4/assets/D4B3CFAD95F3302CFF93258415120826.png" width="98.00" height="234.00" transform="matrix(0.72, 0.00, -0.00, -0.72, 69.0, 246.5)"></image><image xlink:href="../../A319BE83-C0AE-47D7-AD5D-CC227EE37EA4/assets/FCA4EECF26A508DBB52E40EB8A379717.png" width="100.00" height="64.00" transform="matrix(1.00, 0.00, -0.00, -1.00, 145.1, 218.5)"></image><image xlink:href="../../B49152F6-545D-4785-AD82-8CF98E258513/assets/9D96D2298C6DE550D6C578C0E7CED2E6.png" width="134.00" height="13.00" transform="matrix(1.00, 0.00, -0.00, -0.99, 127.9, 140.1)" opacity="0.38"></image><path d="M 0.1 0.2 L 120.2 0.2 L 121.1 0.2 " fill="none" stroke="#009900" stroke-width="2.00" stroke-linejoin="round" transform="matrix(1.00, 0.00, 0.00, -1.00, 130.9, 135.2)"></path><path d="M 252.3 138.4 L 259.2 135.0 L 252.3 131.6 Z M 252.3 138.4 " fill="#009900"></path><image xlink:href="../../B49152F6-545D-4785-AD82-8CF98E258513/assets/EB1EA3B6C8B803B4FB3903C1F5DC689D.png" width="38.00" height="13.00" transform="matrix(1.01, 0.00, -0.00, -0.99, 363.2, 140.1)" opacity="0.38"></image><path d="M -0.2 0.2 L 24.0 0.2 L 24.8 0.2 " fill="none" stroke="#009900" stroke-width="2.00" stroke-linejoin="round" transform="matrix(1.00, 0.00, 0.00, -1.00, 366.2, 135.2)"></path><path d="M 391.3 138.4 L 398.2 135.0 L 391.3 131.6 Z M 391.3 138.4 " fill="#009900"></path><g><clipPath id="clip0x600003ca0060"><path d="M 409.8 100.4 L 576.2 100.4 L 576.2 173.6 L 409.8 173.6 Z M 409.8 100.4 "></path></clipPath><g clip-path="url(#clip0x600003ca0060)"><path d="M 0.3 -0.4 L 161.2 -0.4 L 161.2 68.6 L 0.3 68.6 Z M 0.0 0.0 " fill="none" stroke="#336633" stroke-width="3.00" transform="matrix(1.00, 0.00, 0.00, -1.00, 412.2, 171.1)"></path></g></g><g><clipPath id="clip0x600003abf020"><path d="M 407.8 110.5 L 578.2 110.5 L 578.2 163.5 L 407.8 163.5 Z M 407.8 110.5 "></path></clipPath><g clip-path="url(#clip0x600003abf020)"><text xml:space="preserve" font-family="Helvetica-Bold,Helvetica" font-weight="bold" font-size="18.0" fill="#000000" transform="matrix(1.00, 0.00, -0.00, -1.00, 441.0, 141.1)">H</text><text xml:space="preserve" font-family="Helvetica-Bold,Helvetica" font-weight="bold" font-size="18.0" fill="#000000" transform="matrix(1.00, 0.00, -0.00, -1.00, 454.0, 141.1)">a</text><text xml:space="preserve" font-family="Helvetica-Bold,Helvetica" font-weight="bold" font-size="18.0" fill="#000000" transform="matrix(1.00, 0.00, -0.00, -1.00, 464.0, 141.1)">n</text><text xml:space="preserve" font-family="Helvetica-Bold,Helvetica" font-weight="bold" font-size="18.0" fill="#000000" transform="matrix(1.00, 0.00, -0.00, -1.00, 475.0, 141.1)">d</text><text xml:space="preserve" font-family="Helvetica-Bold,Helvetica" font-weight="bold" font-size="18.0" fill="#000000" transform="matrix(1.00, 0.00, -0.00, -1.00, 486.0, 141.1)"> </text><text xml:space="preserve" font-family="Helvetica-Bold,Helvetica" font-weight="bold" font-size="18.0" fill="#000000" transform="matrix(1.00, 0.00, -0.00, -1.00, 491.0, 141.1)">S</text><text xml:space="preserve" font-family="Helvetica-Bold,Helvetica" font-weight="bold" font-size="18.0" fill="#000000" transform="matrix(1.00, 0.00, -0.00, -1.00, 503.0, 141.1)">h</text><text xml:space="preserve" font-family="Helvetica-Bold,Helvetica" font-weight="bold" font-size="18.0" fill="#000000" transform="matrix(1.00, 0.00, -0.00, -1.00, 514.0, 141.1)">a</text><text xml:space="preserve" font-family="Helvetica-Bold,Helvetica" font-weight="bold" font-size="18.0" fill="#000000" transform="matrix(1.00, 0.00, -0.00, -1.00, 524.0, 141.1)">p</text><text xml:space="preserve" font-family="Helvetica-Bold,Helvetica" font-weight="bold" font-size="18.0" fill="#000000" transform="matrix(1.00, 0.00, -0.00, -1.00, 535.0, 141.1)">e</text><text xml:space="preserve" font-family="Helvetica-Bold,Helvetica" font-weight="bold" font-size="18.0" fill="#000000" transform="matrix(1.00, 0.00, -0.00, -1.00, 545.0, 141.1)"> </text><text xml:space="preserve" font-family="Helvetica-Bold,Helvetica" font-weight="bold" font-size="18.0" fill="#000000" transform="matrix(1.00, 0.00, -0.00, -1.00, 444.5, 119.1)">R</text><text xml:space="preserve" font-family="Helvetica-Bold,Helvetica" font-weight="bold" font-size="18.0" fill="#000000" transform="matrix(1.00, 0.00, -0.00, -1.00, 457.5, 119.1)">e</text><text xml:space="preserve" font-family="Helvetica-Bold,Helvetica" font-weight="bold" font-size="18.0" fill="#000000" transform="matrix(1.00, 0.00, -0.00, -1.00, 467.5, 119.1)">c</text><text xml:space="preserve" font-family="Helvetica-Bold,Helvetica" font-weight="bold" font-size="18.0" fill="#000000" transform="matrix(1.00, 0.00, -0.00, -1.00, 477.5, 119.1)">o</text><text xml:space="preserve" font-family="Helvetica-Bold,Helvetica" font-weight="bold" font-size="18.0" fill="#000000" transform="matrix(1.00, 0.00, -0.00, -1.00, 488.5, 119.1)">g</text><text xml:space="preserve" font-family="Helvetica-Bold,Helvetica" font-weight="bold" font-size="18.0" fill="#000000" transform="matrix(1.00, 0.00, -0.00, -1.00, 499.5, 119.1)">n</text><text xml:space="preserve" font-family="Helvetica-Bold,Helvetica" font-weight="bold" font-size="18.0" fill="#000000" transform="matrix(1.00, 0.00, -0.00, -1.00, 510.5, 119.1)">i</text><text xml:space="preserve" font-family="Helvetica-Bold,Helvetica" font-weight="bold" font-size="18.0" fill="#000000" transform="matrix(1.00, 0.00, -0.00, -1.00, 515.5, 119.1)">z</text><text xml:space="preserve" font-family="Helvetica-Bold,Helvetica" font-weight="bold" font-size="18.0" fill="#000000" transform="matrix(1.00, 0.00, -0.00, -1.00, 524.5, 119.1)">e</text><text xml:space="preserve" font-family="Helvetica-Bold,Helvetica" font-weight="bold" font-size="18.0" fill="#000000" transform="matrix(1.00, 0.00, -0.00, -1.00, 534.5, 119.1)">r</text></g></g><image xlink:href="../../B49152F6-545D-4785-AD82-8CF98E258513/assets/A83D5C196A510942B7A2CC7A171CAB11.png" width="38.00" height="13.00" transform="matrix(1.01, 0.00, -0.00, -0.99, 584.4, 140.1)" opacity="0.38"></image><path d="M -0.4 0.2 L 24.0 0.2 L 24.6 0.2 " fill="none" stroke="#009900" stroke-width="2.00" stroke-linejoin="round" transform="matrix(1.00, 0.00, 0.00, -1.00, 587.4, 135.2)"></path><path d="M 612.3 138.4 L 619.2 135.0 L 612.3 131.6 Z M 612.3 138.4 " fill="#009900"></path><text xml:space="preserve" font-family="Helvetica-Oblique,Helvetica" font-style="italic" font-size="18.0" fill="#000000" transform="matrix(1.00, 0.00, -0.00, -1.00, 635.3, 131.8)">V</text><text xml:space="preserve" font-family="Helvetica-Oblique,Helvetica" font-style="italic" font-size="18.0" fill="#000000" transform="matrix(1.00, 0.00, -0.00, -1.00, 647.4, 131.8)"> </text><text xml:space="preserve" font-family="Helvetica-Oblique,Helvetica" font-style="italic" font-size="18.0" fill="#000000" transform="matrix(1.00, 0.00, -0.00, -1.00, 652.4, 131.8)">S</text><text xml:space="preserve" font-family="Helvetica-Oblique,Helvetica" font-style="italic" font-size="18.0" fill="#000000" transform="matrix(1.00, 0.00, -0.00, -1.00, 664.4, 131.8)">i</text><text xml:space="preserve" font-family="Helvetica-Oblique,Helvetica" font-style="italic" font-size="18.0" fill="#000000" transform="matrix(1.00, 0.00, -0.00, -1.00, 668.4, 131.8)">g</text><text xml:space="preserve" font-family="Helvetica-Oblique,Helvetica" font-style="italic" font-size="18.0" fill="#000000" transform="matrix(1.00, 0.00, -0.00, -1.00, 678.4, 131.8)">n</text><image xlink:href="../../B49152F6-545D-4785-AD82-8CF98E258513/assets/93AC6162AC0011F5C98D6C39C123FD00.png" width="90.00" height="34.00" transform="matrix(0.00, -1.00, -1.01, 0.00, 533.0, 264.8)" opacity="0.35"></image><path d="M 508.5 194.5 L 502.1 194.5 L 515.9 180.1 L 529.6 194.5 L 522.5 194.5 L 522.5 263.5 L 508.5 263.5 Z M 508.8 194.3 " fill="#002800"></path><path d="M 68.7 21.1 L 68.7 27.5 L 83.1 13.8 L 68.7 0.0 L 68.7 7.1 L -0.3 7.1 L -0.3 21.1 Z M 69.0 20.9 " fill="none" stroke="#002800" stroke-width="0.75" stroke-linejoin="round" transform="matrix(0.00, -1.00, -1.00, 0.00, 529.6, 263.2)"></path><text xml:space="preserve" font-family="Helvetica,Helvetica" font-size="15.0" fill="#000000" transform="matrix(1.00, 0.00, -0.00, -1.00, 531.5, 223.5)">D</text><text xml:space="preserve" font-family="Helvetica,Helvetica" font-size="15.0" fill="#000000" transform="matrix(1.00, 0.00, -0.00, -1.00, 542.3, 223.5)">r</text><text xml:space="preserve" font-family="Helvetica,Helvetica" font-size="15.0" fill="#000000" transform="matrix(1.00, 0.00, -0.00, -1.00, 547.3, 223.5)">a</text><text xml:space="preserve" font-family="Helvetica,Helvetica" font-size="15.0" fill="#000000" transform="matrix(1.00, 0.00, -0.00, -1.00, 555.7, 223.5)">w</text><text xml:space="preserve" font-family="Helvetica,Helvetica" font-size="15.0" fill="#000000" transform="matrix(1.00, 0.00, -0.00, -1.00, 566.5, 223.5)"> </text><text xml:space="preserve" font-family="Helvetica,Helvetica" font-size="15.0" fill="#000000" transform="matrix(1.00, 0.00, -0.00, -1.00, 570.7, 223.5)">a</text><text xml:space="preserve" font-family="Helvetica,Helvetica" font-size="15.0" fill="#000000" transform="matrix(1.00, 0.00, -0.00, -1.00, 579.0, 223.5)"> </text><text xml:space="preserve" font-family="Helvetica,Helvetica" font-size="15.0" fill="#000000" transform="matrix(1.00, 0.00, -0.00, -1.00, 583.2, 223.5)">r</text><text xml:space="preserve" font-family="Helvetica,Helvetica" font-size="15.0" fill="#000000" transform="matrix(1.00, 0.00, -0.00, -1.00, 588.2, 223.5)">e</text><text xml:space="preserve" font-family="Helvetica,Helvetica" font-size="15.0" fill="#000000" transform="matrix(1.00, 0.00, -0.00, -1.00, 596.5, 223.5)">c</text><text xml:space="preserve" font-family="Helvetica,Helvetica" font-size="15.0" fill="#000000" transform="matrix(1.00, 0.00, -0.00, -1.00, 604.0, 223.5)">o</text><text xml:space="preserve" font-family="Helvetica,Helvetica" font-size="15.0" fill="#000000" transform="matrix(1.00, 0.00, -0.00, -1.00, 612.3, 223.5)">g</text><text xml:space="preserve" font-family="Helvetica,Helvetica" font-size="15.0" fill="#000000" transform="matrix(1.00, 0.00, -0.00, -1.00, 620.7, 223.5)">n</text><text xml:space="preserve" font-family="Helvetica,Helvetica" font-size="15.0" fill="#000000" transform="matrix(1.00, 0.00, -0.00, -1.00, 629.0, 223.5)">i</text><text xml:space="preserve" font-family="Helvetica,Helvetica" font-size="15.0" fill="#000000" transform="matrix(1.00, 0.00, -0.00, -1.00, 632.4, 223.5)">s</text><text xml:space="preserve" font-family="Helvetica,Helvetica" font-size="15.0" fill="#000000" transform="matrix(1.00, 0.00, -0.00, -1.00, 639.9, 223.5)">e</text><text xml:space="preserve" font-family="Helvetica,Helvetica" font-size="15.0" fill="#000000" transform="matrix(1.00, 0.00, -0.00, -1.00, 648.2, 223.5)">r</text><image xlink:href="../../A61BA533-7C8B-4B20-83F9-0F6B13ED22A0/assets/71366A3C5E62FB114DBC2B91AA81F164.png" width="37.00" height="102.00" transform="matrix(1.00, 0.00, -0.00, -1.00, 497.4, 372.2)"></image><path d="M 13.0 508.0 L 31.0 508.0 L 31.0 496.0 L 13.0 496.0 Z M 13.5 508.5 " fill="#149D66"></path><text xml:space="preserve" font-family="Helvetica-Bold,Helvetica" font-weight="bold" font-size="15.0" fill="#000000" transform="matrix(1.00, 0.00, -0.00, -1.00, 481.6, 409.6)">S</text><text xml:space="preserve" font-family="Helvetica-Bold,Helvetica" font-weight="bold" font-size="15.0" fill="#000000" transform="matrix(1.00, 0.00, -0.00, -1.00, 491.6, 409.6)">k</text><text xml:space="preserve" font-family="Helvetica-Bold,Helvetica" font-weight="bold" font-size="15.0" fill="#000000" transform="matrix(1.00, 0.00, -0.00, -1.00, 500.0, 409.6)">e</text><text xml:space="preserve" font-family="Helvetica-Bold,Helvetica" font-weight="bold" font-size="15.0" fill="#000000" transform="matrix(1.00, 0.00, -0.00, -1.00, 508.3, 409.6)">t</text><text xml:space="preserve" font-family="Helvetica-Bold,Helvetica" font-weight="bold" font-size="15.0" fill="#000000" transform="matrix(1.00, 0.00, -0.00, -1.00, 513.3, 409.6)">c</text><text xml:space="preserve" font-family="Helvetica-Bold,Helvetica" font-weight="bold" font-size="15.0" fill="#000000" transform="matrix(1.00, 0.00, -0.00, -1.00, 521.6, 409.6)">h</text><text xml:space="preserve" font-family="Helvetica-Bold,Helvetica" font-weight="bold" font-size="15.0" fill="#000000" transform="matrix(1.00, 0.00, -0.00, -1.00, 530.8, 409.6)">e</text><text xml:space="preserve" font-family="Helvetica-Bold,Helvetica" font-weight="bold" font-size="15.0" fill="#000000" transform="matrix(1.00, 0.00, -0.00, -1.00, 539.1, 409.6)">s</text><image xlink:href="../../A319BE83-C0AE-47D7-AD5D-CC227EE37EA4/assets/69B496A867F08A55CC9E85DA4E946CB8.png" width="32.00" height="32.00" transform="matrix(2.56, 0.00, -0.00, -2.56, 271.2, 177.9)"></image></g></svg>