<?xml version="1.0" encoding="UTF-8" standalone="no"?><svg xmlns="http://www.w3.org/2000/svg" xmlns:xlink="http://www.w3.org/1999/xlink" clip-rule="evenodd" stroke-miterlimit="10" viewBox="0 0 720 540"><desc>SVG generated by Keynote</desc><defs></defs><g transform="matrix(1.00, 0.00, -0.00, -1.00, 0.0, 540.0)"><path d="M 0.0 540.0 L 720.0 540.0 L 720.0 0.0 L 0.0 0.0 Z M 0.0 540.0 " fill="#FFFFFF"></path><path d="M 0.0 540.0 L 28.0 540.0 L 28.0 485.0 L 0.0 485.0 Z M 0.0 540.0 " fill="#4DC780"></path><path d="M 28.0 540.0 L 722.0 540.0 L 722.0 485.0 L 28.0 485.0 Z M 28.3 540.0 " fill="#009E60"></path><path d="M 0.0 27.0 L 722.0 27.0 L 722.0 -1.0 L 0.0 -1.0 Z M -0.0 27.0 " fill="#009E60"></path><path d="M 694.0 27.0 L 721.0 27.0 L 721.0 -1.0 L 694.0 -1.0 Z M 694.2 27.0 " fill="#4DC780"></path><text xml:space="preserve" font-family="Helvetica-Bold,Helvetica" font-weight="bold" font-size="36.0" fill="#FFFFFF" transform="matrix(1.00, 0.00, -0.00, -1.00, 31.9, 499.7)">N</text><text xml:space="preserve" font-family="Helvetica-Bold,Helvetica" font-weight="bold" font-size="36.0" fill="#FFFFFF" transform="matrix(1.00, 0.00, -0.00, -1.00, 58.0, 499.7)">a</text><text xml:space="preserve" font-family="Helvetica-Bold,Helvetica" font-weight="bold" font-size="36.0" fill="#FFFFFF" transform="matrix(1.00, 0.00, -0.00, -1.00, 78.0, 499.7)">t</text><text xml:space="preserve" font-family="Helvetica-Bold,Helvetica" font-weight="bold" font-size="36.0" fill="#FFFFFF" transform="matrix(1.00, 0.00, -0.00, -1.00, 90.0, 499.7)">u</text><text xml:space="preserve" font-family="Helvetica-Bold,Helvetica" font-weight="bold" font-size="36.0" fill="#FFFFFF" transform="matrix(1.00, 0.00, -0.00, -1.00, 112.0, 499.7)">r</text><text xml:space="preserve" font-family="Helvetica-Bold,Helvetica" font-weight="bold" font-size="36.0" fill="#FFFFFF" transform="matrix(1.00, 0.00, -0.00, -1.00, 126.0, 499.7)">a</text><text xml:space="preserve" font-family="Helvetica-Bold,Helvetica" font-weight="bold" font-size="36.0" fill="#FFFFFF" transform="matrix(1.00, 0.00, -0.00, -1.00, 146.0, 499.7)">l</text><text xml:space="preserve" font-family="Helvetica-Bold,Helvetica" font-weight="bold" font-size="36.0" fill="#FFFFFF" transform="matrix(1.00, 0.00, -0.00, -1.00, 156.0, 499.7)"> </text><text xml:space="preserve" font-family="Helvetica-Bold,Helvetica" font-weight="bold" font-size="36.0" fill="#FFFFFF" transform="matrix(1.00, 0.00, -0.00, -1.00, 166.0, 499.7)">U</text><text xml:space="preserve" font-family="Helvetica-Bold,Helvetica" font-weight="bold" font-size="36.0" fill="#FFFFFF" transform="matrix(1.00, 0.00, -0.00, -1.00, 192.0, 499.7)">s</text><text xml:space="preserve" font-family="Helvetica-Bold,Helvetica" font-weight="bold" font-size="36.0" fill="#FFFFFF" transform="matrix(1.00, 0.00, -0.00, -1.00, 212.0, 499.7)">e</text><text xml:space="preserve" font-family="Helvetica-Bold,Helvetica" font-weight="bold" font-size="36.0" fill="#FFFFFF" transform="matrix(1.00, 0.00, -0.00, -1.00, 232.0, 499.7)">r</text><text xml:space="preserve" font-family="Helvetica-Bold,Helvetica" font-weight="bold" font-size="36.0" fill="#FFFFFF" transform="matrix(1.00, 0.00, -0.00, -1.00, 246.1, 499.7)"> </text><text xml:space="preserve" font-family="Helvetica-Bold,Helvetica" font-weight="bold" font-size="36.0" fill="#FFFFFF" transform="matrix(1.00, 0.00, -0.00, -1.00, 256.1, 499.7)">I</text><text xml:space="preserve" font-family="Helvetica-Bold,Helvetica" font-weight="bold" font-size="36.0" fill="#FFFFFF" transform="matrix(1.00, 0.00, -0.00, -1.00, 266.1, 499.7)">n</text><text xml:space="preserve" font-family="Helvetica-Bold,Helvetica" font-weight="bold" font-size="36.0" fill="#FFFFFF" transform="matrix(1.00, 0.00, -0.00, -1.00, 288.0, 499.7)">t</text><text xml:space="preserve" font-family="Helvetica-Bold,Helvetica" font-weight="bold" font-size="36.0" fill="#FFFFFF" transform="matrix(1.00, 0.00, -0.00, -1.00, 300.0, 499.7)">e</text><text xml:space="preserve" font-family="Helvetica-Bold,Helvetica" font-weight="bold" font-size="36.0" fill="#FFFFFF" transform="matrix(1.00, 0.00, -0.00, -1.00, 320.1, 499.7)">r</text><text xml:space="preserve" font-family="Helvetica-Bold,Helvetica" font-weight="bold" font-size="36.0" fill="#FFFFFF" transform="matrix(1.00, 0.00, -0.00, -1.00, 334.1, 499.7)">f</text><text xml:space="preserve" font-family="Helvetica-Bold,Helvetica" font-weight="bold" font-size="36.0" fill="#FFFFFF" transform="matrix(1.00, 0.00, -0.00, -1.00, 346.1, 499.7)">a</text><text xml:space="preserve" font-family="Helvetica-Bold,Helvetica" font-weight="bold" font-size="36.0" fill="#FFFFFF" transform="matrix(1.00, 0.00, -0.00, -1.00, 366.1, 499.7)">c</text><text xml:space="preserve" font-family="Helvetica-Bold,Helvetica" font-weight="bold" font-size="36.0" fill="#FFFFFF" transform="matrix(1.00, 0.00, -0.00, -1.00, 386.1, 499.7)">e</text><text xml:space="preserve" font-family="Helvetica-Bold,Helvetica" font-weight="bold" font-size="36.0" fill="#FFFFFF" transform="matrix(1.00, 0.00, -0.00, -1.00, 406.1, 499.7)"> </text><text xml:space="preserve" font-family="Helvetica-Bold,Helvetica" font-weight="bold" font-size="36.0" fill="#FFFFFF" transform="matrix(1.00, 0.00, -0.00, -1.00, 416.1, 499.7)">(</text><text xml:space="preserve" font-family="Helvetica-Bold,Helvetica" font-weight="bold" font-size="36.0" fill="#FFFFFF" transform="matrix(1.00, 0.00, -0.00, -1.00, 428.1, 499.7)">N</text><text xml:space="preserve" font-family="Helvetica-Bold,Helvetica" font-weight="bold" font-size="36.0" fill="#FFFFFF" transform="matrix(1.00, 0.00, -0.00, -1.00, 454.1, 499.7)">U</text><text xml:space="preserve" font-family="Helvetica-Bold,Helvetica" font-weight="bold" font-size="36.0" fill="#FFFFFF" transform="matrix(1.00, 0.00, -0.00, -1.00, 480.1, 499.7)">I</text><text xml:space="preserve" font-family="Helvetica-Bold,Helvetica" font-weight="bold" font-size="36.0" fill="#FFFFFF" transform="matrix(1.00, 0.00, -0.00, -1.00, 490.1, 499.7)">)</text><text xml:space="preserve" font-family="Helvetica,Helvetica" font-size="12.0" fill="#000000" transform="matrix(1.00, 0.00, -0.00, -1.00, 704.4, 8.1)">2</text><g><clipPath id="clip0x6000020a3c00"><path d="M 31.6 218.0 L 207.6 218.0 L 207.6 394.0 L 31.6 394.0 Z M 31.6 218.0 "></path></clipPath><g clip-path="url(#clip0x6000020a3c00)"><image xlink:href="../../F15EE52D-DCC2-4245-8B84-92D03EC0397B/assets/609FC70FE83A67E4AF1E764600EA5EC3.png" width="176.00" height="176.00" transform="matrix(1.00, 0.00, -0.00, -1.00, 31.6, 394.0)"></image></g></g><g><clipPath id="clip0x6000020a7200"><path d="M 71.8 191.9 L 167.3 191.9 L 167.3 222.9 L 71.8 222.9 Z M 71.8 191.9 "></path></clipPath><g clip-path="url(#clip0x6000020a7200)"><text xml:space="preserve" font-family="Helvetica,Helvetica" font-size="18.0" fill="#000000" transform="matrix(1.00, 0.00, -0.00, -1.00, 76.3, 200.5)">G</text><text xml:space="preserve" font-family="Helvetica,Helvetica" font-size="18.0" fill="#000000" transform="matrix(1.00, 0.00, -0.00, -1.00, 90.3, 200.5)">e</text><text xml:space="preserve" font-family="Helvetica,Helvetica" font-size="18.0" fill="#000000" transform="matrix(1.00, 0.00, -0.00, -1.00, 100.4, 200.5)">s</text><text xml:space="preserve" font-family="Helvetica,Helvetica" font-size="18.0" fill="#000000" transform="matrix(1.00, 0.00, -0.00, -1.00, 109.4, 200.5)">t</text><text xml:space="preserve" font-family="Helvetica,Helvetica" font-size="18.0" fill="#000000" transform="matrix(1.00, 0.00, -0.00, -1.00, 114.4, 200.5)">u</text><text xml:space="preserve" font-family="Helvetica,Helvetica" font-size="18.0" fill="#000000" transform="matrix(1.00, 0.00, -0.00, -1.00, 124.4, 200.5)">r</text><text xml:space="preserve" font-family="Helvetica,Helvetica" font-size="18.0" fill="#000000" transform="matrix(1.00, 0.00, -0.00, -1.00, 130.4, 200.5)">e</text></g></g><text xml:space="preserve" font-family="Helvetica,Helvetica" font-size="13.0" fill="#280000" transform="matrix(1.00, 0.00, -0.00, -1.00, 5.0, 6.9)">*</text><text xml:space="preserve" font-family="Helvetica,Helvetica" font-size="13.0" fill="#280000" transform="matrix(1.00, 0.00, -0.00, -1.00, 10.0, 6.9)"> </text><text xml:space="preserve" font-family="Helvetica,Helvetica" font-size="13.0" fill="#280000" transform="matrix(1.00, 0.00, -0.00, -1.00, 13.6, 6.9)">C</text><text xml:space="preserve" font-family="Helvetica,Helvetica" font-size="13.0" fill="#280000" transform="matrix(1.00, 0.00, -0.00, -1.00, 23.0, 6.9)">o</text><text xml:space="preserve" font-family="Helvetica,Helvetica" font-size="13.0" fill="#280000" transform="matrix(1.00, 0.00, -0.00, -1.00, 30.3, 6.9)">u</text><text xml:space="preserve" font-family="Helvetica,Helvetica" font-size="13.0" fill="#280000" transform="matrix(1.00, 0.00, -0.00, -1.00, 37.5, 6.9)">r</text><text xml:space="preserve" font-family="Helvetica,Helvetica" font-size="13.0" fill="#280000" transform="matrix(1.00, 0.00, -0.00, -1.00, 41.8, 6.9)">t</text><text xml:space="preserve" font-family="Helvetica,Helvetica" font-size="13.0" fill="#280000" transform="matrix(1.00, 0.00, -0.00, -1.00, 45.4, 6.9)">e</text><text xml:space="preserve" font-family="Helvetica,Helvetica" font-size="13.0" fill="#280000" transform="matrix(1.00, 0.00, -0.00, -1.00, 52.7, 6.9)">s</text><text xml:space="preserve" font-family="Helvetica,Helvetica" font-size="13.0" fill="#280000" transform="matrix(1.00, 0.00, -0.00, -1.00, 59.2, 6.9)">y</text><text xml:space="preserve" font-family="Helvetica,Helvetica" font-size="13.0" fill="#280000" transform="matrix(1.00, 0.00, -0.00, -1.00, 65.7, 6.9)"> </text><text xml:space="preserve" font-family="Helvetica,Helvetica" font-size="13.0" fill="#280000" transform="matrix(1.00, 0.00, -0.00, -1.00, 69.3, 6.9)">o</text><text xml:space="preserve" font-family="Helvetica,Helvetica" font-size="13.0" fill="#280000" transform="matrix(1.00, 0.00, -0.00, -1.00, 76.5, 6.9)">f</text><text xml:space="preserve" font-family="Helvetica,Helvetica" font-size="13.0" fill="#280000" transform="matrix(1.00, 0.00, -0.00, -1.00, 80.1, 6.9)"> </text><text xml:space="preserve" font-family="Helvetica,Helvetica" font-size="13.0" fill="#280000" transform="matrix(1.00, 0.00, -0.00, -1.00, 83.7, 6.9)">M</text><text xml:space="preserve" font-family="Helvetica,Helvetica" font-size="13.0" fill="#280000" transform="matrix(1.00, 0.00, -0.00, -1.00, 94.6, 6.9)">i</text><text xml:space="preserve" font-family="Helvetica,Helvetica" font-size="13.0" fill="#280000" transform="matrix(1.00, 0.00, -0.00, -1.00, 97.5, 6.9)">c</text><text xml:space="preserve" font-family="Helvetica,Helvetica" font-size="13.0" fill="#280000" transform="matrix(1.00, 0.00, -0.00, -1.00, 104.0, 6.9)">r</text><text xml:space="preserve" font-family="Helvetica,Helvetica" font-size="13.0" fill="#280000" transform="matrix(1.00, 0.00, -0.00, -1.00, 108.3, 6.9)">o</text><text xml:space="preserve" font-family="Helvetica,Helvetica" font-size="13.0" fill="#280000" transform="matrix(1.00, 0.00, -0.00, -1.00, 115.5, 6.9)">s</text><text xml:space="preserve" font-family="Helvetica,Helvetica" font-size="13.0" fill="#280000" transform="matrix(1.00, 0.00, -0.00, -1.00, 122.0, 6.9)">o</text><text xml:space="preserve" font-family="Helvetica,Helvetica" font-size="13.0" fill="#280000" transform="matrix(1.00, 0.00, -0.00, -1.00, 129.2, 6.9)">f</text><text xml:space="preserve" font-family="Helvetica,Helvetica" font-size="13.0" fill="#280000" transform="matrix(1.00, 0.00, -0.00, -1.00, 132.9, 6.9)">t</text><text xml:space="preserve" font-family="Helvetica,Helvetica" font-size="13.0" fill="#280000" transform="matrix(1.00, 0.00, -0.00, -1.00, 136.5, 6.9)"> </text><text xml:space="preserve" font-family="Helvetica,Helvetica" font-size="13.0" fill="#280000" transform="matrix(1.00, 0.00, -0.00, -1.00, 140.1, 6.9)">K</text><text xml:space="preserve" font-family="Helvetica,Helvetica" font-size="13.0" fill="#280000" transform="matrix(1.00, 0.00, -0.00, -1.00, 148.7, 6.9)">i</text><text xml:space="preserve" font-family="Helvetica,Helvetica" font-size="13.0" fill="#280000" transform="matrix(1.00, 0.00, -0.00, -1.00, 151.6, 6.9)">n</text><text xml:space="preserve" font-family="Helvetica,Helvetica" font-size="13.0" fill="#280000" transform="matrix(1.00, 0.00, -0.00, -1.00, 158.9, 6.9)">e</text><text xml:space="preserve" font-family="Helvetica,Helvetica" font-size="13.0" fill="#280000" transform="matrix(1.00, 0.00, -0.00, -1.00, 166.1, 6.9)">c</text><text xml:space="preserve" font-family="Helvetica,Helvetica" font-size="13.0" fill="#280000" transform="matrix(1.00, 0.00, -0.00, -1.00, 172.6, 6.9)">t</text><text xml:space="preserve" font-family="Helvetica,Helvetica" font-size="13.0" fill="#280000" transform="matrix(1.00, 0.00, -0.00, -1.00, 176.2, 6.9)"> </text><text xml:space="preserve" font-family="Helvetica,Helvetica" font-size="13.0" fill="#280000" transform="matrix(1.00, 0.00, -0.00, -1.00, 179.8, 6.9)">N</text><text xml:space="preserve" font-family="Helvetica,Helvetica" font-size="13.0" fill="#280000" transform="matrix(1.00, 0.00, -0.00, -1.00, 189.2, 6.9)">U</text><text xml:space="preserve" font-family="Helvetica,Helvetica" font-size="13.0" fill="#280000" transform="matrix(1.00, 0.00, -0.00, -1.00, 198.6, 6.9)">I</text><text xml:space="preserve" font-family="Helvetica,Helvetica" font-size="13.0" fill="#280000" transform="matrix(1.00, 0.00, -0.00, -1.00, 202.2, 6.9)"> </text><text xml:space="preserve" font-family="Helvetica,Helvetica" font-size="13.0" fill="#280000" transform="matrix(1.00, 0.00, -0.00, -1.00, 205.8, 6.9)">G</text><text xml:space="preserve" font-family="Helvetica,Helvetica" font-size="13.0" fill="#280000" transform="matrix(1.00, 0.00, -0.00, -1.00, 215.9, 6.9)">u</text><text xml:space="preserve" font-family="Helvetica,Helvetica" font-size="13.0" fill="#280000" transform="matrix(1.00, 0.00, -0.00, -1.00, 223.2, 6.9)">i</text><text xml:space="preserve" font-family="Helvetica,Helvetica" font-size="13.0" fill="#280000" transform="matrix(1.00, 0.00, -0.00, -1.00, 226.1, 6.9)">d</text><text xml:space="preserve" font-family="Helvetica,Helvetica" font-size="13.0" fill="#280000" transform="matrix(1.00, 0.00, -0.00, -1.00, 233.3, 6.9)">e</text><text xml:space="preserve" font-family="Helvetica,Helvetica" font-size="13.0" fill="#280000" transform="matrix(1.00, 0.00, -0.00, -1.00, 240.5, 6.9)">l</text><text xml:space="preserve" font-family="Helvetica,Helvetica" font-size="13.0" fill="#280000" transform="matrix(1.00, 0.00, -0.00, -1.00, 243.4, 6.9)">i</text><text xml:space="preserve" font-family="Helvetica,Helvetica" font-size="13.0" fill="#280000" transform="matrix(1.00, 0.00, -0.00, -1.00, 246.3, 6.9)">n</text><text xml:space="preserve" font-family="Helvetica,Helvetica" font-size="13.0" fill="#280000" transform="matrix(1.00, 0.00, -0.00, -1.00, 253.5, 6.9)">e</text><text xml:space="preserve" font-family="Helvetica,Helvetica" font-size="13.0" fill="#280000" transform="matrix(1.00, 0.00, -0.00, -1.00, 260.8, 6.9)">.</text><text xml:space="preserve" font-family="Helvetica-Bold,Helvetica" font-weight="bold" font-size="14.0" fill="#000000" transform="matrix(1.00, 0.00, -0.00, -1.00, 7.6, 462.6)">N</text><text xml:space="preserve" font-family="Helvetica-Bold,Helvetica" font-weight="bold" font-size="14.0" fill="#000000" transform="matrix(1.00, 0.00, -0.00, -1.00, 17.7, 462.6)">U</text><text xml:space="preserve" font-family="Helvetica-Bold,Helvetica" font-weight="bold" font-size="14.0" fill="#000000" transform="matrix(1.00, 0.00, -0.00, -1.00, 27.8, 462.6)">I</text><text xml:space="preserve" font-family="Helvetica-Bold,Helvetica" font-weight="bold" font-size="14.0" fill="#DDDDDD" transform="matrix(1.00, 0.00, -0.00, -1.00, 55.1, 462.6)">G</text><text xml:space="preserve" font-family="Helvetica-Bold,Helvetica" font-weight="bold" font-size="14.0" fill="#DDDDDD" transform="matrix(1.00, 0.00, -0.00, -1.00, 66.0, 462.6)">e</text><text xml:space="preserve" font-family="Helvetica-Bold,Helvetica" font-weight="bold" font-size="14.0" fill="#DDDDDD" transform="matrix(1.00, 0.00, -0.00, -1.00, 73.8, 462.6)">s</text><text xml:space="preserve" font-family="Helvetica-Bold,Helvetica" font-weight="bold" font-size="14.0" fill="#DDDDDD" transform="matrix(1.00, 0.00, -0.00, -1.00, 81.6, 462.6)">t</text><text xml:space="preserve" font-family="Helvetica-Bold,Helvetica" font-weight="bold" font-size="14.0" fill="#DDDDDD" transform="matrix(1.00, 0.00, -0.00, -1.00, 86.2, 462.6)">u</text><text xml:space="preserve" font-family="Helvetica-Bold,Helvetica" font-weight="bold" font-size="14.0" fill="#DDDDDD" transform="matrix(1.00, 0.00, -0.00, -1.00, 94.8, 462.6)">r</text><text xml:space="preserve" font-family="Helvetica-Bold,Helvetica" font-weight="bold" font-size="14.0" fill="#DDDDDD" transform="matrix(1.00, 0.00, -0.00, -1.00, 100.2, 462.6)">e</text><text xml:space="preserve" font-family="Helvetica-Bold,Helvetica" font-weight="bold" font-size="14.0" fill="#DDDDDD" transform="matrix(1.00, 0.00, -0.00, -1.00, 131.3, 462.6)">H</text><text xml:space="preserve" font-family="Helvetica-Bold,Helvetica" font-weight="bold" font-size="14.0" fill="#DDDDDD" transform="matrix(1.00, 0.00, -0.00, -1.00, 141.5, 462.6)">a</text><text xml:space="preserve" font-family="Helvetica-Bold,Helvetica" font-weight="bold" font-size="14.0" fill="#DDDDDD" transform="matrix(1.00, 0.00, -0.00, -1.00, 149.3, 462.6)">n</text><text xml:space="preserve" font-family="Helvetica-Bold,Helvetica" font-weight="bold" font-size="14.0" fill="#DDDDDD" transform="matrix(1.00, 0.00, -0.00, -1.00, 157.8, 462.6)">d</text><text xml:space="preserve" font-family="Helvetica-Bold,Helvetica" font-weight="bold" font-size="14.0" fill="#DDDDDD" transform="matrix(1.00, 0.00, -0.00, -1.00, 166.3, 462.6)"> </text><text xml:space="preserve" font-family="Helvetica-Bold,Helvetica" font-weight="bold" font-size="14.0" fill="#DDDDDD" transform="matrix(1.00, 0.00, -0.00, -1.00, 170.2, 462.6)">S</text><text xml:space="preserve" font-family="Helvetica-Bold,Helvetica" font-weight="bold" font-size="14.0" fill="#DDDDDD" transform="matrix(1.00, 0.00, -0.00, -1.00, 179.6, 462.6)">h</text><text xml:space="preserve" font-family="Helvetica-Bold,Helvetica" font-weight="bold" font-size="14.0" fill="#DDDDDD" transform="matrix(1.00, 0.00, -0.00, -1.00, 188.1, 462.6)">a</text><text xml:space="preserve" font-family="Helvetica-Bold,Helvetica" font-weight="bold" font-size="14.0" fill="#DDDDDD" transform="matrix(1.00, 0.00, -0.00, -1.00, 195.9, 462.6)">p</text><text xml:space="preserve" font-family="Helvetica-Bold,Helvetica" font-weight="bold" font-size="14.0" fill="#DDDDDD" transform="matrix(1.00, 0.00, -0.00, -1.00, 204.5, 462.6)">e</text><text xml:space="preserve" font-family="Helvetica-Bold,Helvetica" font-weight="bold" font-size="14.0" fill="#DDDDDD" transform="matrix(1.00, 0.00, -0.00, -1.00, 41.0, 463.6)">&gt;</text><text xml:space="preserve" font-family="Helvetica-Bold,Helvetica" font-weight="bold" font-size="14.0" fill="#DDDDDD" transform="matrix(1.00, 0.00, -0.00, -1.00, 115.5, 463.6)">&gt;</text><path d="M 14.0 540.0 L 31.0 540.0 L 31.0 528.0 L 14.0 528.0 Z M 13.8 540.0 " fill="#149D66"></path></g></svg>