<?xml version="1.0" encoding="UTF-8" standalone="no"?><svg xmlns="http://www.w3.org/2000/svg" xmlns:xlink="http://www.w3.org/1999/xlink" clip-rule="evenodd" stroke-miterlimit="10" viewBox="0 0 102 126"><desc>SVG generated by Keynote</desc><defs></defs><g transform="matrix(1.00, 0.00, -0.00, -1.00, 0.0, 126.0)"><g><clipPath id="clip0x6000022a2ee0"><path d="M 0.0 126.0 L 102.0 126.0 L 102.0 23.0 L 0.0 23.0 Z M 0.0 125.8 "></path></clipPath><g clip-path="url(#clip0x6000022a2ee0)"><g><clipPath id="clip0x6000022b8ba0"><path d="M 0.0 23.4 L 101.5 23.4 L 101.5 125.7 L 0.0 125.7 Z M 0.0 23.4 "></path></clipPath><g clip-path="url(#clip0x6000022b8ba0)"><image xlink:href="2AE64A38320C0F5D43F945A7DE00B80E.png" width="2145.00" height="595.00" transform="matrix(0.17, 0.00, -0.00, -0.17, 0.0, 125.7)"></image></g></g></g></g><g><clipPath id="clip0x6000022b8b40"><path d="M 22.6 0.9 L 85.9 0.9 L 85.9 31.9 L 22.6 31.9 Z M 22.6 0.9 "></path></clipPath><g clip-path="url(#clip0x6000022b8b40)"><text xml:space="preserve" font-family="Helvetica,Helvetica" font-size="18.0" fill="#000000" transform="matrix(1.00, 0.00, -0.00, -1.00, 27.1, 9.5)">F</text><text xml:space="preserve" font-family="Helvetica,Helvetica" font-size="18.0" fill="#000000" transform="matrix(1.00, 0.00, -0.00, -1.00, 38.1, 9.5)">a</text><text xml:space="preserve" font-family="Helvetica,Helvetica" font-size="18.0" fill="#000000" transform="matrix(1.00, 0.00, -0.00, -1.00, 48.1, 9.5)">c</text><text xml:space="preserve" font-family="Helvetica,Helvetica" font-size="18.0" fill="#000000" transform="matrix(1.00, 0.00, -0.00, -1.00, 57.1, 9.5)">e</text></g></g></g></svg>