<?xml version="1.0" encoding="UTF-8" standalone="no"?><svg xmlns="http://www.w3.org/2000/svg" xmlns:xlink="http://www.w3.org/1999/xlink" clip-rule="evenodd" stroke-miterlimit="10" viewBox="0 0 193 202"><desc>SVG generated by Keynote</desc><defs></defs><g transform="matrix(1.00, 0.00, -0.00, -1.00, 0.0, 202.0)"><g><clipPath id="clip0x6100012b0e00"><path d="M 1.0 202.0 L 193.0 202.0 L 193.0 29.0 L 1.0 29.0 Z M 0.9 201.5 "></path></clipPath><g clip-path="url(#clip0x6100012b0e00)"><g><clipPath id="clip0x6100012a31e0"><path d="M 0.9 28.6 L 192.9 28.6 L 192.9 201.5 L 0.9 201.5 Z M 0.9 28.6 "></path></clipPath><g clip-path="url(#clip0x6100012a31e0)"><image xlink:href="4BFEF69810DA4659D1F179C3FA2DDD4B.png" width="248.00" height="321.00" transform="matrix(0.77, 0.00, -0.00, -0.77, 0.9, 201.5)"></image></g></g></g></g><g><clipPath id="clip0x6000020b96e0"><path d="M 62.6 0.9 L 166.0 0.9 L 166.0 31.9 L 62.6 31.9 Z M 62.6 0.9 "></path></clipPath><g clip-path="url(#clip0x6000020b96e0)"><text xml:space="preserve" font-family="Helvetica,Helvetica" font-size="18.0" fill="#000000" transform="matrix(1.00, 0.00, -0.00, -1.00, 67.1, 9.5)">S</text><text xml:space="preserve" font-family="Helvetica,Helvetica" font-size="18.0" fill="#000000" transform="matrix(1.00, 0.00, -0.00, -1.00, 79.1, 9.5)">k</text><text xml:space="preserve" font-family="Helvetica,Helvetica" font-size="18.0" fill="#000000" transform="matrix(1.00, 0.00, -0.00, -1.00, 88.1, 9.5)">e</text><text xml:space="preserve" font-family="Helvetica,Helvetica" font-size="18.0" fill="#000000" transform="matrix(1.00, 0.00, -0.00, -1.00, 98.1, 9.5)">l</text><text xml:space="preserve" font-family="Helvetica,Helvetica" font-size="18.0" fill="#000000" transform="matrix(1.00, 0.00, -0.00, -1.00, 102.1, 9.5)">e</text><text xml:space="preserve" font-family="Helvetica,Helvetica" font-size="18.0" fill="#000000" transform="matrix(1.00, 0.00, -0.00, -1.00, 112.1, 9.5)">t</text><text xml:space="preserve" font-family="Helvetica,Helvetica" font-size="18.0" fill="#000000" transform="matrix(1.00, 0.00, -0.00, -1.00, 117.1, 9.5)">o</text><text xml:space="preserve" font-family="Helvetica,Helvetica" font-size="18.0" fill="#000000" transform="matrix(1.00, 0.00, -0.00, -1.00, 127.1, 9.5)">n</text></g></g></g></svg>