<?xml version="1.0" encoding="UTF-8" standalone="no"?><svg xmlns="http://www.w3.org/2000/svg" xmlns:xlink="http://www.w3.org/1999/xlink" clip-rule="evenodd" stroke-miterlimit="10" viewBox="0 0 720 540"><desc>SVG generated by Keynote</desc><defs></defs><g transform="matrix(1.00, 0.00, -0.00, -1.00, 0.0, 540.0)"><path d="M 0.0 540.0 L 720.0 540.0 L 720.0 0.0 L 0.0 0.0 Z M 0.0 540.0 " fill="#FFFFFF"></path><path d="M 0.0 540.0 L 28.0 540.0 L 28.0 485.0 L 0.0 485.0 Z M 0.0 540.0 " fill="#4DC780"></path><path d="M 28.0 540.0 L 722.0 540.0 L 722.0 485.0 L 28.0 485.0 Z M 28.3 540.0 " fill="#009E60"></path><path d="M 0.0 27.0 L 722.0 27.0 L 722.0 -1.0 L 0.0 -1.0 Z M -0.0 27.0 " fill="#009E60"></path><path d="M 694.0 27.0 L 721.0 27.0 L 721.0 -1.0 L 694.0 -1.0 Z M 694.2 27.0 " fill="#4DC780"></path><image xlink:href="F910DACFED2F2DB23B04FF08BD897C14.jpeg" width="2048.00" height="1356.00" transform="matrix(0.39, 0.00, -0.00, -0.39, -33.9, 526.5)"></image><image xlink:href="74C93BC6A6B38C5C693F4E269873639E.png" width="284.00" height="27.00" transform="matrix(1.00, 0.00, -0.00, -1.00, 435.0, 29.0)"></image><text xml:space="preserve" font-family="Helvetica-Bold,Helvetica" font-weight="bold" font-size="16.0" fill="#000000" transform="matrix(1.00, 0.00, -0.00, -1.00, 439.5, 11.2)">C</text><text xml:space="preserve" font-family="Helvetica-Bold,Helvetica" font-weight="bold" font-size="16.0" fill="#000000" transform="matrix(1.00, 0.00, -0.00, -1.00, 451.0, 11.2)">o</text><text xml:space="preserve" font-family="Helvetica-Bold,Helvetica" font-weight="bold" font-size="16.0" fill="#000000" transform="matrix(1.00, 0.00, -0.00, -1.00, 460.8, 11.2)">m</text><text xml:space="preserve" font-family="Helvetica-Bold,Helvetica" font-weight="bold" font-size="16.0" fill="#000000" transform="matrix(1.00, 0.00, -0.00, -1.00, 475.0, 11.2)">p</text><text xml:space="preserve" font-family="Helvetica-Bold,Helvetica" font-weight="bold" font-size="16.0" fill="#000000" transform="matrix(1.00, 0.00, -0.00, -1.00, 484.8, 11.2)">u</text><text xml:space="preserve" font-family="Helvetica-Bold,Helvetica" font-weight="bold" font-size="16.0" fill="#000000" transform="matrix(1.00, 0.00, -0.00, -1.00, 494.6, 11.2)">t</text><text xml:space="preserve" font-family="Helvetica-Bold,Helvetica" font-weight="bold" font-size="16.0" fill="#000000" transform="matrix(1.00, 0.00, -0.00, -1.00, 499.9, 11.2)">e</text><text xml:space="preserve" font-family="Helvetica-Bold,Helvetica" font-weight="bold" font-size="16.0" fill="#000000" transform="matrix(1.00, 0.00, -0.00, -1.00, 508.8, 11.2)">r</text><text xml:space="preserve" font-family="Helvetica-Bold,Helvetica" font-weight="bold" font-size="16.0" fill="#000000" transform="matrix(1.00, 0.00, -0.00, -1.00, 515.0, 11.2)"> </text><text xml:space="preserve" font-family="Helvetica-Bold,Helvetica" font-weight="bold" font-size="16.0" fill="#000000" transform="matrix(1.00, 0.00, -0.00, -1.00, 519.5, 11.2)">V</text><text xml:space="preserve" font-family="Helvetica-Bold,Helvetica" font-weight="bold" font-size="16.0" fill="#000000" transform="matrix(1.00, 0.00, -0.00, -1.00, 529.9, 11.2)">i</text><text xml:space="preserve" font-family="Helvetica-Bold,Helvetica" font-weight="bold" font-size="16.0" fill="#000000" transform="matrix(1.00, 0.00, -0.00, -1.00, 534.3, 11.2)">s</text><text xml:space="preserve" font-family="Helvetica-Bold,Helvetica" font-weight="bold" font-size="16.0" fill="#000000" transform="matrix(1.00, 0.00, -0.00, -1.00, 543.2, 11.2)">i</text><text xml:space="preserve" font-family="Helvetica-Bold,Helvetica" font-weight="bold" font-size="16.0" fill="#000000" transform="matrix(1.00, 0.00, -0.00, -1.00, 547.7, 11.2)">o</text><text xml:space="preserve" font-family="Helvetica-Bold,Helvetica" font-weight="bold" font-size="16.0" fill="#000000" transform="matrix(1.00, 0.00, -0.00, -1.00, 557.4, 11.2)">n</text><text xml:space="preserve" font-family="Helvetica-Bold,Helvetica" font-weight="bold" font-size="16.0" fill="#000000" transform="matrix(1.00, 0.00, -0.00, -1.00, 567.2, 11.2)"> </text><text xml:space="preserve" font-family="Helvetica-Bold,Helvetica" font-weight="bold" font-size="16.0" fill="#000000" transform="matrix(1.00, 0.00, -0.00, -1.00, 571.6, 11.2)">G</text><text xml:space="preserve" font-family="Helvetica-Bold,Helvetica" font-weight="bold" font-size="16.0" fill="#000000" transform="matrix(1.00, 0.00, -0.00, -1.00, 584.1, 11.2)">r</text><text xml:space="preserve" font-family="Helvetica-Bold,Helvetica" font-weight="bold" font-size="16.0" fill="#000000" transform="matrix(1.00, 0.00, -0.00, -1.00, 590.3, 11.2)">o</text><text xml:space="preserve" font-family="Helvetica-Bold,Helvetica" font-weight="bold" font-size="16.0" fill="#000000" transform="matrix(1.00, 0.00, -0.00, -1.00, 600.1, 11.2)">u</text><text xml:space="preserve" font-family="Helvetica-Bold,Helvetica" font-weight="bold" font-size="16.0" fill="#000000" transform="matrix(1.00, 0.00, -0.00, -1.00, 609.9, 11.2)">p</text><text xml:space="preserve" font-family="Helvetica-Bold,Helvetica" font-weight="bold" font-size="16.0" fill="#000000" transform="matrix(1.00, 0.00, -0.00, -1.00, 619.6, 11.2)">@</text><text xml:space="preserve" font-family="Helvetica-Bold,Helvetica" font-weight="bold" font-size="16.0" fill="#000000" transform="matrix(1.00, 0.00, -0.00, -1.00, 635.2, 11.2)">H</text><text xml:space="preserve" font-family="Helvetica-Bold,Helvetica" font-weight="bold" font-size="16.0" fill="#000000" transform="matrix(1.00, 0.00, -0.00, -1.00, 646.8, 11.2)">K</text><text xml:space="preserve" font-family="Helvetica-Bold,Helvetica" font-weight="bold" font-size="16.0" fill="#000000" transform="matrix(1.00, 0.00, -0.00, -1.00, 658.3, 11.2)">U</text><text xml:space="preserve" font-family="Helvetica-Bold,Helvetica" font-weight="bold" font-size="16.0" fill="#000000" transform="matrix(1.00, 0.00, -0.00, -1.00, 669.9, 11.2)">,</text><text xml:space="preserve" font-family="Helvetica-Bold,Helvetica" font-weight="bold" font-size="16.0" fill="#000000" transform="matrix(1.00, 0.00, -0.00, -1.00, 674.3, 11.2)"> </text><text xml:space="preserve" font-family="Helvetica-Bold,Helvetica" font-weight="bold" font-size="16.0" fill="#000000" transform="matrix(1.00, 0.00, -0.00, -1.00, 678.8, 11.2)">2</text><text xml:space="preserve" font-family="Helvetica-Bold,Helvetica" font-weight="bold" font-size="16.0" fill="#000000" transform="matrix(1.00, 0.00, -0.00, -1.00, 687.7, 11.2)">0</text><text xml:space="preserve" font-family="Helvetica-Bold,Helvetica" font-weight="bold" font-size="16.0" fill="#000000" transform="matrix(1.00, 0.00, -0.00, -1.00, 696.6, 11.2)">1</text><text xml:space="preserve" font-family="Helvetica-Bold,Helvetica" font-weight="bold" font-size="16.0" fill="#000000" transform="matrix(1.00, 0.00, -0.00, -1.00, 705.5, 11.2)">2</text></g></svg>