<?xml version="1.0" encoding="UTF-8" standalone="no"?><svg xmlns="http://www.w3.org/2000/svg" xmlns:xlink="http://www.w3.org/1999/xlink" clip-rule="evenodd" stroke-miterlimit="10" viewBox="0 0 69 177"><desc>SVG generated by Keynote</desc><defs></defs><g transform="matrix(1.00, 0.00, -0.00, -1.00, 0.0, 177.0)"><g><clipPath id="clip0x6000040bb8a0"><path d="M 22.4 0.4 L 68.1 19.6 L 45.9 72.3 L 0.2 53.1 Z M 22.4 0.4 "></path></clipPath><g clip-path="url(#clip0x6000040bb8a0)"><path d="M 0.0 2.7 L 3.9 2.7 C 8.5 2.9 20.8 -4.4 27.5 4.2 C 33.4 11.7 37.8 28.7 42.2 46.8 L 42.4 47.9 " fill="none" stroke="#008000" stroke-width="2.25" stroke-linejoin="round" transform="matrix(0.92, 0.39, -0.39, 0.92, 22.5, 2.7)"></path><path d="M 42.0 69.3 L 50.1 59.6 L 50.1 59.6 C 50.6 59.0 50.5 58.1 49.9 57.6 C 49.3 57.0 48.4 57.1 47.9 57.7 L 43.0 63.6 L 40.3 56.5 L 40.3 56.5 C 40.0 55.7 39.2 55.3 38.4 55.6 C 37.6 55.9 37.3 56.8 37.5 57.5 C 37.5 57.5 37.5 57.5 37.5 57.5 Z M 42.0 69.3 " fill="#008000"></path></g></g><g><clipPath id="clip0x6000040bbfc0"><path d="M 15.3 67.3 L 68.2 67.3 L 68.2 176.2 L 15.3 176.2 Z M 15.3 67.3 "></path></clipPath><g clip-path="url(#clip0x6000040bbfc0)"><path d="M 17.0 174.0 L 66.0 174.0 L 66.0 69.0 L 17.0 69.0 Z M 17.3 174.2 " fill="#F2F2F2"></path><path d="M -0.3 0.2 L 48.7 0.2 L 48.7 105.2 L -0.3 105.2 Z M 0.0 0.0 " fill="none" stroke="#FFFFFF" stroke-width="2.00" stroke-linejoin="round" transform="matrix(1.00, 0.00, 0.00, -1.00, 17.3, 174.2)"></path></g></g><g><clipPath id="clip0x6000040bc140"><path d="M 18.8 70.5 L 18.8 173.4 L 64.8 173.4 L 64.8 70.5 Z M 18.8 70.5 "></path></clipPath><g clip-path="url(#clip0x6000040bc140)"><text xml:space="preserve" font-family="Helvetica-Bold,Helvetica" font-weight="bold" font-size="16.0" fill="#000000" transform="matrix(0.00, 1.00, 1.00, -0.00, 38.1, 75.7)">H</text><text xml:space="preserve" font-family="Helvetica-Bold,Helvetica" font-weight="bold" font-size="16.0" fill="#000000" transform="matrix(0.00, 1.00, 1.00, -0.00, 38.1, 87.3)">a</text><text xml:space="preserve" font-family="Helvetica-Bold,Helvetica" font-weight="bold" font-size="16.0" fill="#000000" transform="matrix(0.00, 1.00, 1.00, -0.00, 38.1, 96.2)">n</text><text xml:space="preserve" font-family="Helvetica-Bold,Helvetica" font-weight="bold" font-size="16.0" fill="#000000" transform="matrix(0.00, 1.00, 1.00, -0.00, 38.1, 106.0)">d</text><text xml:space="preserve" font-family="Helvetica-Bold,Helvetica" font-weight="bold" font-size="16.0" fill="#000000" transform="matrix(0.00, 1.00, 1.00, -0.00, 38.1, 115.7)"> </text><text xml:space="preserve" font-family="Helvetica-Bold,Helvetica" font-weight="bold" font-size="16.0" fill="#000000" transform="matrix(0.00, 1.00, 1.00, -0.00, 38.1, 120.2)">S</text><text xml:space="preserve" font-family="Helvetica-Bold,Helvetica" font-weight="bold" font-size="16.0" fill="#000000" transform="matrix(0.00, 1.00, 1.00, -0.00, 38.1, 130.8)">h</text><text xml:space="preserve" font-family="Helvetica-Bold,Helvetica" font-weight="bold" font-size="16.0" fill="#000000" transform="matrix(0.00, 1.00, 1.00, -0.00, 38.1, 140.6)">a</text><text xml:space="preserve" font-family="Helvetica-Bold,Helvetica" font-weight="bold" font-size="16.0" fill="#000000" transform="matrix(0.00, 1.00, 1.00, -0.00, 38.1, 149.5)">p</text><text xml:space="preserve" font-family="Helvetica-Bold,Helvetica" font-weight="bold" font-size="16.0" fill="#000000" transform="matrix(0.00, 1.00, 1.00, -0.00, 38.1, 159.3)">e</text><text xml:space="preserve" font-family="Helvetica-Bold,Helvetica" font-weight="bold" font-size="16.0" fill="#000000" transform="matrix(0.00, 1.00, 1.00, -0.00, 38.1, 168.2)"> </text><text xml:space="preserve" font-family="Helvetica-Bold,Helvetica" font-weight="bold" font-size="16.0" fill="#000000" transform="matrix(0.00, 1.00, 1.00, -0.00, 57.1, 85.9)">C</text><text xml:space="preserve" font-family="Helvetica-Bold,Helvetica" font-weight="bold" font-size="16.0" fill="#000000" transform="matrix(0.00, 1.00, 1.00, -0.00, 57.1, 97.5)">l</text><text xml:space="preserve" font-family="Helvetica-Bold,Helvetica" font-weight="bold" font-size="16.0" fill="#000000" transform="matrix(0.00, 1.00, 1.00, -0.00, 57.1, 101.9)">a</text><text xml:space="preserve" font-family="Helvetica-Bold,Helvetica" font-weight="bold" font-size="16.0" fill="#000000" transform="matrix(0.00, 1.00, 1.00, -0.00, 57.1, 110.8)">s</text><text xml:space="preserve" font-family="Helvetica-Bold,Helvetica" font-weight="bold" font-size="16.0" fill="#000000" transform="matrix(0.00, 1.00, 1.00, -0.00, 57.1, 119.7)">s</text><text xml:space="preserve" font-family="Helvetica-Bold,Helvetica" font-weight="bold" font-size="16.0" fill="#000000" transform="matrix(0.00, 1.00, 1.00, -0.00, 57.1, 128.6)">i</text><text xml:space="preserve" font-family="Helvetica-Bold,Helvetica" font-weight="bold" font-size="16.0" fill="#000000" transform="matrix(0.00, 1.00, 1.00, -0.00, 57.1, 133.1)">f</text><text xml:space="preserve" font-family="Helvetica-Bold,Helvetica" font-weight="bold" font-size="16.0" fill="#000000" transform="matrix(0.00, 1.00, 1.00, -0.00, 57.1, 138.4)">i</text><text xml:space="preserve" font-family="Helvetica-Bold,Helvetica" font-weight="bold" font-size="16.0" fill="#000000" transform="matrix(0.00, 1.00, 1.00, -0.00, 57.1, 142.9)">e</text><text xml:space="preserve" font-family="Helvetica-Bold,Helvetica" font-weight="bold" font-size="16.0" fill="#000000" transform="matrix(0.00, 1.00, 1.00, -0.00, 57.1, 151.8)">r</text></g></g></g></svg>