<?xml version="1.0" encoding="UTF-8" standalone="no"?><svg xmlns="http://www.w3.org/2000/svg" xmlns:xlink="http://www.w3.org/1999/xlink" clip-rule="evenodd" stroke-miterlimit="10" viewBox="0 0 664 148"><desc>SVG generated by Keynote</desc><defs></defs><g transform="matrix(1.00, 0.00, -0.00, -1.00, 0.0, 148.0)"><g><clipPath id="clip0x6000042a49e0"><path d="M 21.6 58.4 L 56.5 58.4 L 56.5 93.3 L 21.6 93.3 Z M 21.6 58.4 "></path></clipPath><g clip-path="url(#clip0x6000042a49e0)"><image xlink:href="12594B7F2A6E735FA7E6284F816E06A5.png" width="32.00" height="32.00" transform="matrix(1.09, 0.00, -0.00, -1.09, 21.6, 93.3)"></image></g></g><g><clipPath id="clip0x6000042a4a40"><path d="M 489.5 62.3 L 511.4 62.3 L 511.4 116.3 L 489.5 116.3 Z M 489.5 62.3 "></path></clipPath><g clip-path="url(#clip0x6000042a4a40)"><text xml:space="preserve" font-family="Helvetica,Helvetica" font-size="32.0" fill="#000000" transform="matrix(1.00, 0.00, -0.00, -1.00, 489.5, 77.7)">…</text></g></g><g><clipPath id="clip0x6000042a5e20"><path d="M 489.5 21.2 L 511.4 21.2 L 511.4 75.2 L 489.5 75.2 Z M 489.5 21.2 "></path></clipPath><g clip-path="url(#clip0x6000042a5e20)"><text xml:space="preserve" font-family="Helvetica,Helvetica" font-size="32.0" fill="#000000" transform="matrix(1.00, 0.00, -0.00, -1.00, 489.5, 36.6)">…</text></g></g><g><clipPath id="clip0x6000042a6060"><path d="M 80.0 47.4 L 122.0 47.4 L 122.0 63.3 L 80.0 63.3 Z M 80.0 47.4 "></path></clipPath><g clip-path="url(#clip0x6000042a6060)"><path d="M 0.0 0.1 L 3.5 0.1 C 7.6 0.1 18.6 -0.9 24.6 0.8 C 28.2 1.9 31.1 3.9 33.9 6.1 L 35.0 7.1 " fill="none" stroke="#008000" stroke-width="2.00" stroke-linejoin="round" transform="matrix(1.00, 0.00, 0.00, -1.00, 81.0, 60.1)"></path><path d="M 120.5 48.9 L 116.7 60.9 L 116.7 60.9 C 116.5 61.7 115.7 62.1 114.9 61.9 C 114.1 61.6 113.7 60.8 113.9 60.1 L 116.2 52.8 L 108.8 54.4 L 108.8 54.4 C 108.0 54.5 107.2 54.0 107.0 53.2 C 106.9 52.5 107.4 51.7 108.2 51.5 C 108.2 51.5 108.2 51.5 108.2 51.5 Z M 120.5 48.9 " fill="#008000"></path></g></g><g><clipPath id="clip0x6000042a6360"><path d="M 361.9 39.0 L 393.3 39.0 L 393.3 54.2 L 361.9 54.2 Z M 361.9 39.0 "></path></clipPath><g clip-path="url(#clip0x6000042a6360)"><path d="M 0.1 -0.4 L 22.1 -0.4 L 23.1 -0.4 " fill="none" stroke="#008000" stroke-width="2.00" stroke-linejoin="round" transform="matrix(1.00, 0.00, 0.00, -1.00, 362.9, 46.6)"></path><path d="M 392.1 47.0 L 381.2 53.4 L 381.2 53.4 C 380.5 53.8 379.6 53.5 379.2 52.8 C 378.8 52.1 379.0 51.2 379.7 50.8 L 386.3 47.0 L 379.7 43.2 L 379.7 43.2 C 379.0 42.8 378.8 41.9 379.2 41.2 C 379.6 40.5 380.5 40.2 381.2 40.6 C 381.2 40.6 381.2 40.6 381.2 40.6 Z M 392.1 47.0 " fill="#008000"></path></g></g><g><clipPath id="clip0x6000042a6660"><path d="M 1.6 94.5 L 71.2 94.5 L 71.2 118.7 L 1.6 118.7 Z M 1.6 94.5 "></path></clipPath><g clip-path="url(#clip0x6000042a6660)"><text xml:space="preserve" font-family="Helvetica-Bold,Helvetica" font-weight="bold" font-size="14.0" fill="#000000" transform="matrix(1.00, 0.00, -0.00, -1.00, 5.2, 101.3)">S</text><text xml:space="preserve" font-family="Helvetica-Bold,Helvetica" font-weight="bold" font-size="14.0" fill="#000000" transform="matrix(1.00, 0.00, -0.00, -1.00, 14.5, 101.3)">k</text><text xml:space="preserve" font-family="Helvetica-Bold,Helvetica" font-weight="bold" font-size="14.0" fill="#000000" transform="matrix(1.00, 0.00, -0.00, -1.00, 22.3, 101.3)">e</text><text xml:space="preserve" font-family="Helvetica-Bold,Helvetica" font-weight="bold" font-size="14.0" fill="#000000" transform="matrix(1.00, 0.00, -0.00, -1.00, 30.1, 101.3)">t</text><text xml:space="preserve" font-family="Helvetica-Bold,Helvetica" font-weight="bold" font-size="14.0" fill="#000000" transform="matrix(1.00, 0.00, -0.00, -1.00, 34.7, 101.3)">c</text><text xml:space="preserve" font-family="Helvetica-Bold,Helvetica" font-weight="bold" font-size="14.0" fill="#000000" transform="matrix(1.00, 0.00, -0.00, -1.00, 42.5, 101.3)">h</text><text xml:space="preserve" font-family="Helvetica-Bold,Helvetica" font-weight="bold" font-size="14.0" fill="#000000" transform="matrix(1.00, 0.00, -0.00, -1.00, 51.1, 101.3)">e</text><text xml:space="preserve" font-family="Helvetica-Bold,Helvetica" font-weight="bold" font-size="14.0" fill="#000000" transform="matrix(1.00, 0.00, -0.00, -1.00, 58.9, 101.3)">s</text></g></g><g><clipPath id="clip0x6000042a6b40"><path d="M 456.5 23.1 L 491.8 23.1 L 491.8 58.4 L 456.5 58.4 Z M 456.5 23.1 "></path></clipPath><g clip-path="url(#clip0x6000042a6b40)"><image xlink:href="../../18AEFA53-5962-4751-B48C-8EE8462EA4B2/assets/6AA24C419849F30B3818C3BEDDE2D3C2.png" width="32.00" height="32.00" transform="matrix(1.10, 0.00, -0.00, -1.10, 456.5, 58.4)"></image></g></g><g><clipPath id="clip0x6000042a6ba0"><path d="M 423.3 23.1 L 458.5 23.1 L 458.5 58.4 L 423.3 58.4 Z M 423.3 23.1 "></path></clipPath><g clip-path="url(#clip0x6000042a6ba0)"><image xlink:href="../../18AEFA53-5962-4751-B48C-8EE8462EA4B2/assets/18992CFF32C680A2FD7B93743E2F8A79.png" width="32.00" height="32.00" transform="matrix(1.10, 0.00, -0.00, -1.10, 423.3, 58.4)"></image></g></g><g><clipPath id="clip0x6000042a6de0"><path d="M 21.4 23.1 L 56.7 23.1 L 56.7 58.4 L 21.4 58.4 Z M 21.4 23.1 "></path></clipPath><g clip-path="url(#clip0x6000042a6de0)"><image xlink:href="9927FC786ED6525E30E9EE43FF1AA2B1.png" width="32.00" height="32.00" transform="matrix(1.10, 0.00, -0.00, -1.10, 21.4, 58.4)"></image></g></g><g><clipPath id="clip0x610001aabd60"><path d="M 23.5 0.0 L 45.4 0.0 L 45.4 51.7 L 23.5 51.7 Z M 23.5 0.0 "></path></clipPath><g clip-path="url(#clip0x610001aabd60)"><text xml:space="preserve" font-family="Helvetica,Helvetica" font-size="32.0" fill="#000000" transform="matrix(1.00, 0.00, -0.00, -1.00, 23.5, 13.1)">…</text></g></g><g><clipPath id="clip0x610001aad740"><path d="M 460.4 0.0 L 482.3 0.0 L 482.3 50.8 L 460.4 50.8 Z M 460.4 0.0 "></path></clipPath><g clip-path="url(#clip0x610001aad740)"><text xml:space="preserve" font-family="Helvetica,Helvetica" font-size="32.0" fill="#000000" transform="matrix(1.00, 0.00, -0.00, -1.00, 460.4, 12.2)">…</text></g></g><g><clipPath id="clip0x610001aae160"><path d="M 422.9 59.1 L 458.1 59.1 L 458.1 94.3 L 422.9 94.3 Z M 422.9 59.1 "></path></clipPath><g clip-path="url(#clip0x610001aae160)"><image xlink:href="../../18AEFA53-5962-4751-B48C-8EE8462EA4B2/assets/9FC1F856575A200B071CC0C1FD46E57E.png" width="32.00" height="32.00" transform="matrix(1.10, 0.00, -0.00, -1.10, 422.9, 94.3)"></image></g></g><g><clipPath id="clip0x610001aae4c0"><path d="M 456.5 59.1 L 491.8 59.1 L 491.8 94.3 L 456.5 94.3 Z M 456.5 59.1 "></path></clipPath><g clip-path="url(#clip0x610001aae4c0)"><image xlink:href="../../18AEFA53-5962-4751-B48C-8EE8462EA4B2/assets/DE615385039F5AF294DDA4FFD3C72C6F.png" width="32.00" height="32.00" transform="matrix(1.10, 0.00, -0.00, -1.10, 456.5, 94.3)"></image></g></g><g><clipPath id="clip0x610001aaf360"><path d="M 408.1 57.3 L 528.8 57.3 L 528.8 96.1 L 408.1 96.1 Z M 408.1 57.3 "></path></clipPath><g clip-path="url(#clip0x610001aaf360)"><path d="M 6.7 35.2 C 4.8 35.2 3.1 33.8 3.1 31.9 L 3.1 20.9 C 3.1 19.1 1.8 17.6 0.0 17.6 C 1.8 17.6 3.1 16.1 3.1 14.3 L 3.1 3.3 C 3.1 1.5 4.8 0.0 6.7 0.0 M 110.5 0.0 C 112.3 0.0 114.1 1.5 114.1 3.3 L 114.1 14.3 C 114.1 16.1 115.3 17.6 117.1 17.6 C 115.3 17.6 114.1 19.1 114.1 20.9 L 114.1 31.9 C 114.1 33.8 112.3 35.2 110.5 35.2 " fill="none" stroke="#000000" stroke-width="2.00" stroke-linejoin="round" transform="matrix(1.00, 0.00, 0.00, -1.00, 409.9, 94.3)"></path></g></g><g><clipPath id="clip0x610001ab02c0"><path d="M 408.1 21.4 L 528.8 21.4 L 528.8 60.1 L 408.1 60.1 Z M 408.1 21.4 "></path></clipPath><g clip-path="url(#clip0x610001ab02c0)"><path d="M 6.7 35.2 C 4.8 35.2 3.1 33.8 3.1 31.9 L 3.1 20.9 C 3.1 19.1 1.8 17.6 0.0 17.6 C 1.8 17.6 3.1 16.1 3.1 14.3 L 3.1 3.3 C 3.1 1.5 4.8 0.0 6.7 0.0 M 110.5 0.0 C 112.3 0.0 114.1 1.5 114.1 3.3 L 114.1 14.3 C 114.1 16.1 115.3 17.6 117.1 17.6 C 115.3 17.6 114.1 19.1 114.1 20.9 L 114.1 31.9 C 114.1 33.8 112.3 35.2 110.5 35.2 " fill="none" stroke="#000000" stroke-width="2.00" stroke-linejoin="round" transform="matrix(1.00, 0.00, 0.00, -1.00, 409.9, 58.4)"></path></g></g><g><clipPath id="clip0x610001ab25a0"><path d="M 9.5 145.1 L 175.9 145.1 L 175.9 147.8 L 9.5 147.8 Z M 9.5 145.1 "></path></clipPath><g clip-path="url(#clip0x610001ab25a0)"><path d="M -0.5 -0.0 L 164.5 -0.0 " fill="none" stroke="#000000" stroke-width="0.75" stroke-linejoin="round" stroke-dasharray="3.0, 2.2" transform="matrix(1.00, 0.00, 0.00, -1.00, 10.5, 146.5)"></path></g></g><g><clipPath id="clip0x610001ab23c0"><path d="M 4.6 124.1 L 55.6 124.1 L 55.6 144.3 L 4.6 144.3 Z M 4.6 124.1 "></path></clipPath><g clip-path="url(#clip0x610001ab23c0)"><text xml:space="preserve" font-family="Helvetica-Bold,Helvetica" font-weight="bold" font-size="11.0" fill="#7F7F7F" transform="matrix(1.00, 0.00, -0.00, -1.00, 8.2, 130.2)">T</text><text xml:space="preserve" font-family="Helvetica-Bold,Helvetica" font-weight="bold" font-size="11.0" fill="#7F7F7F" transform="matrix(1.00, 0.00, -0.00, -1.00, 14.3, 130.2)">r</text><text xml:space="preserve" font-family="Helvetica-Bold,Helvetica" font-weight="bold" font-size="11.0" fill="#7F7F7F" transform="matrix(1.00, 0.00, -0.00, -1.00, 18.6, 130.2)">a</text><text xml:space="preserve" font-family="Helvetica-Bold,Helvetica" font-weight="bold" font-size="11.0" fill="#7F7F7F" transform="matrix(1.00, 0.00, -0.00, -1.00, 24.7, 130.2)">i</text><text xml:space="preserve" font-family="Helvetica-Bold,Helvetica" font-weight="bold" font-size="11.0" fill="#7F7F7F" transform="matrix(1.00, 0.00, -0.00, -1.00, 27.8, 130.2)">n</text><text xml:space="preserve" font-family="Helvetica-Bold,Helvetica" font-weight="bold" font-size="11.0" fill="#7F7F7F" transform="matrix(1.00, 0.00, -0.00, -1.00, 34.5, 130.2)">i</text><text xml:space="preserve" font-family="Helvetica-Bold,Helvetica" font-weight="bold" font-size="11.0" fill="#7F7F7F" transform="matrix(1.00, 0.00, -0.00, -1.00, 37.6, 130.2)">n</text><text xml:space="preserve" font-family="Helvetica-Bold,Helvetica" font-weight="bold" font-size="11.0" fill="#7F7F7F" transform="matrix(1.00, 0.00, -0.00, -1.00, 44.3, 130.2)">g</text></g></g><g><clipPath id="clip0x610001ab1ee0"><path d="M 361.9 145.1 L 522.5 145.1 L 522.5 147.8 L 361.9 147.8 Z M 361.9 145.1 "></path></clipPath><g clip-path="url(#clip0x610001ab1ee0)"><path d="M 0.1 -0.0 L 159.1 -0.0 " fill="none" stroke="#000000" stroke-width="0.75" stroke-linejoin="round" stroke-dasharray="3.0, 2.2" transform="matrix(1.00, 0.00, 0.00, -1.00, 362.9, 146.5)"></path></g></g><g><clipPath id="clip0x610001ab2900"><path d="M 579.2 145.1 L 663.5 145.1 L 663.5 147.8 L 579.2 147.8 Z M 579.2 145.1 "></path></clipPath><g clip-path="url(#clip0x610001ab2900)"><path d="M -0.2 -0.0 L 81.8 -0.0 " fill="none" stroke="#000000" stroke-width="0.75" stroke-linejoin="round" stroke-dasharray="3.0, 2.2" transform="matrix(1.00, 0.00, 0.00, -1.00, 580.2, 146.5)"></path></g></g></g></svg>