<?xml version="1.0" encoding="UTF-8" standalone="no"?><svg xmlns="http://www.w3.org/2000/svg" xmlns:xlink="http://www.w3.org/1999/xlink" clip-rule="evenodd" stroke-miterlimit="10" viewBox="0 0 294 263"><desc>SVG generated by Keynote</desc><defs></defs><g transform="matrix(1.00, 0.00, -0.00, -1.00, 0.0, 263.0)"><g><clipPath id="clip0x610001ab70a0"><path d="M 115.8 5.8 L 115.9 36.9 L 131.0 36.9 L 130.9 5.7 Z M 115.8 5.8 "></path></clipPath><g clip-path="url(#clip0x610001ab70a0)"><path d="M 0.0 0.0 L 21.9 0.0 L 23.0 0.0 " fill="none" stroke="#000000" stroke-width="2.25" stroke-linejoin="round" transform="matrix(0.00, 1.00, 1.00, -0.00, 123.4, 6.8)"></path><path d="M 123.5 35.9 L 117.1 25.0 L 117.1 25.0 C 116.7 24.3 116.9 23.4 117.6 23.0 C 118.3 22.6 119.2 22.8 119.6 23.5 L 123.5 30.1 L 127.3 23.5 L 127.3 23.5 C 127.7 22.8 128.6 22.5 129.3 23.0 C 130.0 23.4 130.2 24.2 129.8 24.9 C 129.8 24.9 129.8 24.9 129.8 24.9 Z M 123.5 35.9 " fill="#000000"></path></g></g><g><clipPath id="clip0x610001ab6fe0"><path d="M 129.2 1.1 L 293.0 1.1 L 293.0 25.3 L 129.2 25.3 Z M 129.2 1.1 "></path></clipPath><g clip-path="url(#clip0x610001ab6fe0)"><text xml:space="preserve" font-family="Helvetica-Bold,Helvetica" font-weight="bold" font-size="14.0" fill="#000000" transform="matrix(1.00, 0.00, -0.00, -1.00, 132.8, 7.9)">U</text><text xml:space="preserve" font-family="Helvetica-Bold,Helvetica" font-weight="bold" font-size="14.0" fill="#000000" transform="matrix(1.00, 0.00, -0.00, -1.00, 142.9, 7.9)">n</text><text xml:space="preserve" font-family="Helvetica-Bold,Helvetica" font-weight="bold" font-size="14.0" fill="#000000" transform="matrix(1.00, 0.00, -0.00, -1.00, 151.4, 7.9)">s</text><text xml:space="preserve" font-family="Helvetica-Bold,Helvetica" font-weight="bold" font-size="14.0" fill="#000000" transform="matrix(1.00, 0.00, -0.00, -1.00, 159.2, 7.9)">u</text><text xml:space="preserve" font-family="Helvetica-Bold,Helvetica" font-weight="bold" font-size="14.0" fill="#000000" transform="matrix(1.00, 0.00, -0.00, -1.00, 167.8, 7.9)">p</text><text xml:space="preserve" font-family="Helvetica-Bold,Helvetica" font-weight="bold" font-size="14.0" fill="#000000" transform="matrix(1.00, 0.00, -0.00, -1.00, 176.3, 7.9)">e</text><text xml:space="preserve" font-family="Helvetica-Bold,Helvetica" font-weight="bold" font-size="14.0" fill="#000000" transform="matrix(1.00, 0.00, -0.00, -1.00, 184.1, 7.9)">r</text><text xml:space="preserve" font-family="Helvetica-Bold,Helvetica" font-weight="bold" font-size="14.0" fill="#000000" transform="matrix(1.00, 0.00, -0.00, -1.00, 189.6, 7.9)">v</text><text xml:space="preserve" font-family="Helvetica-Bold,Helvetica" font-weight="bold" font-size="14.0" fill="#000000" transform="matrix(1.00, 0.00, -0.00, -1.00, 197.4, 7.9)">i</text><text xml:space="preserve" font-family="Helvetica-Bold,Helvetica" font-weight="bold" font-size="14.0" fill="#000000" transform="matrix(1.00, 0.00, -0.00, -1.00, 201.3, 7.9)">s</text><text xml:space="preserve" font-family="Helvetica-Bold,Helvetica" font-weight="bold" font-size="14.0" fill="#000000" transform="matrix(1.00, 0.00, -0.00, -1.00, 209.1, 7.9)">e</text><text xml:space="preserve" font-family="Helvetica-Bold,Helvetica" font-weight="bold" font-size="14.0" fill="#000000" transform="matrix(1.00, 0.00, -0.00, -1.00, 216.8, 7.9)">d</text><text xml:space="preserve" font-family="Helvetica-Bold,Helvetica" font-weight="bold" font-size="14.0" fill="#000000" transform="matrix(1.00, 0.00, -0.00, -1.00, 225.4, 7.9)"> </text><text xml:space="preserve" font-family="Helvetica-Bold,Helvetica" font-weight="bold" font-size="14.0" fill="#000000" transform="matrix(1.00, 0.00, -0.00, -1.00, 229.3, 7.9)">L</text><text xml:space="preserve" font-family="Helvetica-Bold,Helvetica" font-weight="bold" font-size="14.0" fill="#000000" transform="matrix(1.00, 0.00, -0.00, -1.00, 237.8, 7.9)">e</text><text xml:space="preserve" font-family="Helvetica-Bold,Helvetica" font-weight="bold" font-size="14.0" fill="#000000" transform="matrix(1.00, 0.00, -0.00, -1.00, 245.6, 7.9)">a</text><text xml:space="preserve" font-family="Helvetica-Bold,Helvetica" font-weight="bold" font-size="14.0" fill="#000000" transform="matrix(1.00, 0.00, -0.00, -1.00, 253.4, 7.9)">r</text><text xml:space="preserve" font-family="Helvetica-Bold,Helvetica" font-weight="bold" font-size="14.0" fill="#000000" transform="matrix(1.00, 0.00, -0.00, -1.00, 258.9, 7.9)">n</text><text xml:space="preserve" font-family="Helvetica-Bold,Helvetica" font-weight="bold" font-size="14.0" fill="#000000" transform="matrix(1.00, 0.00, -0.00, -1.00, 267.4, 7.9)">i</text><text xml:space="preserve" font-family="Helvetica-Bold,Helvetica" font-weight="bold" font-size="14.0" fill="#000000" transform="matrix(1.00, 0.00, -0.00, -1.00, 271.3, 7.9)">n</text><text xml:space="preserve" font-family="Helvetica-Bold,Helvetica" font-weight="bold" font-size="14.0" fill="#000000" transform="matrix(1.00, 0.00, -0.00, -1.00, 279.9, 7.9)">g</text></g></g><g><clipPath id="clip0x610001ab6560"><path d="M 24.2 237.2 L 202.8 237.2 L 202.8 261.4 L 24.2 261.4 Z M 24.2 237.2 "></path></clipPath><g clip-path="url(#clip0x610001ab6560)"><text xml:space="preserve" font-family="Helvetica-Bold,Helvetica" font-weight="bold" font-size="14.0" fill="#000000" transform="matrix(1.00, 0.00, -0.00, -1.00, 27.8, 244.1)">H</text><text xml:space="preserve" font-family="Helvetica-Bold,Helvetica" font-weight="bold" font-size="14.0" fill="#000000" transform="matrix(1.00, 0.00, -0.00, -1.00, 37.9, 244.1)">a</text><text xml:space="preserve" font-family="Helvetica-Bold,Helvetica" font-weight="bold" font-size="14.0" fill="#000000" transform="matrix(1.00, 0.00, -0.00, -1.00, 45.7, 244.1)">n</text><text xml:space="preserve" font-family="Helvetica-Bold,Helvetica" font-weight="bold" font-size="14.0" fill="#000000" transform="matrix(1.00, 0.00, -0.00, -1.00, 54.3, 244.1)">d</text><text xml:space="preserve" font-family="Helvetica-Bold,Helvetica" font-weight="bold" font-size="14.0" fill="#000000" transform="matrix(1.00, 0.00, -0.00, -1.00, 62.8, 244.1)"> </text><text xml:space="preserve" font-family="Helvetica-Bold,Helvetica" font-weight="bold" font-size="14.0" fill="#000000" transform="matrix(1.00, 0.00, -0.00, -1.00, 66.7, 244.1)">B</text><text xml:space="preserve" font-family="Helvetica-Bold,Helvetica" font-weight="bold" font-size="14.0" fill="#000000" transform="matrix(1.00, 0.00, -0.00, -1.00, 76.8, 244.1)">o</text><text xml:space="preserve" font-family="Helvetica-Bold,Helvetica" font-weight="bold" font-size="14.0" fill="#000000" transform="matrix(1.00, 0.00, -0.00, -1.00, 85.4, 244.1)">l</text><text xml:space="preserve" font-family="Helvetica-Bold,Helvetica" font-weight="bold" font-size="14.0" fill="#000000" transform="matrix(1.00, 0.00, -0.00, -1.00, 89.2, 244.1)">t</text><text xml:space="preserve" font-family="Helvetica-Bold,Helvetica" font-weight="bold" font-size="14.0" fill="#000000" transform="matrix(1.00, 0.00, -0.00, -1.00, 93.9, 244.1)">z</text><text xml:space="preserve" font-family="Helvetica-Bold,Helvetica" font-weight="bold" font-size="14.0" fill="#000000" transform="matrix(1.00, 0.00, -0.00, -1.00, 100.9, 244.1)">m</text><text xml:space="preserve" font-family="Helvetica-Bold,Helvetica" font-weight="bold" font-size="14.0" fill="#000000" transform="matrix(1.00, 0.00, -0.00, -1.00, 113.4, 244.1)">a</text><text xml:space="preserve" font-family="Helvetica-Bold,Helvetica" font-weight="bold" font-size="14.0" fill="#000000" transform="matrix(1.00, 0.00, -0.00, -1.00, 121.1, 244.1)">n</text><text xml:space="preserve" font-family="Helvetica-Bold,Helvetica" font-weight="bold" font-size="14.0" fill="#000000" transform="matrix(1.00, 0.00, -0.00, -1.00, 129.7, 244.1)">n</text><text xml:space="preserve" font-family="Helvetica-Bold,Helvetica" font-weight="bold" font-size="14.0" fill="#000000" transform="matrix(1.00, 0.00, -0.00, -1.00, 138.2, 244.1)"> </text><text xml:space="preserve" font-family="Helvetica-Bold,Helvetica" font-weight="bold" font-size="14.0" fill="#000000" transform="matrix(1.00, 0.00, -0.00, -1.00, 142.1, 244.1)">M</text><text xml:space="preserve" font-family="Helvetica-Bold,Helvetica" font-weight="bold" font-size="14.0" fill="#000000" transform="matrix(1.00, 0.00, -0.00, -1.00, 153.8, 244.1)">a</text><text xml:space="preserve" font-family="Helvetica-Bold,Helvetica" font-weight="bold" font-size="14.0" fill="#000000" transform="matrix(1.00, 0.00, -0.00, -1.00, 161.6, 244.1)">c</text><text xml:space="preserve" font-family="Helvetica-Bold,Helvetica" font-weight="bold" font-size="14.0" fill="#000000" transform="matrix(1.00, 0.00, -0.00, -1.00, 169.4, 244.1)">h</text><text xml:space="preserve" font-family="Helvetica-Bold,Helvetica" font-weight="bold" font-size="14.0" fill="#000000" transform="matrix(1.00, 0.00, -0.00, -1.00, 177.9, 244.1)">i</text><text xml:space="preserve" font-family="Helvetica-Bold,Helvetica" font-weight="bold" font-size="14.0" fill="#000000" transform="matrix(1.00, 0.00, -0.00, -1.00, 181.8, 244.1)">n</text><text xml:space="preserve" font-family="Helvetica-Bold,Helvetica" font-weight="bold" font-size="14.0" fill="#000000" transform="matrix(1.00, 0.00, -0.00, -1.00, 190.4, 244.1)">e</text></g></g><g><clipPath id="clip0x610001ab5a80"><path d="M 23.0 48.7 L 220.8 48.7 L 220.8 92.3 L 23.0 92.3 Z M 23.0 48.7 "></path></clipPath><g clip-path="url(#clip0x610001ab5a80)"><path d="M 25.0 61.6 L 25.0 79.3 C 25.0 85.4 29.9 90.0 35.9 90.0 L 207.9 90.0 C 214.0 90.0 219.0 85.4 219.0 79.3 L 219.0 61.6 C 219.0 55.6 214.0 51.0 207.9 51.0 L 35.9 51.0 C 29.9 51.0 25.0 55.6 25.0 61.6 Z M 25.0 61.6 " fill="#D8D8D8"></path><path d="M 0.0 28.7 L -0.0 10.9 C -0.0 4.9 4.9 0.3 10.9 0.3 L 182.9 0.3 C 188.9 0.3 194.0 4.9 194.0 10.9 L 194.0 28.7 C 194.0 34.7 188.9 39.3 182.9 39.3 L 10.9 39.3 C 4.9 39.3 0.0 34.7 0.0 28.7 Z M 0.0 28.7 " fill="none" stroke="#000000" stroke-width="2.00" stroke-linejoin="round" transform="matrix(1.00, 0.00, 0.00, -1.00, 25.0, 90.3)"></path></g></g><g><clipPath id="clip0x610001ab5780"><path d="M 146.4 112.6 L 203.2 112.6 L 203.2 155.5 L 146.4 155.5 Z M 146.4 112.6 "></path></clipPath><g clip-path="url(#clip0x610001ab5780)"><path d="M 148.4 124.3 L 148.0 143.8 C 148.0 149.2 152.7 153.0 158.0 153.0 L 191.6 153.0 C 196.9 153.0 201.0 149.2 201.0 143.8 L 201.0 124.3 C 201.0 118.9 196.9 115.0 191.6 115.0 L 158.0 115.0 C 152.7 115.0 148.4 118.9 148.4 124.3 Z M 148.4 124.3 " fill="#FFFFFF"></path><path d="M 0.0 29.2 L -0.4 9.7 C -0.4 4.3 4.3 0.5 9.7 0.5 L 43.2 0.5 C 48.5 0.5 52.6 4.3 52.6 9.7 L 52.6 29.2 C 52.6 34.6 48.5 38.5 43.2 38.5 L 9.7 38.5 C 4.3 38.5 0.0 34.6 0.0 29.2 Z M 0.0 29.2 " fill="none" stroke="#000000" stroke-width="2.00" stroke-linejoin="round" transform="matrix(1.00, 0.00, 0.00, -1.00, 148.4, 153.5)"></path></g></g><g><clipPath id="clip0x610001ab5480"><path d="M 158.1 117.3 L 190.5 117.3 L 190.5 149.7 L 158.1 149.7 Z M 158.1 117.3 "></path></clipPath><g clip-path="url(#clip0x610001ab5480)"><path d="M 184.3 143.5 C 189.9 138.0 189.9 129.0 184.3 123.5 C 178.8 117.9 169.8 117.9 164.3 123.5 C 158.7 129.0 158.7 138.0 164.3 143.5 C 169.8 149.0 178.8 149.0 184.3 143.5 " fill="#FFFFFF"></path><path d="M 24.2 4.2 C 29.7 9.7 29.7 18.7 24.2 24.2 C 18.7 29.7 9.7 29.7 4.2 24.2 C -1.4 18.7 -1.4 9.7 4.2 4.2 C 9.7 -1.4 18.7 -1.4 24.2 4.2 " fill="none" stroke="#008000" stroke-width="2.00" stroke-linejoin="round" transform="matrix(1.00, 0.00, 0.00, -1.00, 160.1, 147.7)"></path></g></g><g><clipPath id="clip0x610001ab40a0"><path d="M 40.6 112.6 L 138.6 112.6 L 138.6 155.5 L 40.6 155.5 Z M 40.6 112.6 "></path></clipPath><g clip-path="url(#clip0x610001ab40a0)"><path d="M 42.6 124.3 L 43.0 143.8 C 43.0 149.2 47.0 153.0 52.3 153.0 L 126.9 153.0 C 132.3 153.0 137.0 149.2 137.0 143.8 L 137.0 124.3 C 137.0 118.9 132.3 115.0 126.9 115.0 L 52.3 115.0 C 47.0 115.0 42.6 118.9 42.6 124.3 Z M 42.6 124.3 " fill="#FFFFFF"></path><path d="M 0.0 29.2 L 0.4 9.7 C 0.4 4.3 4.3 0.5 9.7 0.5 L 84.3 0.5 C 89.7 0.5 94.4 4.3 94.4 9.7 L 94.4 29.2 C 94.4 34.6 89.7 38.5 84.3 38.5 L 9.7 38.5 C 4.3 38.5 0.0 34.6 0.0 29.2 Z M 0.0 29.2 " fill="none" stroke="#000000" stroke-width="2.00" stroke-linejoin="round" transform="matrix(1.00, 0.00, 0.00, -1.00, 42.6, 153.5)"></path></g></g><g><clipPath id="clip0x610001ab52a0"><path d="M 52.4 117.3 L 84.7 117.3 L 84.7 149.7 L 52.4 149.7 Z M 52.4 117.3 "></path></clipPath><g clip-path="url(#clip0x610001ab52a0)"><path d="M 78.6 143.5 C 84.1 138.0 84.1 129.0 78.6 123.5 C 73.1 117.9 64.1 117.9 58.5 123.5 C 53.0 129.0 53.0 138.0 58.5 143.5 C 64.1 149.0 73.1 149.0 78.6 143.5 " fill="#FFFFFF"></path><path d="M 24.2 4.2 C 29.7 9.7 29.7 18.7 24.2 24.2 C 18.7 29.7 9.7 29.7 4.2 24.2 C -1.4 18.7 -1.4 9.7 4.2 4.2 C 9.7 -1.4 18.7 -1.4 24.2 4.2 " fill="none" stroke="#800000" stroke-width="2.00" stroke-linejoin="round" transform="matrix(1.00, 0.00, 0.00, -1.00, 54.4, 147.7)"></path></g></g><g><clipPath id="clip0x610001abc560"><path d="M 93.5 117.3 L 125.9 117.3 L 125.9 149.7 L 93.5 149.7 Z M 93.5 117.3 "></path></clipPath><g clip-path="url(#clip0x610001abc560)"><path d="M 119.7 143.5 C 125.2 138.0 125.2 129.0 119.7 123.5 C 114.2 117.9 105.2 117.9 99.7 123.5 C 94.1 129.0 94.1 138.0 99.7 143.5 C 105.2 149.0 114.2 149.0 119.7 143.5 " fill="#FFFFFF"></path><path d="M 24.2 4.2 C 29.7 9.7 29.7 18.7 24.2 24.2 C 18.7 29.7 9.7 29.7 4.2 24.2 C -1.4 18.7 -1.4 9.7 4.2 4.2 C 9.7 -1.4 18.7 -1.4 24.2 4.2 " fill="none" stroke="#800000" stroke-width="2.00" stroke-linejoin="round" transform="matrix(1.00, 0.00, 0.00, -1.00, 95.5, 147.7)"></path></g></g><g><clipPath id="clip0x610001abc140"><path d="M 70.6 119.4 L 52.7 83.2 L 49.5 84.7 L 67.4 121.0 Z M 70.6 119.4 "></path></clipPath><g clip-path="url(#clip0x610001abc140)"><path d="M 0.0 0.0 L 38.4 0.0 " fill="none" stroke="#0C0C0C" stroke-opacity="0.80" stroke-width="1.50" stroke-linejoin="round" transform="matrix(-0.44, -0.90, -0.90, 0.44, 68.6, 119.3)"></path></g></g><g><clipPath id="clip0x610001abc320"><path d="M 175.4 121.0 L 194.3 84.8 L 191.2 83.2 L 172.3 119.4 Z M 175.4 121.0 "></path></clipPath><g clip-path="url(#clip0x610001abc320)"><path d="M 0.0 0.0 L 38.9 0.0 " fill="none" stroke="#0C0C0C" stroke-opacity="0.80" stroke-width="1.50" stroke-linejoin="round" transform="matrix(0.46, -0.89, -0.89, -0.46, 174.3, 119.3)"></path></g></g><g><clipPath id="clip0x610001abc200"><path d="M 69.2 121.2 L 100.3 85.3 L 97.6 83.0 L 66.6 118.9 Z M 69.2 121.2 "></path></clipPath><g clip-path="url(#clip0x610001abc200)"><path d="M 0.0 0.0 L 45.5 0.0 " fill="none" stroke="#0C0C0C" stroke-opacity="0.80" stroke-width="1.50" stroke-linejoin="round" transform="matrix(0.65, -0.76, -0.76, -0.65, 68.6, 119.3)"></path></g></g><g><clipPath id="clip0x610001abbba0"><path d="M 68.4 121.3 L 146.9 86.4 L 145.5 83.2 L 66.9 118.1 Z M 68.4 121.3 "></path></clipPath><g clip-path="url(#clip0x610001abbba0)"><path d="M 0.0 0.0 L 84.0 0.0 " fill="none" stroke="#0C0C0C" stroke-opacity="0.80" stroke-width="1.50" stroke-linejoin="round" transform="matrix(0.91, -0.41, -0.41, -0.91, 68.6, 119.3)"></path></g></g><g><clipPath id="clip0x610001abb9c0"><path d="M 176.3 118.9 L 146.0 83.3 L 143.3 85.6 L 173.6 121.2 Z M 176.3 118.9 "></path></clipPath><g clip-path="url(#clip0x610001abb9c0)"><path d="M 0.0 0.0 L 44.7 0.0 " fill="none" stroke="#0C0C0C" stroke-opacity="0.80" stroke-width="1.50" stroke-linejoin="round" transform="matrix(-0.65, -0.76, -0.76, 0.65, 174.3, 119.3)"></path></g></g><g><clipPath id="clip0x610001abb600"><path d="M 96.3 84.5 L 108.3 120.8 L 111.7 119.7 L 99.7 83.4 Z M 96.3 84.5 "></path></clipPath><g clip-path="url(#clip0x610001abb600)"><path d="M 0.0 0.0 L 36.3 0.0 " fill="none" stroke="#0C0C0C" stroke-opacity="0.80" stroke-width="1.50" stroke-linejoin="round" transform="matrix(0.31, 0.95, 0.95, -0.31, 98.3, 84.9)"></path></g></g><g><clipPath id="clip0x610001abb360"><path d="M 49.8 85.9 L 109.6 121.3 L 111.4 118.3 L 51.6 82.9 Z M 49.8 85.9 "></path></clipPath><g clip-path="url(#clip0x610001abb360)"><path d="M 0.0 0.0 L 67.6 0.0 " fill="none" stroke="#0C0C0C" stroke-opacity="0.80" stroke-width="1.50" stroke-linejoin="round" transform="matrix(0.86, 0.51, 0.51, -0.86, 51.6, 84.9)"></path></g></g><g><clipPath id="clip0x610001abb480"><path d="M 144.8 83.3 L 107.7 118.7 L 110.2 121.3 L 147.2 85.8 Z M 144.8 83.3 "></path></clipPath><g clip-path="url(#clip0x610001abb480)"><path d="M 0.0 0.0 L 49.3 0.0 " fill="none" stroke="#0C0C0C" stroke-opacity="0.80" stroke-width="1.50" stroke-linejoin="round" transform="matrix(-0.72, 0.69, 0.69, 0.72, 145.3, 85.2)"></path></g></g><g><clipPath id="clip0x610001abae20"><path d="M 35.0 53.7 L 68.1 53.7 L 68.1 86.9 L 35.0 86.9 Z M 35.0 53.7 "></path></clipPath><g clip-path="url(#clip0x610001abae20)"><path d="M 61.9 80.6 C 67.6 74.9 67.6 65.7 61.9 60.0 C 56.2 54.3 46.9 54.3 41.3 60.0 C 35.6 65.7 35.6 74.9 41.3 80.6 C 46.9 86.3 56.2 86.3 61.9 80.6 " fill="#7F7F7F"></path><path d="M 24.9 4.3 C 30.6 10.0 30.6 19.2 24.9 24.9 C 19.2 30.6 10.0 30.6 4.3 24.9 C -1.4 19.2 -1.4 10.0 4.3 4.3 C 10.0 -1.4 19.2 -1.4 24.9 4.3 " fill="none" stroke="#000000" stroke-width="2.00" stroke-linejoin="round" transform="matrix(1.00, 0.00, 0.00, -1.00, 37.0, 84.9)"></path></g></g><g><clipPath id="clip0x610001abaa60"><path d="M 81.8 53.7 L 114.9 53.7 L 114.9 86.9 L 81.8 86.9 Z M 81.8 53.7 "></path></clipPath><g clip-path="url(#clip0x610001abaa60)"><path d="M 108.6 80.6 C 114.3 74.9 114.3 65.7 108.6 60.0 C 102.9 54.3 93.7 54.3 88.0 60.0 C 82.3 65.7 82.3 74.9 88.0 80.6 C 93.7 86.3 102.9 86.3 108.6 80.6 " fill="#7F7F7F"></path><path d="M 24.9 4.3 C 30.6 10.0 30.6 19.2 24.9 24.9 C 19.2 30.6 10.0 30.6 4.3 24.9 C -1.4 19.2 -1.4 10.0 4.3 4.3 C 10.0 -1.4 19.2 -1.4 24.9 4.3 " fill="none" stroke="#000000" stroke-width="2.00" stroke-linejoin="round" transform="matrix(1.00, 0.00, 0.00, -1.00, 83.8, 84.9)"></path></g></g><g><clipPath id="clip0x610001aba7c0"><path d="M 175.7 53.7 L 208.9 53.7 L 208.9 86.9 L 175.7 86.9 Z M 175.7 53.7 "></path></clipPath><g clip-path="url(#clip0x610001aba7c0)"><path d="M 202.6 80.6 C 208.3 74.9 208.3 65.7 202.6 60.0 C 196.9 54.3 187.7 54.3 182.0 60.0 C 176.3 65.7 176.3 74.9 182.0 80.6 C 187.7 86.3 196.9 86.3 202.6 80.6 " fill="#7F7F7F"></path><path d="M 24.9 4.3 C 30.6 10.0 30.6 19.2 24.9 24.9 C 19.2 30.6 10.0 30.6 4.3 24.9 C -1.4 19.2 -1.4 10.0 4.3 4.3 C 10.0 -1.4 19.2 -1.4 24.9 4.3 " fill="none" stroke="#000000" stroke-width="2.00" stroke-linejoin="round" transform="matrix(1.00, 0.00, 0.00, -1.00, 177.7, 84.9)"></path></g></g><g><clipPath id="clip0x610001aba700"><path d="M 69.3 179.4 L 173.2 179.4 L 173.2 222.3 L 69.3 222.3 Z M 69.3 179.4 "></path></clipPath><g clip-path="url(#clip0x610001aba700)"><path d="M 71.3 191.1 L 71.0 210.7 C 71.0 216.0 75.6 220.0 81.0 220.0 L 161.5 220.0 C 166.8 220.0 171.0 216.0 171.0 210.7 L 171.0 191.1 C 171.0 185.8 166.8 181.0 161.5 181.0 L 81.0 181.0 C 75.6 181.0 71.3 185.8 71.3 191.1 Z M 71.3 191.1 " fill="#FFFFFF"></path><path d="M 0.0 29.2 L -0.3 9.7 C -0.3 4.3 4.3 0.3 9.7 0.3 L 90.2 0.3 C 95.5 0.3 99.7 4.3 99.7 9.7 L 99.7 29.2 C 99.7 34.6 95.5 39.3 90.2 39.3 L 9.7 39.3 C 4.3 39.3 0.0 34.6 0.0 29.2 Z M 0.0 29.2 " fill="none" stroke="#000000" stroke-width="2.00" stroke-linejoin="round" transform="matrix(1.00, 0.00, 0.00, -1.00, 71.3, 220.3)"></path></g></g><g><clipPath id="clip0x610001ab9f80"><path d="M 84.2 184.1 L 116.5 184.1 L 116.5 216.5 L 84.2 216.5 Z M 84.2 184.1 "></path></clipPath><g clip-path="url(#clip0x610001ab9f80)"><path d="M 110.4 210.3 C 115.9 204.8 115.9 195.8 110.4 190.3 C 104.8 184.8 95.9 184.8 90.3 190.3 C 84.8 195.8 84.8 204.8 90.3 210.3 C 95.9 215.9 104.8 215.9 110.4 210.3 " fill="#FFFFFF"></path><path d="M 24.2 4.2 C 29.7 9.7 29.7 18.7 24.2 24.2 C 18.7 29.7 9.7 29.7 4.2 24.2 C -1.4 18.7 -1.4 9.7 4.2 4.2 C 9.7 -1.4 18.7 -1.4 24.2 4.2 " fill="none" stroke="#000000" stroke-width="2.00" stroke-linejoin="round" transform="matrix(1.00, 0.00, 0.00, -1.00, 86.2, 214.5)"></path></g></g><g><clipPath id="clip0x610001ab9c20"><path d="M 131.2 184.1 L 163.5 184.1 L 163.5 216.5 L 131.2 216.5 Z M 131.2 184.1 "></path></clipPath><g clip-path="url(#clip0x610001ab9c20)"><path d="M 157.4 210.3 C 162.9 204.8 162.9 195.8 157.4 190.3 C 151.8 184.8 142.8 184.8 137.3 190.3 C 131.8 195.8 131.8 204.8 137.3 210.3 C 142.8 215.9 151.8 215.9 157.4 210.3 " fill="#FFFFFF"></path><path d="M 24.2 4.2 C 29.7 9.7 29.7 18.7 24.2 24.2 C 18.7 29.7 9.7 29.7 4.2 24.2 C -1.4 18.7 -1.4 9.7 4.2 4.2 C 9.7 -1.4 18.7 -1.4 24.2 4.2 " fill="none" stroke="#000000" stroke-width="2.00" stroke-linejoin="round" transform="matrix(1.00, 0.00, 0.00, -1.00, 133.2, 214.5)"></path></g></g><g><clipPath id="clip0x610001ab9860"><path d="M 128.7 54.1 L 161.9 54.1 L 161.9 87.2 L 128.7 87.2 Z M 128.7 54.1 "></path></clipPath><g clip-path="url(#clip0x610001ab9860)"><path d="M 155.6 81.0 C 161.3 75.3 161.3 66.0 155.6 60.4 C 149.9 54.7 140.7 54.7 135.0 60.4 C 129.3 66.0 129.3 75.3 135.0 81.0 C 140.7 86.6 149.9 86.6 155.6 81.0 " fill="#7F7F7F"></path><path d="M 24.9 4.3 C 30.6 10.0 30.6 19.2 24.9 24.9 C 19.2 30.6 10.0 30.6 4.3 24.9 C -1.4 19.2 -1.4 10.0 4.3 4.3 C 10.0 -1.4 19.2 -1.4 24.9 4.3 " fill="none" stroke="#000000" stroke-width="2.00" stroke-linejoin="round" transform="matrix(1.00, 0.00, 0.00, -1.00, 130.7, 85.2)"></path></g></g><g><clipPath id="clip0x610001ab95c0"><path d="M 101.8 187.5 L 111.6 147.1 L 108.2 146.3 L 98.4 186.7 Z M 101.8 187.5 "></path></clipPath><g clip-path="url(#clip0x610001ab95c0)"><path d="M 0.0 0.0 L 39.6 0.0 " fill="none" stroke="#0C0C0C" stroke-opacity="0.80" stroke-width="1.50" stroke-linejoin="round" transform="matrix(0.24, -0.97, -0.97, -0.24, 100.3, 186.1)"></path></g></g><g><clipPath id="clip0x610001ab9200"><path d="M 66.6 148.0 L 99.6 188.0 L 102.3 185.8 L 69.3 145.8 Z M 66.6 148.0 "></path></clipPath><g clip-path="url(#clip0x610001ab9200)"><path d="M 0.0 0.0 L 49.9 0.0 " fill="none" stroke="#0C0C0C" stroke-opacity="0.80" stroke-width="1.50" stroke-linejoin="round" transform="matrix(0.64, 0.77, 0.77, -0.64, 68.6, 147.7)"></path></g></g><g><clipPath id="clip0x610001ab8f60"><path d="M 174.4 145.7 L 98.7 185.0 L 100.3 188.1 L 176.0 148.8 Z M 174.4 145.7 "></path></clipPath><g clip-path="url(#clip0x610001ab8f60)"><path d="M 0.0 0.0 L 83.4 0.0 " fill="none" stroke="#0C0C0C" stroke-opacity="0.80" stroke-width="1.50" stroke-linejoin="round" transform="matrix(-0.89, 0.46, 0.46, 0.89, 174.3, 147.7)"></path></g></g><g><clipPath id="clip0x610001ab9080"><path d="M 107.7 148.2 L 146.8 188.1 L 149.3 185.6 L 110.2 145.7 Z M 107.7 148.2 "></path></clipPath><g clip-path="url(#clip0x610001ab9080)"><path d="M 0.0 0.0 L 53.8 0.0 " fill="none" stroke="#0C0C0C" stroke-opacity="0.80" stroke-width="1.50" stroke-linejoin="round" transform="matrix(0.70, 0.71, 0.71, -0.70, 109.7, 147.7)"></path></g></g><g><clipPath id="clip0x610001ab8a20"><path d="M 66.9 148.8 L 147.5 188.1 L 149.0 185.0 L 68.4 145.7 Z M 66.9 148.8 "></path></clipPath><g clip-path="url(#clip0x610001ab8a20)"><path d="M 0.0 0.0 L 87.7 0.0 " fill="none" stroke="#0C0C0C" stroke-opacity="0.80" stroke-width="1.50" stroke-linejoin="round" transform="matrix(0.90, 0.44, 0.44, -0.90, 68.6, 147.7)"></path></g></g><g><clipPath id="clip0x610001ab8840"><path d="M 173.4 145.8 L 145.3 185.9 L 148.2 188.0 L 176.3 147.9 Z M 173.4 145.8 "></path></clipPath><g clip-path="url(#clip0x610001ab8840)"><path d="M 0.0 0.0 L 47.0 0.0 " fill="none" stroke="#0C0C0C" stroke-opacity="0.80" stroke-width="1.50" stroke-linejoin="round" transform="matrix(-0.57, 0.82, 0.82, 0.57, 174.3, 147.7)"></path></g></g><g><clipPath id="clip0x610001ab8480"><path d="M 36.1 193.0 L 59.6 193.0 L 59.6 214.4 L 36.1 214.4 Z M 36.1 193.0 "></path></clipPath><g clip-path="url(#clip0x610001ab8480)"><image xlink:href="../../62F53CAE-A979-4322-99F2-75F6DF468AC5/assets/5083E88EBA7CAC1927B602BD4AF7A7B0.png" width="35.00" height="32.00" transform="matrix(0.67, 0.00, -0.00, -0.67, 36.1, 214.4)"></image></g></g><g><clipPath id="clip0x610001ab8420"><path d="M 12.6 120.5 L 36.1 120.5 L 36.1 144.0 L 12.6 144.0 Z M 12.6 120.5 "></path></clipPath><g clip-path="url(#clip0x610001ab8420)"><image xlink:href="../../528A306E-A883-4524-BD11-2FB448E23119/assets/FC4C69F471A9B3025F4C69E5FD3265C7.png" width="36.00" height="36.00" transform="matrix(0.65, 0.00, -0.00, -0.65, 12.6, 144.0)"></image></g></g><g><clipPath id="clip0x610001ab8540"><path d="M 212.3 119.4 L 236.8 119.4 L 236.8 144.0 L 212.3 144.0 Z M 212.3 119.4 "></path></clipPath><g clip-path="url(#clip0x610001ab8540)"><image xlink:href="../../62F53CAE-A979-4322-99F2-75F6DF468AC5/assets/BBBA4C59272A1AC9A2FA6AC09BDEAB99.png" width="37.00" height="37.00" transform="matrix(0.66, 0.00, -0.00, -0.66, 212.3, 144.0)"></image></g></g><g><clipPath id="clip0x610001ab7ee0"><path d="M 0.8 61.7 L 16.7 61.7 L 16.7 74.6 L 0.8 74.6 Z M 0.8 61.7 "></path></clipPath><g clip-path="url(#clip0x610001ab7ee0)"><image xlink:href="../../528A306E-A883-4524-BD11-2FB448E23119/assets/1138831F05AF4DD16312E0F567177AA2.png" width="21.00" height="17.00" transform="matrix(0.76, 0.00, -0.00, -0.76, 0.8, 74.6)"></image></g></g></g></svg>