<?xml version="1.0" encoding="UTF-8" standalone="no"?><svg xmlns="http://www.w3.org/2000/svg" xmlns:xlink="http://www.w3.org/1999/xlink" clip-rule="evenodd" stroke-miterlimit="10" viewBox="0 0 656 131"><desc>SVG generated by Keynote</desc><defs></defs><g transform="matrix(1.00, 0.00, -0.00, -1.00, 0.0, 131.0)"><g><clipPath id="clip0x6000040bdac0"><path d="M 9.2 128.7 L 652.2 128.5 L 652.2 125.8 L 9.2 125.9 Z M 9.2 128.7 "></path></clipPath><g clip-path="url(#clip0x6000040bdac0)"><path d="M 0.0 0.0 L 641.0 0.0 " fill="none" stroke="#000000" stroke-width="0.75" stroke-linejoin="round" stroke-dasharray="3.0, 2.2" transform="matrix(1.00, -0.00, -0.00, -1.00, 10.2, 127.3)"></path></g></g><g><clipPath id="clip0x6000040bd7c0"><path d="M 571.0 53.9 L 612.8 53.9 L 612.8 95.8 L 571.0 95.8 Z M 571.0 53.9 "></path></clipPath><g clip-path="url(#clip0x6000040bd7c0)"><image xlink:href="../../18AEFA53-5962-4751-B48C-8EE8462EA4B2/assets/2ECBCB223ABADCD6ADA938478E156C41.png" width="32.00" height="32.00" transform="matrix(1.28, 0.00, -0.00, -1.28, 571.4, 95.4)"></image><path d="M 0.0 0.0 L 41.1 0.0 L 41.1 41.1 L 0.0 41.1 Z M 0.0 0.0 " fill="none" stroke="#7F7F7F" stroke-width="0.75" stroke-linejoin="round" transform="matrix(1.00, 0.00, 0.00, -1.00, 571.4, 95.4)"></path></g></g><g><clipPath id="clip0x6000040bd2e0"><path d="M 537.4 53.9 L 579.3 53.9 L 579.3 95.8 L 537.4 95.8 Z M 537.4 53.9 "></path></clipPath><g clip-path="url(#clip0x6000040bd2e0)"><image xlink:href="../../18AEFA53-5962-4751-B48C-8EE8462EA4B2/assets/22D1F9B9B76A3BE407D5300AA1D57057.png" width="32.00" height="32.00" transform="matrix(1.28, 0.00, -0.00, -1.28, 537.8, 95.4)"></image><path d="M 0.0 0.0 L 41.1 0.0 L 41.1 41.1 L 0.0 41.1 Z M 0.0 0.0 " fill="none" stroke="#7F7F7F" stroke-width="0.75" stroke-linejoin="round" transform="matrix(1.00, 0.00, 0.00, -1.00, 537.8, 95.4)"></path></g></g><g><clipPath id="clip0x6000040bd8e0"><path d="M 571.0 7.3 L 612.8 7.3 L 612.8 49.2 L 571.0 49.2 Z M 571.0 7.3 "></path></clipPath><g clip-path="url(#clip0x6000040bd8e0)"><image xlink:href="../../18AEFA53-5962-4751-B48C-8EE8462EA4B2/assets/1746DDECAFB78DBD838A5B638257C06A.png" width="32.00" height="32.00" transform="matrix(1.28, 0.00, -0.00, -1.28, 571.4, 48.8)"></image><path d="M 0.0 0.0 L 41.1 0.0 L 41.1 41.1 L 0.0 41.1 Z M 0.0 0.0 " fill="none" stroke="#7F7F7F" stroke-width="0.75" stroke-linejoin="round" transform="matrix(1.00, 0.00, 0.00, -1.00, 571.4, 48.8)"></path></g></g><g><clipPath id="clip0x6000040bd0a0"><path d="M 541.5 7.6 L 583.1 7.6 L 583.1 49.2 L 541.5 49.2 Z M 541.5 7.6 "></path></clipPath><g clip-path="url(#clip0x6000040bd0a0)"><image xlink:href="2EF707DFC74DAD5431E5A9464DD970A1.png" width="32.00" height="32.00" transform="matrix(1.27, 0.00, -0.00, -1.27, 541.9, 48.8)"></image><path d="M 0.0 0.0 L 40.8 0.0 L 40.8 40.8 L 0.0 40.8 Z M 0.0 0.0 " fill="none" stroke="#7F7F7F" stroke-width="0.75" stroke-linejoin="round" transform="matrix(1.00, 0.00, 0.00, -1.00, 541.9, 48.8)"></path></g></g><g><clipPath id="clip0x6000040be0c0"><path d="M 511.7 7.3 L 553.6 7.3 L 553.6 49.2 L 511.7 49.2 Z M 511.7 7.3 "></path></clipPath><g clip-path="url(#clip0x6000040be0c0)"><image xlink:href="../../18AEFA53-5962-4751-B48C-8EE8462EA4B2/assets/2ECBCB223ABADCD6ADA938478E156C41.png" width="32.00" height="32.00" transform="matrix(1.28, 0.00, -0.00, -1.28, 512.1, 48.8)"></image><path d="M 0.0 0.0 L 41.1 0.0 L 41.1 41.1 L 0.0 41.1 Z M 0.0 0.0 " fill="none" stroke="#7F7F7F" stroke-width="0.75" stroke-linejoin="round" transform="matrix(1.00, 0.00, 0.00, -1.00, 512.1, 48.8)"></path></g></g><g><clipPath id="clip0x6000040be3c0"><path d="M 482.3 7.6 L 523.8 7.6 L 523.8 49.2 L 482.3 49.2 Z M 482.3 7.6 "></path></clipPath><g clip-path="url(#clip0x6000040be3c0)"><image xlink:href="73CBBC261A283ADFF66AEF219454B4F2.png" width="32.00" height="32.00" transform="matrix(1.27, 0.00, -0.00, -1.27, 482.6, 48.8)"></image><path d="M 0.0 0.0 L 40.8 0.0 L 40.8 40.8 L 0.0 40.8 Z M 0.0 0.0 " fill="none" stroke="#7F7F7F" stroke-width="0.75" stroke-linejoin="round" transform="matrix(1.00, 0.00, 0.00, -1.00, 482.6, 48.8)"></path></g></g><g><clipPath id="clip0x6000040be6c0"><path d="M 452.5 7.3 L 494.3 7.3 L 494.3 49.2 L 452.5 49.2 Z M 452.5 7.3 "></path></clipPath><g clip-path="url(#clip0x6000040be6c0)"><image xlink:href="../../18AEFA53-5962-4751-B48C-8EE8462EA4B2/assets/E40FD5B497A6EC10A3E5DDCAD4F9B4DB.png" width="32.00" height="32.00" transform="matrix(1.28, 0.00, -0.00, -1.28, 452.8, 48.8)"></image><path d="M 0.0 0.0 L 41.1 0.0 L 41.1 41.1 L 0.0 41.1 Z M 0.0 0.0 " fill="none" stroke="#7F7F7F" stroke-width="0.75" stroke-linejoin="round" transform="matrix(1.00, 0.00, 0.00, -1.00, 452.8, 48.8)"></path></g></g><g><clipPath id="clip0x6000040be9c0"><path d="M 422.7 7.3 L 464.5 7.3 L 464.5 49.2 L 422.7 49.2 Z M 422.7 7.3 "></path></clipPath><g clip-path="url(#clip0x6000040be9c0)"><image xlink:href="../../18AEFA53-5962-4751-B48C-8EE8462EA4B2/assets/0914AB016DB2E1CF498AB2DB2E83BF95.png" width="32.00" height="32.00" transform="matrix(1.28, 0.00, -0.00, -1.28, 423.0, 48.8)"></image><path d="M 0.0 0.0 L 41.1 0.0 L 41.1 41.1 L 0.0 41.1 Z M 0.0 0.0 " fill="none" stroke="#7F7F7F" stroke-width="0.75" stroke-linejoin="round" transform="matrix(1.00, 0.00, 0.00, -1.00, 423.0, 48.8)"></path></g></g><g><clipPath id="clip0x6000040becc0"><path d="M 303.8 7.6 L 345.4 7.6 L 345.4 49.2 L 303.8 49.2 Z M 303.8 7.6 "></path></clipPath><g clip-path="url(#clip0x6000040becc0)"><image xlink:href="5DE8D52BE1EC5CB6E7CB33D1B6F4DEC1.png" width="32.00" height="32.00" transform="matrix(1.27, 0.00, -0.00, -1.27, 304.2, 48.8)"></image><path d="M 0.0 0.0 L 40.8 0.0 L 40.8 40.8 L 0.0 40.8 Z M 0.0 0.0 " fill="none" stroke="#7F7F7F" stroke-width="0.75" stroke-linejoin="round" transform="matrix(1.00, 0.00, 0.00, -1.00, 304.2, 48.8)"></path></g></g><g><clipPath id="clip0x6000040befc0"><path d="M 38.6 7.6 L 80.1 7.6 L 80.1 49.2 L 38.6 49.2 Z M 38.6 7.6 "></path></clipPath><g clip-path="url(#clip0x6000040befc0)"><image xlink:href="5C6507C7CEDF9E9877176DA956B5086F.png" width="32.00" height="32.00" transform="matrix(1.27, 0.00, -0.00, -1.27, 39.0, 48.8)"></image><path d="M 0.0 0.0 L 40.8 0.0 L 40.8 40.8 L 0.0 40.8 Z M 0.0 0.0 " fill="none" stroke="#7F7F7F" stroke-width="0.75" stroke-linejoin="round" transform="matrix(1.00, 0.00, 0.00, -1.00, 39.0, 48.8)"></path></g></g><g><clipPath id="clip0x6000040bf2c0"><path d="M 274.4 7.6 L 315.9 7.6 L 315.9 49.2 L 274.4 49.2 Z M 274.4 7.6 "></path></clipPath><g clip-path="url(#clip0x6000040bf2c0)"><image xlink:href="D0004C202A19D7E8DBA206D5D944CF9D.png" width="32.00" height="32.00" transform="matrix(1.27, 0.00, -0.00, -1.27, 274.7, 48.8)"></image><path d="M 0.0 0.0 L 40.8 0.0 L 40.8 40.8 L 0.0 40.8 Z M 0.0 0.0 " fill="none" stroke="#7F7F7F" stroke-width="0.75" stroke-linejoin="round" transform="matrix(1.00, 0.00, 0.00, -1.00, 274.7, 48.8)"></path></g></g><g><clipPath id="clip0x618001aa2d60"><path d="M 336.5 54.2 L 378.1 54.2 L 378.1 95.8 L 336.5 95.8 Z M 336.5 54.2 "></path></clipPath><g clip-path="url(#clip0x618001aa2d60)"><image xlink:href="BAB920F85A0D790EAB951546C9EB69D1.png" width="32.00" height="32.00" transform="matrix(1.27, 0.00, -0.00, -1.27, 336.9, 95.4)"></image><path d="M 0.0 0.0 L 40.8 0.0 L 40.8 40.8 L 0.0 40.8 Z M 0.0 0.0 " fill="none" stroke="#7F7F7F" stroke-width="0.75" stroke-linejoin="round" transform="matrix(1.00, 0.00, 0.00, -1.00, 336.9, 95.4)"></path></g></g><g><clipPath id="clip0x610001aa8820"><path d="M 303.3 54.2 L 344.9 54.2 L 344.9 95.8 L 303.3 95.8 Z M 303.3 54.2 "></path></clipPath><g clip-path="url(#clip0x610001aa8820)"><image xlink:href="8848DD5C191ECF9EB48ECF46044F6690.png" width="32.00" height="32.00" transform="matrix(1.27, 0.00, -0.00, -1.27, 303.7, 95.4)"></image><path d="M 0.0 0.0 L 40.8 0.0 L 40.8 40.8 L 0.0 40.8 Z M 0.0 0.0 " fill="none" stroke="#7F7F7F" stroke-width="0.75" stroke-linejoin="round" transform="matrix(1.00, 0.00, 0.00, -1.00, 303.7, 95.4)"></path></g></g><g><clipPath id="clip0x6000040bf5c0"><path d="M 270.1 54.2 L 311.7 54.2 L 311.7 95.8 L 270.1 95.8 Z M 270.1 54.2 "></path></clipPath><g clip-path="url(#clip0x6000040bf5c0)"><image xlink:href="C4557D0163F34A319395D08944542B9D.png" width="32.00" height="32.00" transform="matrix(1.27, 0.00, -0.00, -1.27, 270.5, 95.4)"></image><path d="M 0.0 0.0 L 40.8 0.0 L 40.8 40.8 L 0.0 40.8 Z M 0.0 0.0 " fill="none" stroke="#7F7F7F" stroke-width="0.75" stroke-linejoin="round" transform="matrix(1.00, 0.00, 0.00, -1.00, 270.5, 95.4)"></path></g></g><g><clipPath id="clip0x6000040bf8c0"><path d="M 236.9 54.2 L 278.4 54.2 L 278.4 95.8 L 236.9 95.8 Z M 236.9 54.2 "></path></clipPath><g clip-path="url(#clip0x6000040bf8c0)"><image xlink:href="../../903B06D6-7074-4CAB-BC6C-5082EDBFA2FB/assets/73CBBC261A283ADFF66AEF219454B4F2.png" width="32.00" height="32.00" transform="matrix(1.27, 0.00, -0.00, -1.27, 237.3, 95.4)"></image><path d="M 0.0 0.0 L 40.8 0.0 L 40.8 40.8 L 0.0 40.8 Z M 0.0 0.0 " fill="none" stroke="#7F7F7F" stroke-width="0.75" stroke-linejoin="round" transform="matrix(1.00, 0.00, 0.00, -1.00, 237.3, 95.4)"></path></g></g><g><clipPath id="clip0x6000040bfbc0"><path d="M 203.7 54.2 L 245.2 54.2 L 245.2 95.8 L 203.7 95.8 Z M 203.7 54.2 "></path></clipPath><g clip-path="url(#clip0x6000040bfbc0)"><image xlink:href="8058E9D9034F502B408DE3E0FC11A967.png" width="32.00" height="32.00" transform="matrix(1.27, 0.00, -0.00, -1.27, 204.1, 95.4)"></image><path d="M 0.0 0.0 L 40.8 0.0 L 40.8 40.8 L 0.0 40.8 Z M 0.0 0.0 " fill="none" stroke="#7F7F7F" stroke-width="0.75" stroke-linejoin="round" transform="matrix(1.00, 0.00, 0.00, -1.00, 204.1, 95.4)"></path></g></g><g><clipPath id="clip0x6000040bfec0"><path d="M 170.5 54.2 L 212.0 54.2 L 212.0 95.8 L 170.5 95.8 Z M 170.5 54.2 "></path></clipPath><g clip-path="url(#clip0x6000040bfec0)"><image xlink:href="99B40834528A6F8999250EB413552DB0.png" width="32.00" height="32.00" transform="matrix(1.27, 0.00, -0.00, -1.27, 170.9, 95.4)"></image><path d="M 0.0 0.0 L 40.8 0.0 L 40.8 40.8 L 0.0 40.8 Z M 0.0 0.0 " fill="none" stroke="#7F7F7F" stroke-width="0.75" stroke-linejoin="round" transform="matrix(1.00, 0.00, 0.00, -1.00, 170.9, 95.4)"></path></g></g><g><clipPath id="clip0x610001aa9ea0"><path d="M 137.3 54.2 L 178.8 54.2 L 178.8 95.8 L 137.3 95.8 Z M 137.3 54.2 "></path></clipPath><g clip-path="url(#clip0x610001aa9ea0)"><image xlink:href="../../903B06D6-7074-4CAB-BC6C-5082EDBFA2FB/assets/2EF707DFC74DAD5431E5A9464DD970A1.png" width="32.00" height="32.00" transform="matrix(1.27, 0.00, -0.00, -1.27, 137.6, 95.4)"></image><path d="M 0.0 0.0 L 40.8 0.0 L 40.8 40.8 L 0.0 40.8 Z M 0.0 0.0 " fill="none" stroke="#7F7F7F" stroke-width="0.75" stroke-linejoin="round" transform="matrix(1.00, 0.00, 0.00, -1.00, 137.6, 95.4)"></path></g></g><g><clipPath id="clip0x610001aaba60"><path d="M 104.1 54.2 L 145.6 54.2 L 145.6 95.8 L 104.1 95.8 Z M 104.1 54.2 "></path></clipPath><g clip-path="url(#clip0x610001aaba60)"><image xlink:href="43A18E6FEDA8A49E5A440F7191BEE9D6.png" width="32.00" height="32.00" transform="matrix(1.27, 0.00, -0.00, -1.27, 104.4, 95.4)"></image><path d="M 0.0 0.0 L 40.8 0.0 L 40.8 40.8 L 0.0 40.8 Z M 0.0 0.0 " fill="none" stroke="#7F7F7F" stroke-width="0.75" stroke-linejoin="round" transform="matrix(1.00, 0.00, 0.00, -1.00, 104.4, 95.4)"></path></g></g><g><clipPath id="clip0x6000042a01e0"><path d="M 70.8 54.2 L 112.4 54.2 L 112.4 95.8 L 70.8 95.8 Z M 70.8 54.2 "></path></clipPath><g clip-path="url(#clip0x6000042a01e0)"><image xlink:href="98A4CB0E6CF3529AB4F1836645E63552.png" width="32.00" height="32.00" transform="matrix(1.27, 0.00, -0.00, -1.27, 71.2, 95.4)"></image><path d="M 0.0 0.0 L 40.8 0.0 L 40.8 40.8 L 0.0 40.8 Z M 0.0 0.0 " fill="none" stroke="#7F7F7F" stroke-width="0.75" stroke-linejoin="round" transform="matrix(1.00, 0.00, 0.00, -1.00, 71.2, 95.4)"></path></g></g><g><clipPath id="clip0x6000042a04e0"><path d="M 37.6 54.2 L 79.2 54.2 L 79.2 95.8 L 37.6 95.8 Z M 37.6 54.2 "></path></clipPath><g clip-path="url(#clip0x6000042a04e0)"><image xlink:href="D70C4C264BB26636E03B02A71EA595F4.png" width="32.00" height="32.00" transform="matrix(1.27, 0.00, -0.00, -1.27, 38.0, 95.4)"></image><path d="M 0.0 0.0 L 40.8 0.0 L 40.8 40.8 L 0.0 40.8 Z M 0.0 0.0 " fill="none" stroke="#7F7F7F" stroke-width="0.75" stroke-linejoin="round" transform="matrix(1.00, 0.00, 0.00, -1.00, 38.0, 95.4)"></path></g></g><g><clipPath id="clip0x6000042a07e0"><path d="M 244.9 7.6 L 286.4 7.6 L 286.4 49.2 L 244.9 49.2 Z M 244.9 7.6 "></path></clipPath><g clip-path="url(#clip0x6000042a07e0)"><image xlink:href="3AC9CF1E358B0ED196CA87C09ED6F00D.png" width="32.00" height="32.00" transform="matrix(1.27, 0.00, -0.00, -1.27, 245.3, 48.8)"></image><path d="M 0.0 0.0 L 40.8 0.0 L 40.8 40.8 L 0.0 40.8 Z M 0.0 0.0 " fill="none" stroke="#7F7F7F" stroke-width="0.75" stroke-linejoin="round" transform="matrix(1.00, 0.00, 0.00, -1.00, 245.3, 48.8)"></path></g></g><g><clipPath id="clip0x6000042a0ae0"><path d="M 68.1 7.6 L 109.6 7.6 L 109.6 49.2 L 68.1 49.2 Z M 68.1 7.6 "></path></clipPath><g clip-path="url(#clip0x6000042a0ae0)"><image xlink:href="0322D796857B5A614D1FC5CECDA3C58E.png" width="32.00" height="32.00" transform="matrix(1.27, 0.00, -0.00, -1.27, 68.4, 48.8)"></image><path d="M 0.0 0.0 L 40.8 0.0 L 40.8 40.8 L 0.0 40.8 Z M 0.0 0.0 " fill="none" stroke="#7F7F7F" stroke-width="0.75" stroke-linejoin="round" transform="matrix(1.00, 0.00, 0.00, -1.00, 68.4, 48.8)"></path></g></g><g><clipPath id="clip0x6000042a0de0"><path d="M 97.5 7.6 L 139.1 7.6 L 139.1 49.2 L 97.5 49.2 Z M 97.5 7.6 "></path></clipPath><g clip-path="url(#clip0x6000042a0de0)"><image xlink:href="17245202318BF08C520BCD3054BE8B31.png" width="32.00" height="32.00" transform="matrix(1.27, 0.00, -0.00, -1.27, 97.9, 48.8)"></image><path d="M 0.0 0.0 L 40.8 0.0 L 40.8 40.8 L 0.0 40.8 Z M 0.0 0.0 " fill="none" stroke="#7F7F7F" stroke-width="0.75" stroke-linejoin="round" transform="matrix(1.00, 0.00, 0.00, -1.00, 97.9, 48.8)"></path></g></g><g><clipPath id="clip0x610001aac060"><path d="M 127.0 7.6 L 168.6 7.6 L 168.6 49.2 L 127.0 49.2 Z M 127.0 7.6 "></path></clipPath><g clip-path="url(#clip0x610001aac060)"><image xlink:href="43B57C434786C89C08BBECF028C2AA6B.png" width="32.00" height="32.00" transform="matrix(1.27, 0.00, -0.00, -1.27, 127.4, 48.8)"></image><path d="M 0.0 0.0 L 40.8 0.0 L 40.8 40.8 L 0.0 40.8 Z M 0.0 0.0 " fill="none" stroke="#7F7F7F" stroke-width="0.75" stroke-linejoin="round" transform="matrix(1.00, 0.00, 0.00, -1.00, 127.4, 48.8)"></path></g></g><g><clipPath id="clip0x6080024ad800"><path d="M 185.9 7.6 L 227.5 7.6 L 227.5 49.2 L 185.9 49.2 Z M 185.9 7.6 "></path></clipPath><g clip-path="url(#clip0x6080024ad800)"><image xlink:href="B1E243A69002189712A40642E9B60DEB.png" width="32.00" height="32.00" transform="matrix(1.27, 0.00, -0.00, -1.27, 186.3, 48.8)"></image><path d="M 0.0 0.0 L 40.8 0.0 L 40.8 40.8 L 0.0 40.8 Z M 0.0 0.0 " fill="none" stroke="#7F7F7F" stroke-width="0.75" stroke-linejoin="round" transform="matrix(1.00, 0.00, 0.00, -1.00, 186.3, 48.8)"></path></g></g><g><clipPath id="clip0x6080024adec0"><path d="M 156.5 7.6 L 198.0 7.6 L 198.0 49.2 L 156.5 49.2 Z M 156.5 7.6 "></path></clipPath><g clip-path="url(#clip0x6080024adec0)"><image xlink:href="B788DED5ADB40BDED47E0BAC6E9C5AD3.png" width="32.00" height="32.00" transform="matrix(1.27, 0.00, -0.00, -1.27, 156.9, 48.8)"></image><path d="M 0.0 0.0 L 40.8 0.0 L 40.8 40.8 L 0.0 40.8 Z M 0.0 0.0 " fill="none" stroke="#7F7F7F" stroke-width="0.75" stroke-linejoin="round" transform="matrix(1.00, 0.00, 0.00, -1.00, 156.9, 48.8)"></path></g></g><g><clipPath id="clip0x6080024ad9e0"><path d="M 215.4 7.6 L 257.0 7.6 L 257.0 49.2 L 215.4 49.2 Z M 215.4 7.6 "></path></clipPath><g clip-path="url(#clip0x6080024ad9e0)"><image xlink:href="D1F54D09388896505389EF440401D1B2.png" width="32.00" height="32.00" transform="matrix(1.27, 0.00, -0.00, -1.27, 215.8, 48.8)"></image><path d="M 0.0 0.0 L 40.8 0.0 L 40.8 40.8 L 0.0 40.8 Z M 0.0 0.0 " fill="none" stroke="#7F7F7F" stroke-width="0.75" stroke-linejoin="round" transform="matrix(1.00, 0.00, 0.00, -1.00, 215.8, 48.8)"></path></g></g><g><clipPath id="clip0x6080024ade00"><path d="M 616.3 34.9 L 638.2 34.9 L 638.2 88.9 L 616.3 88.9 Z M 616.3 34.9 "></path></clipPath><g clip-path="url(#clip0x6080024ade00)"><text xml:space="preserve" font-family="Helvetica,Helvetica" font-size="32.0" fill="#000000" transform="matrix(1.00, 0.00, -0.00, -1.00, 616.3, 50.2)">…</text></g></g><g><clipPath id="clip0x6080024ae940"><path d="M 17.1 0.0 L 655.7 0.0 L 655.7 103.4 L 17.1 103.4 Z M 17.1 0.0 "></path></clipPath><g clip-path="url(#clip0x6080024ae940)"><path d="M 11.9 99.1 C 8.6 99.1 5.8 96.4 5.8 93.1 L 5.8 55.5 C 5.8 52.2 3.3 49.5 0.0 49.5 C 3.3 49.5 5.8 46.9 5.8 43.6 L 5.8 6.0 C 5.8 2.7 8.6 0.0 11.9 0.0 M 622.4 0.0 C 625.7 0.0 628.8 2.7 628.8 6.0 L 628.8 43.6 C 628.8 46.9 631.1 49.5 634.4 49.5 C 631.1 49.5 628.8 52.2 628.8 55.5 L 628.8 93.1 C 628.8 96.4 625.7 99.1 622.4 99.1 " fill="none" stroke="#000000" stroke-width="2.00" stroke-linejoin="round" transform="matrix(1.00, 0.00, 0.00, -1.00, 19.2, 101.2)"></path></g></g><g><clipPath id="clip0x6080024adce0"><path d="M 369.8 53.9 L 411.6 53.9 L 411.6 95.8 L 369.8 95.8 Z M 369.8 53.9 "></path></clipPath><g clip-path="url(#clip0x6080024adce0)"><image xlink:href="../../18AEFA53-5962-4751-B48C-8EE8462EA4B2/assets/A483835D8E36E24F3A3C2277F5A6719A.png" width="32.00" height="32.00" transform="matrix(1.28, 0.00, -0.00, -1.28, 370.1, 95.4)"></image><path d="M 0.0 0.0 L 41.1 0.0 L 41.1 41.1 L 0.0 41.1 Z M 0.0 0.0 " fill="none" stroke="#7F7F7F" stroke-width="0.75" stroke-linejoin="round" transform="matrix(1.00, 0.00, 0.00, -1.00, 370.1, 95.4)"></path></g></g><g><clipPath id="clip0x6080024aeb80"><path d="M 403.3 53.9 L 445.2 53.9 L 445.2 95.8 L 403.3 95.8 Z M 403.3 53.9 "></path></clipPath><g clip-path="url(#clip0x6080024aeb80)"><image xlink:href="../../18AEFA53-5962-4751-B48C-8EE8462EA4B2/assets/89EC65CF95AA56FA5F1271995429AE3F.png" width="32.00" height="32.00" transform="matrix(1.28, 0.00, -0.00, -1.28, 403.7, 95.4)"></image><path d="M 0.0 0.0 L 41.1 0.0 L 41.1 41.1 L 0.0 41.1 Z M 0.0 0.0 " fill="none" stroke="#7F7F7F" stroke-width="0.75" stroke-linejoin="round" transform="matrix(1.00, 0.00, 0.00, -1.00, 403.7, 95.4)"></path></g></g><g><clipPath id="clip0x6080024aedc0"><path d="M 436.8 53.9 L 478.7 53.9 L 478.7 95.8 L 436.8 95.8 Z M 436.8 53.9 "></path></clipPath><g clip-path="url(#clip0x6080024aedc0)"><image xlink:href="../../18AEFA53-5962-4751-B48C-8EE8462EA4B2/assets/338CA977E56D7AC37D35F802B6B82379.png" width="32.00" height="32.00" transform="matrix(1.28, 0.00, -0.00, -1.28, 437.2, 95.4)"></image><path d="M 0.0 0.0 L 41.1 0.0 L 41.1 41.1 L 0.0 41.1 Z M 0.0 0.0 " fill="none" stroke="#7F7F7F" stroke-width="0.75" stroke-linejoin="round" transform="matrix(1.00, 0.00, 0.00, -1.00, 437.2, 95.4)"></path></g></g><g><clipPath id="clip0x6080024ae5e0"><path d="M 470.4 53.9 L 512.2 53.9 L 512.2 95.8 L 470.4 95.8 Z M 470.4 53.9 "></path></clipPath><g clip-path="url(#clip0x6080024ae5e0)"><image xlink:href="../../18AEFA53-5962-4751-B48C-8EE8462EA4B2/assets/BFF7D378BFFBD29E493388EAEA8F9BAE.png" width="32.00" height="32.00" transform="matrix(1.28, 0.00, -0.00, -1.28, 470.7, 95.4)"></image><path d="M 0.0 0.0 L 41.1 0.0 L 41.1 41.1 L 0.0 41.1 Z M 0.0 0.0 " fill="none" stroke="#7F7F7F" stroke-width="0.75" stroke-linejoin="round" transform="matrix(1.00, 0.00, 0.00, -1.00, 470.7, 95.4)"></path></g></g><g><clipPath id="clip0x6080024b5ea0"><path d="M 503.9 53.9 L 545.8 53.9 L 545.8 95.8 L 503.9 95.8 Z M 503.9 53.9 "></path></clipPath><g clip-path="url(#clip0x6080024b5ea0)"><image xlink:href="../../18AEFA53-5962-4751-B48C-8EE8462EA4B2/assets/7F46FB8727B6306E1A9A60D4D6DA9038.png" width="32.00" height="32.00" transform="matrix(1.28, 0.00, -0.00, -1.28, 504.3, 95.4)"></image><path d="M 0.0 0.0 L 41.1 0.0 L 41.1 41.1 L 0.0 41.1 Z M 0.0 0.0 " fill="none" stroke="#7F7F7F" stroke-width="0.75" stroke-linejoin="round" transform="matrix(1.00, 0.00, 0.00, -1.00, 504.3, 95.4)"></path></g></g><g><clipPath id="clip0x6080024b58a0"><path d="M 333.3 7.3 L 375.2 7.3 L 375.2 49.2 L 333.3 49.2 Z M 333.3 7.3 "></path></clipPath><g clip-path="url(#clip0x6080024b58a0)"><image xlink:href="../../18AEFA53-5962-4751-B48C-8EE8462EA4B2/assets/A6D677D9E93AF75E6C597952A2010177.png" width="32.00" height="32.00" transform="matrix(1.28, 0.00, -0.00, -1.28, 333.7, 48.8)"></image><path d="M 0.0 0.0 L 41.1 0.0 L 41.1 41.1 L 0.0 41.1 Z M 0.0 0.0 " fill="none" stroke="#7F7F7F" stroke-width="0.75" stroke-linejoin="round" transform="matrix(1.00, 0.00, 0.00, -1.00, 333.7, 48.8)"></path></g></g><g><clipPath id="clip0x6080024b5600"><path d="M 363.1 7.3 L 404.9 7.3 L 404.9 49.2 L 363.1 49.2 Z M 363.1 7.3 "></path></clipPath><g clip-path="url(#clip0x6080024b5600)"><image xlink:href="../../18AEFA53-5962-4751-B48C-8EE8462EA4B2/assets/650196E805B3629B994DA71B75A376E3.png" width="32.00" height="32.00" transform="matrix(1.28, 0.00, -0.00, -1.28, 363.5, 48.8)"></image><path d="M 0.0 0.0 L 41.1 0.0 L 41.1 41.1 L 0.0 41.1 Z M 0.0 0.0 " fill="none" stroke="#7F7F7F" stroke-width="0.75" stroke-linejoin="round" transform="matrix(1.00, 0.00, 0.00, -1.00, 363.5, 48.8)"></path></g></g><g><clipPath id="clip0x6080024b5360"><path d="M 392.9 7.3 L 434.7 7.3 L 434.7 49.2 L 392.9 49.2 Z M 392.9 7.3 "></path></clipPath><g clip-path="url(#clip0x6080024b5360)"><image xlink:href="../../18AEFA53-5962-4751-B48C-8EE8462EA4B2/assets/BF6D1847E991852D3EC8BE5FE7BF0CE8.png" width="32.00" height="32.00" transform="matrix(1.28, 0.00, -0.00, -1.28, 393.2, 48.8)"></image><path d="M 0.0 0.0 L 41.1 0.0 L 41.1 41.1 L 0.0 41.1 Z M 0.0 0.0 " fill="none" stroke="#7F7F7F" stroke-width="0.75" stroke-linejoin="round" transform="matrix(1.00, 0.00, 0.00, -1.00, 393.2, 48.8)"></path></g></g><g><clipPath id="clip0x6080024b4d60"><path d="M 1.6 109.3 L 44.6 109.3 L 44.6 129.5 L 1.6 129.5 Z M 1.6 109.3 "></path></clipPath><g clip-path="url(#clip0x6080024b4d60)"><text xml:space="preserve" font-family="Helvetica-Bold,Helvetica" font-weight="bold" font-size="11.0" fill="#7F7F7F" transform="matrix(1.00, 0.00, -0.00, -1.00, 5.2, 115.4)">O</text><text xml:space="preserve" font-family="Helvetica-Bold,Helvetica" font-weight="bold" font-size="11.0" fill="#7F7F7F" transform="matrix(1.00, 0.00, -0.00, -1.00, 13.8, 115.4)">f</text><text xml:space="preserve" font-family="Helvetica-Bold,Helvetica" font-weight="bold" font-size="11.0" fill="#7F7F7F" transform="matrix(1.00, 0.00, -0.00, -1.00, 17.4, 115.4)">f</text><text xml:space="preserve" font-family="Helvetica-Bold,Helvetica" font-weight="bold" font-size="11.0" fill="#7F7F7F" transform="matrix(1.00, 0.00, -0.00, -1.00, 21.1, 115.4)">l</text><text xml:space="preserve" font-family="Helvetica-Bold,Helvetica" font-weight="bold" font-size="11.0" fill="#7F7F7F" transform="matrix(1.00, 0.00, -0.00, -1.00, 24.1, 115.4)">i</text><text xml:space="preserve" font-family="Helvetica-Bold,Helvetica" font-weight="bold" font-size="11.0" fill="#7F7F7F" transform="matrix(1.00, 0.00, -0.00, -1.00, 27.2, 115.4)">n</text><text xml:space="preserve" font-family="Helvetica-Bold,Helvetica" font-weight="bold" font-size="11.0" fill="#7F7F7F" transform="matrix(1.00, 0.00, -0.00, -1.00, 33.9, 115.4)">e</text></g></g></g></svg>