<?xml version="1.0" encoding="UTF-8" standalone="no"?><svg xmlns="http://www.w3.org/2000/svg" xmlns:xlink="http://www.w3.org/1999/xlink" clip-rule="evenodd" stroke-miterlimit="10" viewBox="0 0 687 183"><desc>SVG generated by Keynote</desc><defs></defs><g transform="matrix(1.00, 0.00, -0.00, -1.00, 0.0, 183.0)"><g><clipPath id="clip0x6100014b1fa0"><path d="M 0.8 0.4 L 686.5 0.4 L 686.5 182.8 L 0.8 182.8 Z M 0.8 0.4 "></path></clipPath><g clip-path="url(#clip0x6100014b1fa0)"><path d="M 2.0 182.0 L 685.0 182.0 L 685.0 1.0 L 2.0 1.0 Z M 1.8 181.8 " fill="#FFFFFF" fill-opacity="0.90"></path></g></g><g><clipPath id="clip0x6100014b16a0"><path d="M 167.1 63.4 L 617.3 63.4 L 617.3 97.4 L 167.1 97.4 Z M 167.1 63.4 "></path></clipPath><g clip-path="url(#clip0x6100014b16a0)"><text xml:space="preserve" font-family="Helvetica-Bold,Helvetica" font-weight="bold" font-size="20.0" fill="#194B3E" transform="matrix(1.00, 0.00, -0.00, -1.00, 172.1, 73.0)">S</text><text xml:space="preserve" font-family="Helvetica-Bold,Helvetica" font-weight="bold" font-size="20.0" fill="#194B3E" transform="matrix(1.00, 0.00, -0.00, -1.00, 185.4, 73.0)">i</text><text xml:space="preserve" font-family="Helvetica-Bold,Helvetica" font-weight="bold" font-size="20.0" fill="#194B3E" transform="matrix(1.00, 0.00, -0.00, -1.00, 191.0, 73.0)">m</text><text xml:space="preserve" font-family="Helvetica-Bold,Helvetica" font-weight="bold" font-size="20.0" fill="#194B3E" transform="matrix(1.00, 0.00, -0.00, -1.00, 208.8, 73.0)">p</text><text xml:space="preserve" font-family="Helvetica-Bold,Helvetica" font-weight="bold" font-size="20.0" fill="#194B3E" transform="matrix(1.00, 0.00, -0.00, -1.00, 221.0, 73.0)">l</text><text xml:space="preserve" font-family="Helvetica-Bold,Helvetica" font-weight="bold" font-size="20.0" fill="#194B3E" transform="matrix(1.00, 0.00, -0.00, -1.00, 226.5, 73.0)">e</text><text xml:space="preserve" font-family="Helvetica-Bold,Helvetica" font-weight="bold" font-size="20.0" fill="#194B3E" transform="matrix(1.00, 0.00, -0.00, -1.00, 237.7, 73.0)"> </text><text xml:space="preserve" font-family="Helvetica-Bold,Helvetica" font-weight="bold" font-size="20.0" fill="#194B3E" transform="matrix(1.00, 0.00, -0.00, -1.00, 243.2, 73.0)"> </text><text xml:space="preserve" font-family="Helvetica-Bold,Helvetica" font-weight="bold" font-size="20.0" fill="#194B3E" transform="matrix(1.00, 0.00, -0.00, -1.00, 248.8, 73.0)"> </text><text xml:space="preserve" font-family="Helvetica-Bold,Helvetica" font-weight="bold" font-size="20.0" fill="#194B3E" transform="matrix(1.00, 0.00, -0.00, -1.00, 254.3, 73.0)"> </text><text xml:space="preserve" font-family="Helvetica-Bold,Helvetica" font-weight="bold" font-size="20.0" fill="#194B3E" transform="matrix(1.00, 0.00, -0.00, -1.00, 259.9, 73.0)"> </text><text xml:space="preserve" font-family="Helvetica-Bold,Helvetica" font-weight="bold" font-size="20.0" fill="#194B3E" transform="matrix(1.00, 0.00, -0.00, -1.00, 265.4, 73.0)"> </text><text xml:space="preserve" font-family="Helvetica-Bold,Helvetica" font-weight="bold" font-size="20.0" fill="#194B3E" transform="matrix(1.00, 0.00, -0.00, -1.00, 271.0, 73.0)"> </text><text xml:space="preserve" font-family="Helvetica-Bold,Helvetica" font-weight="bold" font-size="20.0" fill="#194B3E" transform="matrix(1.00, 0.00, -0.00, -1.00, 276.5, 73.0)"> </text><text xml:space="preserve" font-family="Helvetica-Bold,Helvetica" font-weight="bold" font-size="20.0" fill="#194B3E" transform="matrix(1.00, 0.00, -0.00, -1.00, 282.1, 73.0)"> </text><text xml:space="preserve" font-family="Helvetica-Bold,Helvetica" font-weight="bold" font-size="20.0" fill="#194B3E" transform="matrix(1.00, 0.00, -0.00, -1.00, 287.6, 73.0)"> </text><text xml:space="preserve" font-family="Helvetica-Bold,Helvetica" font-weight="bold" font-size="20.0" fill="#194B3E" transform="matrix(1.00, 0.00, -0.00, -1.00, 293.2, 73.0)">I</text><text xml:space="preserve" font-family="Helvetica-Bold,Helvetica" font-weight="bold" font-size="20.0" fill="#194B3E" transform="matrix(1.00, 0.00, -0.00, -1.00, 298.7, 73.0)">n</text><text xml:space="preserve" font-family="Helvetica-Bold,Helvetica" font-weight="bold" font-size="20.0" fill="#194B3E" transform="matrix(1.00, 0.00, -0.00, -1.00, 311.0, 73.0)">t</text><text xml:space="preserve" font-family="Helvetica-Bold,Helvetica" font-weight="bold" font-size="20.0" fill="#194B3E" transform="matrix(1.00, 0.00, -0.00, -1.00, 317.6, 73.0)">u</text><text xml:space="preserve" font-family="Helvetica-Bold,Helvetica" font-weight="bold" font-size="20.0" fill="#194B3E" transform="matrix(1.00, 0.00, -0.00, -1.00, 329.8, 73.0)">i</text><text xml:space="preserve" font-family="Helvetica-Bold,Helvetica" font-weight="bold" font-size="20.0" fill="#194B3E" transform="matrix(1.00, 0.00, -0.00, -1.00, 335.4, 73.0)">t</text><text xml:space="preserve" font-family="Helvetica-Bold,Helvetica" font-weight="bold" font-size="20.0" fill="#194B3E" transform="matrix(1.00, 0.00, -0.00, -1.00, 342.0, 73.0)">i</text><text xml:space="preserve" font-family="Helvetica-Bold,Helvetica" font-weight="bold" font-size="20.0" fill="#194B3E" transform="matrix(1.00, 0.00, -0.00, -1.00, 347.6, 73.0)">v</text><text xml:space="preserve" font-family="Helvetica-Bold,Helvetica" font-weight="bold" font-size="20.0" fill="#194B3E" transform="matrix(1.00, 0.00, -0.00, -1.00, 358.7, 73.0)">e</text><text xml:space="preserve" font-family="Helvetica-Bold,Helvetica" font-weight="bold" font-size="20.0" fill="#194B3E" transform="matrix(1.00, 0.00, -0.00, -1.00, 369.9, 73.0)"> </text><text xml:space="preserve" font-family="Helvetica-Bold,Helvetica" font-weight="bold" font-size="20.0" fill="#194B3E" transform="matrix(1.00, 0.00, -0.00, -1.00, 375.4, 73.0)"> </text><text xml:space="preserve" font-family="Helvetica-Bold,Helvetica" font-weight="bold" font-size="20.0" fill="#194B3E" transform="matrix(1.00, 0.00, -0.00, -1.00, 381.0, 73.0)"> </text><text xml:space="preserve" font-family="Helvetica-Bold,Helvetica" font-weight="bold" font-size="20.0" fill="#194B3E" transform="matrix(1.00, 0.00, -0.00, -1.00, 386.5, 73.0)"> </text><text xml:space="preserve" font-family="Helvetica-Bold,Helvetica" font-weight="bold" font-size="20.0" fill="#194B3E" transform="matrix(1.00, 0.00, -0.00, -1.00, 392.1, 73.0)"> </text><text xml:space="preserve" font-family="Helvetica-Bold,Helvetica" font-weight="bold" font-size="20.0" fill="#194B3E" transform="matrix(1.00, 0.00, -0.00, -1.00, 397.6, 73.0)"> </text><text xml:space="preserve" font-family="Helvetica-Bold,Helvetica" font-weight="bold" font-size="20.0" fill="#194B3E" transform="matrix(1.00, 0.00, -0.00, -1.00, 403.2, 73.0)"> </text><text xml:space="preserve" font-family="Helvetica-Bold,Helvetica" font-weight="bold" font-size="20.0" fill="#194B3E" transform="matrix(1.00, 0.00, -0.00, -1.00, 408.7, 73.0)"> </text><text xml:space="preserve" font-family="Helvetica-Bold,Helvetica" font-weight="bold" font-size="20.0" fill="#194B3E" transform="matrix(1.00, 0.00, -0.00, -1.00, 414.3, 73.0)">C</text><text xml:space="preserve" font-family="Helvetica-Bold,Helvetica" font-weight="bold" font-size="20.0" fill="#194B3E" transform="matrix(1.00, 0.00, -0.00, -1.00, 428.7, 73.0)">u</text><text xml:space="preserve" font-family="Helvetica-Bold,Helvetica" font-weight="bold" font-size="20.0" fill="#194B3E" transform="matrix(1.00, 0.00, -0.00, -1.00, 440.9, 73.0)">s</text><text xml:space="preserve" font-family="Helvetica-Bold,Helvetica" font-weight="bold" font-size="20.0" fill="#194B3E" transform="matrix(1.00, 0.00, -0.00, -1.00, 452.1, 73.0)">t</text><text xml:space="preserve" font-family="Helvetica-Bold,Helvetica" font-weight="bold" font-size="20.0" fill="#194B3E" transform="matrix(1.00, 0.00, -0.00, -1.00, 458.7, 73.0)">o</text><text xml:space="preserve" font-family="Helvetica-Bold,Helvetica" font-weight="bold" font-size="20.0" fill="#194B3E" transform="matrix(1.00, 0.00, -0.00, -1.00, 470.9, 73.0)">m</text><text xml:space="preserve" font-family="Helvetica-Bold,Helvetica" font-weight="bold" font-size="20.0" fill="#194B3E" transform="matrix(1.00, 0.00, -0.00, -1.00, 488.7, 73.0)">i</text><text xml:space="preserve" font-family="Helvetica-Bold,Helvetica" font-weight="bold" font-size="20.0" fill="#194B3E" transform="matrix(1.00, 0.00, -0.00, -1.00, 494.3, 73.0)">z</text><text xml:space="preserve" font-family="Helvetica-Bold,Helvetica" font-weight="bold" font-size="20.0" fill="#194B3E" transform="matrix(1.00, 0.00, -0.00, -1.00, 504.3, 73.0)">a</text><text xml:space="preserve" font-family="Helvetica-Bold,Helvetica" font-weight="bold" font-size="20.0" fill="#194B3E" transform="matrix(1.00, 0.00, -0.00, -1.00, 515.4, 73.0)">b</text><text xml:space="preserve" font-family="Helvetica-Bold,Helvetica" font-weight="bold" font-size="20.0" fill="#194B3E" transform="matrix(1.00, 0.00, -0.00, -1.00, 527.6, 73.0)">l</text><text xml:space="preserve" font-family="Helvetica-Bold,Helvetica" font-weight="bold" font-size="20.0" fill="#194B3E" transform="matrix(1.00, 0.00, -0.00, -1.00, 533.2, 73.0)">e</text></g></g></g></svg>