<?xml version="1.0" encoding="UTF-8" standalone="no"?><svg xmlns="http://www.w3.org/2000/svg" xmlns:xlink="http://www.w3.org/1999/xlink" clip-rule="evenodd" stroke-miterlimit="10" viewBox="0 0 720 540"><desc>SVG generated by Keynote</desc><defs></defs><g transform="matrix(1.00, 0.00, -0.00, -1.00, 0.0, 540.0)"><path d="M 0.0 540.0 L 720.0 540.0 L 720.0 0.0 L 0.0 0.0 Z M 0.0 540.0 " fill="#FFFFFF"></path><path d="M 0.0 540.0 L 28.0 540.0 L 28.0 485.0 L 0.0 485.0 Z M 0.0 540.0 " fill="#4DC780"></path><path d="M 28.0 540.0 L 722.0 540.0 L 722.0 485.0 L 28.0 485.0 Z M 28.3 540.0 " fill="#009E60"></path><path d="M 0.0 27.0 L 722.0 27.0 L 722.0 -1.0 L 0.0 -1.0 Z M -0.0 27.0 " fill="#009E60"></path><path d="M 694.0 27.0 L 721.0 27.0 L 721.0 -1.0 L 694.0 -1.0 Z M 694.2 27.0 " fill="#4DC780"></path><text xml:space="preserve" font-family="Helvetica-Bold,Helvetica" font-weight="bold" font-size="36.0" fill="#FFFFFF" transform="matrix(1.00, 0.00, -0.00, -1.00, 31.9, 499.7)">B</text><text xml:space="preserve" font-family="Helvetica-Bold,Helvetica" font-weight="bold" font-size="36.0" fill="#FFFFFF" transform="matrix(1.00, 0.00, -0.00, -1.00, 58.0, 499.7)">u</text><text xml:space="preserve" font-family="Helvetica-Bold,Helvetica" font-weight="bold" font-size="36.0" fill="#FFFFFF" transform="matrix(1.00, 0.00, -0.00, -1.00, 79.9, 499.7)">i</text><text xml:space="preserve" font-family="Helvetica-Bold,Helvetica" font-weight="bold" font-size="36.0" fill="#FFFFFF" transform="matrix(1.00, 0.00, -0.00, -1.00, 89.9, 499.7)">l</text><text xml:space="preserve" font-family="Helvetica-Bold,Helvetica" font-weight="bold" font-size="36.0" fill="#FFFFFF" transform="matrix(1.00, 0.00, -0.00, -1.00, 99.9, 499.7)">d</text><text xml:space="preserve" font-family="Helvetica-Bold,Helvetica" font-weight="bold" font-size="36.0" fill="#FFFFFF" transform="matrix(1.00, 0.00, -0.00, -1.00, 121.9, 499.7)">i</text><text xml:space="preserve" font-family="Helvetica-Bold,Helvetica" font-weight="bold" font-size="36.0" fill="#FFFFFF" transform="matrix(1.00, 0.00, -0.00, -1.00, 131.9, 499.7)">n</text><text xml:space="preserve" font-family="Helvetica-Bold,Helvetica" font-weight="bold" font-size="36.0" fill="#FFFFFF" transform="matrix(1.00, 0.00, -0.00, -1.00, 153.9, 499.7)">g</text><text xml:space="preserve" font-family="Helvetica-Bold,Helvetica" font-weight="bold" font-size="36.0" fill="#FFFFFF" transform="matrix(1.00, 0.00, -0.00, -1.00, 175.9, 499.7)"> </text><text xml:space="preserve" font-family="Helvetica-Bold,Helvetica" font-weight="bold" font-size="36.0" fill="#FFFFFF" transform="matrix(1.00, 0.00, -0.00, -1.00, 185.9, 499.7)">u</text><text xml:space="preserve" font-family="Helvetica-Bold,Helvetica" font-weight="bold" font-size="36.0" fill="#FFFFFF" transform="matrix(1.00, 0.00, -0.00, -1.00, 207.8, 499.7)">p</text><text xml:space="preserve" font-family="Helvetica-Bold,Helvetica" font-weight="bold" font-size="36.0" fill="#FFFFFF" transform="matrix(1.00, 0.00, -0.00, -1.00, 229.8, 499.7)"> </text><text xml:space="preserve" font-family="Helvetica-Bold,Helvetica" font-weight="bold" font-size="36.0" fill="#FFFFFF" transform="matrix(1.00, 0.00, -0.00, -1.00, 239.8, 499.7)">a</text><text xml:space="preserve" font-family="Helvetica-Bold,Helvetica" font-weight="bold" font-size="36.0" fill="#FFFFFF" transform="matrix(1.00, 0.00, -0.00, -1.00, 259.9, 499.7)"> </text><text xml:space="preserve" font-family="Helvetica-Bold,Helvetica" font-weight="bold" font-size="36.0" fill="#FFFFFF" transform="matrix(1.00, 0.00, -0.00, -1.00, 269.8, 499.7)">H</text><text xml:space="preserve" font-family="Helvetica-Bold,Helvetica" font-weight="bold" font-size="36.0" fill="#FFFFFF" transform="matrix(1.00, 0.00, -0.00, -1.00, 295.9, 499.7)">a</text><text xml:space="preserve" font-family="Helvetica-Bold,Helvetica" font-weight="bold" font-size="36.0" fill="#FFFFFF" transform="matrix(1.00, 0.00, -0.00, -1.00, 315.9, 499.7)">n</text><text xml:space="preserve" font-family="Helvetica-Bold,Helvetica" font-weight="bold" font-size="36.0" fill="#FFFFFF" transform="matrix(1.00, 0.00, -0.00, -1.00, 337.9, 499.7)">d</text><text xml:space="preserve" font-family="Helvetica-Bold,Helvetica" font-weight="bold" font-size="36.0" fill="#FFFFFF" transform="matrix(1.00, 0.00, -0.00, -1.00, 359.8, 499.7)"> </text><text xml:space="preserve" font-family="Helvetica-Bold,Helvetica" font-weight="bold" font-size="36.0" fill="#FFFFFF" transform="matrix(1.00, 0.00, -0.00, -1.00, 369.8, 499.7)">S</text><text xml:space="preserve" font-family="Helvetica-Bold,Helvetica" font-weight="bold" font-size="36.0" fill="#FFFFFF" transform="matrix(1.00, 0.00, -0.00, -1.00, 393.9, 499.7)">h</text><text xml:space="preserve" font-family="Helvetica-Bold,Helvetica" font-weight="bold" font-size="36.0" fill="#FFFFFF" transform="matrix(1.00, 0.00, -0.00, -1.00, 415.8, 499.7)">a</text><text xml:space="preserve" font-family="Helvetica-Bold,Helvetica" font-weight="bold" font-size="36.0" fill="#FFFFFF" transform="matrix(1.00, 0.00, -0.00, -1.00, 435.9, 499.7)">p</text><text xml:space="preserve" font-family="Helvetica-Bold,Helvetica" font-weight="bold" font-size="36.0" fill="#FFFFFF" transform="matrix(1.00, 0.00, -0.00, -1.00, 457.8, 499.7)">e</text><text xml:space="preserve" font-family="Helvetica-Bold,Helvetica" font-weight="bold" font-size="36.0" fill="#FFFFFF" transform="matrix(1.00, 0.00, -0.00, -1.00, 477.9, 499.7)"> </text><text xml:space="preserve" font-family="Helvetica-Bold,Helvetica" font-weight="bold" font-size="36.0" fill="#FFFFFF" transform="matrix(1.00, 0.00, -0.00, -1.00, 487.9, 499.7)">S</text><text xml:space="preserve" font-family="Helvetica-Bold,Helvetica" font-weight="bold" font-size="36.0" fill="#FFFFFF" transform="matrix(1.00, 0.00, -0.00, -1.00, 511.9, 499.7)">p</text><text xml:space="preserve" font-family="Helvetica-Bold,Helvetica" font-weight="bold" font-size="36.0" fill="#FFFFFF" transform="matrix(1.00, 0.00, -0.00, -1.00, 533.9, 499.7)">a</text><text xml:space="preserve" font-family="Helvetica-Bold,Helvetica" font-weight="bold" font-size="36.0" fill="#FFFFFF" transform="matrix(1.00, 0.00, -0.00, -1.00, 553.9, 499.7)">c</text><text xml:space="preserve" font-family="Helvetica-Bold,Helvetica" font-weight="bold" font-size="36.0" fill="#FFFFFF" transform="matrix(1.00, 0.00, -0.00, -1.00, 573.9, 499.7)">e</text><text xml:space="preserve" font-family="Helvetica,Helvetica" font-size="12.0" fill="#000000" transform="matrix(1.00, 0.00, -0.00, -1.00, 704.4, 8.1)">9</text><text xml:space="preserve" font-family="Helvetica-Bold,Helvetica" font-weight="bold" font-size="14.0" fill="#DDDDDD" transform="matrix(1.00, 0.00, -0.00, -1.00, 7.6, 462.6)">N</text><text xml:space="preserve" font-family="Helvetica-Bold,Helvetica" font-weight="bold" font-size="14.0" fill="#DDDDDD" transform="matrix(1.00, 0.00, -0.00, -1.00, 17.7, 462.6)">U</text><text xml:space="preserve" font-family="Helvetica-Bold,Helvetica" font-weight="bold" font-size="14.0" fill="#DDDDDD" transform="matrix(1.00, 0.00, -0.00, -1.00, 27.8, 462.6)">I</text><text xml:space="preserve" font-family="Helvetica-Bold,Helvetica" font-weight="bold" font-size="14.0" fill="#DDDDDD" transform="matrix(1.00, 0.00, -0.00, -1.00, 55.1, 462.6)">G</text><text xml:space="preserve" font-family="Helvetica-Bold,Helvetica" font-weight="bold" font-size="14.0" fill="#DDDDDD" transform="matrix(1.00, 0.00, -0.00, -1.00, 66.0, 462.6)">e</text><text xml:space="preserve" font-family="Helvetica-Bold,Helvetica" font-weight="bold" font-size="14.0" fill="#DDDDDD" transform="matrix(1.00, 0.00, -0.00, -1.00, 73.8, 462.6)">s</text><text xml:space="preserve" font-family="Helvetica-Bold,Helvetica" font-weight="bold" font-size="14.0" fill="#DDDDDD" transform="matrix(1.00, 0.00, -0.00, -1.00, 81.6, 462.6)">t</text><text xml:space="preserve" font-family="Helvetica-Bold,Helvetica" font-weight="bold" font-size="14.0" fill="#DDDDDD" transform="matrix(1.00, 0.00, -0.00, -1.00, 86.2, 462.6)">u</text><text xml:space="preserve" font-family="Helvetica-Bold,Helvetica" font-weight="bold" font-size="14.0" fill="#DDDDDD" transform="matrix(1.00, 0.00, -0.00, -1.00, 94.8, 462.6)">r</text><text xml:space="preserve" font-family="Helvetica-Bold,Helvetica" font-weight="bold" font-size="14.0" fill="#DDDDDD" transform="matrix(1.00, 0.00, -0.00, -1.00, 100.2, 462.6)">e</text><text xml:space="preserve" font-family="Helvetica-Bold,Helvetica" font-weight="bold" font-size="14.0" fill="#DDDDDD" transform="matrix(1.00, 0.00, -0.00, -1.00, 131.3, 462.6)">H</text><text xml:space="preserve" font-family="Helvetica-Bold,Helvetica" font-weight="bold" font-size="14.0" fill="#DDDDDD" transform="matrix(1.00, 0.00, -0.00, -1.00, 141.5, 462.6)">a</text><text xml:space="preserve" font-family="Helvetica-Bold,Helvetica" font-weight="bold" font-size="14.0" fill="#DDDDDD" transform="matrix(1.00, 0.00, -0.00, -1.00, 149.3, 462.6)">n</text><text xml:space="preserve" font-family="Helvetica-Bold,Helvetica" font-weight="bold" font-size="14.0" fill="#DDDDDD" transform="matrix(1.00, 0.00, -0.00, -1.00, 157.8, 462.6)">d</text><text xml:space="preserve" font-family="Helvetica-Bold,Helvetica" font-weight="bold" font-size="14.0" fill="#DDDDDD" transform="matrix(1.00, 0.00, -0.00, -1.00, 166.3, 462.6)"> </text><text xml:space="preserve" font-family="Helvetica-Bold,Helvetica" font-weight="bold" font-size="14.0" fill="#DDDDDD" transform="matrix(1.00, 0.00, -0.00, -1.00, 170.2, 462.6)">S</text><text xml:space="preserve" font-family="Helvetica-Bold,Helvetica" font-weight="bold" font-size="14.0" fill="#DDDDDD" transform="matrix(1.00, 0.00, -0.00, -1.00, 179.6, 462.6)">h</text><text xml:space="preserve" font-family="Helvetica-Bold,Helvetica" font-weight="bold" font-size="14.0" fill="#DDDDDD" transform="matrix(1.00, 0.00, -0.00, -1.00, 188.1, 462.6)">a</text><text xml:space="preserve" font-family="Helvetica-Bold,Helvetica" font-weight="bold" font-size="14.0" fill="#DDDDDD" transform="matrix(1.00, 0.00, -0.00, -1.00, 195.9, 462.6)">p</text><text xml:space="preserve" font-family="Helvetica-Bold,Helvetica" font-weight="bold" font-size="14.0" fill="#DDDDDD" transform="matrix(1.00, 0.00, -0.00, -1.00, 204.5, 462.6)">e</text><text xml:space="preserve" font-family="Helvetica-Bold,Helvetica" font-weight="bold" font-size="14.0" fill="#DDDDDD" transform="matrix(1.00, 0.00, -0.00, -1.00, 212.3, 462.6)"> </text><text xml:space="preserve" font-family="Helvetica-Bold,Helvetica" font-weight="bold" font-size="14.0" fill="#DDDDDD" transform="matrix(1.00, 0.00, -0.00, -1.00, 216.1, 462.6)">R</text><text xml:space="preserve" font-family="Helvetica-Bold,Helvetica" font-weight="bold" font-size="14.0" fill="#DDDDDD" transform="matrix(1.00, 0.00, -0.00, -1.00, 226.3, 462.6)">e</text><text xml:space="preserve" font-family="Helvetica-Bold,Helvetica" font-weight="bold" font-size="14.0" fill="#DDDDDD" transform="matrix(1.00, 0.00, -0.00, -1.00, 234.0, 462.6)">c</text><text xml:space="preserve" font-family="Helvetica-Bold,Helvetica" font-weight="bold" font-size="14.0" fill="#DDDDDD" transform="matrix(1.00, 0.00, -0.00, -1.00, 241.8, 462.6)">o</text><text xml:space="preserve" font-family="Helvetica-Bold,Helvetica" font-weight="bold" font-size="14.0" fill="#DDDDDD" transform="matrix(1.00, 0.00, -0.00, -1.00, 250.4, 462.6)">g</text><text xml:space="preserve" font-family="Helvetica-Bold,Helvetica" font-weight="bold" font-size="14.0" fill="#DDDDDD" transform="matrix(1.00, 0.00, -0.00, -1.00, 258.9, 462.6)">n</text><text xml:space="preserve" font-family="Helvetica-Bold,Helvetica" font-weight="bold" font-size="14.0" fill="#DDDDDD" transform="matrix(1.00, 0.00, -0.00, -1.00, 267.5, 462.6)">i</text><text xml:space="preserve" font-family="Helvetica-Bold,Helvetica" font-weight="bold" font-size="14.0" fill="#DDDDDD" transform="matrix(1.00, 0.00, -0.00, -1.00, 271.4, 462.6)">t</text><text xml:space="preserve" font-family="Helvetica-Bold,Helvetica" font-weight="bold" font-size="14.0" fill="#DDDDDD" transform="matrix(1.00, 0.00, -0.00, -1.00, 276.0, 462.6)">i</text><text xml:space="preserve" font-family="Helvetica-Bold,Helvetica" font-weight="bold" font-size="14.0" fill="#DDDDDD" transform="matrix(1.00, 0.00, -0.00, -1.00, 279.9, 462.6)">o</text><text xml:space="preserve" font-family="Helvetica-Bold,Helvetica" font-weight="bold" font-size="14.0" fill="#DDDDDD" transform="matrix(1.00, 0.00, -0.00, -1.00, 288.5, 462.6)">n</text><text xml:space="preserve" font-family="Helvetica-Bold,Helvetica" font-weight="bold" font-size="14.0" fill="#DDDDDD" transform="matrix(1.00, 0.00, -0.00, -1.00, 41.0, 463.6)">&gt;</text><text xml:space="preserve" font-family="Helvetica-Bold,Helvetica" font-weight="bold" font-size="14.0" fill="#DDDDDD" transform="matrix(1.00, 0.00, -0.00, -1.00, 115.5, 463.6)">&gt;</text><text xml:space="preserve" font-family="Helvetica-Bold,Helvetica" font-weight="bold" font-size="14.0" fill="#000000" transform="matrix(1.00, 0.00, -0.00, -1.00, 318.2, 462.7)">H</text><text xml:space="preserve" font-family="Helvetica-Bold,Helvetica" font-weight="bold" font-size="14.0" fill="#000000" transform="matrix(1.00, 0.00, -0.00, -1.00, 328.3, 462.7)">a</text><text xml:space="preserve" font-family="Helvetica-Bold,Helvetica" font-weight="bold" font-size="14.0" fill="#000000" transform="matrix(1.00, 0.00, -0.00, -1.00, 336.1, 462.7)">n</text><text xml:space="preserve" font-family="Helvetica-Bold,Helvetica" font-weight="bold" font-size="14.0" fill="#000000" transform="matrix(1.00, 0.00, -0.00, -1.00, 344.7, 462.7)">d</text><text xml:space="preserve" font-family="Helvetica-Bold,Helvetica" font-weight="bold" font-size="14.0" fill="#000000" transform="matrix(1.00, 0.00, -0.00, -1.00, 353.2, 462.7)"> </text><text xml:space="preserve" font-family="Helvetica-Bold,Helvetica" font-weight="bold" font-size="14.0" fill="#000000" transform="matrix(1.00, 0.00, -0.00, -1.00, 357.1, 462.7)">S</text><text xml:space="preserve" font-family="Helvetica-Bold,Helvetica" font-weight="bold" font-size="14.0" fill="#000000" transform="matrix(1.00, 0.00, -0.00, -1.00, 366.4, 462.7)">h</text><text xml:space="preserve" font-family="Helvetica-Bold,Helvetica" font-weight="bold" font-size="14.0" fill="#000000" transform="matrix(1.00, 0.00, -0.00, -1.00, 375.0, 462.7)">a</text><text xml:space="preserve" font-family="Helvetica-Bold,Helvetica" font-weight="bold" font-size="14.0" fill="#000000" transform="matrix(1.00, 0.00, -0.00, -1.00, 382.8, 462.7)">p</text><text xml:space="preserve" font-family="Helvetica-Bold,Helvetica" font-weight="bold" font-size="14.0" fill="#000000" transform="matrix(1.00, 0.00, -0.00, -1.00, 391.3, 462.7)">e</text><text xml:space="preserve" font-family="Helvetica-Bold,Helvetica" font-weight="bold" font-size="14.0" fill="#000000" transform="matrix(1.00, 0.00, -0.00, -1.00, 399.1, 462.7)"> </text><text xml:space="preserve" font-family="Helvetica-Bold,Helvetica" font-weight="bold" font-size="14.0" fill="#000000" transform="matrix(1.00, 0.00, -0.00, -1.00, 403.0, 462.7)">S</text><text xml:space="preserve" font-family="Helvetica-Bold,Helvetica" font-weight="bold" font-size="14.0" fill="#000000" transform="matrix(1.00, 0.00, -0.00, -1.00, 412.4, 462.7)">p</text><text xml:space="preserve" font-family="Helvetica-Bold,Helvetica" font-weight="bold" font-size="14.0" fill="#000000" transform="matrix(1.00, 0.00, -0.00, -1.00, 420.9, 462.7)">a</text><text xml:space="preserve" font-family="Helvetica-Bold,Helvetica" font-weight="bold" font-size="14.0" fill="#000000" transform="matrix(1.00, 0.00, -0.00, -1.00, 428.7, 462.7)">c</text><text xml:space="preserve" font-family="Helvetica-Bold,Helvetica" font-weight="bold" font-size="14.0" fill="#000000" transform="matrix(1.00, 0.00, -0.00, -1.00, 436.5, 462.7)">e</text><text xml:space="preserve" font-family="Helvetica-Bold,Helvetica" font-weight="bold" font-size="14.0" fill="#DDDDDD" transform="matrix(1.00, 0.00, -0.00, -1.00, 302.3, 463.7)">&gt;</text><image xlink:href="40863B421659785B1B37649296FAA8BB.png" width="672.00" height="49.00" transform="matrix(1.00, 0.00, -0.00, -1.00, 24.6, 453.3)" opacity="0.35"></image><path d="M 0.4 0.1 L 663.4 0.1 L 663.4 40.1 L 0.4 40.1 Z M 0.0 0.0 " fill="none" stroke="#009900" stroke-width="3.00" stroke-linejoin="round" transform="matrix(1.00, 0.00, 0.00, -1.00, 29.1, 450.6)"></path><image xlink:href="FB98DBC2FD83E0867AF3C1AB55737AC8.png" width="167.00" height="24.00" transform="matrix(1.00, 0.00, -0.00, -1.00, 280.0, 444.0)"></image><text xml:space="preserve" font-family="Helvetica-Bold,Helvetica" font-weight="bold" font-size="18.0" fill="#000000" transform="matrix(1.00, 0.00, -0.00, -1.00, 279.7, 428.8)">H</text><text xml:space="preserve" font-family="Helvetica-Bold,Helvetica" font-weight="bold" font-size="18.0" fill="#000000" transform="matrix(1.00, 0.00, -0.00, -1.00, 292.7, 428.8)">a</text><text xml:space="preserve" font-family="Helvetica-Bold,Helvetica" font-weight="bold" font-size="18.0" fill="#000000" transform="matrix(1.00, 0.00, -0.00, -1.00, 302.7, 428.8)">n</text><text xml:space="preserve" font-family="Helvetica-Bold,Helvetica" font-weight="bold" font-size="18.0" fill="#000000" transform="matrix(1.00, 0.00, -0.00, -1.00, 313.7, 428.8)">d</text><text xml:space="preserve" font-family="Helvetica-Bold,Helvetica" font-weight="bold" font-size="18.0" fill="#000000" transform="matrix(1.00, 0.00, -0.00, -1.00, 324.7, 428.8)"> </text><text xml:space="preserve" font-family="Helvetica-Bold,Helvetica" font-weight="bold" font-size="18.0" fill="#000000" transform="matrix(1.00, 0.00, -0.00, -1.00, 329.7, 428.8)">S</text><text xml:space="preserve" font-family="Helvetica-Bold,Helvetica" font-weight="bold" font-size="18.0" fill="#000000" transform="matrix(1.00, 0.00, -0.00, -1.00, 341.7, 428.8)">h</text><text xml:space="preserve" font-family="Helvetica-Bold,Helvetica" font-weight="bold" font-size="18.0" fill="#000000" transform="matrix(1.00, 0.00, -0.00, -1.00, 352.7, 428.8)">a</text><text xml:space="preserve" font-family="Helvetica-Bold,Helvetica" font-weight="bold" font-size="18.0" fill="#000000" transform="matrix(1.00, 0.00, -0.00, -1.00, 362.7, 428.8)">p</text><text xml:space="preserve" font-family="Helvetica-Bold,Helvetica" font-weight="bold" font-size="18.0" fill="#000000" transform="matrix(1.00, 0.00, -0.00, -1.00, 373.7, 428.8)">e</text><text xml:space="preserve" font-family="Helvetica-Bold,Helvetica" font-weight="bold" font-size="18.0" fill="#000000" transform="matrix(1.00, 0.00, -0.00, -1.00, 383.7, 428.8)"> </text><text xml:space="preserve" font-family="Helvetica-Bold,Helvetica" font-weight="bold" font-size="18.0" fill="#000000" transform="matrix(1.00, 0.00, -0.00, -1.00, 388.7, 428.8)">S</text><text xml:space="preserve" font-family="Helvetica-Bold,Helvetica" font-weight="bold" font-size="18.0" fill="#000000" transform="matrix(1.00, 0.00, -0.00, -1.00, 400.7, 428.8)">p</text><text xml:space="preserve" font-family="Helvetica-Bold,Helvetica" font-weight="bold" font-size="18.0" fill="#000000" transform="matrix(1.00, 0.00, -0.00, -1.00, 411.7, 428.8)">a</text><text xml:space="preserve" font-family="Helvetica-Bold,Helvetica" font-weight="bold" font-size="18.0" fill="#000000" transform="matrix(1.00, 0.00, -0.00, -1.00, 421.7, 428.8)">c</text><text xml:space="preserve" font-family="Helvetica-Bold,Helvetica" font-weight="bold" font-size="18.0" fill="#000000" transform="matrix(1.00, 0.00, -0.00, -1.00, 431.7, 428.8)">e</text><path d="M 14.0 528.0 L 31.0 528.0 L 31.0 516.0 L 14.0 516.0 Z M 13.8 528.0 " fill="#149D66"></path></g></svg>