<?xml version="1.0" encoding="UTF-8" standalone="no"?><svg xmlns="http://www.w3.org/2000/svg" xmlns:xlink="http://www.w3.org/1999/xlink" clip-rule="evenodd" stroke-miterlimit="10" viewBox="0 0 32 38"><desc>SVG generated by Keynote</desc><defs></defs><g transform="matrix(1.00, 0.00, -0.00, -1.00, 0.0, 38.0)"><path d="M 13.2 0.7 C 11.4 0.5 7.5 -0.8 4.2 0.7 C 3.8 0.9 1.2 4.9 0.7 5.6 C 0.5 6.3 0.0 6.9 0.0 7.7 C 0.0 8.3 -0.5 21.7 2.1 25.7 C 4.2 28.8 4.1 29.7 7.0 31.2 C 9.5 32.4 14.0 32.4 16.0 32.6 C 19.5 31.9 19.4 32.6 21.5 29.8 C 22.5 28.5 24.3 25.7 24.3 25.7 C 24.5 24.5 24.7 23.3 25.0 22.2 C 25.1 21.5 25.5 20.8 25.7 20.1 C 25.9 19.2 26.1 18.3 26.4 17.3 C 26.1 14.3 26.8 11.1 25.7 8.3 C 25.0 6.8 22.9 6.5 21.5 5.6 C 18.8 3.8 20.2 4.5 17.4 3.5 C 16.7 3.0 16.1 2.4 15.3 2.1 C 13.9 1.7 15.0 1.0 13.2 0.7 Z M 13.2 0.7 " fill="none" stroke="#009500" stroke-width="3.00" stroke-linejoin="round" transform="matrix(1.00, 0.00, 0.00, -1.00, 3.0, 35.2)"></path></g></svg>