<?xml version="1.0" encoding="UTF-8" standalone="no"?><svg xmlns="http://www.w3.org/2000/svg" xmlns:xlink="http://www.w3.org/1999/xlink" clip-rule="evenodd" stroke-miterlimit="10" viewBox="0 0 453 156"><desc>SVG generated by Keynote</desc><defs></defs><g transform="matrix(1.00, 0.00, -0.00, -1.00, 0.0, 156.0)"><g><clipPath id="clip0x600002abe6c0"><path d="M 79.4 0.9 L 79.4 37.2 L 115.8 37.2 L 115.8 0.9 Z M 79.4 0.9 "></path></clipPath><g clip-path="url(#clip0x600002abe6c0)"><image xlink:href="052C2D37C7AE833C4380544F44A26521.png" width="34.00" height="34.00" transform="matrix(0.00, 1.01, 1.01, -0.00, 80.4, 1.9)" opacity="0.35"></image><path d="M 104.5 20.5 L 111.4 20.5 L 97.6 34.6 L 83.8 20.5 L 90.5 20.5 L 90.5 7.5 L 104.5 7.5 Z M 104.7 20.5 " fill="#002800"></path><path d="M 13.4 20.7 L 13.4 27.6 L 27.5 13.8 L 13.4 0.0 L 13.4 6.7 L 0.4 6.7 L 0.4 20.7 Z M 13.4 20.9 " fill="none" stroke="#002800" stroke-width="0.75" stroke-linejoin="round" transform="matrix(0.00, 1.00, 1.00, 0.00, 83.8, 7.1)"></path></g></g><g><clipPath id="clip0x600002abc920"><path d="M 112.6 5.4 L 300.3 5.4 L 300.3 30.9 L 112.6 30.9 Z M 112.6 5.4 "></path></clipPath><g clip-path="url(#clip0x600002abc920)"><text xml:space="preserve" font-family="Helvetica,Helvetica" font-size="15.0" fill="#000000" transform="matrix(1.00, 0.00, -0.00, -1.00, 116.3, 12.6)">U</text><text xml:space="preserve" font-family="Helvetica,Helvetica" font-size="15.0" fill="#000000" transform="matrix(1.00, 0.00, -0.00, -1.00, 127.2, 12.6)">n</text><text xml:space="preserve" font-family="Helvetica,Helvetica" font-size="15.0" fill="#000000" transform="matrix(1.00, 0.00, -0.00, -1.00, 135.5, 12.6)">s</text><text xml:space="preserve" font-family="Helvetica,Helvetica" font-size="15.0" fill="#000000" transform="matrix(1.00, 0.00, -0.00, -1.00, 143.0, 12.6)">u</text><text xml:space="preserve" font-family="Helvetica,Helvetica" font-size="15.0" fill="#000000" transform="matrix(1.00, 0.00, -0.00, -1.00, 151.4, 12.6)">p</text><text xml:space="preserve" font-family="Helvetica,Helvetica" font-size="15.0" fill="#000000" transform="matrix(1.00, 0.00, -0.00, -1.00, 159.7, 12.6)">e</text><text xml:space="preserve" font-family="Helvetica,Helvetica" font-size="15.0" fill="#000000" transform="matrix(1.00, 0.00, -0.00, -1.00, 168.1, 12.6)">r</text><text xml:space="preserve" font-family="Helvetica,Helvetica" font-size="15.0" fill="#000000" transform="matrix(1.00, 0.00, -0.00, -1.00, 173.1, 12.6)">v</text><text xml:space="preserve" font-family="Helvetica,Helvetica" font-size="15.0" fill="#000000" transform="matrix(1.00, 0.00, -0.00, -1.00, 180.6, 12.6)">i</text><text xml:space="preserve" font-family="Helvetica,Helvetica" font-size="15.0" fill="#000000" transform="matrix(1.00, 0.00, -0.00, -1.00, 183.9, 12.6)">s</text><text xml:space="preserve" font-family="Helvetica,Helvetica" font-size="15.0" fill="#000000" transform="matrix(1.00, 0.00, -0.00, -1.00, 191.4, 12.6)">e</text><text xml:space="preserve" font-family="Helvetica,Helvetica" font-size="15.0" fill="#000000" transform="matrix(1.00, 0.00, -0.00, -1.00, 199.7, 12.6)">d</text><text xml:space="preserve" font-family="Helvetica,Helvetica" font-size="15.0" fill="#000000" transform="matrix(1.00, 0.00, -0.00, -1.00, 208.1, 12.6)"> </text><text xml:space="preserve" font-family="Helvetica,Helvetica" font-size="15.0" fill="#000000" transform="matrix(1.00, 0.00, -0.00, -1.00, 212.3, 12.6)">l</text><text xml:space="preserve" font-family="Helvetica,Helvetica" font-size="15.0" fill="#000000" transform="matrix(1.00, 0.00, -0.00, -1.00, 215.6, 12.6)">e</text><text xml:space="preserve" font-family="Helvetica,Helvetica" font-size="15.0" fill="#000000" transform="matrix(1.00, 0.00, -0.00, -1.00, 223.9, 12.6)">a</text><text xml:space="preserve" font-family="Helvetica,Helvetica" font-size="15.0" fill="#000000" transform="matrix(1.00, 0.00, -0.00, -1.00, 232.3, 12.6)">r</text><text xml:space="preserve" font-family="Helvetica,Helvetica" font-size="15.0" fill="#000000" transform="matrix(1.00, 0.00, -0.00, -1.00, 237.3, 12.6)">n</text><text xml:space="preserve" font-family="Helvetica,Helvetica" font-size="15.0" fill="#000000" transform="matrix(1.00, 0.00, -0.00, -1.00, 245.6, 12.6)">i</text><text xml:space="preserve" font-family="Helvetica,Helvetica" font-size="15.0" fill="#000000" transform="matrix(1.00, 0.00, -0.00, -1.00, 249.0, 12.6)">n</text><text xml:space="preserve" font-family="Helvetica,Helvetica" font-size="15.0" fill="#000000" transform="matrix(1.00, 0.00, -0.00, -1.00, 257.3, 12.6)">g</text></g></g><g><clipPath id="clip0x600002ca5880"><path d="M 227.7 55.1 L 451.1 55.1 L 451.1 79.3 L 227.7 79.3 Z M 227.7 55.1 "></path></clipPath><g clip-path="url(#clip0x600002ca5880)"><text xml:space="preserve" font-family="Helvetica-Bold,Helvetica" font-weight="bold" font-size="14.0" fill="#000000" transform="matrix(1.00, 0.00, -0.00, -1.00, 231.3, 61.9)">R</text><text xml:space="preserve" font-family="Helvetica-Bold,Helvetica" font-weight="bold" font-size="14.0" fill="#000000" transform="matrix(1.00, 0.00, -0.00, -1.00, 241.4, 61.9)">e</text><text xml:space="preserve" font-family="Helvetica-Bold,Helvetica" font-weight="bold" font-size="14.0" fill="#000000" transform="matrix(1.00, 0.00, -0.00, -1.00, 249.2, 61.9)">s</text><text xml:space="preserve" font-family="Helvetica-Bold,Helvetica" font-weight="bold" font-size="14.0" fill="#000000" transform="matrix(1.00, 0.00, -0.00, -1.00, 257.0, 61.9)">t</text><text xml:space="preserve" font-family="Helvetica-Bold,Helvetica" font-weight="bold" font-size="14.0" fill="#000000" transform="matrix(1.00, 0.00, -0.00, -1.00, 261.6, 61.9)">r</text><text xml:space="preserve" font-family="Helvetica-Bold,Helvetica" font-weight="bold" font-size="14.0" fill="#000000" transform="matrix(1.00, 0.00, -0.00, -1.00, 267.1, 61.9)">i</text><text xml:space="preserve" font-family="Helvetica-Bold,Helvetica" font-weight="bold" font-size="14.0" fill="#000000" transform="matrix(1.00, 0.00, -0.00, -1.00, 271.0, 61.9)">c</text><text xml:space="preserve" font-family="Helvetica-Bold,Helvetica" font-weight="bold" font-size="14.0" fill="#000000" transform="matrix(1.00, 0.00, -0.00, -1.00, 278.7, 61.9)">t</text><text xml:space="preserve" font-family="Helvetica-Bold,Helvetica" font-weight="bold" font-size="14.0" fill="#000000" transform="matrix(1.00, 0.00, -0.00, -1.00, 283.4, 61.9)">e</text><text xml:space="preserve" font-family="Helvetica-Bold,Helvetica" font-weight="bold" font-size="14.0" fill="#000000" transform="matrix(1.00, 0.00, -0.00, -1.00, 291.2, 61.9)">d</text><text xml:space="preserve" font-family="Helvetica-Bold,Helvetica" font-weight="bold" font-size="14.0" fill="#000000" transform="matrix(1.00, 0.00, -0.00, -1.00, 299.7, 61.9)"> </text><text xml:space="preserve" font-family="Helvetica-Bold,Helvetica" font-weight="bold" font-size="14.0" fill="#000000" transform="matrix(1.00, 0.00, -0.00, -1.00, 303.6, 61.9)">B</text><text xml:space="preserve" font-family="Helvetica-Bold,Helvetica" font-weight="bold" font-size="14.0" fill="#000000" transform="matrix(1.00, 0.00, -0.00, -1.00, 313.7, 61.9)">o</text><text xml:space="preserve" font-family="Helvetica-Bold,Helvetica" font-weight="bold" font-size="14.0" fill="#000000" transform="matrix(1.00, 0.00, -0.00, -1.00, 322.3, 61.9)">l</text><text xml:space="preserve" font-family="Helvetica-Bold,Helvetica" font-weight="bold" font-size="14.0" fill="#000000" transform="matrix(1.00, 0.00, -0.00, -1.00, 326.2, 61.9)">t</text><text xml:space="preserve" font-family="Helvetica-Bold,Helvetica" font-weight="bold" font-size="14.0" fill="#000000" transform="matrix(1.00, 0.00, -0.00, -1.00, 330.8, 61.9)">z</text><text xml:space="preserve" font-family="Helvetica-Bold,Helvetica" font-weight="bold" font-size="14.0" fill="#000000" transform="matrix(1.00, 0.00, -0.00, -1.00, 337.8, 61.9)">m</text><text xml:space="preserve" font-family="Helvetica-Bold,Helvetica" font-weight="bold" font-size="14.0" fill="#000000" transform="matrix(1.00, 0.00, -0.00, -1.00, 350.3, 61.9)">a</text><text xml:space="preserve" font-family="Helvetica-Bold,Helvetica" font-weight="bold" font-size="14.0" fill="#000000" transform="matrix(1.00, 0.00, -0.00, -1.00, 358.1, 61.9)">n</text><text xml:space="preserve" font-family="Helvetica-Bold,Helvetica" font-weight="bold" font-size="14.0" fill="#000000" transform="matrix(1.00, 0.00, -0.00, -1.00, 366.6, 61.9)">n</text><text xml:space="preserve" font-family="Helvetica-Bold,Helvetica" font-weight="bold" font-size="14.0" fill="#000000" transform="matrix(1.00, 0.00, -0.00, -1.00, 375.2, 61.9)"> </text><text xml:space="preserve" font-family="Helvetica-Bold,Helvetica" font-weight="bold" font-size="14.0" fill="#000000" transform="matrix(1.00, 0.00, -0.00, -1.00, 379.1, 61.9)">M</text><text xml:space="preserve" font-family="Helvetica-Bold,Helvetica" font-weight="bold" font-size="14.0" fill="#000000" transform="matrix(1.00, 0.00, -0.00, -1.00, 390.7, 61.9)">a</text><text xml:space="preserve" font-family="Helvetica-Bold,Helvetica" font-weight="bold" font-size="14.0" fill="#000000" transform="matrix(1.00, 0.00, -0.00, -1.00, 398.5, 61.9)">c</text><text xml:space="preserve" font-family="Helvetica-Bold,Helvetica" font-weight="bold" font-size="14.0" fill="#000000" transform="matrix(1.00, 0.00, -0.00, -1.00, 406.3, 61.9)">h</text><text xml:space="preserve" font-family="Helvetica-Bold,Helvetica" font-weight="bold" font-size="14.0" fill="#000000" transform="matrix(1.00, 0.00, -0.00, -1.00, 414.9, 61.9)">i</text><text xml:space="preserve" font-family="Helvetica-Bold,Helvetica" font-weight="bold" font-size="14.0" fill="#000000" transform="matrix(1.00, 0.00, -0.00, -1.00, 418.7, 61.9)">n</text><text xml:space="preserve" font-family="Helvetica-Bold,Helvetica" font-weight="bold" font-size="14.0" fill="#000000" transform="matrix(1.00, 0.00, -0.00, -1.00, 427.3, 61.9)">e</text></g></g><g><clipPath id="clip0x600002ca8580"><path d="M 22.2 52.0 L 213.3 52.0 L 213.3 94.2 L 22.2 94.2 Z M 22.2 52.0 "></path></clipPath><g clip-path="url(#clip0x600002ca8580)"><path d="M 24.2 64.6 L 24.0 81.7 C 24.0 87.5 28.9 92.0 34.8 92.0 L 200.8 92.0 C 206.6 92.0 211.0 87.5 211.0 81.7 L 211.0 64.6 C 211.0 58.8 206.6 54.0 200.8 54.0 L 34.8 54.0 C 28.9 54.0 24.2 58.8 24.2 64.6 Z M 24.2 64.6 " fill="#D8D8D8"></path><path d="M 0.0 27.7 L -0.2 10.5 C -0.2 4.7 4.7 0.2 10.5 0.2 L 176.6 0.2 C 182.4 0.2 186.8 4.7 186.8 10.5 L 186.8 27.7 C 186.8 33.5 182.4 38.2 176.6 38.2 L 10.5 38.2 C 4.7 38.2 0.0 33.5 0.0 27.7 Z M 0.0 27.7 " fill="none" stroke="#000000" stroke-width="2.00" stroke-linejoin="round" transform="matrix(1.00, 0.00, 0.00, -1.00, 24.2, 92.2)"></path></g></g><g><clipPath id="clip0x600002ca8820"><path d="M 65.0 113.7 L 159.7 113.7 L 159.7 155.3 L 65.0 155.3 Z M 65.0 113.7 "></path></clipPath><g clip-path="url(#clip0x600002ca8820)"><path d="M 67.0 125.1 L 67.0 143.9 C 67.0 149.1 71.2 153.0 76.4 153.0 L 148.4 153.0 C 153.6 153.0 158.0 149.1 158.0 143.9 L 158.0 125.1 C 158.0 119.9 153.6 116.0 148.4 116.0 L 76.4 116.0 C 71.2 116.0 67.0 119.9 67.0 125.1 Z M 67.0 125.1 " fill="#FFFFFF"></path><path d="M 0.0 28.2 L -0.0 9.3 C -0.0 4.2 4.2 0.3 9.3 0.3 L 81.4 0.3 C 86.5 0.3 91.0 4.2 91.0 9.3 L 91.0 28.2 C 91.0 33.4 86.5 37.3 81.4 37.3 L 9.3 37.3 C 4.2 37.3 0.0 33.4 0.0 28.2 Z M 0.0 28.2 " fill="none" stroke="#000000" stroke-width="2.00" stroke-linejoin="round" transform="matrix(1.00, 0.00, 0.00, -1.00, 67.0, 153.3)"></path></g></g><g><clipPath id="clip0x600002ca8dc0"><path d="M 76.4 118.3 L 107.7 118.3 L 107.7 149.7 L 76.4 149.7 Z M 76.4 118.3 "></path></clipPath><g clip-path="url(#clip0x600002ca8dc0)"><path d="M 101.7 143.6 C 107.1 138.3 107.1 129.6 101.7 124.3 C 96.4 118.9 87.7 118.9 82.4 124.3 C 77.0 129.6 77.0 138.3 82.4 143.6 C 87.7 149.0 96.4 149.0 101.7 143.6 " fill="#FFFFFF"></path><path d="M 23.4 4.0 C 28.7 9.4 28.7 18.0 23.4 23.4 C 18.0 28.7 9.4 28.7 4.0 23.4 C -1.3 18.0 -1.3 9.4 4.0 4.0 C 9.4 -1.3 18.0 -1.3 23.4 4.0 " fill="none" stroke="#000000" stroke-width="2.00" stroke-linejoin="round" transform="matrix(1.00, 0.00, 0.00, -1.00, 78.4, 147.7)"></path></g></g><g><clipPath id="clip0x600002ca8f40"><path d="M 116.1 118.3 L 147.4 118.3 L 147.4 149.7 L 116.1 149.7 Z M 116.1 118.3 "></path></clipPath><g clip-path="url(#clip0x600002ca8f40)"><path d="M 141.4 143.6 C 146.8 138.3 146.8 129.6 141.4 124.3 C 136.1 118.9 127.4 118.9 122.1 124.3 C 116.7 129.6 116.7 138.3 122.1 143.6 C 127.4 149.0 136.1 149.0 141.4 143.6 " fill="#FFFFFF"></path><path d="M 23.4 4.0 C 28.7 9.4 28.7 18.0 23.4 23.4 C 18.0 28.7 9.4 28.7 4.0 23.4 C -1.3 18.0 -1.3 9.4 4.0 4.0 C 9.4 -1.3 18.0 -1.3 23.4 4.0 " fill="none" stroke="#000000" stroke-width="2.00" stroke-linejoin="round" transform="matrix(1.00, 0.00, 0.00, -1.00, 118.1, 147.7)"></path></g></g><g><clipPath id="clip0x600002ca9240"><path d="M 93.9 119.5 L 50.1 85.0 L 48.0 87.8 L 91.8 122.3 Z M 93.9 119.5 "></path></clipPath><g clip-path="url(#clip0x600002ca9240)"><path d="M 0.0 0.0 L 53.7 0.0 " fill="none" stroke="#0C0C0C" stroke-opacity="0.80" stroke-width="1.50" stroke-linejoin="round" transform="matrix(-0.79, -0.62, -0.62, 0.79, 92.1, 120.3)"></path></g></g><g><clipPath id="clip0x600002ca9600"><path d="M 93.7 121.4 L 96.8 86.2 L 93.3 85.9 L 90.2 121.1 Z M 93.7 121.4 "></path></clipPath><g clip-path="url(#clip0x600002ca9600)"><path d="M 0.0 0.0 L 33.4 0.0 " fill="none" stroke="#0C0C0C" stroke-opacity="0.80" stroke-width="1.50" stroke-linejoin="round" transform="matrix(0.09, -1.00, -1.00, -0.09, 92.1, 120.3)"></path></g></g><g><clipPath id="clip0x600002caa020"><path d="M 92.2 122.3 L 142.1 88.3 L 140.2 85.4 L 90.2 119.4 Z M 92.2 122.3 "></path></clipPath><g clip-path="url(#clip0x600002caa020)"><path d="M 0.0 0.0 L 58.4 0.0 " fill="none" stroke="#0C0C0C" stroke-opacity="0.80" stroke-width="1.50" stroke-linejoin="round" transform="matrix(0.83, -0.56, -0.56, -0.83, 92.1, 120.3)"></path></g></g><g><clipPath id="clip0x600002ca9de0"><path d="M 93.1 87.7 L 131.3 122.2 L 133.7 119.7 L 95.4 85.1 Z M 93.1 87.7 "></path></clipPath><g clip-path="url(#clip0x600002ca9de0)"><path d="M 0.0 0.0 L 49.6 0.0 " fill="none" stroke="#0C0C0C" stroke-opacity="0.80" stroke-width="1.50" stroke-linejoin="round" transform="matrix(0.74, 0.67, 0.67, -0.74, 95.0, 87.0)"></path></g></g><g><clipPath id="clip0x600002ca9ba0"><path d="M 48.3 88.3 L 132.0 122.3 L 133.3 119.0 L 49.6 85.0 Z M 48.3 88.3 "></path></clipPath><g clip-path="url(#clip0x600002ca9ba0)"><path d="M 0.0 0.0 L 88.4 0.0 " fill="none" stroke="#0C0C0C" stroke-opacity="0.80" stroke-width="1.50" stroke-linejoin="round" transform="matrix(0.93, 0.38, 0.38, -0.93, 49.8, 87.0)"></path></g></g><g><clipPath id="clip0x600002ca9960"><path d="M 138.9 86.0 L 129.8 120.8 L 133.2 121.7 L 142.3 86.9 Z M 138.9 86.0 "></path></clipPath><g clip-path="url(#clip0x600002ca9960)"><path d="M 0.0 0.0 L 34.0 0.0 " fill="none" stroke="#0C0C0C" stroke-opacity="0.80" stroke-width="1.50" stroke-linejoin="round" transform="matrix(-0.25, 0.97, 0.97, 0.25, 140.3, 87.4)"></path></g></g><g><clipPath id="clip0x600002ca9720"><path d="M 33.8 56.9 L 65.9 56.9 L 65.9 89.0 L 33.8 89.0 Z M 33.8 56.9 "></path></clipPath><g clip-path="url(#clip0x600002ca9720)"><path d="M 59.8 82.9 C 65.3 77.4 65.3 68.5 59.8 63.0 C 54.3 57.5 45.4 57.5 39.9 63.0 C 34.4 68.5 34.4 77.4 39.9 82.9 C 45.4 88.4 54.3 88.4 59.8 82.9 " fill="#7F7F7F"></path><path d="M 24.0 4.1 C 29.5 9.6 29.5 18.5 24.0 24.0 C 18.5 29.5 9.6 29.5 4.1 24.0 C -1.4 18.5 -1.4 9.6 4.1 4.1 C 9.6 -1.4 18.5 -1.4 24.0 4.1 " fill="none" stroke="#000000" stroke-width="2.00" stroke-linejoin="round" transform="matrix(1.00, 0.00, 0.00, -1.00, 35.8, 87.0)"></path></g></g><g><clipPath id="clip0x600002caa2c0"><path d="M 78.9 56.9 L 111.0 56.9 L 111.0 89.0 L 78.9 89.0 Z M 78.9 56.9 "></path></clipPath><g clip-path="url(#clip0x600002caa2c0)"><path d="M 104.9 82.9 C 110.4 77.4 110.4 68.5 104.9 63.0 C 99.4 57.5 90.5 57.5 85.0 63.0 C 79.5 68.5 79.5 77.4 85.0 82.9 C 90.5 88.4 99.4 88.4 104.9 82.9 " fill="#7F7F7F"></path><path d="M 24.0 4.1 C 29.5 9.6 29.5 18.5 24.0 24.0 C 18.5 29.5 9.6 29.5 4.1 24.0 C -1.4 18.5 -1.4 9.6 4.1 4.1 C 9.6 -1.4 18.5 -1.4 24.0 4.1 " fill="none" stroke="#000000" stroke-width="2.00" stroke-linejoin="round" transform="matrix(1.00, 0.00, 0.00, -1.00, 80.9, 87.0)"></path></g></g><g><clipPath id="clip0x600002caa500"><path d="M 169.6 56.9 L 201.8 56.9 L 201.8 89.0 L 169.6 89.0 Z M 169.6 56.9 "></path></clipPath><g clip-path="url(#clip0x600002caa500)"><path d="M 195.6 82.9 C 201.1 77.4 201.1 68.5 195.6 63.0 C 190.1 57.5 181.2 57.5 175.8 63.0 C 170.3 68.5 170.3 77.4 175.8 82.9 C 181.2 88.4 190.1 88.4 195.6 82.9 " fill="#7F7F7F"></path><path d="M 24.0 4.1 C 29.5 9.6 29.5 18.5 24.0 24.0 C 18.5 29.5 9.6 29.5 4.1 24.0 C -1.4 18.5 -1.4 9.6 4.1 4.1 C 9.6 -1.4 18.5 -1.4 24.0 4.1 " fill="none" stroke="#000000" stroke-width="2.00" stroke-linejoin="round" transform="matrix(1.00, 0.00, 0.00, -1.00, 171.6, 87.0)"></path></g></g><g><clipPath id="clip0x600002caaa40"><path d="M 124.3 57.3 L 156.4 57.3 L 156.4 89.4 L 124.3 89.4 Z M 124.3 57.3 "></path></clipPath><g clip-path="url(#clip0x600002caaa40)"><path d="M 150.3 83.3 C 155.8 77.8 155.8 68.9 150.3 63.4 C 144.8 57.9 135.9 57.9 130.4 63.4 C 124.9 68.9 124.9 77.8 130.4 83.3 C 135.9 88.8 144.8 88.8 150.3 83.3 " fill="#7F7F7F"></path><path d="M 24.0 4.1 C 29.5 9.6 29.5 18.5 24.0 24.0 C 18.5 29.5 9.6 29.5 4.1 24.0 C -1.4 18.5 -1.4 9.6 4.1 4.1 C 9.6 -1.4 18.5 -1.4 24.0 4.1 " fill="none" stroke="#000000" stroke-width="2.00" stroke-linejoin="round" transform="matrix(1.00, 0.00, 0.00, -1.00, 126.3, 87.4)"></path></g></g><g><clipPath id="clip0x600002caa9e0"><path d="M 38.0 144.0 L 52.0 144.0 L 52.0 121.0 L 38.0 121.0 Z M 38.0 144.1 "></path></clipPath><g clip-path="url(#clip0x600002caa9e0)"><g><clipPath id="clip0x600002caad40"><path d="M 38.0 121.4 L 51.7 121.4 L 51.7 144.1 L 38.0 144.1 Z M 38.0 121.4 "></path></clipPath><g clip-path="url(#clip0x600002caad40)"><image xlink:href="FC4C69F471A9B3025F4C69E5FD3265C7.png" width="36.00" height="36.00" transform="matrix(0.63, 0.00, -0.00, -0.63, 38.0, 144.1)"></image></g></g></g></g><g><clipPath id="clip0x6100014beb40"><path d="M 0.9 64.7 L 16.2 64.7 L 16.2 77.1 L 0.9 77.1 Z M 0.9 64.7 "></path></clipPath><g clip-path="url(#clip0x6100014beb40)"><image xlink:href="1138831F05AF4DD16312E0F567177AA2.png" width="21.00" height="17.00" transform="matrix(0.73, 0.00, -0.00, -0.73, 0.9, 77.1)"></image></g></g><g><clipPath id="clip0x600002caaf20"><path d="M 185.6 85.0 L 130.0 119.3 L 131.8 122.3 L 187.5 88.0 Z M 185.6 85.0 "></path></clipPath><g clip-path="url(#clip0x600002caaf20)"><path d="M 0.0 0.0 L 63.4 0.0 " fill="none" stroke="#0C0C0C" stroke-opacity="0.80" stroke-width="1.50" stroke-linejoin="round" transform="matrix(-0.85, 0.52, 0.52, 0.85, 185.7, 87.0)"></path></g></g><g><clipPath id="clip0x600002caada0"><path d="M 186.1 85.1 L 90.5 119.0 L 91.7 122.3 L 187.2 88.4 Z M 186.1 85.1 "></path></clipPath><g clip-path="url(#clip0x600002caada0)"><path d="M 0.0 0.0 L 99.4 0.0 " fill="none" stroke="#0C0C0C" stroke-opacity="0.80" stroke-width="1.50" stroke-linejoin="round" transform="matrix(-0.94, 0.33, 0.33, 0.94, 185.7, 87.0)"></path></g></g></g></svg>