<?xml version="1.0" encoding="UTF-8" standalone="no"?><svg xmlns="http://www.w3.org/2000/svg" xmlns:xlink="http://www.w3.org/1999/xlink" clip-rule="evenodd" stroke-miterlimit="10" viewBox="0 0 720 540"><desc>SVG generated by Keynote</desc><defs></defs><g transform="matrix(1.00, 0.00, -0.00, -1.00, 0.0, 540.0)"><path d="M 0.0 540.0 L 720.0 540.0 L 720.0 0.0 L 0.0 0.0 Z M 0.0 540.0 " fill="#FFFFFF"></path><path d="M 0.0 540.0 L 28.0 540.0 L 28.0 485.0 L 0.0 485.0 Z M 0.0 540.0 " fill="#4DC780"></path><path d="M 28.0 540.0 L 722.0 540.0 L 722.0 485.0 L 28.0 485.0 Z M 28.3 540.0 " fill="#009E60"></path><path d="M 0.0 27.0 L 722.0 27.0 L 722.0 -1.0 L 0.0 -1.0 Z M -0.0 27.0 " fill="#009E60"></path><path d="M 694.0 27.0 L 721.0 27.0 L 721.0 -1.0 L 694.0 -1.0 Z M 694.2 27.0 " fill="#4DC780"></path><image xlink:href="../../474A081D-9D49-4291-A3F0-720626933F5B/assets/7A6CD9E0A8CFC578DFEBF038B8AC48DD.png" width="672.00" height="217.00" transform="matrix(1.00, 0.00, -0.00, -1.00, 24.6, 453.3)" opacity="0.35"></image><path d="M 0.4 0.1 L 663.4 0.1 L 663.4 208.1 L 0.4 208.1 Z M 0.0 0.0 " fill="none" stroke="#009900" stroke-width="3.00" stroke-linejoin="round" transform="matrix(1.00, 0.00, 0.00, -1.00, 29.1, 450.6)"></path><text xml:space="preserve" font-family="Helvetica-Bold,Helvetica" font-weight="bold" font-size="36.0" fill="#FFFFFF" transform="matrix(1.00, 0.00, -0.00, -1.00, 31.9, 499.7)">B</text><text xml:space="preserve" font-family="Helvetica-Bold,Helvetica" font-weight="bold" font-size="36.0" fill="#FFFFFF" transform="matrix(1.00, 0.00, -0.00, -1.00, 58.0, 499.7)">u</text><text xml:space="preserve" font-family="Helvetica-Bold,Helvetica" font-weight="bold" font-size="36.0" fill="#FFFFFF" transform="matrix(1.00, 0.00, -0.00, -1.00, 79.9, 499.7)">i</text><text xml:space="preserve" font-family="Helvetica-Bold,Helvetica" font-weight="bold" font-size="36.0" fill="#FFFFFF" transform="matrix(1.00, 0.00, -0.00, -1.00, 89.9, 499.7)">l</text><text xml:space="preserve" font-family="Helvetica-Bold,Helvetica" font-weight="bold" font-size="36.0" fill="#FFFFFF" transform="matrix(1.00, 0.00, -0.00, -1.00, 99.9, 499.7)">d</text><text xml:space="preserve" font-family="Helvetica-Bold,Helvetica" font-weight="bold" font-size="36.0" fill="#FFFFFF" transform="matrix(1.00, 0.00, -0.00, -1.00, 121.9, 499.7)">i</text><text xml:space="preserve" font-family="Helvetica-Bold,Helvetica" font-weight="bold" font-size="36.0" fill="#FFFFFF" transform="matrix(1.00, 0.00, -0.00, -1.00, 131.9, 499.7)">n</text><text xml:space="preserve" font-family="Helvetica-Bold,Helvetica" font-weight="bold" font-size="36.0" fill="#FFFFFF" transform="matrix(1.00, 0.00, -0.00, -1.00, 153.9, 499.7)">g</text><text xml:space="preserve" font-family="Helvetica-Bold,Helvetica" font-weight="bold" font-size="36.0" fill="#FFFFFF" transform="matrix(1.00, 0.00, -0.00, -1.00, 175.9, 499.7)"> </text><text xml:space="preserve" font-family="Helvetica-Bold,Helvetica" font-weight="bold" font-size="36.0" fill="#FFFFFF" transform="matrix(1.00, 0.00, -0.00, -1.00, 185.9, 499.7)">u</text><text xml:space="preserve" font-family="Helvetica-Bold,Helvetica" font-weight="bold" font-size="36.0" fill="#FFFFFF" transform="matrix(1.00, 0.00, -0.00, -1.00, 207.8, 499.7)">p</text><text xml:space="preserve" font-family="Helvetica-Bold,Helvetica" font-weight="bold" font-size="36.0" fill="#FFFFFF" transform="matrix(1.00, 0.00, -0.00, -1.00, 229.8, 499.7)"> </text><text xml:space="preserve" font-family="Helvetica-Bold,Helvetica" font-weight="bold" font-size="36.0" fill="#FFFFFF" transform="matrix(1.00, 0.00, -0.00, -1.00, 239.8, 499.7)">a</text><text xml:space="preserve" font-family="Helvetica-Bold,Helvetica" font-weight="bold" font-size="36.0" fill="#FFFFFF" transform="matrix(1.00, 0.00, -0.00, -1.00, 259.9, 499.7)"> </text><text xml:space="preserve" font-family="Helvetica-Bold,Helvetica" font-weight="bold" font-size="36.0" fill="#FFFFFF" transform="matrix(1.00, 0.00, -0.00, -1.00, 269.8, 499.7)">H</text><text xml:space="preserve" font-family="Helvetica-Bold,Helvetica" font-weight="bold" font-size="36.0" fill="#FFFFFF" transform="matrix(1.00, 0.00, -0.00, -1.00, 295.9, 499.7)">a</text><text xml:space="preserve" font-family="Helvetica-Bold,Helvetica" font-weight="bold" font-size="36.0" fill="#FFFFFF" transform="matrix(1.00, 0.00, -0.00, -1.00, 315.9, 499.7)">n</text><text xml:space="preserve" font-family="Helvetica-Bold,Helvetica" font-weight="bold" font-size="36.0" fill="#FFFFFF" transform="matrix(1.00, 0.00, -0.00, -1.00, 337.9, 499.7)">d</text><text xml:space="preserve" font-family="Helvetica-Bold,Helvetica" font-weight="bold" font-size="36.0" fill="#FFFFFF" transform="matrix(1.00, 0.00, -0.00, -1.00, 359.8, 499.7)"> </text><text xml:space="preserve" font-family="Helvetica-Bold,Helvetica" font-weight="bold" font-size="36.0" fill="#FFFFFF" transform="matrix(1.00, 0.00, -0.00, -1.00, 369.8, 499.7)">S</text><text xml:space="preserve" font-family="Helvetica-Bold,Helvetica" font-weight="bold" font-size="36.0" fill="#FFFFFF" transform="matrix(1.00, 0.00, -0.00, -1.00, 393.9, 499.7)">h</text><text xml:space="preserve" font-family="Helvetica-Bold,Helvetica" font-weight="bold" font-size="36.0" fill="#FFFFFF" transform="matrix(1.00, 0.00, -0.00, -1.00, 415.8, 499.7)">a</text><text xml:space="preserve" font-family="Helvetica-Bold,Helvetica" font-weight="bold" font-size="36.0" fill="#FFFFFF" transform="matrix(1.00, 0.00, -0.00, -1.00, 435.9, 499.7)">p</text><text xml:space="preserve" font-family="Helvetica-Bold,Helvetica" font-weight="bold" font-size="36.0" fill="#FFFFFF" transform="matrix(1.00, 0.00, -0.00, -1.00, 457.8, 499.7)">e</text><text xml:space="preserve" font-family="Helvetica-Bold,Helvetica" font-weight="bold" font-size="36.0" fill="#FFFFFF" transform="matrix(1.00, 0.00, -0.00, -1.00, 477.9, 499.7)"> </text><text xml:space="preserve" font-family="Helvetica-Bold,Helvetica" font-weight="bold" font-size="36.0" fill="#FFFFFF" transform="matrix(1.00, 0.00, -0.00, -1.00, 487.9, 499.7)">S</text><text xml:space="preserve" font-family="Helvetica-Bold,Helvetica" font-weight="bold" font-size="36.0" fill="#FFFFFF" transform="matrix(1.00, 0.00, -0.00, -1.00, 511.9, 499.7)">p</text><text xml:space="preserve" font-family="Helvetica-Bold,Helvetica" font-weight="bold" font-size="36.0" fill="#FFFFFF" transform="matrix(1.00, 0.00, -0.00, -1.00, 533.9, 499.7)">a</text><text xml:space="preserve" font-family="Helvetica-Bold,Helvetica" font-weight="bold" font-size="36.0" fill="#FFFFFF" transform="matrix(1.00, 0.00, -0.00, -1.00, 553.9, 499.7)">c</text><text xml:space="preserve" font-family="Helvetica-Bold,Helvetica" font-weight="bold" font-size="36.0" fill="#FFFFFF" transform="matrix(1.00, 0.00, -0.00, -1.00, 573.9, 499.7)">e</text><text xml:space="preserve" font-family="Helvetica,Helvetica" font-size="12.0" fill="#000000" transform="matrix(1.00, 0.00, -0.00, -1.00, 701.5, 8.1)">1</text><text xml:space="preserve" font-family="Helvetica,Helvetica" font-size="12.0" fill="#000000" transform="matrix(1.00, 0.00, -0.00, -1.00, 707.3, 8.1)">1</text><image xlink:href="../../78BE7326-8824-45DB-A677-C646F157113F/assets/FB98DBC2FD83E0867AF3C1AB55737AC8.png" width="167.00" height="24.00" transform="matrix(1.00, 0.00, -0.00, -1.00, 280.0, 444.0)"></image><text xml:space="preserve" font-family="Helvetica-Bold,Helvetica" font-weight="bold" font-size="18.0" fill="#000000" transform="matrix(1.00, 0.00, -0.00, -1.00, 279.7, 428.8)">H</text><text xml:space="preserve" font-family="Helvetica-Bold,Helvetica" font-weight="bold" font-size="18.0" fill="#000000" transform="matrix(1.00, 0.00, -0.00, -1.00, 292.7, 428.8)">a</text><text xml:space="preserve" font-family="Helvetica-Bold,Helvetica" font-weight="bold" font-size="18.0" fill="#000000" transform="matrix(1.00, 0.00, -0.00, -1.00, 302.7, 428.8)">n</text><text xml:space="preserve" font-family="Helvetica-Bold,Helvetica" font-weight="bold" font-size="18.0" fill="#000000" transform="matrix(1.00, 0.00, -0.00, -1.00, 313.7, 428.8)">d</text><text xml:space="preserve" font-family="Helvetica-Bold,Helvetica" font-weight="bold" font-size="18.0" fill="#000000" transform="matrix(1.00, 0.00, -0.00, -1.00, 324.7, 428.8)"> </text><text xml:space="preserve" font-family="Helvetica-Bold,Helvetica" font-weight="bold" font-size="18.0" fill="#000000" transform="matrix(1.00, 0.00, -0.00, -1.00, 329.7, 428.8)">S</text><text xml:space="preserve" font-family="Helvetica-Bold,Helvetica" font-weight="bold" font-size="18.0" fill="#000000" transform="matrix(1.00, 0.00, -0.00, -1.00, 341.7, 428.8)">h</text><text xml:space="preserve" font-family="Helvetica-Bold,Helvetica" font-weight="bold" font-size="18.0" fill="#000000" transform="matrix(1.00, 0.00, -0.00, -1.00, 352.7, 428.8)">a</text><text xml:space="preserve" font-family="Helvetica-Bold,Helvetica" font-weight="bold" font-size="18.0" fill="#000000" transform="matrix(1.00, 0.00, -0.00, -1.00, 362.7, 428.8)">p</text><text xml:space="preserve" font-family="Helvetica-Bold,Helvetica" font-weight="bold" font-size="18.0" fill="#000000" transform="matrix(1.00, 0.00, -0.00, -1.00, 373.7, 428.8)">e</text><text xml:space="preserve" font-family="Helvetica-Bold,Helvetica" font-weight="bold" font-size="18.0" fill="#000000" transform="matrix(1.00, 0.00, -0.00, -1.00, 383.7, 428.8)"> </text><text xml:space="preserve" font-family="Helvetica-Bold,Helvetica" font-weight="bold" font-size="18.0" fill="#000000" transform="matrix(1.00, 0.00, -0.00, -1.00, 388.7, 428.8)">S</text><text xml:space="preserve" font-family="Helvetica-Bold,Helvetica" font-weight="bold" font-size="18.0" fill="#000000" transform="matrix(1.00, 0.00, -0.00, -1.00, 400.7, 428.8)">p</text><text xml:space="preserve" font-family="Helvetica-Bold,Helvetica" font-weight="bold" font-size="18.0" fill="#000000" transform="matrix(1.00, 0.00, -0.00, -1.00, 411.7, 428.8)">a</text><text xml:space="preserve" font-family="Helvetica-Bold,Helvetica" font-weight="bold" font-size="18.0" fill="#000000" transform="matrix(1.00, 0.00, -0.00, -1.00, 421.7, 428.8)">c</text><text xml:space="preserve" font-family="Helvetica-Bold,Helvetica" font-weight="bold" font-size="18.0" fill="#000000" transform="matrix(1.00, 0.00, -0.00, -1.00, 431.7, 428.8)">e</text><text xml:space="preserve" font-family="Helvetica-Bold,Helvetica" font-weight="bold" font-size="14.0" fill="#DDDDDD" transform="matrix(1.00, 0.00, -0.00, -1.00, 7.6, 462.6)">N</text><text xml:space="preserve" font-family="Helvetica-Bold,Helvetica" font-weight="bold" font-size="14.0" fill="#DDDDDD" transform="matrix(1.00, 0.00, -0.00, -1.00, 17.7, 462.6)">U</text><text xml:space="preserve" font-family="Helvetica-Bold,Helvetica" font-weight="bold" font-size="14.0" fill="#DDDDDD" transform="matrix(1.00, 0.00, -0.00, -1.00, 27.8, 462.6)">I</text><text xml:space="preserve" font-family="Helvetica-Bold,Helvetica" font-weight="bold" font-size="14.0" fill="#DDDDDD" transform="matrix(1.00, 0.00, -0.00, -1.00, 55.1, 462.6)">G</text><text xml:space="preserve" font-family="Helvetica-Bold,Helvetica" font-weight="bold" font-size="14.0" fill="#DDDDDD" transform="matrix(1.00, 0.00, -0.00, -1.00, 66.0, 462.6)">e</text><text xml:space="preserve" font-family="Helvetica-Bold,Helvetica" font-weight="bold" font-size="14.0" fill="#DDDDDD" transform="matrix(1.00, 0.00, -0.00, -1.00, 73.8, 462.6)">s</text><text xml:space="preserve" font-family="Helvetica-Bold,Helvetica" font-weight="bold" font-size="14.0" fill="#DDDDDD" transform="matrix(1.00, 0.00, -0.00, -1.00, 81.6, 462.6)">t</text><text xml:space="preserve" font-family="Helvetica-Bold,Helvetica" font-weight="bold" font-size="14.0" fill="#DDDDDD" transform="matrix(1.00, 0.00, -0.00, -1.00, 86.2, 462.6)">u</text><text xml:space="preserve" font-family="Helvetica-Bold,Helvetica" font-weight="bold" font-size="14.0" fill="#DDDDDD" transform="matrix(1.00, 0.00, -0.00, -1.00, 94.8, 462.6)">r</text><text xml:space="preserve" font-family="Helvetica-Bold,Helvetica" font-weight="bold" font-size="14.0" fill="#DDDDDD" transform="matrix(1.00, 0.00, -0.00, -1.00, 100.2, 462.6)">e</text><text xml:space="preserve" font-family="Helvetica-Bold,Helvetica" font-weight="bold" font-size="14.0" fill="#DDDDDD" transform="matrix(1.00, 0.00, -0.00, -1.00, 41.0, 463.6)">&gt;</text><text xml:space="preserve" font-family="Helvetica-Bold,Helvetica" font-weight="bold" font-size="14.0" fill="#DDDDDD" transform="matrix(1.00, 0.00, -0.00, -1.00, 115.5, 463.6)">&gt;</text><image xlink:href="../../A319BE83-C0AE-47D7-AD5D-CC227EE37EA4/assets/8E54E99E559C4273C6996A5645DE69D5.png" width="621.00" height="138.00" transform="matrix(1.00, 0.00, -0.00, -1.00, 49.5, 193.9)"></image><text xml:space="preserve" font-family="Helvetica-Bold,Helvetica" font-weight="bold" font-size="14.0" fill="#DDDDDD" transform="matrix(1.00, 0.00, -0.00, -1.00, 131.3, 462.6)">H</text><text xml:space="preserve" font-family="Helvetica-Bold,Helvetica" font-weight="bold" font-size="14.0" fill="#DDDDDD" transform="matrix(1.00, 0.00, -0.00, -1.00, 141.5, 462.6)">a</text><text xml:space="preserve" font-family="Helvetica-Bold,Helvetica" font-weight="bold" font-size="14.0" fill="#DDDDDD" transform="matrix(1.00, 0.00, -0.00, -1.00, 149.3, 462.6)">n</text><text xml:space="preserve" font-family="Helvetica-Bold,Helvetica" font-weight="bold" font-size="14.0" fill="#DDDDDD" transform="matrix(1.00, 0.00, -0.00, -1.00, 157.8, 462.6)">d</text><text xml:space="preserve" font-family="Helvetica-Bold,Helvetica" font-weight="bold" font-size="14.0" fill="#DDDDDD" transform="matrix(1.00, 0.00, -0.00, -1.00, 166.3, 462.6)"> </text><text xml:space="preserve" font-family="Helvetica-Bold,Helvetica" font-weight="bold" font-size="14.0" fill="#DDDDDD" transform="matrix(1.00, 0.00, -0.00, -1.00, 170.2, 462.6)">S</text><text xml:space="preserve" font-family="Helvetica-Bold,Helvetica" font-weight="bold" font-size="14.0" fill="#DDDDDD" transform="matrix(1.00, 0.00, -0.00, -1.00, 179.6, 462.6)">h</text><text xml:space="preserve" font-family="Helvetica-Bold,Helvetica" font-weight="bold" font-size="14.0" fill="#DDDDDD" transform="matrix(1.00, 0.00, -0.00, -1.00, 188.1, 462.6)">a</text><text xml:space="preserve" font-family="Helvetica-Bold,Helvetica" font-weight="bold" font-size="14.0" fill="#DDDDDD" transform="matrix(1.00, 0.00, -0.00, -1.00, 195.9, 462.6)">p</text><text xml:space="preserve" font-family="Helvetica-Bold,Helvetica" font-weight="bold" font-size="14.0" fill="#DDDDDD" transform="matrix(1.00, 0.00, -0.00, -1.00, 204.5, 462.6)">e</text><text xml:space="preserve" font-family="Helvetica-Bold,Helvetica" font-weight="bold" font-size="14.0" fill="#DDDDDD" transform="matrix(1.00, 0.00, -0.00, -1.00, 212.3, 462.6)"> </text><text xml:space="preserve" font-family="Helvetica-Bold,Helvetica" font-weight="bold" font-size="14.0" fill="#DDDDDD" transform="matrix(1.00, 0.00, -0.00, -1.00, 216.1, 462.6)">R</text><text xml:space="preserve" font-family="Helvetica-Bold,Helvetica" font-weight="bold" font-size="14.0" fill="#DDDDDD" transform="matrix(1.00, 0.00, -0.00, -1.00, 226.3, 462.6)">e</text><text xml:space="preserve" font-family="Helvetica-Bold,Helvetica" font-weight="bold" font-size="14.0" fill="#DDDDDD" transform="matrix(1.00, 0.00, -0.00, -1.00, 234.0, 462.6)">c</text><text xml:space="preserve" font-family="Helvetica-Bold,Helvetica" font-weight="bold" font-size="14.0" fill="#DDDDDD" transform="matrix(1.00, 0.00, -0.00, -1.00, 241.8, 462.6)">o</text><text xml:space="preserve" font-family="Helvetica-Bold,Helvetica" font-weight="bold" font-size="14.0" fill="#DDDDDD" transform="matrix(1.00, 0.00, -0.00, -1.00, 250.4, 462.6)">g</text><text xml:space="preserve" font-family="Helvetica-Bold,Helvetica" font-weight="bold" font-size="14.0" fill="#DDDDDD" transform="matrix(1.00, 0.00, -0.00, -1.00, 258.9, 462.6)">n</text><text xml:space="preserve" font-family="Helvetica-Bold,Helvetica" font-weight="bold" font-size="14.0" fill="#DDDDDD" transform="matrix(1.00, 0.00, -0.00, -1.00, 267.5, 462.6)">i</text><text xml:space="preserve" font-family="Helvetica-Bold,Helvetica" font-weight="bold" font-size="14.0" fill="#DDDDDD" transform="matrix(1.00, 0.00, -0.00, -1.00, 271.4, 462.6)">t</text><text xml:space="preserve" font-family="Helvetica-Bold,Helvetica" font-weight="bold" font-size="14.0" fill="#DDDDDD" transform="matrix(1.00, 0.00, -0.00, -1.00, 276.0, 462.6)">i</text><text xml:space="preserve" font-family="Helvetica-Bold,Helvetica" font-weight="bold" font-size="14.0" fill="#DDDDDD" transform="matrix(1.00, 0.00, -0.00, -1.00, 279.9, 462.6)">o</text><text xml:space="preserve" font-family="Helvetica-Bold,Helvetica" font-weight="bold" font-size="14.0" fill="#DDDDDD" transform="matrix(1.00, 0.00, -0.00, -1.00, 288.5, 462.6)">n</text><text xml:space="preserve" font-family="Helvetica-Bold,Helvetica" font-weight="bold" font-size="14.0" fill="#000000" transform="matrix(1.00, 0.00, -0.00, -1.00, 318.2, 462.7)">H</text><text xml:space="preserve" font-family="Helvetica-Bold,Helvetica" font-weight="bold" font-size="14.0" fill="#000000" transform="matrix(1.00, 0.00, -0.00, -1.00, 328.3, 462.7)">a</text><text xml:space="preserve" font-family="Helvetica-Bold,Helvetica" font-weight="bold" font-size="14.0" fill="#000000" transform="matrix(1.00, 0.00, -0.00, -1.00, 336.1, 462.7)">n</text><text xml:space="preserve" font-family="Helvetica-Bold,Helvetica" font-weight="bold" font-size="14.0" fill="#000000" transform="matrix(1.00, 0.00, -0.00, -1.00, 344.7, 462.7)">d</text><text xml:space="preserve" font-family="Helvetica-Bold,Helvetica" font-weight="bold" font-size="14.0" fill="#000000" transform="matrix(1.00, 0.00, -0.00, -1.00, 353.2, 462.7)"> </text><text xml:space="preserve" font-family="Helvetica-Bold,Helvetica" font-weight="bold" font-size="14.0" fill="#000000" transform="matrix(1.00, 0.00, -0.00, -1.00, 357.1, 462.7)">S</text><text xml:space="preserve" font-family="Helvetica-Bold,Helvetica" font-weight="bold" font-size="14.0" fill="#000000" transform="matrix(1.00, 0.00, -0.00, -1.00, 366.4, 462.7)">h</text><text xml:space="preserve" font-family="Helvetica-Bold,Helvetica" font-weight="bold" font-size="14.0" fill="#000000" transform="matrix(1.00, 0.00, -0.00, -1.00, 375.0, 462.7)">a</text><text xml:space="preserve" font-family="Helvetica-Bold,Helvetica" font-weight="bold" font-size="14.0" fill="#000000" transform="matrix(1.00, 0.00, -0.00, -1.00, 382.8, 462.7)">p</text><text xml:space="preserve" font-family="Helvetica-Bold,Helvetica" font-weight="bold" font-size="14.0" fill="#000000" transform="matrix(1.00, 0.00, -0.00, -1.00, 391.3, 462.7)">e</text><text xml:space="preserve" font-family="Helvetica-Bold,Helvetica" font-weight="bold" font-size="14.0" fill="#000000" transform="matrix(1.00, 0.00, -0.00, -1.00, 399.1, 462.7)"> </text><text xml:space="preserve" font-family="Helvetica-Bold,Helvetica" font-weight="bold" font-size="14.0" fill="#000000" transform="matrix(1.00, 0.00, -0.00, -1.00, 403.0, 462.7)">S</text><text xml:space="preserve" font-family="Helvetica-Bold,Helvetica" font-weight="bold" font-size="14.0" fill="#000000" transform="matrix(1.00, 0.00, -0.00, -1.00, 412.4, 462.7)">p</text><text xml:space="preserve" font-family="Helvetica-Bold,Helvetica" font-weight="bold" font-size="14.0" fill="#000000" transform="matrix(1.00, 0.00, -0.00, -1.00, 420.9, 462.7)">a</text><text xml:space="preserve" font-family="Helvetica-Bold,Helvetica" font-weight="bold" font-size="14.0" fill="#000000" transform="matrix(1.00, 0.00, -0.00, -1.00, 428.7, 462.7)">c</text><text xml:space="preserve" font-family="Helvetica-Bold,Helvetica" font-weight="bold" font-size="14.0" fill="#000000" transform="matrix(1.00, 0.00, -0.00, -1.00, 436.5, 462.7)">e</text><text xml:space="preserve" font-family="Helvetica-Bold,Helvetica" font-weight="bold" font-size="14.0" fill="#DDDDDD" transform="matrix(1.00, 0.00, -0.00, -1.00, 302.3, 463.7)">&gt;</text><path d="M 14.0 528.0 L 31.0 528.0 L 31.0 516.0 L 14.0 516.0 Z M 13.8 528.0 " fill="#149D66"></path><g><clipPath id="clip0x600002ea0900"><path d="M 310.4 200.9 L 310.4 237.2 L 346.8 237.2 L 346.8 200.9 Z M 310.4 200.9 "></path></clipPath><g clip-path="url(#clip0x600002ea0900)"><image xlink:href="../../528A306E-A883-4524-BD11-2FB448E23119/assets/052C2D37C7AE833C4380544F44A26521.png" width="34.00" height="34.00" transform="matrix(0.00, 1.01, 1.01, -0.00, 311.4, 201.9)" opacity="0.35"></image><path d="M 335.5 220.5 L 342.4 220.5 L 328.6 234.6 L 314.8 220.5 L 321.5 220.5 L 321.5 207.5 L 335.5 207.5 Z M 335.7 220.5 " fill="#002800"></path><path d="M 13.4 20.7 L 13.4 27.6 L 27.5 13.8 L 13.4 0.0 L 13.4 6.7 L 0.4 6.7 L 0.4 20.7 Z M 13.4 20.9 " fill="none" stroke="#002800" stroke-width="0.75" stroke-linejoin="round" transform="matrix(0.00, 1.00, 1.00, 0.00, 314.8, 207.1)"></path></g></g><g><clipPath id="clip0x600002ea0540"><path d="M 343.6 205.4 L 531.3 205.4 L 531.3 230.9 L 343.6 230.9 Z M 343.6 205.4 "></path></clipPath><g clip-path="url(#clip0x600002ea0540)"><text xml:space="preserve" font-family="Helvetica,Helvetica" font-size="15.0" fill="#000000" transform="matrix(1.00, 0.00, -0.00, -1.00, 347.3, 212.6)">U</text><text xml:space="preserve" font-family="Helvetica,Helvetica" font-size="15.0" fill="#000000" transform="matrix(1.00, 0.00, -0.00, -1.00, 358.2, 212.6)">n</text><text xml:space="preserve" font-family="Helvetica,Helvetica" font-size="15.0" fill="#000000" transform="matrix(1.00, 0.00, -0.00, -1.00, 366.5, 212.6)">s</text><text xml:space="preserve" font-family="Helvetica,Helvetica" font-size="15.0" fill="#000000" transform="matrix(1.00, 0.00, -0.00, -1.00, 374.0, 212.6)">u</text><text xml:space="preserve" font-family="Helvetica,Helvetica" font-size="15.0" fill="#000000" transform="matrix(1.00, 0.00, -0.00, -1.00, 382.4, 212.6)">p</text><text xml:space="preserve" font-family="Helvetica,Helvetica" font-size="15.0" fill="#000000" transform="matrix(1.00, 0.00, -0.00, -1.00, 390.7, 212.6)">e</text><text xml:space="preserve" font-family="Helvetica,Helvetica" font-size="15.0" fill="#000000" transform="matrix(1.00, 0.00, -0.00, -1.00, 399.1, 212.6)">r</text><text xml:space="preserve" font-family="Helvetica,Helvetica" font-size="15.0" fill="#000000" transform="matrix(1.00, 0.00, -0.00, -1.00, 404.1, 212.6)">v</text><text xml:space="preserve" font-family="Helvetica,Helvetica" font-size="15.0" fill="#000000" transform="matrix(1.00, 0.00, -0.00, -1.00, 411.6, 212.6)">i</text><text xml:space="preserve" font-family="Helvetica,Helvetica" font-size="15.0" fill="#000000" transform="matrix(1.00, 0.00, -0.00, -1.00, 414.9, 212.6)">s</text><text xml:space="preserve" font-family="Helvetica,Helvetica" font-size="15.0" fill="#000000" transform="matrix(1.00, 0.00, -0.00, -1.00, 422.4, 212.6)">e</text><text xml:space="preserve" font-family="Helvetica,Helvetica" font-size="15.0" fill="#000000" transform="matrix(1.00, 0.00, -0.00, -1.00, 430.7, 212.6)">d</text><text xml:space="preserve" font-family="Helvetica,Helvetica" font-size="15.0" fill="#000000" transform="matrix(1.00, 0.00, -0.00, -1.00, 439.1, 212.6)"> </text><text xml:space="preserve" font-family="Helvetica,Helvetica" font-size="15.0" fill="#000000" transform="matrix(1.00, 0.00, -0.00, -1.00, 443.3, 212.6)">l</text><text xml:space="preserve" font-family="Helvetica,Helvetica" font-size="15.0" fill="#000000" transform="matrix(1.00, 0.00, -0.00, -1.00, 446.6, 212.6)">e</text><text xml:space="preserve" font-family="Helvetica,Helvetica" font-size="15.0" fill="#000000" transform="matrix(1.00, 0.00, -0.00, -1.00, 454.9, 212.6)">a</text><text xml:space="preserve" font-family="Helvetica,Helvetica" font-size="15.0" fill="#000000" transform="matrix(1.00, 0.00, -0.00, -1.00, 463.3, 212.6)">r</text><text xml:space="preserve" font-family="Helvetica,Helvetica" font-size="15.0" fill="#000000" transform="matrix(1.00, 0.00, -0.00, -1.00, 468.3, 212.6)">n</text><text xml:space="preserve" font-family="Helvetica,Helvetica" font-size="15.0" fill="#000000" transform="matrix(1.00, 0.00, -0.00, -1.00, 476.6, 212.6)">i</text><text xml:space="preserve" font-family="Helvetica,Helvetica" font-size="15.0" fill="#000000" transform="matrix(1.00, 0.00, -0.00, -1.00, 480.0, 212.6)">n</text><text xml:space="preserve" font-family="Helvetica,Helvetica" font-size="15.0" fill="#000000" transform="matrix(1.00, 0.00, -0.00, -1.00, 488.3, 212.6)">g</text></g></g><g><clipPath id="clip0x600002ea2220"><path d="M 458.7 255.1 L 682.1 255.1 L 682.1 279.3 L 458.7 279.3 Z M 458.7 255.1 "></path></clipPath><g clip-path="url(#clip0x600002ea2220)"><text xml:space="preserve" font-family="Helvetica-Bold,Helvetica" font-weight="bold" font-size="14.0" fill="#000000" transform="matrix(1.00, 0.00, -0.00, -1.00, 462.3, 261.9)">R</text><text xml:space="preserve" font-family="Helvetica-Bold,Helvetica" font-weight="bold" font-size="14.0" fill="#000000" transform="matrix(1.00, 0.00, -0.00, -1.00, 472.4, 261.9)">e</text><text xml:space="preserve" font-family="Helvetica-Bold,Helvetica" font-weight="bold" font-size="14.0" fill="#000000" transform="matrix(1.00, 0.00, -0.00, -1.00, 480.2, 261.9)">s</text><text xml:space="preserve" font-family="Helvetica-Bold,Helvetica" font-weight="bold" font-size="14.0" fill="#000000" transform="matrix(1.00, 0.00, -0.00, -1.00, 488.0, 261.9)">t</text><text xml:space="preserve" font-family="Helvetica-Bold,Helvetica" font-weight="bold" font-size="14.0" fill="#000000" transform="matrix(1.00, 0.00, -0.00, -1.00, 492.6, 261.9)">r</text><text xml:space="preserve" font-family="Helvetica-Bold,Helvetica" font-weight="bold" font-size="14.0" fill="#000000" transform="matrix(1.00, 0.00, -0.00, -1.00, 498.1, 261.9)">i</text><text xml:space="preserve" font-family="Helvetica-Bold,Helvetica" font-weight="bold" font-size="14.0" fill="#000000" transform="matrix(1.00, 0.00, -0.00, -1.00, 502.0, 261.9)">c</text><text xml:space="preserve" font-family="Helvetica-Bold,Helvetica" font-weight="bold" font-size="14.0" fill="#000000" transform="matrix(1.00, 0.00, -0.00, -1.00, 509.7, 261.9)">t</text><text xml:space="preserve" font-family="Helvetica-Bold,Helvetica" font-weight="bold" font-size="14.0" fill="#000000" transform="matrix(1.00, 0.00, -0.00, -1.00, 514.4, 261.9)">e</text><text xml:space="preserve" font-family="Helvetica-Bold,Helvetica" font-weight="bold" font-size="14.0" fill="#000000" transform="matrix(1.00, 0.00, -0.00, -1.00, 522.2, 261.9)">d</text><text xml:space="preserve" font-family="Helvetica-Bold,Helvetica" font-weight="bold" font-size="14.0" fill="#000000" transform="matrix(1.00, 0.00, -0.00, -1.00, 530.7, 261.9)"> </text><text xml:space="preserve" font-family="Helvetica-Bold,Helvetica" font-weight="bold" font-size="14.0" fill="#000000" transform="matrix(1.00, 0.00, -0.00, -1.00, 534.6, 261.9)">B</text><text xml:space="preserve" font-family="Helvetica-Bold,Helvetica" font-weight="bold" font-size="14.0" fill="#000000" transform="matrix(1.00, 0.00, -0.00, -1.00, 544.7, 261.9)">o</text><text xml:space="preserve" font-family="Helvetica-Bold,Helvetica" font-weight="bold" font-size="14.0" fill="#000000" transform="matrix(1.00, 0.00, -0.00, -1.00, 553.3, 261.9)">l</text><text xml:space="preserve" font-family="Helvetica-Bold,Helvetica" font-weight="bold" font-size="14.0" fill="#000000" transform="matrix(1.00, 0.00, -0.00, -1.00, 557.2, 261.9)">t</text><text xml:space="preserve" font-family="Helvetica-Bold,Helvetica" font-weight="bold" font-size="14.0" fill="#000000" transform="matrix(1.00, 0.00, -0.00, -1.00, 561.8, 261.9)">z</text><text xml:space="preserve" font-family="Helvetica-Bold,Helvetica" font-weight="bold" font-size="14.0" fill="#000000" transform="matrix(1.00, 0.00, -0.00, -1.00, 568.8, 261.9)">m</text><text xml:space="preserve" font-family="Helvetica-Bold,Helvetica" font-weight="bold" font-size="14.0" fill="#000000" transform="matrix(1.00, 0.00, -0.00, -1.00, 581.3, 261.9)">a</text><text xml:space="preserve" font-family="Helvetica-Bold,Helvetica" font-weight="bold" font-size="14.0" fill="#000000" transform="matrix(1.00, 0.00, -0.00, -1.00, 589.1, 261.9)">n</text><text xml:space="preserve" font-family="Helvetica-Bold,Helvetica" font-weight="bold" font-size="14.0" fill="#000000" transform="matrix(1.00, 0.00, -0.00, -1.00, 597.6, 261.9)">n</text><text xml:space="preserve" font-family="Helvetica-Bold,Helvetica" font-weight="bold" font-size="14.0" fill="#000000" transform="matrix(1.00, 0.00, -0.00, -1.00, 606.2, 261.9)"> </text><text xml:space="preserve" font-family="Helvetica-Bold,Helvetica" font-weight="bold" font-size="14.0" fill="#000000" transform="matrix(1.00, 0.00, -0.00, -1.00, 610.1, 261.9)">M</text><text xml:space="preserve" font-family="Helvetica-Bold,Helvetica" font-weight="bold" font-size="14.0" fill="#000000" transform="matrix(1.00, 0.00, -0.00, -1.00, 621.7, 261.9)">a</text><text xml:space="preserve" font-family="Helvetica-Bold,Helvetica" font-weight="bold" font-size="14.0" fill="#000000" transform="matrix(1.00, 0.00, -0.00, -1.00, 629.5, 261.9)">c</text><text xml:space="preserve" font-family="Helvetica-Bold,Helvetica" font-weight="bold" font-size="14.0" fill="#000000" transform="matrix(1.00, 0.00, -0.00, -1.00, 637.3, 261.9)">h</text><text xml:space="preserve" font-family="Helvetica-Bold,Helvetica" font-weight="bold" font-size="14.0" fill="#000000" transform="matrix(1.00, 0.00, -0.00, -1.00, 645.9, 261.9)">i</text><text xml:space="preserve" font-family="Helvetica-Bold,Helvetica" font-weight="bold" font-size="14.0" fill="#000000" transform="matrix(1.00, 0.00, -0.00, -1.00, 649.7, 261.9)">n</text><text xml:space="preserve" font-family="Helvetica-Bold,Helvetica" font-weight="bold" font-size="14.0" fill="#000000" transform="matrix(1.00, 0.00, -0.00, -1.00, 658.3, 261.9)">e</text></g></g><g><clipPath id="clip0x600002ea3180"><path d="M 253.2 252.0 L 444.3 252.0 L 444.3 294.2 L 253.2 294.2 Z M 253.2 252.0 "></path></clipPath><g clip-path="url(#clip0x600002ea3180)"><path d="M 255.2 264.6 L 255.0 281.7 C 255.0 287.5 259.9 292.0 265.8 292.0 L 431.8 292.0 C 437.6 292.0 442.0 287.5 442.0 281.7 L 442.0 264.6 C 442.0 258.8 437.6 254.0 431.8 254.0 L 265.8 254.0 C 259.9 254.0 255.2 258.8 255.2 264.6 Z M 255.2 264.6 " fill="#D8D8D8"></path><path d="M 0.0 27.7 L -0.2 10.5 C -0.2 4.7 4.7 0.2 10.5 0.2 L 176.6 0.2 C 182.4 0.2 186.8 4.7 186.8 10.5 L 186.8 27.7 C 186.8 33.5 182.4 38.2 176.6 38.2 L 10.5 38.2 C 4.7 38.2 0.0 33.5 0.0 27.7 Z M 0.0 27.7 " fill="none" stroke="#000000" stroke-width="2.00" stroke-linejoin="round" transform="matrix(1.00, 0.00, 0.00, -1.00, 255.2, 292.2)"></path></g></g><g><clipPath id="clip0x600002ea3420"><path d="M 296.0 313.7 L 390.7 313.7 L 390.7 355.3 L 296.0 355.3 Z M 296.0 313.7 "></path></clipPath><g clip-path="url(#clip0x600002ea3420)"><path d="M 298.0 325.1 L 298.0 343.9 C 298.0 349.1 302.2 353.0 307.4 353.0 L 379.4 353.0 C 384.6 353.0 389.0 349.1 389.0 343.9 L 389.0 325.1 C 389.0 319.9 384.6 316.0 379.4 316.0 L 307.4 316.0 C 302.2 316.0 298.0 319.9 298.0 325.1 Z M 298.0 325.1 " fill="#FFFFFF"></path><path d="M 0.0 28.2 L -0.0 9.3 C -0.0 4.2 4.2 0.3 9.3 0.3 L 81.4 0.3 C 86.5 0.3 91.0 4.2 91.0 9.3 L 91.0 28.2 C 91.0 33.4 86.5 37.3 81.4 37.3 L 9.3 37.3 C 4.2 37.3 0.0 33.4 0.0 28.2 Z M 0.0 28.2 " fill="none" stroke="#000000" stroke-width="2.00" stroke-linejoin="round" transform="matrix(1.00, 0.00, 0.00, -1.00, 298.0, 353.3)"></path></g></g><g><clipPath id="clip0x600002ea36c0"><path d="M 307.4 318.3 L 338.7 318.3 L 338.7 349.7 L 307.4 349.7 Z M 307.4 318.3 "></path></clipPath><g clip-path="url(#clip0x600002ea36c0)"><path d="M 332.7 343.6 C 338.1 338.3 338.1 329.6 332.7 324.3 C 327.4 318.9 318.7 318.9 313.4 324.3 C 308.0 329.6 308.0 338.3 313.4 343.6 C 318.7 349.0 327.4 349.0 332.7 343.6 " fill="#FFFFFF"></path><path d="M 23.4 4.0 C 28.7 9.4 28.7 18.0 23.4 23.4 C 18.0 28.7 9.4 28.7 4.0 23.4 C -1.3 18.0 -1.3 9.4 4.0 4.0 C 9.4 -1.3 18.0 -1.3 23.4 4.0 " fill="none" stroke="#000000" stroke-width="2.00" stroke-linejoin="round" transform="matrix(1.00, 0.00, 0.00, -1.00, 309.4, 347.7)"></path></g></g><g><clipPath id="clip0x600002ea3a20"><path d="M 347.1 318.3 L 378.4 318.3 L 378.4 349.7 L 347.1 349.7 Z M 347.1 318.3 "></path></clipPath><g clip-path="url(#clip0x600002ea3a20)"><path d="M 372.4 343.6 C 377.8 338.3 377.8 329.6 372.4 324.3 C 367.1 318.9 358.4 318.9 353.1 324.3 C 347.7 329.6 347.7 338.3 353.1 343.6 C 358.4 349.0 367.1 349.0 372.4 343.6 " fill="#FFFFFF"></path><path d="M 23.4 4.0 C 28.7 9.4 28.7 18.0 23.4 23.4 C 18.0 28.7 9.4 28.7 4.0 23.4 C -1.3 18.0 -1.3 9.4 4.0 4.0 C 9.4 -1.3 18.0 -1.3 23.4 4.0 " fill="none" stroke="#000000" stroke-width="2.00" stroke-linejoin="round" transform="matrix(1.00, 0.00, 0.00, -1.00, 349.1, 347.7)"></path></g></g><g><clipPath id="clip0x600002ea3d80"><path d="M 324.9 319.5 L 281.1 285.0 L 279.0 287.8 L 322.8 322.3 Z M 324.9 319.5 "></path></clipPath><g clip-path="url(#clip0x600002ea3d80)"><path d="M 0.0 0.0 L 53.7 0.0 " fill="none" stroke="#0C0C0C" stroke-opacity="0.80" stroke-width="1.50" stroke-linejoin="round" transform="matrix(-0.79, -0.62, -0.62, 0.79, 323.1, 320.3)"></path></g></g><g><clipPath id="clip0x600002ea3fc0"><path d="M 324.7 321.4 L 327.8 286.2 L 324.3 285.9 L 321.2 321.1 Z M 324.7 321.4 "></path></clipPath><g clip-path="url(#clip0x600002ea3fc0)"><path d="M 0.0 0.0 L 33.4 0.0 " fill="none" stroke="#0C0C0C" stroke-opacity="0.80" stroke-width="1.50" stroke-linejoin="round" transform="matrix(0.09, -1.00, -1.00, -0.09, 323.1, 320.3)"></path></g></g><g><clipPath id="clip0x600002ea4200"><path d="M 323.2 322.3 L 373.1 288.3 L 371.2 285.4 L 321.2 319.4 Z M 323.2 322.3 "></path></clipPath><g clip-path="url(#clip0x600002ea4200)"><path d="M 0.0 0.0 L 58.4 0.0 " fill="none" stroke="#0C0C0C" stroke-opacity="0.80" stroke-width="1.50" stroke-linejoin="round" transform="matrix(0.83, -0.56, -0.56, -0.83, 323.1, 320.3)"></path></g></g><g><clipPath id="clip0x600002ea4440"><path d="M 324.1 287.7 L 362.3 322.2 L 364.7 319.7 L 326.4 285.1 Z M 324.1 287.7 "></path></clipPath><g clip-path="url(#clip0x600002ea4440)"><path d="M 0.0 0.0 L 49.6 0.0 " fill="none" stroke="#0C0C0C" stroke-opacity="0.80" stroke-width="1.50" stroke-linejoin="round" transform="matrix(0.74, 0.67, 0.67, -0.74, 326.0, 287.0)"></path></g></g><g><clipPath id="clip0x600002ea4680"><path d="M 279.3 288.3 L 363.0 322.3 L 364.3 319.0 L 280.6 285.0 Z M 279.3 288.3 "></path></clipPath><g clip-path="url(#clip0x600002ea4680)"><path d="M 0.0 0.0 L 88.4 0.0 " fill="none" stroke="#0C0C0C" stroke-opacity="0.80" stroke-width="1.50" stroke-linejoin="round" transform="matrix(0.93, 0.38, 0.38, -0.93, 280.8, 287.0)"></path></g></g><g><clipPath id="clip0x600002ea9780"><path d="M 369.9 286.0 L 360.8 320.8 L 364.2 321.7 L 373.3 286.9 Z M 369.9 286.0 "></path></clipPath><g clip-path="url(#clip0x600002ea9780)"><path d="M 0.0 0.0 L 34.0 0.0 " fill="none" stroke="#0C0C0C" stroke-opacity="0.80" stroke-width="1.50" stroke-linejoin="round" transform="matrix(-0.25, 0.97, 0.97, 0.25, 371.3, 287.4)"></path></g></g><g><clipPath id="clip0x600002ea9540"><path d="M 264.8 256.9 L 296.9 256.9 L 296.9 289.0 L 264.8 289.0 Z M 264.8 256.9 "></path></clipPath><g clip-path="url(#clip0x600002ea9540)"><path d="M 290.8 282.9 C 296.3 277.4 296.3 268.5 290.8 263.0 C 285.3 257.5 276.4 257.5 270.9 263.0 C 265.4 268.5 265.4 277.4 270.9 282.9 C 276.4 288.4 285.3 288.4 290.8 282.9 " fill="#7F7F7F"></path><path d="M 24.0 4.1 C 29.5 9.6 29.5 18.5 24.0 24.0 C 18.5 29.5 9.6 29.5 4.1 24.0 C -1.4 18.5 -1.4 9.6 4.1 4.1 C 9.6 -1.4 18.5 -1.4 24.0 4.1 " fill="none" stroke="#000000" stroke-width="2.00" stroke-linejoin="round" transform="matrix(1.00, 0.00, 0.00, -1.00, 266.8, 287.0)"></path></g></g><g><clipPath id="clip0x600002ea9240"><path d="M 309.9 256.9 L 342.0 256.9 L 342.0 289.0 L 309.9 289.0 Z M 309.9 256.9 "></path></clipPath><g clip-path="url(#clip0x600002ea9240)"><path d="M 335.9 282.9 C 341.4 277.4 341.4 268.5 335.9 263.0 C 330.4 257.5 321.5 257.5 316.0 263.0 C 310.5 268.5 310.5 277.4 316.0 282.9 C 321.5 288.4 330.4 288.4 335.9 282.9 " fill="#7F7F7F"></path><path d="M 24.0 4.1 C 29.5 9.6 29.5 18.5 24.0 24.0 C 18.5 29.5 9.6 29.5 4.1 24.0 C -1.4 18.5 -1.4 9.6 4.1 4.1 C 9.6 -1.4 18.5 -1.4 24.0 4.1 " fill="none" stroke="#000000" stroke-width="2.00" stroke-linejoin="round" transform="matrix(1.00, 0.00, 0.00, -1.00, 311.9, 287.0)"></path></g></g><g><clipPath id="clip0x600002ea8ee0"><path d="M 400.6 256.9 L 432.8 256.9 L 432.8 289.0 L 400.6 289.0 Z M 400.6 256.9 "></path></clipPath><g clip-path="url(#clip0x600002ea8ee0)"><path d="M 426.6 282.9 C 432.1 277.4 432.1 268.5 426.6 263.0 C 421.1 257.5 412.2 257.5 406.8 263.0 C 401.3 268.5 401.3 277.4 406.8 282.9 C 412.2 288.4 421.1 288.4 426.6 282.9 " fill="#7F7F7F"></path><path d="M 24.0 4.1 C 29.5 9.6 29.5 18.5 24.0 24.0 C 18.5 29.5 9.6 29.5 4.1 24.0 C -1.4 18.5 -1.4 9.6 4.1 4.1 C 9.6 -1.4 18.5 -1.4 24.0 4.1 " fill="none" stroke="#000000" stroke-width="2.00" stroke-linejoin="round" transform="matrix(1.00, 0.00, 0.00, -1.00, 402.6, 287.0)"></path></g></g><g><clipPath id="clip0x600002ea8b80"><path d="M 355.3 257.3 L 387.4 257.3 L 387.4 289.4 L 355.3 289.4 Z M 355.3 257.3 "></path></clipPath><g clip-path="url(#clip0x600002ea8b80)"><path d="M 381.3 283.3 C 386.8 277.8 386.8 268.9 381.3 263.4 C 375.8 257.9 366.9 257.9 361.4 263.4 C 355.9 268.9 355.9 277.8 361.4 283.3 C 366.9 288.8 375.8 288.8 381.3 283.3 " fill="#7F7F7F"></path><path d="M 24.0 4.1 C 29.5 9.6 29.5 18.5 24.0 24.0 C 18.5 29.5 9.6 29.5 4.1 24.0 C -1.4 18.5 -1.4 9.6 4.1 4.1 C 9.6 -1.4 18.5 -1.4 24.0 4.1 " fill="none" stroke="#000000" stroke-width="2.00" stroke-linejoin="round" transform="matrix(1.00, 0.00, 0.00, -1.00, 357.3, 287.4)"></path></g></g><g><clipPath id="clip0x600002ea8880"><path d="M 269.0 344.0 L 283.0 344.0 L 283.0 321.0 L 269.0 321.0 Z M 269.0 344.1 "></path></clipPath><g clip-path="url(#clip0x600002ea8880)"><g><clipPath id="clip0x600002ea86a0"><path d="M 269.0 321.4 L 282.7 321.4 L 282.7 344.1 L 269.0 344.1 Z M 269.0 321.4 "></path></clipPath><g clip-path="url(#clip0x600002ea86a0)"><image xlink:href="../../528A306E-A883-4524-BD11-2FB448E23119/assets/FC4C69F471A9B3025F4C69E5FD3265C7.png" width="36.00" height="36.00" transform="matrix(0.63, 0.00, -0.00, -0.63, 269.0, 344.1)"></image></g></g></g></g><g><clipPath id="clip0x600002ea8640"><path d="M 231.9 264.7 L 247.2 264.7 L 247.2 277.1 L 231.9 277.1 Z M 231.9 264.7 "></path></clipPath><g clip-path="url(#clip0x600002ea8640)"><image xlink:href="../../528A306E-A883-4524-BD11-2FB448E23119/assets/1138831F05AF4DD16312E0F567177AA2.png" width="21.00" height="17.00" transform="matrix(0.73, 0.00, -0.00, -0.73, 231.9, 277.1)"></image></g></g><g><clipPath id="clip0x600002ea81c0"><path d="M 416.6 285.0 L 361.0 319.3 L 362.8 322.3 L 418.5 288.0 Z M 416.6 285.0 "></path></clipPath><g clip-path="url(#clip0x600002ea81c0)"><path d="M 0.0 0.0 L 63.4 0.0 " fill="none" stroke="#0C0C0C" stroke-opacity="0.80" stroke-width="1.50" stroke-linejoin="round" transform="matrix(-0.85, 0.52, 0.52, 0.85, 416.7, 287.0)"></path></g></g><g><clipPath id="clip0x600002ea7fe0"><path d="M 417.1 285.1 L 321.5 319.0 L 322.7 322.3 L 418.2 288.4 Z M 417.1 285.1 "></path></clipPath><g clip-path="url(#clip0x600002ea7fe0)"><path d="M 0.0 0.0 L 99.4 0.0 " fill="none" stroke="#0C0C0C" stroke-opacity="0.80" stroke-width="1.50" stroke-linejoin="round" transform="matrix(-0.94, 0.33, 0.33, 0.94, 416.7, 287.0)"></path></g></g></g></svg>