<?xml version="1.0" encoding="UTF-8" standalone="no"?><svg xmlns="http://www.w3.org/2000/svg" xmlns:xlink="http://www.w3.org/1999/xlink" clip-rule="evenodd" stroke-miterlimit="10" viewBox="0 0 503 168"><desc>SVG generated by Keynote</desc><defs></defs><g transform="matrix(1.00, 0.00, -0.00, -1.00, 0.0, 168.0)"><g><clipPath id="clip0x6000036ba4c0"><path d="M 19.8 7.2 L 119.8 7.2 L 119.8 109.2 L 19.8 109.2 Z M 19.8 7.2 "></path></clipPath><g clip-path="url(#clip0x6000036ba4c0)"><image xlink:href="05696994F7A44F68368858AD1CC2B6A6.png" width="100.00" height="102.00" transform="matrix(1.00, 0.00, -0.00, -1.00, 19.8, 109.2)"></image></g></g><g><clipPath id="clip0x6000036ba5e0"><path d="M 1.1 140.4 L 78.2 140.4 L 78.2 165.9 L 1.1 165.9 Z M 1.1 140.4 "></path></clipPath><g clip-path="url(#clip0x6000036ba5e0)"><text xml:space="preserve" font-family="Helvetica-Bold,Helvetica" font-weight="bold" font-size="15.0" fill="#000000" transform="matrix(1.00, 0.00, -0.00, -1.00, 4.8, 147.6)">S</text><text xml:space="preserve" font-family="Helvetica-Bold,Helvetica" font-weight="bold" font-size="15.0" fill="#000000" transform="matrix(1.00, 0.00, -0.00, -1.00, 14.9, 147.6)">k</text><text xml:space="preserve" font-family="Helvetica-Bold,Helvetica" font-weight="bold" font-size="15.0" fill="#000000" transform="matrix(1.00, 0.00, -0.00, -1.00, 23.2, 147.6)">e</text><text xml:space="preserve" font-family="Helvetica-Bold,Helvetica" font-weight="bold" font-size="15.0" fill="#000000" transform="matrix(1.00, 0.00, -0.00, -1.00, 31.5, 147.6)">t</text><text xml:space="preserve" font-family="Helvetica-Bold,Helvetica" font-weight="bold" font-size="15.0" fill="#000000" transform="matrix(1.00, 0.00, -0.00, -1.00, 36.5, 147.6)">c</text><text xml:space="preserve" font-family="Helvetica-Bold,Helvetica" font-weight="bold" font-size="15.0" fill="#000000" transform="matrix(1.00, 0.00, -0.00, -1.00, 44.9, 147.6)">h</text><text xml:space="preserve" font-family="Helvetica-Bold,Helvetica" font-weight="bold" font-size="15.0" fill="#000000" transform="matrix(1.00, 0.00, -0.00, -1.00, 54.0, 147.6)">e</text><text xml:space="preserve" font-family="Helvetica-Bold,Helvetica" font-weight="bold" font-size="15.0" fill="#000000" transform="matrix(1.00, 0.00, -0.00, -1.00, 62.4, 147.6)">s</text></g></g><g><clipPath id="clip0x6000036ba8e0"><path d="M 397.2 0.8 L 502.2 0.8 L 502.2 115.8 L 397.2 115.8 Z M 397.2 0.8 "></path></clipPath><g clip-path="url(#clip0x6000036ba8e0)"><image xlink:href="BE54994EDB3406496565B33675D7233E.png" width="105.00" height="115.00" transform="matrix(1.00, 0.00, -0.00, -1.00, 397.2, 115.8)"></image></g></g><g><clipPath id="clip0x6000036ba880"><path d="M 351.9 35.2 L 405.9 35.2 L 405.9 81.2 L 351.9 81.2 Z M 351.9 35.2 "></path></clipPath><g clip-path="url(#clip0x6000036ba880)"><image xlink:href="CCF0E017B6D542DF2D6491250F2B0A34.png" width="54.00" height="46.00" transform="matrix(1.00, 0.00, -0.00, -1.00, 351.9, 81.2)"></image></g></g><g><clipPath id="clip0x6000036bb180"><path d="M 411.2 140.4 L 488.3 140.4 L 488.3 165.9 L 411.2 165.9 Z M 411.2 140.4 "></path></clipPath><g clip-path="url(#clip0x6000036bb180)"><text xml:space="preserve" font-family="Helvetica-Bold,Helvetica" font-weight="bold" font-size="15.0" fill="#000000" transform="matrix(1.00, 0.00, -0.00, -1.00, 415.0, 147.6)">S</text><text xml:space="preserve" font-family="Helvetica-Bold,Helvetica" font-weight="bold" font-size="15.0" fill="#000000" transform="matrix(1.00, 0.00, -0.00, -1.00, 425.0, 147.6)">a</text><text xml:space="preserve" font-family="Helvetica-Bold,Helvetica" font-weight="bold" font-size="15.0" fill="#000000" transform="matrix(1.00, 0.00, -0.00, -1.00, 433.3, 147.6)">m</text><text xml:space="preserve" font-family="Helvetica-Bold,Helvetica" font-weight="bold" font-size="15.0" fill="#000000" transform="matrix(1.00, 0.00, -0.00, -1.00, 446.7, 147.6)">p</text><text xml:space="preserve" font-family="Helvetica-Bold,Helvetica" font-weight="bold" font-size="15.0" fill="#000000" transform="matrix(1.00, 0.00, -0.00, -1.00, 455.8, 147.6)">l</text><text xml:space="preserve" font-family="Helvetica-Bold,Helvetica" font-weight="bold" font-size="15.0" fill="#000000" transform="matrix(1.00, 0.00, -0.00, -1.00, 460.0, 147.6)">e</text><text xml:space="preserve" font-family="Helvetica-Bold,Helvetica" font-weight="bold" font-size="15.0" fill="#000000" transform="matrix(1.00, 0.00, -0.00, -1.00, 468.3, 147.6)">s</text></g></g><g><clipPath id="clip0x6000036ba2e0"><path d="M 166.2 12.4 L 305.1 12.4 L 305.1 44.0 L 166.2 44.0 Z M 166.2 12.4 "></path></clipPath><g clip-path="url(#clip0x6000036ba2e0)"><path d="M 168.2 22.0 L 168.0 34.4 C 168.0 38.6 171.6 42.0 175.8 42.0 L 295.5 42.0 C 299.7 42.0 303.0 38.6 303.0 34.4 L 303.0 22.0 C 303.0 17.8 299.7 14.0 295.5 14.0 L 175.8 14.0 C 171.6 14.0 168.2 17.8 168.2 22.0 Z M 168.2 22.0 " fill="#D8D8D8"></path><path d="M 0.0 20.0 L -0.2 7.6 C -0.2 3.4 3.4 -0.0 7.6 -0.0 L 127.3 -0.0 C 131.5 -0.0 134.8 3.4 134.8 7.6 L 134.8 20.0 C 134.8 24.2 131.5 28.0 127.3 28.0 L 7.6 28.0 C 3.4 28.0 0.0 24.2 0.0 20.0 Z M 0.0 20.0 " fill="none" stroke="#000000" stroke-width="2.00" stroke-linejoin="round" transform="matrix(1.00, 0.00, 0.00, -1.00, 168.2, 42.0)"></path></g></g><g><clipPath id="clip0x6000036bb000"><path d="M 252.1 56.9 L 292.9 56.9 L 292.9 88.0 L 252.1 88.0 Z M 252.1 56.9 "></path></clipPath><g clip-path="url(#clip0x6000036bb000)"><path d="M 254.1 65.6 L 254.0 79.3 C 254.0 83.0 257.1 86.0 260.8 86.0 L 284.1 86.0 C 287.9 86.0 291.0 83.0 291.0 79.3 L 291.0 65.6 C 291.0 61.9 287.9 59.0 284.1 59.0 L 260.8 59.0 C 257.1 59.0 254.1 61.9 254.1 65.6 Z M 254.1 65.6 " fill="#FFFFFF"></path><path d="M 0.0 20.3 L -0.1 6.7 C -0.1 3.0 3.0 -0.0 6.7 -0.0 L 30.1 -0.0 C 33.8 -0.0 36.9 3.0 36.9 6.7 L 36.9 20.3 C 36.9 24.1 33.8 27.0 30.1 27.0 L 6.7 27.0 C 3.0 27.0 0.0 24.1 0.0 20.3 Z M 0.0 20.3 " fill="none" stroke="#000000" stroke-width="2.00" stroke-linejoin="round" transform="matrix(1.00, 0.00, 0.00, -1.00, 254.1, 86.0)"></path></g></g><g><clipPath id="clip0x6000036bb300"><path d="M 260.2 60.2 L 284.0 60.2 L 284.0 83.9 L 260.2 83.9 Z M 260.2 60.2 "></path></clipPath><g clip-path="url(#clip0x6000036bb300)"><path d="M 279.1 79.0 C 283.0 75.2 283.0 68.9 279.1 65.1 C 275.2 61.2 269.0 61.2 265.1 65.1 C 261.3 68.9 261.3 75.2 265.1 79.0 C 269.0 82.9 275.2 82.9 279.1 79.0 " fill="#FFFFFF"></path><path d="M 16.9 2.9 C 20.7 6.7 20.7 13.0 16.9 16.9 C 13.0 20.7 6.7 20.7 2.9 16.9 C -1.0 13.0 -1.0 6.7 2.9 2.9 C 6.7 -1.0 13.0 -1.0 16.9 2.9 " fill="none" stroke="#008000" stroke-width="2.00" stroke-linejoin="round" transform="matrix(1.00, 0.00, 0.00, -1.00, 262.2, 81.9)"></path></g></g><g><clipPath id="clip0x6000036bb840"><path d="M 178.5 56.9 L 247.9 56.9 L 247.9 88.0 L 178.5 88.0 Z M 178.5 56.9 "></path></clipPath><g clip-path="url(#clip0x6000036bb840)"><path d="M 180.5 65.6 L 180.0 79.3 C 180.0 83.0 183.5 86.0 187.2 86.0 L 239.2 86.0 C 242.9 86.0 246.0 83.0 246.0 79.3 L 246.0 65.6 C 246.0 61.9 242.9 59.0 239.2 59.0 L 187.2 59.0 C 183.5 59.0 180.5 61.9 180.5 65.6 Z M 180.5 65.6 " fill="#FFFFFF"></path><path d="M 0.0 20.3 L -0.5 6.7 C -0.5 3.0 3.0 -0.0 6.7 -0.0 L 58.7 -0.0 C 62.4 -0.0 65.5 3.0 65.5 6.7 L 65.5 20.3 C 65.5 24.1 62.4 27.0 58.7 27.0 L 6.7 27.0 C 3.0 27.0 0.0 24.1 0.0 20.3 Z M 0.0 20.3 " fill="none" stroke="#000000" stroke-width="2.00" stroke-linejoin="round" transform="matrix(1.00, 0.00, 0.00, -1.00, 180.5, 86.0)"></path></g></g><g><clipPath id="clip0x6000036bbb40"><path d="M 186.6 60.2 L 210.4 60.2 L 210.4 83.9 L 186.6 83.9 Z M 186.6 60.2 "></path></clipPath><g clip-path="url(#clip0x6000036bbb40)"><path d="M 205.5 79.0 C 209.4 75.2 209.4 68.9 205.5 65.1 C 201.6 61.2 195.4 61.2 191.5 65.1 C 187.7 68.9 187.7 75.2 191.5 79.0 C 195.4 82.9 201.6 82.9 205.5 79.0 " fill="#FFFFFF"></path><path d="M 16.9 2.9 C 20.7 6.7 20.7 13.0 16.9 16.9 C 13.0 20.7 6.7 20.7 2.9 16.9 C -1.0 13.0 -1.0 6.7 2.9 2.9 C 6.7 -1.0 13.0 -1.0 16.9 2.9 " fill="none" stroke="#800000" stroke-width="2.00" stroke-linejoin="round" transform="matrix(1.00, 0.00, 0.00, -1.00, 188.6, 81.9)"></path></g></g><g><clipPath id="clip0x6000036bbe40"><path d="M 215.3 60.2 L 239.0 60.2 L 239.0 83.9 L 215.3 83.9 Z M 215.3 60.2 "></path></clipPath><g clip-path="url(#clip0x6000036bbe40)"><path d="M 234.1 79.0 C 238.0 75.2 238.0 68.9 234.1 65.1 C 230.3 61.2 224.0 61.2 220.2 65.1 C 216.3 68.9 216.3 75.2 220.2 79.0 C 224.0 82.9 230.3 82.9 234.1 79.0 " fill="#FFFFFF"></path><path d="M 16.9 2.9 C 20.7 6.7 20.7 13.0 16.9 16.9 C 13.0 20.7 6.7 20.7 2.9 16.9 C -1.0 13.0 -1.0 6.7 2.9 2.9 C 6.7 -1.0 13.0 -1.0 16.9 2.9 " fill="none" stroke="#800000" stroke-width="2.00" stroke-linejoin="round" transform="matrix(1.00, 0.00, 0.00, -1.00, 217.3, 81.9)"></path></g></g><g><clipPath id="clip0x6000036bc140"><path d="M 200.5 62.3 L 187.8 36.5 L 184.7 38.1 L 197.4 63.9 Z M 200.5 62.3 "></path></clipPath><g clip-path="url(#clip0x6000036bc140)"><path d="M 0.0 0.0 L 26.7 0.0 " fill="none" stroke="#0C0C0C" stroke-opacity="0.80" stroke-width="1.50" stroke-linejoin="round" transform="matrix(-0.44, -0.90, -0.90, 0.44, 198.5, 62.2)"></path></g></g><g><clipPath id="clip0x6000036bc4a0"><path d="M 273.2 63.9 L 286.7 38.1 L 283.6 36.5 L 270.1 62.3 Z M 273.2 63.9 "></path></clipPath><g clip-path="url(#clip0x6000036bc4a0)"><path d="M 0.0 0.0 L 27.1 0.0 " fill="none" stroke="#0C0C0C" stroke-opacity="0.80" stroke-width="1.50" stroke-linejoin="round" transform="matrix(0.46, -0.89, -0.89, -0.46, 272.1, 62.2)"></path></g></g><g><clipPath id="clip0x6000036bc5c0"><path d="M 199.2 64.1 L 221.2 38.6 L 218.6 36.3 L 196.5 61.8 Z M 199.2 64.1 "></path></clipPath><g clip-path="url(#clip0x6000036bc5c0)"><path d="M 0.0 0.0 L 31.7 0.0 " fill="none" stroke="#0C0C0C" stroke-opacity="0.80" stroke-width="1.50" stroke-linejoin="round" transform="matrix(0.65, -0.76, -0.76, -0.65, 198.5, 62.2)"></path></g></g><g><clipPath id="clip0x6000036bc680"><path d="M 198.3 64.2 L 253.6 39.7 L 252.1 36.5 L 196.9 61.0 Z M 198.3 64.2 "></path></clipPath><g clip-path="url(#clip0x6000036bc680)"><path d="M 0.0 0.0 L 58.5 0.0 " fill="none" stroke="#0C0C0C" stroke-opacity="0.80" stroke-width="1.50" stroke-linejoin="round" transform="matrix(0.91, -0.41, -0.41, -0.91, 198.5, 62.2)"></path></g></g><g><clipPath id="clip0x6000036bcaa0"><path d="M 274.1 61.8 L 252.6 36.6 L 250.0 38.8 L 271.4 64.1 Z M 274.1 61.8 "></path></clipPath><g clip-path="url(#clip0x6000036bcaa0)"><path d="M 0.0 0.0 L 31.1 0.0 " fill="none" stroke="#0C0C0C" stroke-opacity="0.80" stroke-width="1.50" stroke-linejoin="round" transform="matrix(-0.65, -0.76, -0.76, 0.65, 272.1, 62.2)"></path></g></g><g><clipPath id="clip0x6000036bcce0"><path d="M 217.3 37.8 L 225.8 63.7 L 229.1 62.6 L 220.6 36.7 Z M 217.3 37.8 "></path></clipPath><g clip-path="url(#clip0x6000036bcce0)"><path d="M 0.0 0.0 L 25.2 0.0 " fill="none" stroke="#0C0C0C" stroke-opacity="0.80" stroke-width="1.50" stroke-linejoin="round" transform="matrix(0.31, 0.95, 0.95, -0.31, 219.2, 38.2)"></path></g></g><g><clipPath id="clip0x6000036bcec0"><path d="M 184.9 39.2 L 227.1 64.2 L 228.9 61.2 L 186.7 36.2 Z M 184.9 39.2 "></path></clipPath><g clip-path="url(#clip0x6000036bcec0)"><path d="M 0.0 0.0 L 47.0 0.0 " fill="none" stroke="#0C0C0C" stroke-opacity="0.80" stroke-width="1.50" stroke-linejoin="round" transform="matrix(0.86, 0.51, 0.51, -0.86, 186.7, 38.2)"></path></g></g><g><clipPath id="clip0x6000036bcf80"><path d="M 251.5 36.5 L 225.2 61.6 L 227.6 64.1 L 253.9 39.0 Z M 251.5 36.5 "></path></clipPath><g clip-path="url(#clip0x6000036bcf80)"><path d="M 0.0 0.0 L 34.3 0.0 " fill="none" stroke="#0C0C0C" stroke-opacity="0.80" stroke-width="1.50" stroke-linejoin="round" transform="matrix(-0.72, 0.69, 0.69, 0.72, 251.9, 38.5)"></path></g></g><g><clipPath id="clip0x6000036be000"><path d="M 174.5 15.9 L 198.8 15.9 L 198.8 40.2 L 174.5 40.2 Z M 174.5 15.9 "></path></clipPath><g clip-path="url(#clip0x6000036be000)"><path d="M 193.9 35.2 C 197.8 31.3 197.8 24.9 193.9 20.9 C 189.9 16.9 183.5 16.9 179.5 20.9 C 175.5 24.9 175.5 31.3 179.5 35.2 C 183.5 39.2 189.9 39.2 193.9 35.2 " fill="#7F7F7F"></path><path d="M 17.3 3.0 C 21.3 6.9 21.3 13.4 17.3 17.3 C 13.4 21.3 6.9 21.3 3.0 17.3 C -1.0 13.4 -1.0 6.9 3.0 3.0 C 6.9 -1.0 13.4 -1.0 17.3 3.0 " fill="none" stroke="#000000" stroke-width="2.00" stroke-linejoin="round" transform="matrix(1.00, 0.00, 0.00, -1.00, 176.5, 38.2)"></path></g></g><g><clipPath id="clip0x6000036bd4c0"><path d="M 207.1 15.9 L 231.4 15.9 L 231.4 40.2 L 207.1 40.2 Z M 207.1 15.9 "></path></clipPath><g clip-path="url(#clip0x6000036bd4c0)"><path d="M 226.4 35.2 C 230.4 31.3 230.4 24.9 226.4 20.9 C 222.4 16.9 216.0 16.9 212.1 20.9 C 208.1 24.9 208.1 31.3 212.1 35.2 C 216.0 39.2 222.4 39.2 226.4 35.2 " fill="#7F7F7F"></path><path d="M 17.3 3.0 C 21.3 6.9 21.3 13.4 17.3 17.3 C 13.4 21.3 6.9 21.3 3.0 17.3 C -1.0 13.4 -1.0 6.9 3.0 3.0 C 6.9 -1.0 13.4 -1.0 17.3 3.0 " fill="none" stroke="#000000" stroke-width="2.00" stroke-linejoin="round" transform="matrix(1.00, 0.00, 0.00, -1.00, 209.1, 38.2)"></path></g></g><g><clipPath id="clip0x6000036bd8e0"><path d="M 272.5 15.9 L 296.8 15.9 L 296.8 40.2 L 272.5 40.2 Z M 272.5 15.9 "></path></clipPath><g clip-path="url(#clip0x6000036bd8e0)"><path d="M 291.8 35.2 C 295.8 31.3 295.8 24.9 291.8 20.9 C 287.9 16.9 281.4 16.9 277.5 20.9 C 273.5 24.9 273.5 31.3 277.5 35.2 C 281.4 39.2 287.9 39.2 291.8 35.2 " fill="#7F7F7F"></path><path d="M 17.3 3.0 C 21.3 6.9 21.3 13.4 17.3 17.3 C 13.4 21.3 6.9 21.3 3.0 17.3 C -1.0 13.4 -1.0 6.9 3.0 3.0 C 6.9 -1.0 13.4 -1.0 17.3 3.0 " fill="none" stroke="#000000" stroke-width="2.00" stroke-linejoin="round" transform="matrix(1.00, 0.00, 0.00, -1.00, 274.5, 38.2)"></path></g></g><g><clipPath id="clip0x6000036bd460"><path d="M 198.4 103.4 L 271.9 103.4 L 271.9 134.5 L 198.4 134.5 Z M 198.4 103.4 "></path></clipPath><g clip-path="url(#clip0x6000036bd460)"><path d="M 200.4 112.2 L 200.0 125.8 C 200.0 129.5 203.4 133.0 207.2 133.0 L 263.2 133.0 C 266.9 133.0 270.0 129.5 270.0 125.8 L 270.0 112.2 C 270.0 108.4 266.9 105.0 263.2 105.0 L 207.2 105.0 C 203.4 105.0 200.4 108.4 200.4 112.2 Z M 200.4 112.2 " fill="#FFFFFF"></path><path d="M 0.0 20.3 L -0.4 6.7 C -0.4 3.0 3.0 -0.5 6.7 -0.5 L 62.8 -0.5 C 66.5 -0.5 69.6 3.0 69.6 6.7 L 69.6 20.3 C 69.6 24.1 66.5 27.5 62.8 27.5 L 6.7 27.5 C 3.0 27.5 0.0 24.1 0.0 20.3 Z M 0.0 20.3 " fill="none" stroke="#000000" stroke-width="2.00" stroke-linejoin="round" transform="matrix(1.00, 0.00, 0.00, -1.00, 200.4, 132.5)"></path></g></g><g><clipPath id="clip0x6000036bec60"><path d="M 208.8 106.7 L 232.5 106.7 L 232.5 130.5 L 208.8 130.5 Z M 208.8 106.7 "></path></clipPath><g clip-path="url(#clip0x6000036bec60)"><path d="M 227.6 125.6 C 231.5 121.7 231.5 115.5 227.6 111.6 C 223.8 107.7 217.5 107.7 213.7 111.6 C 209.8 115.5 209.8 121.7 213.7 125.6 C 217.5 129.4 223.8 129.4 227.6 125.6 " fill="#FFFFFF"></path><path d="M 16.9 2.9 C 20.7 6.7 20.7 13.0 16.9 16.9 C 13.0 20.7 6.7 20.7 2.9 16.9 C -1.0 13.0 -1.0 6.7 2.9 2.9 C 6.7 -1.0 13.0 -1.0 16.9 2.9 " fill="none" stroke="#000000" stroke-width="2.00" stroke-linejoin="round" transform="matrix(1.00, 0.00, 0.00, -1.00, 210.8, 128.5)"></path></g></g><g><clipPath id="clip0x6000036bdca0"><path d="M 241.5 106.7 L 265.2 106.7 L 265.2 130.5 L 241.5 130.5 Z M 241.5 106.7 "></path></clipPath><g clip-path="url(#clip0x6000036bdca0)"><path d="M 260.3 125.6 C 264.2 121.7 264.2 115.5 260.3 111.6 C 256.5 107.7 250.2 107.7 246.4 111.6 C 242.5 115.5 242.5 121.7 246.4 125.6 C 250.2 129.4 256.5 129.4 260.3 125.6 " fill="#FFFFFF"></path><path d="M 16.9 2.9 C 20.7 6.7 20.7 13.0 16.9 16.9 C 13.0 20.7 6.7 20.7 2.9 16.9 C -1.0 13.0 -1.0 6.7 2.9 2.9 C 6.7 -1.0 13.0 -1.0 16.9 2.9 " fill="none" stroke="#000000" stroke-width="2.00" stroke-linejoin="round" transform="matrix(1.00, 0.00, 0.00, -1.00, 243.5, 128.5)"></path></g></g><g><clipPath id="clip0x6000036bea20"><path d="M 239.8 16.2 L 264.1 16.2 L 264.1 40.5 L 239.8 40.5 Z M 239.8 16.2 "></path></clipPath><g clip-path="url(#clip0x6000036bea20)"><path d="M 259.1 35.5 C 263.1 31.5 263.1 25.1 259.1 21.1 C 255.2 17.2 248.7 17.2 244.8 21.1 C 240.8 25.1 240.8 31.5 244.8 35.5 C 248.7 39.4 255.2 39.4 259.1 35.5 " fill="#7F7F7F"></path><path d="M 17.3 3.0 C 21.3 6.9 21.3 13.4 17.3 17.3 C 13.4 21.3 6.9 21.3 3.0 17.3 C -1.0 13.4 -1.0 6.9 3.0 3.0 C 6.9 -1.0 13.4 -1.0 17.3 3.0 " fill="none" stroke="#000000" stroke-width="2.00" stroke-linejoin="round" transform="matrix(1.00, 0.00, 0.00, -1.00, 241.8, 38.5)"></path></g></g><g><clipPath id="clip0x6000036be4e0"><path d="M 222.1 110.1 L 229.1 81.4 L 225.7 80.5 L 218.7 109.3 Z M 222.1 110.1 "></path></clipPath><g clip-path="url(#clip0x6000036be4e0)"><path d="M 0.0 0.0 L 27.6 0.0 " fill="none" stroke="#0C0C0C" stroke-opacity="0.80" stroke-width="1.50" stroke-linejoin="round" transform="matrix(0.24, -0.97, -0.97, -0.24, 220.6, 108.7)"></path></g></g><g><clipPath id="clip0x6000036bd640"><path d="M 196.5 82.3 L 219.9 110.6 L 222.6 108.4 L 199.2 80.0 Z M 196.5 82.3 "></path></clipPath><g clip-path="url(#clip0x6000036bd640)"><path d="M 0.0 0.0 L 34.7 0.0 " fill="none" stroke="#0C0C0C" stroke-opacity="0.80" stroke-width="1.50" stroke-linejoin="round" transform="matrix(0.64, 0.77, 0.77, -0.64, 198.5, 81.9)"></path></g></g><g><clipPath id="clip0x6000036bd280"><path d="M 272.2 79.9 L 218.9 107.6 L 220.6 110.7 L 273.8 83.0 Z M 272.2 79.9 "></path></clipPath><g clip-path="url(#clip0x6000036bd280)"><path d="M 0.0 0.0 L 58.0 0.0 " fill="none" stroke="#0C0C0C" stroke-opacity="0.80" stroke-width="1.50" stroke-linejoin="round" transform="matrix(-0.89, 0.46, 0.46, 0.89, 272.1, 81.9)"></path></g></g><g><clipPath id="clip0x6000036bed20"><path d="M 225.2 82.4 L 252.8 110.7 L 255.3 108.2 L 227.7 80.0 Z M 225.2 82.4 "></path></clipPath><g clip-path="url(#clip0x6000036bed20)"><path d="M 0.0 0.0 L 37.5 0.0 " fill="none" stroke="#0C0C0C" stroke-opacity="0.80" stroke-width="1.50" stroke-linejoin="round" transform="matrix(0.70, 0.71, 0.71, -0.70, 227.1, 81.9)"></path></g></g><g><clipPath id="clip0x6000036beea0"><path d="M 196.8 83.1 L 253.5 110.7 L 255.0 107.6 L 198.4 79.9 Z M 196.8 83.1 "></path></clipPath><g clip-path="url(#clip0x6000036beea0)"><path d="M 0.0 0.0 L 61.0 0.0 " fill="none" stroke="#0C0C0C" stroke-opacity="0.80" stroke-width="1.50" stroke-linejoin="round" transform="matrix(0.90, 0.44, 0.44, -0.90, 198.5, 81.9)"></path></g></g><g><clipPath id="clip0x6000036bf5c0"><path d="M 271.3 80.1 L 251.4 108.5 L 254.2 110.5 L 274.1 82.1 Z M 271.3 80.1 "></path></clipPath><g clip-path="url(#clip0x6000036bf5c0)"><path d="M 0.0 0.0 L 32.7 0.0 " fill="none" stroke="#0C0C0C" stroke-opacity="0.80" stroke-width="1.50" stroke-linejoin="round" transform="matrix(-0.57, 0.82, 0.82, 0.57, 272.1, 81.9)"></path></g></g><g><clipPath id="clip0x6000036bf860"><path d="M 175.9 113.5 L 192.2 113.5 L 192.2 128.4 L 175.9 128.4 Z M 175.9 113.5 "></path></clipPath><g clip-path="url(#clip0x6000036bf860)"><image xlink:href="../../62F53CAE-A979-4322-99F2-75F6DF468AC5/assets/5083E88EBA7CAC1927B602BD4AF7A7B0.png" width="35.00" height="32.00" transform="matrix(0.47, 0.00, -0.00, -0.47, 175.9, 128.4)"></image></g></g><g><clipPath id="clip0x6000036bf8c0"><path d="M 159.5 63.0 L 175.9 63.0 L 175.9 79.4 L 159.5 79.4 Z M 159.5 63.0 "></path></clipPath><g clip-path="url(#clip0x6000036bf8c0)"><image xlink:href="../../528A306E-A883-4524-BD11-2FB448E23119/assets/FC4C69F471A9B3025F4C69E5FD3265C7.png" width="36.00" height="36.00" transform="matrix(0.45, 0.00, -0.00, -0.45, 159.5, 79.4)"></image></g></g><g><clipPath id="clip0x6000036bfb00"><path d="M 298.6 62.3 L 315.6 62.3 L 315.6 79.4 L 298.6 79.4 Z M 298.6 62.3 "></path></clipPath><g clip-path="url(#clip0x6000036bfb00)"><image xlink:href="../../62F53CAE-A979-4322-99F2-75F6DF468AC5/assets/BBBA4C59272A1AC9A2FA6AC09BDEAB99.png" width="37.00" height="37.00" transform="matrix(0.46, 0.00, -0.00, -0.46, 298.6, 79.4)"></image></g></g><g><clipPath id="clip0x6000036bfd40"><path d="M 151.4 22.1 L 162.4 22.1 L 162.4 31.1 L 151.4 31.1 Z M 151.4 22.1 "></path></clipPath><g clip-path="url(#clip0x6000036bfd40)"><image xlink:href="../../528A306E-A883-4524-BD11-2FB448E23119/assets/1138831F05AF4DD16312E0F567177AA2.png" width="21.00" height="17.00" transform="matrix(0.53, 0.00, -0.00, -0.53, 151.4, 31.1)"></image></g></g><g><clipPath id="clip0x6000038a0180"><path d="M 139.3 141.0 L 334.7 141.0 L 334.7 166.5 L 139.3 166.5 Z M 139.3 141.0 "></path></clipPath><g clip-path="url(#clip0x6000038a0180)"><text xml:space="preserve" font-family="Helvetica-Bold,Helvetica" font-weight="bold" font-size="15.0" fill="#000000" transform="matrix(1.00, 0.00, -0.00, -1.00, 143.1, 148.2)">H</text><text xml:space="preserve" font-family="Helvetica-Bold,Helvetica" font-weight="bold" font-size="15.0" fill="#000000" transform="matrix(1.00, 0.00, -0.00, -1.00, 153.9, 148.2)">a</text><text xml:space="preserve" font-family="Helvetica-Bold,Helvetica" font-weight="bold" font-size="15.0" fill="#000000" transform="matrix(1.00, 0.00, -0.00, -1.00, 162.3, 148.2)">n</text><text xml:space="preserve" font-family="Helvetica-Bold,Helvetica" font-weight="bold" font-size="15.0" fill="#000000" transform="matrix(1.00, 0.00, -0.00, -1.00, 171.4, 148.2)">d</text><text xml:space="preserve" font-family="Helvetica-Bold,Helvetica" font-weight="bold" font-size="15.0" fill="#000000" transform="matrix(1.00, 0.00, -0.00, -1.00, 180.6, 148.2)"> </text><text xml:space="preserve" font-family="Helvetica-Bold,Helvetica" font-weight="bold" font-size="15.0" fill="#000000" transform="matrix(1.00, 0.00, -0.00, -1.00, 184.8, 148.2)">B</text><text xml:space="preserve" font-family="Helvetica-Bold,Helvetica" font-weight="bold" font-size="15.0" fill="#000000" transform="matrix(1.00, 0.00, -0.00, -1.00, 195.6, 148.2)">o</text><text xml:space="preserve" font-family="Helvetica-Bold,Helvetica" font-weight="bold" font-size="15.0" fill="#000000" transform="matrix(1.00, 0.00, -0.00, -1.00, 204.8, 148.2)">l</text><text xml:space="preserve" font-family="Helvetica-Bold,Helvetica" font-weight="bold" font-size="15.0" fill="#000000" transform="matrix(1.00, 0.00, -0.00, -1.00, 208.9, 148.2)">t</text><text xml:space="preserve" font-family="Helvetica-Bold,Helvetica" font-weight="bold" font-size="15.0" fill="#000000" transform="matrix(1.00, 0.00, -0.00, -1.00, 213.9, 148.2)">z</text><text xml:space="preserve" font-family="Helvetica-Bold,Helvetica" font-weight="bold" font-size="15.0" fill="#000000" transform="matrix(1.00, 0.00, -0.00, -1.00, 221.4, 148.2)">m</text><text xml:space="preserve" font-family="Helvetica-Bold,Helvetica" font-weight="bold" font-size="15.0" fill="#000000" transform="matrix(1.00, 0.00, -0.00, -1.00, 234.8, 148.2)">a</text><text xml:space="preserve" font-family="Helvetica-Bold,Helvetica" font-weight="bold" font-size="15.0" fill="#000000" transform="matrix(1.00, 0.00, -0.00, -1.00, 243.1, 148.2)">n</text><text xml:space="preserve" font-family="Helvetica-Bold,Helvetica" font-weight="bold" font-size="15.0" fill="#000000" transform="matrix(1.00, 0.00, -0.00, -1.00, 252.3, 148.2)">n</text><text xml:space="preserve" font-family="Helvetica-Bold,Helvetica" font-weight="bold" font-size="15.0" fill="#000000" transform="matrix(1.00, 0.00, -0.00, -1.00, 261.4, 148.2)"> </text><text xml:space="preserve" font-family="Helvetica-Bold,Helvetica" font-weight="bold" font-size="15.0" fill="#000000" transform="matrix(1.00, 0.00, -0.00, -1.00, 265.6, 148.2)">M</text><text xml:space="preserve" font-family="Helvetica-Bold,Helvetica" font-weight="bold" font-size="15.0" fill="#000000" transform="matrix(1.00, 0.00, -0.00, -1.00, 278.1, 148.2)">a</text><text xml:space="preserve" font-family="Helvetica-Bold,Helvetica" font-weight="bold" font-size="15.0" fill="#000000" transform="matrix(1.00, 0.00, -0.00, -1.00, 286.4, 148.2)">c</text><text xml:space="preserve" font-family="Helvetica-Bold,Helvetica" font-weight="bold" font-size="15.0" fill="#000000" transform="matrix(1.00, 0.00, -0.00, -1.00, 294.8, 148.2)">h</text><text xml:space="preserve" font-family="Helvetica-Bold,Helvetica" font-weight="bold" font-size="15.0" fill="#000000" transform="matrix(1.00, 0.00, -0.00, -1.00, 303.9, 148.2)">i</text><text xml:space="preserve" font-family="Helvetica-Bold,Helvetica" font-weight="bold" font-size="15.0" fill="#000000" transform="matrix(1.00, 0.00, -0.00, -1.00, 308.1, 148.2)">n</text><text xml:space="preserve" font-family="Helvetica-Bold,Helvetica" font-weight="bold" font-size="15.0" fill="#000000" transform="matrix(1.00, 0.00, -0.00, -1.00, 317.3, 148.2)">e</text></g></g></g></svg>