<?xml version="1.0" encoding="UTF-8" standalone="no"?><svg xmlns="http://www.w3.org/2000/svg" xmlns:xlink="http://www.w3.org/1999/xlink" clip-rule="evenodd" stroke-miterlimit="10" viewBox="0 0 720 540"><desc>SVG generated by Keynote</desc><defs></defs><g transform="matrix(1.00, 0.00, -0.00, -1.00, 0.0, 540.0)"><path d="M 0.0 540.0 L 720.0 540.0 L 720.0 0.0 L 0.0 0.0 Z M 0.0 540.0 " fill="#FFFFFF"></path><path d="M 0.0 540.0 L 28.0 540.0 L 28.0 485.0 L 0.0 485.0 Z M 0.0 540.0 " fill="#4DC780"></path><path d="M 28.0 540.0 L 722.0 540.0 L 722.0 485.0 L 28.0 485.0 Z M 28.3 540.0 " fill="#009E60"></path><path d="M 0.0 27.0 L 722.0 27.0 L 722.0 -1.0 L 0.0 -1.0 Z M -0.0 27.0 " fill="#009E60"></path><path d="M 694.0 27.0 L 721.0 27.0 L 721.0 -1.0 L 694.0 -1.0 Z M 694.2 27.0 " fill="#4DC780"></path><text xml:space="preserve" font-family="Helvetica-Bold,Helvetica" font-weight="bold" font-size="36.0" fill="#FFFFFF" transform="matrix(1.00, 0.00, -0.00, -1.00, 31.9, 499.7)">H</text><text xml:space="preserve" font-family="Helvetica-Bold,Helvetica" font-weight="bold" font-size="36.0" fill="#FFFFFF" transform="matrix(1.00, 0.00, -0.00, -1.00, 58.0, 499.7)">a</text><text xml:space="preserve" font-family="Helvetica-Bold,Helvetica" font-weight="bold" font-size="36.0" fill="#FFFFFF" transform="matrix(1.00, 0.00, -0.00, -1.00, 78.0, 499.7)">n</text><text xml:space="preserve" font-family="Helvetica-Bold,Helvetica" font-weight="bold" font-size="36.0" fill="#FFFFFF" transform="matrix(1.00, 0.00, -0.00, -1.00, 100.0, 499.7)">d</text><text xml:space="preserve" font-family="Helvetica-Bold,Helvetica" font-weight="bold" font-size="36.0" fill="#FFFFFF" transform="matrix(1.00, 0.00, -0.00, -1.00, 121.9, 499.7)"> </text><text xml:space="preserve" font-family="Helvetica-Bold,Helvetica" font-weight="bold" font-size="36.0" fill="#FFFFFF" transform="matrix(1.00, 0.00, -0.00, -1.00, 131.9, 499.7)">S</text><text xml:space="preserve" font-family="Helvetica-Bold,Helvetica" font-weight="bold" font-size="36.0" fill="#FFFFFF" transform="matrix(1.00, 0.00, -0.00, -1.00, 156.0, 499.7)">h</text><text xml:space="preserve" font-family="Helvetica-Bold,Helvetica" font-weight="bold" font-size="36.0" fill="#FFFFFF" transform="matrix(1.00, 0.00, -0.00, -1.00, 177.9, 499.7)">a</text><text xml:space="preserve" font-family="Helvetica-Bold,Helvetica" font-weight="bold" font-size="36.0" fill="#FFFFFF" transform="matrix(1.00, 0.00, -0.00, -1.00, 198.0, 499.7)">p</text><text xml:space="preserve" font-family="Helvetica-Bold,Helvetica" font-weight="bold" font-size="36.0" fill="#FFFFFF" transform="matrix(1.00, 0.00, -0.00, -1.00, 219.9, 499.7)">e</text><text xml:space="preserve" font-family="Helvetica-Bold,Helvetica" font-weight="bold" font-size="36.0" fill="#FFFFFF" transform="matrix(1.00, 0.00, -0.00, -1.00, 240.0, 499.7)"> </text><text xml:space="preserve" font-family="Helvetica-Bold,Helvetica" font-weight="bold" font-size="36.0" fill="#FFFFFF" transform="matrix(1.00, 0.00, -0.00, -1.00, 250.0, 499.7)">S</text><text xml:space="preserve" font-family="Helvetica-Bold,Helvetica" font-weight="bold" font-size="36.0" fill="#FFFFFF" transform="matrix(1.00, 0.00, -0.00, -1.00, 274.0, 499.7)">a</text><text xml:space="preserve" font-family="Helvetica-Bold,Helvetica" font-weight="bold" font-size="36.0" fill="#FFFFFF" transform="matrix(1.00, 0.00, -0.00, -1.00, 294.0, 499.7)">m</text><text xml:space="preserve" font-family="Helvetica-Bold,Helvetica" font-weight="bold" font-size="36.0" fill="#FFFFFF" transform="matrix(1.00, 0.00, -0.00, -1.00, 326.0, 499.7)">p</text><text xml:space="preserve" font-family="Helvetica-Bold,Helvetica" font-weight="bold" font-size="36.0" fill="#FFFFFF" transform="matrix(1.00, 0.00, -0.00, -1.00, 348.0, 499.7)">l</text><text xml:space="preserve" font-family="Helvetica-Bold,Helvetica" font-weight="bold" font-size="36.0" fill="#FFFFFF" transform="matrix(1.00, 0.00, -0.00, -1.00, 358.0, 499.7)">i</text><text xml:space="preserve" font-family="Helvetica-Bold,Helvetica" font-weight="bold" font-size="36.0" fill="#FFFFFF" transform="matrix(1.00, 0.00, -0.00, -1.00, 368.0, 499.7)">n</text><text xml:space="preserve" font-family="Helvetica-Bold,Helvetica" font-weight="bold" font-size="36.0" fill="#FFFFFF" transform="matrix(1.00, 0.00, -0.00, -1.00, 390.0, 499.7)">g</text><text xml:space="preserve" font-family="Helvetica-Bold,Helvetica" font-weight="bold" font-size="36.0" fill="#FFFFFF" transform="matrix(1.00, 0.00, -0.00, -1.00, 412.0, 499.7)"> </text><text xml:space="preserve" font-family="Helvetica-Bold,Helvetica" font-weight="bold" font-size="36.0" fill="#FFFFFF" transform="matrix(1.00, 0.00, -0.00, -1.00, 422.0, 499.7)">f</text><text xml:space="preserve" font-family="Helvetica-Bold,Helvetica" font-weight="bold" font-size="36.0" fill="#FFFFFF" transform="matrix(1.00, 0.00, -0.00, -1.00, 434.0, 499.7)">r</text><text xml:space="preserve" font-family="Helvetica-Bold,Helvetica" font-weight="bold" font-size="36.0" fill="#FFFFFF" transform="matrix(1.00, 0.00, -0.00, -1.00, 448.0, 499.7)">o</text><text xml:space="preserve" font-family="Helvetica-Bold,Helvetica" font-weight="bold" font-size="36.0" fill="#FFFFFF" transform="matrix(1.00, 0.00, -0.00, -1.00, 470.0, 499.7)">m</text><text xml:space="preserve" font-family="Helvetica-Bold,Helvetica" font-weight="bold" font-size="36.0" fill="#FFFFFF" transform="matrix(1.00, 0.00, -0.00, -1.00, 502.0, 499.7)"> </text><text xml:space="preserve" font-family="Helvetica-Bold,Helvetica" font-weight="bold" font-size="36.0" fill="#FFFFFF" transform="matrix(1.00, 0.00, -0.00, -1.00, 512.0, 499.7)">a</text><text xml:space="preserve" font-family="Helvetica-Bold,Helvetica" font-weight="bold" font-size="36.0" fill="#FFFFFF" transform="matrix(1.00, 0.00, -0.00, -1.00, 532.0, 499.7)"> </text><text xml:space="preserve" font-family="Helvetica-Bold,Helvetica" font-weight="bold" font-size="36.0" fill="#FFFFFF" transform="matrix(1.00, 0.00, -0.00, -1.00, 542.0, 499.7)">S</text><text xml:space="preserve" font-family="Helvetica-Bold,Helvetica" font-weight="bold" font-size="36.0" fill="#FFFFFF" transform="matrix(1.00, 0.00, -0.00, -1.00, 566.0, 499.7)">k</text><text xml:space="preserve" font-family="Helvetica-Bold,Helvetica" font-weight="bold" font-size="36.0" fill="#FFFFFF" transform="matrix(1.00, 0.00, -0.00, -1.00, 586.0, 499.7)">e</text><text xml:space="preserve" font-family="Helvetica-Bold,Helvetica" font-weight="bold" font-size="36.0" fill="#FFFFFF" transform="matrix(1.00, 0.00, -0.00, -1.00, 606.1, 499.7)">t</text><text xml:space="preserve" font-family="Helvetica-Bold,Helvetica" font-weight="bold" font-size="36.0" fill="#FFFFFF" transform="matrix(1.00, 0.00, -0.00, -1.00, 618.0, 499.7)">c</text><text xml:space="preserve" font-family="Helvetica-Bold,Helvetica" font-weight="bold" font-size="36.0" fill="#FFFFFF" transform="matrix(1.00, 0.00, -0.00, -1.00, 638.1, 499.7)">h</text><text xml:space="preserve" font-family="Helvetica,Helvetica" font-size="12.0" fill="#000000" transform="matrix(1.00, 0.00, -0.00, -1.00, 701.1, 8.1)">3</text><text xml:space="preserve" font-family="Helvetica,Helvetica" font-size="12.0" fill="#000000" transform="matrix(1.00, 0.00, -0.00, -1.00, 707.8, 8.1)">0</text><text xml:space="preserve" font-family="Helvetica-Bold,Helvetica" font-weight="bold" font-size="14.0" fill="#DDDDDD" transform="matrix(1.00, 0.00, -0.00, -1.00, 7.6, 462.6)">N</text><text xml:space="preserve" font-family="Helvetica-Bold,Helvetica" font-weight="bold" font-size="14.0" fill="#DDDDDD" transform="matrix(1.00, 0.00, -0.00, -1.00, 17.7, 462.6)">U</text><text xml:space="preserve" font-family="Helvetica-Bold,Helvetica" font-weight="bold" font-size="14.0" fill="#DDDDDD" transform="matrix(1.00, 0.00, -0.00, -1.00, 27.8, 462.6)">I</text><text xml:space="preserve" font-family="Helvetica-Bold,Helvetica" font-weight="bold" font-size="14.0" fill="#DDDDDD" transform="matrix(1.00, 0.00, -0.00, -1.00, 55.1, 462.6)">G</text><text xml:space="preserve" font-family="Helvetica-Bold,Helvetica" font-weight="bold" font-size="14.0" fill="#DDDDDD" transform="matrix(1.00, 0.00, -0.00, -1.00, 66.0, 462.6)">e</text><text xml:space="preserve" font-family="Helvetica-Bold,Helvetica" font-weight="bold" font-size="14.0" fill="#DDDDDD" transform="matrix(1.00, 0.00, -0.00, -1.00, 73.8, 462.6)">s</text><text xml:space="preserve" font-family="Helvetica-Bold,Helvetica" font-weight="bold" font-size="14.0" fill="#DDDDDD" transform="matrix(1.00, 0.00, -0.00, -1.00, 81.6, 462.6)">t</text><text xml:space="preserve" font-family="Helvetica-Bold,Helvetica" font-weight="bold" font-size="14.0" fill="#DDDDDD" transform="matrix(1.00, 0.00, -0.00, -1.00, 86.2, 462.6)">u</text><text xml:space="preserve" font-family="Helvetica-Bold,Helvetica" font-weight="bold" font-size="14.0" fill="#DDDDDD" transform="matrix(1.00, 0.00, -0.00, -1.00, 94.8, 462.6)">r</text><text xml:space="preserve" font-family="Helvetica-Bold,Helvetica" font-weight="bold" font-size="14.0" fill="#DDDDDD" transform="matrix(1.00, 0.00, -0.00, -1.00, 100.2, 462.6)">e</text><text xml:space="preserve" font-family="Helvetica-Bold,Helvetica" font-weight="bold" font-size="14.0" fill="#DDDDDD" transform="matrix(1.00, 0.00, -0.00, -1.00, 41.0, 463.6)">&gt;</text><text xml:space="preserve" font-family="Helvetica-Bold,Helvetica" font-weight="bold" font-size="14.0" fill="#DDDDDD" transform="matrix(1.00, 0.00, -0.00, -1.00, 115.5, 463.6)">&gt;</text><text xml:space="preserve" font-family="Helvetica-Bold,Helvetica" font-weight="bold" font-size="14.0" fill="#DDDDDD" transform="matrix(1.00, 0.00, -0.00, -1.00, 131.3, 462.6)">H</text><text xml:space="preserve" font-family="Helvetica-Bold,Helvetica" font-weight="bold" font-size="14.0" fill="#DDDDDD" transform="matrix(1.00, 0.00, -0.00, -1.00, 141.5, 462.6)">a</text><text xml:space="preserve" font-family="Helvetica-Bold,Helvetica" font-weight="bold" font-size="14.0" fill="#DDDDDD" transform="matrix(1.00, 0.00, -0.00, -1.00, 149.3, 462.6)">n</text><text xml:space="preserve" font-family="Helvetica-Bold,Helvetica" font-weight="bold" font-size="14.0" fill="#DDDDDD" transform="matrix(1.00, 0.00, -0.00, -1.00, 157.8, 462.6)">d</text><text xml:space="preserve" font-family="Helvetica-Bold,Helvetica" font-weight="bold" font-size="14.0" fill="#DDDDDD" transform="matrix(1.00, 0.00, -0.00, -1.00, 166.3, 462.6)"> </text><text xml:space="preserve" font-family="Helvetica-Bold,Helvetica" font-weight="bold" font-size="14.0" fill="#DDDDDD" transform="matrix(1.00, 0.00, -0.00, -1.00, 170.2, 462.6)">S</text><text xml:space="preserve" font-family="Helvetica-Bold,Helvetica" font-weight="bold" font-size="14.0" fill="#DDDDDD" transform="matrix(1.00, 0.00, -0.00, -1.00, 179.6, 462.6)">h</text><text xml:space="preserve" font-family="Helvetica-Bold,Helvetica" font-weight="bold" font-size="14.0" fill="#DDDDDD" transform="matrix(1.00, 0.00, -0.00, -1.00, 188.1, 462.6)">a</text><text xml:space="preserve" font-family="Helvetica-Bold,Helvetica" font-weight="bold" font-size="14.0" fill="#DDDDDD" transform="matrix(1.00, 0.00, -0.00, -1.00, 195.9, 462.6)">p</text><text xml:space="preserve" font-family="Helvetica-Bold,Helvetica" font-weight="bold" font-size="14.0" fill="#DDDDDD" transform="matrix(1.00, 0.00, -0.00, -1.00, 204.5, 462.6)">e</text><text xml:space="preserve" font-family="Helvetica-Bold,Helvetica" font-weight="bold" font-size="14.0" fill="#DDDDDD" transform="matrix(1.00, 0.00, -0.00, -1.00, 212.3, 462.6)"> </text><text xml:space="preserve" font-family="Helvetica-Bold,Helvetica" font-weight="bold" font-size="14.0" fill="#DDDDDD" transform="matrix(1.00, 0.00, -0.00, -1.00, 216.1, 462.6)">R</text><text xml:space="preserve" font-family="Helvetica-Bold,Helvetica" font-weight="bold" font-size="14.0" fill="#DDDDDD" transform="matrix(1.00, 0.00, -0.00, -1.00, 226.3, 462.6)">e</text><text xml:space="preserve" font-family="Helvetica-Bold,Helvetica" font-weight="bold" font-size="14.0" fill="#DDDDDD" transform="matrix(1.00, 0.00, -0.00, -1.00, 234.0, 462.6)">c</text><text xml:space="preserve" font-family="Helvetica-Bold,Helvetica" font-weight="bold" font-size="14.0" fill="#DDDDDD" transform="matrix(1.00, 0.00, -0.00, -1.00, 241.8, 462.6)">o</text><text xml:space="preserve" font-family="Helvetica-Bold,Helvetica" font-weight="bold" font-size="14.0" fill="#DDDDDD" transform="matrix(1.00, 0.00, -0.00, -1.00, 250.4, 462.6)">g</text><text xml:space="preserve" font-family="Helvetica-Bold,Helvetica" font-weight="bold" font-size="14.0" fill="#DDDDDD" transform="matrix(1.00, 0.00, -0.00, -1.00, 258.9, 462.6)">n</text><text xml:space="preserve" font-family="Helvetica-Bold,Helvetica" font-weight="bold" font-size="14.0" fill="#DDDDDD" transform="matrix(1.00, 0.00, -0.00, -1.00, 267.5, 462.6)">i</text><text xml:space="preserve" font-family="Helvetica-Bold,Helvetica" font-weight="bold" font-size="14.0" fill="#DDDDDD" transform="matrix(1.00, 0.00, -0.00, -1.00, 271.4, 462.6)">t</text><text xml:space="preserve" font-family="Helvetica-Bold,Helvetica" font-weight="bold" font-size="14.0" fill="#DDDDDD" transform="matrix(1.00, 0.00, -0.00, -1.00, 276.0, 462.6)">i</text><text xml:space="preserve" font-family="Helvetica-Bold,Helvetica" font-weight="bold" font-size="14.0" fill="#DDDDDD" transform="matrix(1.00, 0.00, -0.00, -1.00, 279.9, 462.6)">o</text><text xml:space="preserve" font-family="Helvetica-Bold,Helvetica" font-weight="bold" font-size="14.0" fill="#DDDDDD" transform="matrix(1.00, 0.00, -0.00, -1.00, 288.5, 462.6)">n</text><text xml:space="preserve" font-family="Helvetica-Bold,Helvetica" font-weight="bold" font-size="14.0" fill="#DDDDDD" transform="matrix(1.00, 0.00, -0.00, -1.00, 302.3, 463.7)">&gt;</text><text xml:space="preserve" font-family="Helvetica-Bold,Helvetica" font-weight="bold" font-size="14.0" fill="#280000" transform="matrix(1.00, 0.00, -0.00, -1.00, 318.2, 462.7)">S</text><text xml:space="preserve" font-family="Helvetica-Bold,Helvetica" font-weight="bold" font-size="14.0" fill="#280000" transform="matrix(1.00, 0.00, -0.00, -1.00, 327.6, 462.7)">a</text><text xml:space="preserve" font-family="Helvetica-Bold,Helvetica" font-weight="bold" font-size="14.0" fill="#280000" transform="matrix(1.00, 0.00, -0.00, -1.00, 335.4, 462.7)">m</text><text xml:space="preserve" font-family="Helvetica-Bold,Helvetica" font-weight="bold" font-size="14.0" fill="#280000" transform="matrix(1.00, 0.00, -0.00, -1.00, 347.8, 462.7)">p</text><text xml:space="preserve" font-family="Helvetica-Bold,Helvetica" font-weight="bold" font-size="14.0" fill="#280000" transform="matrix(1.00, 0.00, -0.00, -1.00, 356.4, 462.7)">l</text><text xml:space="preserve" font-family="Helvetica-Bold,Helvetica" font-weight="bold" font-size="14.0" fill="#280000" transform="matrix(1.00, 0.00, -0.00, -1.00, 360.2, 462.7)">i</text><text xml:space="preserve" font-family="Helvetica-Bold,Helvetica" font-weight="bold" font-size="14.0" fill="#280000" transform="matrix(1.00, 0.00, -0.00, -1.00, 364.1, 462.7)">n</text><text xml:space="preserve" font-family="Helvetica-Bold,Helvetica" font-weight="bold" font-size="14.0" fill="#280000" transform="matrix(1.00, 0.00, -0.00, -1.00, 372.7, 462.7)">g</text><text xml:space="preserve" font-family="Helvetica-Bold,Helvetica" font-weight="bold" font-size="14.0" fill="#280000" transform="matrix(1.00, 0.00, -0.00, -1.00, 381.2, 462.7)"> </text><text xml:space="preserve" font-family="Helvetica-Bold,Helvetica" font-weight="bold" font-size="14.0" fill="#280000" transform="matrix(1.00, 0.00, -0.00, -1.00, 385.1, 462.7)">f</text><text xml:space="preserve" font-family="Helvetica-Bold,Helvetica" font-weight="bold" font-size="14.0" fill="#280000" transform="matrix(1.00, 0.00, -0.00, -1.00, 389.8, 462.7)">r</text><text xml:space="preserve" font-family="Helvetica-Bold,Helvetica" font-weight="bold" font-size="14.0" fill="#280000" transform="matrix(1.00, 0.00, -0.00, -1.00, 395.2, 462.7)">o</text><text xml:space="preserve" font-family="Helvetica-Bold,Helvetica" font-weight="bold" font-size="14.0" fill="#280000" transform="matrix(1.00, 0.00, -0.00, -1.00, 403.8, 462.7)">m</text><text xml:space="preserve" font-family="Helvetica-Bold,Helvetica" font-weight="bold" font-size="14.0" fill="#280000" transform="matrix(1.00, 0.00, -0.00, -1.00, 416.2, 462.7)"> </text><text xml:space="preserve" font-family="Helvetica-Bold,Helvetica" font-weight="bold" font-size="14.0" fill="#280000" transform="matrix(1.00, 0.00, -0.00, -1.00, 420.1, 462.7)">H</text><text xml:space="preserve" font-family="Helvetica-Bold,Helvetica" font-weight="bold" font-size="14.0" fill="#280000" transform="matrix(1.00, 0.00, -0.00, -1.00, 430.2, 462.7)">a</text><text xml:space="preserve" font-family="Helvetica-Bold,Helvetica" font-weight="bold" font-size="14.0" fill="#280000" transform="matrix(1.00, 0.00, -0.00, -1.00, 438.0, 462.7)">n</text><text xml:space="preserve" font-family="Helvetica-Bold,Helvetica" font-weight="bold" font-size="14.0" fill="#280000" transform="matrix(1.00, 0.00, -0.00, -1.00, 446.6, 462.7)">d</text><text xml:space="preserve" font-family="Helvetica-Bold,Helvetica" font-weight="bold" font-size="14.0" fill="#280000" transform="matrix(1.00, 0.00, -0.00, -1.00, 455.1, 462.7)"> </text><text xml:space="preserve" font-family="Helvetica-Bold,Helvetica" font-weight="bold" font-size="14.0" fill="#280000" transform="matrix(1.00, 0.00, -0.00, -1.00, 459.0, 462.7)">S</text><text xml:space="preserve" font-family="Helvetica-Bold,Helvetica" font-weight="bold" font-size="14.0" fill="#280000" transform="matrix(1.00, 0.00, -0.00, -1.00, 468.3, 462.7)">h</text><text xml:space="preserve" font-family="Helvetica-Bold,Helvetica" font-weight="bold" font-size="14.0" fill="#280000" transform="matrix(1.00, 0.00, -0.00, -1.00, 476.9, 462.7)">a</text><text xml:space="preserve" font-family="Helvetica-Bold,Helvetica" font-weight="bold" font-size="14.0" fill="#280000" transform="matrix(1.00, 0.00, -0.00, -1.00, 484.7, 462.7)">p</text><text xml:space="preserve" font-family="Helvetica-Bold,Helvetica" font-weight="bold" font-size="14.0" fill="#280000" transform="matrix(1.00, 0.00, -0.00, -1.00, 493.2, 462.7)">e</text><text xml:space="preserve" font-family="Helvetica-Bold,Helvetica" font-weight="bold" font-size="14.0" fill="#280000" transform="matrix(1.00, 0.00, -0.00, -1.00, 501.0, 462.7)"> </text><text xml:space="preserve" font-family="Helvetica-Bold,Helvetica" font-weight="bold" font-size="14.0" fill="#280000" transform="matrix(1.00, 0.00, -0.00, -1.00, 504.9, 462.7)">M</text><text xml:space="preserve" font-family="Helvetica-Bold,Helvetica" font-weight="bold" font-size="14.0" fill="#280000" transform="matrix(1.00, 0.00, -0.00, -1.00, 516.6, 462.7)">o</text><text xml:space="preserve" font-family="Helvetica-Bold,Helvetica" font-weight="bold" font-size="14.0" fill="#280000" transform="matrix(1.00, 0.00, -0.00, -1.00, 525.1, 462.7)">d</text><text xml:space="preserve" font-family="Helvetica-Bold,Helvetica" font-weight="bold" font-size="14.0" fill="#280000" transform="matrix(1.00, 0.00, -0.00, -1.00, 533.7, 462.7)">e</text><text xml:space="preserve" font-family="Helvetica-Bold,Helvetica" font-weight="bold" font-size="14.0" fill="#280000" transform="matrix(1.00, 0.00, -0.00, -1.00, 541.4, 462.7)">l</text><text xml:space="preserve" font-family="Helvetica-Bold,Helvetica" font-weight="bold" font-size="14.0" fill="#280000" transform="matrix(1.00, 0.00, -0.00, -1.00, 545.3, 462.7)"> </text><text xml:space="preserve" font-family="Helvetica-Bold,Helvetica" font-weight="bold" font-size="14.0" fill="#280000" transform="matrix(1.00, 0.00, -0.00, -1.00, 549.2, 462.7)">w</text><text xml:space="preserve" font-family="Helvetica-Bold,Helvetica" font-weight="bold" font-size="14.0" fill="#280000" transform="matrix(1.00, 0.00, -0.00, -1.00, 560.1, 462.7)">i</text><text xml:space="preserve" font-family="Helvetica-Bold,Helvetica" font-weight="bold" font-size="14.0" fill="#280000" transform="matrix(1.00, 0.00, -0.00, -1.00, 564.0, 462.7)">t</text><text xml:space="preserve" font-family="Helvetica-Bold,Helvetica" font-weight="bold" font-size="14.0" fill="#280000" transform="matrix(1.00, 0.00, -0.00, -1.00, 568.7, 462.7)">h</text><text xml:space="preserve" font-family="Helvetica-Bold,Helvetica" font-weight="bold" font-size="14.0" fill="#280000" transform="matrix(1.00, 0.00, -0.00, -1.00, 577.2, 462.7)"> </text><text xml:space="preserve" font-family="Helvetica-Bold,Helvetica" font-weight="bold" font-size="14.0" fill="#280000" transform="matrix(1.00, 0.00, -0.00, -1.00, 581.1, 462.7)">S</text><text xml:space="preserve" font-family="Helvetica-Bold,Helvetica" font-weight="bold" font-size="14.0" fill="#280000" transform="matrix(1.00, 0.00, -0.00, -1.00, 590.4, 462.7)">k</text><text xml:space="preserve" font-family="Helvetica-Bold,Helvetica" font-weight="bold" font-size="14.0" fill="#280000" transform="matrix(1.00, 0.00, -0.00, -1.00, 598.2, 462.7)">e</text><text xml:space="preserve" font-family="Helvetica-Bold,Helvetica" font-weight="bold" font-size="14.0" fill="#280000" transform="matrix(1.00, 0.00, -0.00, -1.00, 606.0, 462.7)">t</text><text xml:space="preserve" font-family="Helvetica-Bold,Helvetica" font-weight="bold" font-size="14.0" fill="#280000" transform="matrix(1.00, 0.00, -0.00, -1.00, 610.7, 462.7)">c</text><text xml:space="preserve" font-family="Helvetica-Bold,Helvetica" font-weight="bold" font-size="14.0" fill="#280000" transform="matrix(1.00, 0.00, -0.00, -1.00, 618.5, 462.7)">h</text><text xml:space="preserve" font-family="Helvetica-Bold,Helvetica" font-weight="bold" font-size="14.0" fill="#280000" transform="matrix(1.00, 0.00, -0.00, -1.00, 627.0, 462.7)">e</text><text xml:space="preserve" font-family="Helvetica-Bold,Helvetica" font-weight="bold" font-size="14.0" fill="#280000" transform="matrix(1.00, 0.00, -0.00, -1.00, 634.8, 462.7)">s</text><g><clipPath id="clip0x6000038a7fe0"><path d="M 118.8 269.2 L 218.8 269.2 L 218.8 371.2 L 118.8 371.2 Z M 118.8 269.2 "></path></clipPath><g clip-path="url(#clip0x6000038a7fe0)"><image xlink:href="../../B49152F6-545D-4785-AD82-8CF98E258513/assets/05696994F7A44F68368858AD1CC2B6A6.png" width="100.00" height="102.00" transform="matrix(1.00, 0.00, -0.00, -1.00, 118.8, 371.2)"></image></g></g><g><clipPath id="clip0x6000038a82e0"><path d="M 100.1 402.4 L 177.2 402.4 L 177.2 427.9 L 100.1 427.9 Z M 100.1 402.4 "></path></clipPath><g clip-path="url(#clip0x6000038a82e0)"><text xml:space="preserve" font-family="Helvetica-Bold,Helvetica" font-weight="bold" font-size="15.0" fill="#000000" transform="matrix(1.00, 0.00, -0.00, -1.00, 103.8, 409.6)">S</text><text xml:space="preserve" font-family="Helvetica-Bold,Helvetica" font-weight="bold" font-size="15.0" fill="#000000" transform="matrix(1.00, 0.00, -0.00, -1.00, 113.9, 409.6)">k</text><text xml:space="preserve" font-family="Helvetica-Bold,Helvetica" font-weight="bold" font-size="15.0" fill="#000000" transform="matrix(1.00, 0.00, -0.00, -1.00, 122.2, 409.6)">e</text><text xml:space="preserve" font-family="Helvetica-Bold,Helvetica" font-weight="bold" font-size="15.0" fill="#000000" transform="matrix(1.00, 0.00, -0.00, -1.00, 130.5, 409.6)">t</text><text xml:space="preserve" font-family="Helvetica-Bold,Helvetica" font-weight="bold" font-size="15.0" fill="#000000" transform="matrix(1.00, 0.00, -0.00, -1.00, 135.5, 409.6)">c</text><text xml:space="preserve" font-family="Helvetica-Bold,Helvetica" font-weight="bold" font-size="15.0" fill="#000000" transform="matrix(1.00, 0.00, -0.00, -1.00, 143.9, 409.6)">h</text><text xml:space="preserve" font-family="Helvetica-Bold,Helvetica" font-weight="bold" font-size="15.0" fill="#000000" transform="matrix(1.00, 0.00, -0.00, -1.00, 153.0, 409.6)">e</text><text xml:space="preserve" font-family="Helvetica-Bold,Helvetica" font-weight="bold" font-size="15.0" fill="#000000" transform="matrix(1.00, 0.00, -0.00, -1.00, 161.4, 409.6)">s</text></g></g><g><clipPath id="clip0x6000038a7a40"><path d="M 496.2 262.8 L 601.2 262.8 L 601.2 377.8 L 496.2 377.8 Z M 496.2 262.8 "></path></clipPath><g clip-path="url(#clip0x6000038a7a40)"><image xlink:href="../../B49152F6-545D-4785-AD82-8CF98E258513/assets/BE54994EDB3406496565B33675D7233E.png" width="105.00" height="115.00" transform="matrix(1.00, 0.00, -0.00, -1.00, 496.2, 377.8)"></image></g></g><g><clipPath id="clip0x6000038a79e0"><path d="M 450.9 297.2 L 504.9 297.2 L 504.9 343.2 L 450.9 343.2 Z M 450.9 297.2 "></path></clipPath><g clip-path="url(#clip0x6000038a79e0)"><image xlink:href="../../B49152F6-545D-4785-AD82-8CF98E258513/assets/CCF0E017B6D542DF2D6491250F2B0A34.png" width="54.00" height="46.00" transform="matrix(1.00, 0.00, -0.00, -1.00, 450.9, 343.2)"></image></g></g><g><clipPath id="clip0x6000038a7560"><path d="M 510.2 402.4 L 587.3 402.4 L 587.3 427.9 L 510.2 427.9 Z M 510.2 402.4 "></path></clipPath><g clip-path="url(#clip0x6000038a7560)"><text xml:space="preserve" font-family="Helvetica-Bold,Helvetica" font-weight="bold" font-size="15.0" fill="#000000" transform="matrix(1.00, 0.00, -0.00, -1.00, 514.0, 409.6)">S</text><text xml:space="preserve" font-family="Helvetica-Bold,Helvetica" font-weight="bold" font-size="15.0" fill="#000000" transform="matrix(1.00, 0.00, -0.00, -1.00, 524.0, 409.6)">a</text><text xml:space="preserve" font-family="Helvetica-Bold,Helvetica" font-weight="bold" font-size="15.0" fill="#000000" transform="matrix(1.00, 0.00, -0.00, -1.00, 532.3, 409.6)">m</text><text xml:space="preserve" font-family="Helvetica-Bold,Helvetica" font-weight="bold" font-size="15.0" fill="#000000" transform="matrix(1.00, 0.00, -0.00, -1.00, 545.7, 409.6)">p</text><text xml:space="preserve" font-family="Helvetica-Bold,Helvetica" font-weight="bold" font-size="15.0" fill="#000000" transform="matrix(1.00, 0.00, -0.00, -1.00, 554.8, 409.6)">l</text><text xml:space="preserve" font-family="Helvetica-Bold,Helvetica" font-weight="bold" font-size="15.0" fill="#000000" transform="matrix(1.00, 0.00, -0.00, -1.00, 559.0, 409.6)">e</text><text xml:space="preserve" font-family="Helvetica-Bold,Helvetica" font-weight="bold" font-size="15.0" fill="#000000" transform="matrix(1.00, 0.00, -0.00, -1.00, 567.3, 409.6)">s</text></g></g><g><clipPath id="clip0x6000038a6f60"><path d="M 265.2 274.4 L 404.1 274.4 L 404.1 306.0 L 265.2 306.0 Z M 265.2 274.4 "></path></clipPath><g clip-path="url(#clip0x6000038a6f60)"><path d="M 267.2 284.0 L 267.0 296.4 C 267.0 300.6 270.6 304.0 274.8 304.0 L 394.5 304.0 C 398.7 304.0 402.0 300.6 402.0 296.4 L 402.0 284.0 C 402.0 279.8 398.7 276.0 394.5 276.0 L 274.8 276.0 C 270.6 276.0 267.2 279.8 267.2 284.0 Z M 267.2 284.0 " fill="#D8D8D8"></path><path d="M 0.0 20.0 L -0.2 7.6 C -0.2 3.4 3.4 -0.0 7.6 -0.0 L 127.3 -0.0 C 131.5 -0.0 134.8 3.4 134.8 7.6 L 134.8 20.0 C 134.8 24.2 131.5 28.0 127.3 28.0 L 7.6 28.0 C 3.4 28.0 0.0 24.2 0.0 20.0 Z M 0.0 20.0 " fill="none" stroke="#000000" stroke-width="2.00" stroke-linejoin="round" transform="matrix(1.00, 0.00, 0.00, -1.00, 267.2, 304.0)"></path></g></g><g><clipPath id="clip0x6000038a6c60"><path d="M 351.1 318.9 L 391.9 318.9 L 391.9 350.0 L 351.1 350.0 Z M 351.1 318.9 "></path></clipPath><g clip-path="url(#clip0x6000038a6c60)"><path d="M 353.1 327.6 L 353.0 341.3 C 353.0 345.0 356.1 348.0 359.8 348.0 L 383.1 348.0 C 386.9 348.0 390.0 345.0 390.0 341.3 L 390.0 327.6 C 390.0 323.9 386.9 321.0 383.1 321.0 L 359.8 321.0 C 356.1 321.0 353.1 323.9 353.1 327.6 Z M 353.1 327.6 " fill="#FFFFFF"></path><path d="M 0.0 20.3 L -0.1 6.7 C -0.1 3.0 3.0 -0.0 6.7 -0.0 L 30.1 -0.0 C 33.8 -0.0 36.9 3.0 36.9 6.7 L 36.9 20.3 C 36.9 24.1 33.8 27.0 30.1 27.0 L 6.7 27.0 C 3.0 27.0 0.0 24.1 0.0 20.3 Z M 0.0 20.3 " fill="none" stroke="#000000" stroke-width="2.00" stroke-linejoin="round" transform="matrix(1.00, 0.00, 0.00, -1.00, 353.1, 348.0)"></path></g></g><g><clipPath id="clip0x6000038a6900"><path d="M 359.2 322.2 L 383.0 322.2 L 383.0 345.9 L 359.2 345.9 Z M 359.2 322.2 "></path></clipPath><g clip-path="url(#clip0x6000038a6900)"><path d="M 378.1 341.0 C 382.0 337.2 382.0 330.9 378.1 327.1 C 374.2 323.2 368.0 323.2 364.1 327.1 C 360.3 330.9 360.3 337.2 364.1 341.0 C 368.0 344.9 374.2 344.9 378.1 341.0 " fill="#FFFFFF"></path><path d="M 16.9 2.9 C 20.7 6.7 20.7 13.0 16.9 16.9 C 13.0 20.7 6.7 20.7 2.9 16.9 C -1.0 13.0 -1.0 6.7 2.9 2.9 C 6.7 -1.0 13.0 -1.0 16.9 2.9 " fill="none" stroke="#008000" stroke-width="2.00" stroke-linejoin="round" transform="matrix(1.00, 0.00, 0.00, -1.00, 361.2, 343.9)"></path></g></g><g><clipPath id="clip0x6000038a6600"><path d="M 277.5 318.9 L 346.9 318.9 L 346.9 350.0 L 277.5 350.0 Z M 277.5 318.9 "></path></clipPath><g clip-path="url(#clip0x6000038a6600)"><path d="M 279.5 327.6 L 279.0 341.3 C 279.0 345.0 282.5 348.0 286.2 348.0 L 338.2 348.0 C 341.9 348.0 345.0 345.0 345.0 341.3 L 345.0 327.6 C 345.0 323.9 341.9 321.0 338.2 321.0 L 286.2 321.0 C 282.5 321.0 279.5 323.9 279.5 327.6 Z M 279.5 327.6 " fill="#FFFFFF"></path><path d="M 0.0 20.3 L -0.5 6.7 C -0.5 3.0 3.0 -0.0 6.7 -0.0 L 58.7 -0.0 C 62.4 -0.0 65.5 3.0 65.5 6.7 L 65.5 20.3 C 65.5 24.1 62.4 27.0 58.7 27.0 L 6.7 27.0 C 3.0 27.0 0.0 24.1 0.0 20.3 Z M 0.0 20.3 " fill="none" stroke="#000000" stroke-width="2.00" stroke-linejoin="round" transform="matrix(1.00, 0.00, 0.00, -1.00, 279.5, 348.0)"></path></g></g><g><clipPath id="clip0x6000036bed80"><path d="M 285.6 322.2 L 309.4 322.2 L 309.4 345.9 L 285.6 345.9 Z M 285.6 322.2 "></path></clipPath><g clip-path="url(#clip0x6000036bed80)"><path d="M 304.5 341.0 C 308.4 337.2 308.4 330.9 304.5 327.1 C 300.6 323.2 294.4 323.2 290.5 327.1 C 286.7 330.9 286.7 337.2 290.5 341.0 C 294.4 344.9 300.6 344.9 304.5 341.0 " fill="#FFFFFF"></path><path d="M 16.9 2.9 C 20.7 6.7 20.7 13.0 16.9 16.9 C 13.0 20.7 6.7 20.7 2.9 16.9 C -1.0 13.0 -1.0 6.7 2.9 2.9 C 6.7 -1.0 13.0 -1.0 16.9 2.9 " fill="none" stroke="#800000" stroke-width="2.00" stroke-linejoin="round" transform="matrix(1.00, 0.00, 0.00, -1.00, 287.6, 343.9)"></path></g></g><g><clipPath id="clip0x6000038a59a0"><path d="M 314.3 322.2 L 338.0 322.2 L 338.0 345.9 L 314.3 345.9 Z M 314.3 322.2 "></path></clipPath><g clip-path="url(#clip0x6000038a59a0)"><path d="M 333.1 341.0 C 337.0 337.2 337.0 330.9 333.1 327.1 C 329.3 323.2 323.0 323.2 319.2 327.1 C 315.3 330.9 315.3 337.2 319.2 341.0 C 323.0 344.9 329.3 344.9 333.1 341.0 " fill="#FFFFFF"></path><path d="M 16.9 2.9 C 20.7 6.7 20.7 13.0 16.9 16.9 C 13.0 20.7 6.7 20.7 2.9 16.9 C -1.0 13.0 -1.0 6.7 2.9 2.9 C 6.7 -1.0 13.0 -1.0 16.9 2.9 " fill="none" stroke="#800000" stroke-width="2.00" stroke-linejoin="round" transform="matrix(1.00, 0.00, 0.00, -1.00, 316.3, 343.9)"></path></g></g><g><clipPath id="clip0x6000038a5520"><path d="M 299.5 324.3 L 286.8 298.5 L 283.7 300.1 L 296.4 325.9 Z M 299.5 324.3 "></path></clipPath><g clip-path="url(#clip0x6000038a5520)"><path d="M 0.0 0.0 L 26.7 0.0 " fill="none" stroke="#0C0C0C" stroke-opacity="0.80" stroke-width="1.50" stroke-linejoin="round" transform="matrix(-0.44, -0.90, -0.90, 0.44, 297.5, 324.2)"></path></g></g><g><clipPath id="clip0x6000038a50a0"><path d="M 372.2 325.9 L 385.7 300.1 L 382.6 298.5 L 369.1 324.3 Z M 372.2 325.9 "></path></clipPath><g clip-path="url(#clip0x6000038a50a0)"><path d="M 0.0 0.0 L 27.1 0.0 " fill="none" stroke="#0C0C0C" stroke-opacity="0.80" stroke-width="1.50" stroke-linejoin="round" transform="matrix(0.46, -0.89, -0.89, -0.46, 371.1, 324.2)"></path></g></g><g><clipPath id="clip0x6000038a5700"><path d="M 298.2 326.1 L 320.2 300.6 L 317.6 298.3 L 295.5 323.8 Z M 298.2 326.1 "></path></clipPath><g clip-path="url(#clip0x6000038a5700)"><path d="M 0.0 0.0 L 31.7 0.0 " fill="none" stroke="#0C0C0C" stroke-opacity="0.80" stroke-width="1.50" stroke-linejoin="round" transform="matrix(0.65, -0.76, -0.76, -0.65, 297.5, 324.2)"></path></g></g><g><clipPath id="clip0x6000038a5640"><path d="M 297.3 326.2 L 352.6 301.7 L 351.1 298.5 L 295.9 323.0 Z M 297.3 326.2 "></path></clipPath><g clip-path="url(#clip0x6000038a5640)"><path d="M 0.0 0.0 L 58.5 0.0 " fill="none" stroke="#0C0C0C" stroke-opacity="0.80" stroke-width="1.50" stroke-linejoin="round" transform="matrix(0.91, -0.41, -0.41, -0.91, 297.5, 324.2)"></path></g></g><g><clipPath id="clip0x6000038a5820"><path d="M 373.1 323.8 L 351.6 298.6 L 349.0 300.8 L 370.4 326.1 Z M 373.1 323.8 "></path></clipPath><g clip-path="url(#clip0x6000038a5820)"><path d="M 0.0 0.0 L 31.1 0.0 " fill="none" stroke="#0C0C0C" stroke-opacity="0.80" stroke-width="1.50" stroke-linejoin="round" transform="matrix(-0.65, -0.76, -0.76, 0.65, 371.1, 324.2)"></path></g></g><g><clipPath id="clip0x6000038a56a0"><path d="M 316.3 299.8 L 324.8 325.7 L 328.1 324.6 L 319.6 298.7 Z M 316.3 299.8 "></path></clipPath><g clip-path="url(#clip0x6000038a56a0)"><path d="M 0.0 0.0 L 25.2 0.0 " fill="none" stroke="#0C0C0C" stroke-opacity="0.80" stroke-width="1.50" stroke-linejoin="round" transform="matrix(0.31, 0.95, 0.95, -0.31, 318.2, 300.2)"></path></g></g><g><clipPath id="clip0x6000038a5ee0"><path d="M 283.9 301.2 L 326.1 326.2 L 327.9 323.2 L 285.7 298.2 Z M 283.9 301.2 "></path></clipPath><g clip-path="url(#clip0x6000038a5ee0)"><path d="M 0.0 0.0 L 47.0 0.0 " fill="none" stroke="#0C0C0C" stroke-opacity="0.80" stroke-width="1.50" stroke-linejoin="round" transform="matrix(0.86, 0.51, 0.51, -0.86, 285.7, 300.2)"></path></g></g><g><clipPath id="clip0x6000038a6240"><path d="M 350.5 298.5 L 324.2 323.6 L 326.6 326.1 L 352.9 301.0 Z M 350.5 298.5 "></path></clipPath><g clip-path="url(#clip0x6000038a6240)"><path d="M 0.0 0.0 L 34.3 0.0 " fill="none" stroke="#0C0C0C" stroke-opacity="0.80" stroke-width="1.50" stroke-linejoin="round" transform="matrix(-0.72, 0.69, 0.69, 0.72, 350.9, 300.5)"></path></g></g><g><clipPath id="clip0x6000038a6ba0"><path d="M 273.5 277.9 L 297.8 277.9 L 297.8 302.2 L 273.5 302.2 Z M 273.5 277.9 "></path></clipPath><g clip-path="url(#clip0x6000038a6ba0)"><path d="M 292.9 297.2 C 296.8 293.3 296.8 286.9 292.9 282.9 C 288.9 278.9 282.5 278.9 278.5 282.9 C 274.5 286.9 274.5 293.3 278.5 297.2 C 282.5 301.2 288.9 301.2 292.9 297.2 " fill="#7F7F7F"></path><path d="M 17.3 3.0 C 21.3 6.9 21.3 13.4 17.3 17.3 C 13.4 21.3 6.9 21.3 3.0 17.3 C -1.0 13.4 -1.0 6.9 3.0 3.0 C 6.9 -1.0 13.4 -1.0 17.3 3.0 " fill="none" stroke="#000000" stroke-width="2.00" stroke-linejoin="round" transform="matrix(1.00, 0.00, 0.00, -1.00, 275.5, 300.2)"></path></g></g><g><clipPath id="clip0x6000038a8dc0"><path d="M 306.1 277.9 L 330.4 277.9 L 330.4 302.2 L 306.1 302.2 Z M 306.1 277.9 "></path></clipPath><g clip-path="url(#clip0x6000038a8dc0)"><path d="M 325.4 297.2 C 329.4 293.3 329.4 286.9 325.4 282.9 C 321.4 278.9 315.0 278.9 311.1 282.9 C 307.1 286.9 307.1 293.3 311.1 297.2 C 315.0 301.2 321.4 301.2 325.4 297.2 " fill="#7F7F7F"></path><path d="M 17.3 3.0 C 21.3 6.9 21.3 13.4 17.3 17.3 C 13.4 21.3 6.9 21.3 3.0 17.3 C -1.0 13.4 -1.0 6.9 3.0 3.0 C 6.9 -1.0 13.4 -1.0 17.3 3.0 " fill="none" stroke="#000000" stroke-width="2.00" stroke-linejoin="round" transform="matrix(1.00, 0.00, 0.00, -1.00, 308.1, 300.2)"></path></g></g><g><clipPath id="clip0x6000038a9fc0"><path d="M 371.5 277.9 L 395.8 277.9 L 395.8 302.2 L 371.5 302.2 Z M 371.5 277.9 "></path></clipPath><g clip-path="url(#clip0x6000038a9fc0)"><path d="M 390.8 297.2 C 394.8 293.3 394.8 286.9 390.8 282.9 C 386.9 278.9 380.4 278.9 376.5 282.9 C 372.5 286.9 372.5 293.3 376.5 297.2 C 380.4 301.2 386.9 301.2 390.8 297.2 " fill="#7F7F7F"></path><path d="M 17.3 3.0 C 21.3 6.9 21.3 13.4 17.3 17.3 C 13.4 21.3 6.9 21.3 3.0 17.3 C -1.0 13.4 -1.0 6.9 3.0 3.0 C 6.9 -1.0 13.4 -1.0 17.3 3.0 " fill="none" stroke="#000000" stroke-width="2.00" stroke-linejoin="round" transform="matrix(1.00, 0.00, 0.00, -1.00, 373.5, 300.2)"></path></g></g><g><clipPath id="clip0x6000038ab1c0"><path d="M 297.4 365.4 L 370.9 365.4 L 370.9 396.5 L 297.4 396.5 Z M 297.4 365.4 "></path></clipPath><g clip-path="url(#clip0x6000038ab1c0)"><path d="M 299.4 374.2 L 299.0 387.8 C 299.0 391.5 302.4 395.0 306.2 395.0 L 362.2 395.0 C 365.9 395.0 369.0 391.5 369.0 387.8 L 369.0 374.2 C 369.0 370.4 365.9 367.0 362.2 367.0 L 306.2 367.0 C 302.4 367.0 299.4 370.4 299.4 374.2 Z M 299.4 374.2 " fill="#FFFFFF"></path><path d="M 0.0 20.3 L -0.4 6.7 C -0.4 3.0 3.0 -0.5 6.7 -0.5 L 62.8 -0.5 C 66.5 -0.5 69.6 3.0 69.6 6.7 L 69.6 20.3 C 69.6 24.1 66.5 27.5 62.8 27.5 L 6.7 27.5 C 3.0 27.5 0.0 24.1 0.0 20.3 Z M 0.0 20.3 " fill="none" stroke="#000000" stroke-width="2.00" stroke-linejoin="round" transform="matrix(1.00, 0.00, 0.00, -1.00, 299.4, 394.5)"></path></g></g><g><clipPath id="clip0x6000038ac3c0"><path d="M 307.8 368.7 L 331.5 368.7 L 331.5 392.5 L 307.8 392.5 Z M 307.8 368.7 "></path></clipPath><g clip-path="url(#clip0x6000038ac3c0)"><path d="M 326.6 387.6 C 330.5 383.7 330.5 377.5 326.6 373.6 C 322.8 369.7 316.5 369.7 312.7 373.6 C 308.8 377.5 308.8 383.7 312.7 387.6 C 316.5 391.4 322.8 391.4 326.6 387.6 " fill="#FFFFFF"></path><path d="M 16.9 2.9 C 20.7 6.7 20.7 13.0 16.9 16.9 C 13.0 20.7 6.7 20.7 2.9 16.9 C -1.0 13.0 -1.0 6.7 2.9 2.9 C 6.7 -1.0 13.0 -1.0 16.9 2.9 " fill="none" stroke="#000000" stroke-width="2.00" stroke-linejoin="round" transform="matrix(1.00, 0.00, 0.00, -1.00, 309.8, 390.5)"></path></g></g><g><clipPath id="clip0x6000038ad740"><path d="M 340.5 368.7 L 364.2 368.7 L 364.2 392.5 L 340.5 392.5 Z M 340.5 368.7 "></path></clipPath><g clip-path="url(#clip0x6000038ad740)"><path d="M 359.3 387.6 C 363.2 383.7 363.2 377.5 359.3 373.6 C 355.5 369.7 349.2 369.7 345.4 373.6 C 341.5 377.5 341.5 383.7 345.4 387.6 C 349.2 391.4 355.5 391.4 359.3 387.6 " fill="#FFFFFF"></path><path d="M 16.9 2.9 C 20.7 6.7 20.7 13.0 16.9 16.9 C 13.0 20.7 6.7 20.7 2.9 16.9 C -1.0 13.0 -1.0 6.7 2.9 2.9 C 6.7 -1.0 13.0 -1.0 16.9 2.9 " fill="none" stroke="#000000" stroke-width="2.00" stroke-linejoin="round" transform="matrix(1.00, 0.00, 0.00, -1.00, 342.5, 390.5)"></path></g></g><g><clipPath id="clip0x6000038ae280"><path d="M 338.8 278.2 L 363.1 278.2 L 363.1 302.5 L 338.8 302.5 Z M 338.8 278.2 "></path></clipPath><g clip-path="url(#clip0x6000038ae280)"><path d="M 358.1 297.5 C 362.1 293.5 362.1 287.1 358.1 283.1 C 354.2 279.2 347.7 279.2 343.8 283.1 C 339.8 287.1 339.8 293.5 343.8 297.5 C 347.7 301.4 354.2 301.4 358.1 297.5 " fill="#7F7F7F"></path><path d="M 17.3 3.0 C 21.3 6.9 21.3 13.4 17.3 17.3 C 13.4 21.3 6.9 21.3 3.0 17.3 C -1.0 13.4 -1.0 6.9 3.0 3.0 C 6.9 -1.0 13.4 -1.0 17.3 3.0 " fill="none" stroke="#000000" stroke-width="2.00" stroke-linejoin="round" transform="matrix(1.00, 0.00, 0.00, -1.00, 340.8, 300.5)"></path></g></g><g><clipPath id="clip0x6000038af540"><path d="M 321.1 372.1 L 328.1 343.4 L 324.7 342.5 L 317.7 371.3 Z M 321.1 372.1 "></path></clipPath><g clip-path="url(#clip0x6000038af540)"><path d="M 0.0 0.0 L 27.6 0.0 " fill="none" stroke="#0C0C0C" stroke-opacity="0.80" stroke-width="1.50" stroke-linejoin="round" transform="matrix(0.24, -0.97, -0.97, -0.24, 319.6, 370.7)"></path></g></g><g><clipPath id="clip0x6000038afe40"><path d="M 295.5 344.3 L 318.9 372.6 L 321.6 370.4 L 298.2 342.0 Z M 295.5 344.3 "></path></clipPath><g clip-path="url(#clip0x6000038afe40)"><path d="M 0.0 0.0 L 34.7 0.0 " fill="none" stroke="#0C0C0C" stroke-opacity="0.80" stroke-width="1.50" stroke-linejoin="round" transform="matrix(0.64, 0.77, 0.77, -0.64, 297.5, 343.9)"></path></g></g><g><clipPath id="clip0x6000038b0740"><path d="M 371.2 341.9 L 317.9 369.6 L 319.6 372.7 L 372.8 345.0 Z M 371.2 341.9 "></path></clipPath><g clip-path="url(#clip0x6000038b0740)"><path d="M 0.0 0.0 L 58.0 0.0 " fill="none" stroke="#0C0C0C" stroke-opacity="0.80" stroke-width="1.50" stroke-linejoin="round" transform="matrix(-0.89, 0.46, 0.46, 0.89, 371.1, 343.9)"></path></g></g><g><clipPath id="clip0x6000038b1280"><path d="M 324.2 344.4 L 351.8 372.7 L 354.3 370.2 L 326.7 342.0 Z M 324.2 344.4 "></path></clipPath><g clip-path="url(#clip0x6000038b1280)"><path d="M 0.0 0.0 L 37.5 0.0 " fill="none" stroke="#0C0C0C" stroke-opacity="0.80" stroke-width="1.50" stroke-linejoin="round" transform="matrix(0.70, 0.71, 0.71, -0.70, 326.1, 343.9)"></path></g></g><g><clipPath id="clip0x6000038b2120"><path d="M 295.8 345.1 L 352.5 372.7 L 354.0 369.6 L 297.4 341.9 Z M 295.8 345.1 "></path></clipPath><g clip-path="url(#clip0x6000038b2120)"><path d="M 0.0 0.0 L 61.0 0.0 " fill="none" stroke="#0C0C0C" stroke-opacity="0.80" stroke-width="1.50" stroke-linejoin="round" transform="matrix(0.90, 0.44, 0.44, -0.90, 297.5, 343.9)"></path></g></g><g><clipPath id="clip0x6000038b2d80"><path d="M 370.3 342.1 L 350.4 370.5 L 353.2 372.5 L 373.1 344.1 Z M 370.3 342.1 "></path></clipPath><g clip-path="url(#clip0x6000038b2d80)"><path d="M 0.0 0.0 L 32.7 0.0 " fill="none" stroke="#0C0C0C" stroke-opacity="0.80" stroke-width="1.50" stroke-linejoin="round" transform="matrix(-0.57, 0.82, 0.82, 0.57, 371.1, 343.9)"></path></g></g><g><clipPath id="clip0x6000038b4220"><path d="M 274.9 375.5 L 291.2 375.5 L 291.2 390.4 L 274.9 390.4 Z M 274.9 375.5 "></path></clipPath><g clip-path="url(#clip0x6000038b4220)"><image xlink:href="../../62F53CAE-A979-4322-99F2-75F6DF468AC5/assets/5083E88EBA7CAC1927B602BD4AF7A7B0.png" width="35.00" height="32.00" transform="matrix(0.47, 0.00, -0.00, -0.47, 274.9, 390.4)"></image></g></g><g><clipPath id="clip0x6000038b43a0"><path d="M 258.5 325.0 L 274.9 325.0 L 274.9 341.4 L 258.5 341.4 Z M 258.5 325.0 "></path></clipPath><g clip-path="url(#clip0x6000038b43a0)"><image xlink:href="../../528A306E-A883-4524-BD11-2FB448E23119/assets/FC4C69F471A9B3025F4C69E5FD3265C7.png" width="36.00" height="36.00" transform="matrix(0.45, 0.00, -0.00, -0.45, 258.5, 341.4)"></image></g></g><g><clipPath id="clip0x6000038b60e0"><path d="M 397.6 324.3 L 414.6 324.3 L 414.6 341.4 L 397.6 341.4 Z M 397.6 324.3 "></path></clipPath><g clip-path="url(#clip0x6000038b60e0)"><image xlink:href="../../62F53CAE-A979-4322-99F2-75F6DF468AC5/assets/BBBA4C59272A1AC9A2FA6AC09BDEAB99.png" width="37.00" height="37.00" transform="matrix(0.46, 0.00, -0.00, -0.46, 397.6, 341.4)"></image></g></g><g><clipPath id="clip0x6000038b69e0"><path d="M 250.4 284.1 L 261.4 284.1 L 261.4 293.1 L 250.4 293.1 Z M 250.4 284.1 "></path></clipPath><g clip-path="url(#clip0x6000038b69e0)"><image xlink:href="../../528A306E-A883-4524-BD11-2FB448E23119/assets/1138831F05AF4DD16312E0F567177AA2.png" width="21.00" height="17.00" transform="matrix(0.53, 0.00, -0.00, -0.53, 250.4, 293.1)"></image></g></g><g><clipPath id="clip0x6000038b80c0"><path d="M 238.3 403.0 L 433.7 403.0 L 433.7 428.5 L 238.3 428.5 Z M 238.3 403.0 "></path></clipPath><g clip-path="url(#clip0x6000038b80c0)"><text xml:space="preserve" font-family="Helvetica-Bold,Helvetica" font-weight="bold" font-size="15.0" fill="#000000" transform="matrix(1.00, 0.00, -0.00, -1.00, 242.1, 410.2)">H</text><text xml:space="preserve" font-family="Helvetica-Bold,Helvetica" font-weight="bold" font-size="15.0" fill="#000000" transform="matrix(1.00, 0.00, -0.00, -1.00, 252.9, 410.2)">a</text><text xml:space="preserve" font-family="Helvetica-Bold,Helvetica" font-weight="bold" font-size="15.0" fill="#000000" transform="matrix(1.00, 0.00, -0.00, -1.00, 261.3, 410.2)">n</text><text xml:space="preserve" font-family="Helvetica-Bold,Helvetica" font-weight="bold" font-size="15.0" fill="#000000" transform="matrix(1.00, 0.00, -0.00, -1.00, 270.4, 410.2)">d</text><text xml:space="preserve" font-family="Helvetica-Bold,Helvetica" font-weight="bold" font-size="15.0" fill="#000000" transform="matrix(1.00, 0.00, -0.00, -1.00, 279.6, 410.2)"> </text><text xml:space="preserve" font-family="Helvetica-Bold,Helvetica" font-weight="bold" font-size="15.0" fill="#000000" transform="matrix(1.00, 0.00, -0.00, -1.00, 283.8, 410.2)">B</text><text xml:space="preserve" font-family="Helvetica-Bold,Helvetica" font-weight="bold" font-size="15.0" fill="#000000" transform="matrix(1.00, 0.00, -0.00, -1.00, 294.6, 410.2)">o</text><text xml:space="preserve" font-family="Helvetica-Bold,Helvetica" font-weight="bold" font-size="15.0" fill="#000000" transform="matrix(1.00, 0.00, -0.00, -1.00, 303.8, 410.2)">l</text><text xml:space="preserve" font-family="Helvetica-Bold,Helvetica" font-weight="bold" font-size="15.0" fill="#000000" transform="matrix(1.00, 0.00, -0.00, -1.00, 307.9, 410.2)">t</text><text xml:space="preserve" font-family="Helvetica-Bold,Helvetica" font-weight="bold" font-size="15.0" fill="#000000" transform="matrix(1.00, 0.00, -0.00, -1.00, 312.9, 410.2)">z</text><text xml:space="preserve" font-family="Helvetica-Bold,Helvetica" font-weight="bold" font-size="15.0" fill="#000000" transform="matrix(1.00, 0.00, -0.00, -1.00, 320.4, 410.2)">m</text><text xml:space="preserve" font-family="Helvetica-Bold,Helvetica" font-weight="bold" font-size="15.0" fill="#000000" transform="matrix(1.00, 0.00, -0.00, -1.00, 333.8, 410.2)">a</text><text xml:space="preserve" font-family="Helvetica-Bold,Helvetica" font-weight="bold" font-size="15.0" fill="#000000" transform="matrix(1.00, 0.00, -0.00, -1.00, 342.1, 410.2)">n</text><text xml:space="preserve" font-family="Helvetica-Bold,Helvetica" font-weight="bold" font-size="15.0" fill="#000000" transform="matrix(1.00, 0.00, -0.00, -1.00, 351.3, 410.2)">n</text><text xml:space="preserve" font-family="Helvetica-Bold,Helvetica" font-weight="bold" font-size="15.0" fill="#000000" transform="matrix(1.00, 0.00, -0.00, -1.00, 360.4, 410.2)"> </text><text xml:space="preserve" font-family="Helvetica-Bold,Helvetica" font-weight="bold" font-size="15.0" fill="#000000" transform="matrix(1.00, 0.00, -0.00, -1.00, 364.6, 410.2)">M</text><text xml:space="preserve" font-family="Helvetica-Bold,Helvetica" font-weight="bold" font-size="15.0" fill="#000000" transform="matrix(1.00, 0.00, -0.00, -1.00, 377.1, 410.2)">a</text><text xml:space="preserve" font-family="Helvetica-Bold,Helvetica" font-weight="bold" font-size="15.0" fill="#000000" transform="matrix(1.00, 0.00, -0.00, -1.00, 385.4, 410.2)">c</text><text xml:space="preserve" font-family="Helvetica-Bold,Helvetica" font-weight="bold" font-size="15.0" fill="#000000" transform="matrix(1.00, 0.00, -0.00, -1.00, 393.8, 410.2)">h</text><text xml:space="preserve" font-family="Helvetica-Bold,Helvetica" font-weight="bold" font-size="15.0" fill="#000000" transform="matrix(1.00, 0.00, -0.00, -1.00, 402.9, 410.2)">i</text><text xml:space="preserve" font-family="Helvetica-Bold,Helvetica" font-weight="bold" font-size="15.0" fill="#000000" transform="matrix(1.00, 0.00, -0.00, -1.00, 407.1, 410.2)">n</text><text xml:space="preserve" font-family="Helvetica-Bold,Helvetica" font-weight="bold" font-size="15.0" fill="#000000" transform="matrix(1.00, 0.00, -0.00, -1.00, 416.3, 410.2)">e</text></g></g><path d="M 13.0 508.0 L 31.0 508.0 L 31.0 496.0 L 13.0 496.0 Z M 13.5 508.5 " fill="#149D66"></path></g></svg>