<?xml version="1.0" encoding="UTF-8" standalone="no"?><svg xmlns="http://www.w3.org/2000/svg" xmlns:xlink="http://www.w3.org/1999/xlink" clip-rule="evenodd" stroke-miterlimit="10" viewBox="0 0 125 18"><desc>SVG generated by Keynote</desc><defs></defs><g transform="matrix(1.00, 0.00, -0.00, -1.00, 0.0, 18.0)"><text xml:space="preserve" font-family="Helvetica,Helvetica" font-size="15.0" fill="#000000" transform="matrix(1.00, 0.00, -0.00, -1.00, 1.5, 5.5)">D</text><text xml:space="preserve" font-family="Helvetica,Helvetica" font-size="15.0" fill="#000000" transform="matrix(1.00, 0.00, -0.00, -1.00, 12.3, 5.5)">r</text><text xml:space="preserve" font-family="Helvetica,Helvetica" font-size="15.0" fill="#000000" transform="matrix(1.00, 0.00, -0.00, -1.00, 17.3, 5.5)">a</text><text xml:space="preserve" font-family="Helvetica,Helvetica" font-size="15.0" fill="#000000" transform="matrix(1.00, 0.00, -0.00, -1.00, 25.7, 5.5)">w</text><text xml:space="preserve" font-family="Helvetica,Helvetica" font-size="15.0" fill="#000000" transform="matrix(1.00, 0.00, -0.00, -1.00, 36.5, 5.5)"> </text><text xml:space="preserve" font-family="Helvetica,Helvetica" font-size="15.0" fill="#000000" transform="matrix(1.00, 0.00, -0.00, -1.00, 40.7, 5.5)">a</text><text xml:space="preserve" font-family="Helvetica,Helvetica" font-size="15.0" fill="#000000" transform="matrix(1.00, 0.00, -0.00, -1.00, 49.0, 5.5)"> </text><text xml:space="preserve" font-family="Helvetica,Helvetica" font-size="15.0" fill="#000000" transform="matrix(1.00, 0.00, -0.00, -1.00, 53.2, 5.5)">r</text><text xml:space="preserve" font-family="Helvetica,Helvetica" font-size="15.0" fill="#000000" transform="matrix(1.00, 0.00, -0.00, -1.00, 58.2, 5.5)">e</text><text xml:space="preserve" font-family="Helvetica,Helvetica" font-size="15.0" fill="#000000" transform="matrix(1.00, 0.00, -0.00, -1.00, 66.5, 5.5)">c</text><text xml:space="preserve" font-family="Helvetica,Helvetica" font-size="15.0" fill="#000000" transform="matrix(1.00, 0.00, -0.00, -1.00, 74.0, 5.5)">o</text><text xml:space="preserve" font-family="Helvetica,Helvetica" font-size="15.0" fill="#000000" transform="matrix(1.00, 0.00, -0.00, -1.00, 82.3, 5.5)">g</text><text xml:space="preserve" font-family="Helvetica,Helvetica" font-size="15.0" fill="#000000" transform="matrix(1.00, 0.00, -0.00, -1.00, 90.7, 5.5)">n</text><text xml:space="preserve" font-family="Helvetica,Helvetica" font-size="15.0" fill="#000000" transform="matrix(1.00, 0.00, -0.00, -1.00, 99.0, 5.5)">i</text><text xml:space="preserve" font-family="Helvetica,Helvetica" font-size="15.0" fill="#000000" transform="matrix(1.00, 0.00, -0.00, -1.00, 102.4, 5.5)">s</text><text xml:space="preserve" font-family="Helvetica,Helvetica" font-size="15.0" fill="#000000" transform="matrix(1.00, 0.00, -0.00, -1.00, 109.9, 5.5)">e</text><text xml:space="preserve" font-family="Helvetica,Helvetica" font-size="15.0" fill="#000000" transform="matrix(1.00, 0.00, -0.00, -1.00, 118.2, 5.5)">r</text></g></svg>