<?xml version="1.0" encoding="UTF-8" standalone="no"?><svg xmlns="http://www.w3.org/2000/svg" xmlns:xlink="http://www.w3.org/1999/xlink" clip-rule="evenodd" stroke-miterlimit="10" viewBox="0 0 140 18"><desc>SVG generated by Keynote</desc><defs></defs><g transform="matrix(1.00, 0.00, -0.00, -1.00, 0.0, 18.0)"><text xml:space="preserve" font-family="Helvetica,Helvetica" font-size="15.0" fill="#000000" transform="matrix(1.00, 0.00, -0.00, -1.00, 1.5, 5.5)">S</text><text xml:space="preserve" font-family="Helvetica,Helvetica" font-size="15.0" fill="#000000" transform="matrix(1.00, 0.00, -0.00, -1.00, 11.5, 5.5)">u</text><text xml:space="preserve" font-family="Helvetica,Helvetica" font-size="15.0" fill="#000000" transform="matrix(1.00, 0.00, -0.00, -1.00, 19.8, 5.5)">p</text><text xml:space="preserve" font-family="Helvetica,Helvetica" font-size="15.0" fill="#000000" transform="matrix(1.00, 0.00, -0.00, -1.00, 28.2, 5.5)">e</text><text xml:space="preserve" font-family="Helvetica,Helvetica" font-size="15.0" fill="#000000" transform="matrix(1.00, 0.00, -0.00, -1.00, 36.5, 5.5)">r</text><text xml:space="preserve" font-family="Helvetica,Helvetica" font-size="15.0" fill="#000000" transform="matrix(1.00, 0.00, -0.00, -1.00, 41.5, 5.5)">v</text><text xml:space="preserve" font-family="Helvetica,Helvetica" font-size="15.0" fill="#000000" transform="matrix(1.00, 0.00, -0.00, -1.00, 49.0, 5.5)">i</text><text xml:space="preserve" font-family="Helvetica,Helvetica" font-size="15.0" fill="#000000" transform="matrix(1.00, 0.00, -0.00, -1.00, 52.3, 5.5)">s</text><text xml:space="preserve" font-family="Helvetica,Helvetica" font-size="15.0" fill="#000000" transform="matrix(1.00, 0.00, -0.00, -1.00, 59.8, 5.5)">e</text><text xml:space="preserve" font-family="Helvetica,Helvetica" font-size="15.0" fill="#000000" transform="matrix(1.00, 0.00, -0.00, -1.00, 68.2, 5.5)">d</text><text xml:space="preserve" font-family="Helvetica,Helvetica" font-size="15.0" fill="#000000" transform="matrix(1.00, 0.00, -0.00, -1.00, 76.5, 5.5)"> </text><text xml:space="preserve" font-family="Helvetica,Helvetica" font-size="15.0" fill="#000000" transform="matrix(1.00, 0.00, -0.00, -1.00, 80.7, 5.5)">L</text><text xml:space="preserve" font-family="Helvetica,Helvetica" font-size="15.0" fill="#000000" transform="matrix(1.00, 0.00, -0.00, -1.00, 89.0, 5.5)">e</text><text xml:space="preserve" font-family="Helvetica,Helvetica" font-size="15.0" fill="#000000" transform="matrix(1.00, 0.00, -0.00, -1.00, 97.4, 5.5)">a</text><text xml:space="preserve" font-family="Helvetica,Helvetica" font-size="15.0" fill="#000000" transform="matrix(1.00, 0.00, -0.00, -1.00, 105.7, 5.5)">r</text><text xml:space="preserve" font-family="Helvetica,Helvetica" font-size="15.0" fill="#000000" transform="matrix(1.00, 0.00, -0.00, -1.00, 110.7, 5.5)">n</text><text xml:space="preserve" font-family="Helvetica,Helvetica" font-size="15.0" fill="#000000" transform="matrix(1.00, 0.00, -0.00, -1.00, 119.1, 5.5)">i</text><text xml:space="preserve" font-family="Helvetica,Helvetica" font-size="15.0" fill="#000000" transform="matrix(1.00, 0.00, -0.00, -1.00, 122.4, 5.5)">n</text><text xml:space="preserve" font-family="Helvetica,Helvetica" font-size="15.0" fill="#000000" transform="matrix(1.00, 0.00, -0.00, -1.00, 130.8, 5.5)">g</text></g></svg>