<?xml version="1.0" encoding="UTF-8" standalone="no"?><svg xmlns="http://www.w3.org/2000/svg" xmlns:xlink="http://www.w3.org/1999/xlink" clip-rule="evenodd" stroke-miterlimit="10" viewBox="0 0 235 18"><desc>SVG generated by Keynote</desc><defs></defs><g transform="matrix(1.00, 0.00, -0.00, -1.00, 0.0, 18.0)"><text xml:space="preserve" font-family="Helvetica-Bold,Helvetica" font-weight="bold" font-size="14.0" fill="#280000" transform="matrix(1.00, 0.00, -0.00, -1.00, 2.2, 4.7)">T</text><text xml:space="preserve" font-family="Helvetica-Bold,Helvetica" font-weight="bold" font-size="14.0" fill="#280000" transform="matrix(1.00, 0.00, -0.00, -1.00, 10.0, 4.7)">r</text><text xml:space="preserve" font-family="Helvetica-Bold,Helvetica" font-weight="bold" font-size="14.0" fill="#280000" transform="matrix(1.00, 0.00, -0.00, -1.00, 15.5, 4.7)">a</text><text xml:space="preserve" font-family="Helvetica-Bold,Helvetica" font-weight="bold" font-size="14.0" fill="#280000" transform="matrix(1.00, 0.00, -0.00, -1.00, 23.2, 4.7)">i</text><text xml:space="preserve" font-family="Helvetica-Bold,Helvetica" font-weight="bold" font-size="14.0" fill="#280000" transform="matrix(1.00, 0.00, -0.00, -1.00, 27.1, 4.7)">n</text><text xml:space="preserve" font-family="Helvetica-Bold,Helvetica" font-weight="bold" font-size="14.0" fill="#280000" transform="matrix(1.00, 0.00, -0.00, -1.00, 35.7, 4.7)">i</text><text xml:space="preserve" font-family="Helvetica-Bold,Helvetica" font-weight="bold" font-size="14.0" fill="#280000" transform="matrix(1.00, 0.00, -0.00, -1.00, 39.6, 4.7)">n</text><text xml:space="preserve" font-family="Helvetica-Bold,Helvetica" font-weight="bold" font-size="14.0" fill="#280000" transform="matrix(1.00, 0.00, -0.00, -1.00, 48.1, 4.7)">g</text><text xml:space="preserve" font-family="Helvetica-Bold,Helvetica" font-weight="bold" font-size="14.0" fill="#280000" transform="matrix(1.00, 0.00, -0.00, -1.00, 56.7, 4.7)"> </text><text xml:space="preserve" font-family="Helvetica-Bold,Helvetica" font-weight="bold" font-size="14.0" fill="#280000" transform="matrix(1.00, 0.00, -0.00, -1.00, 60.6, 4.7)">a</text><text xml:space="preserve" font-family="Helvetica-Bold,Helvetica" font-weight="bold" font-size="14.0" fill="#280000" transform="matrix(1.00, 0.00, -0.00, -1.00, 68.3, 4.7)"> </text><text xml:space="preserve" font-family="Helvetica-Bold,Helvetica" font-weight="bold" font-size="14.0" fill="#280000" transform="matrix(1.00, 0.00, -0.00, -1.00, 72.2, 4.7)">H</text><text xml:space="preserve" font-family="Helvetica-Bold,Helvetica" font-weight="bold" font-size="14.0" fill="#280000" transform="matrix(1.00, 0.00, -0.00, -1.00, 82.3, 4.7)">a</text><text xml:space="preserve" font-family="Helvetica-Bold,Helvetica" font-weight="bold" font-size="14.0" fill="#280000" transform="matrix(1.00, 0.00, -0.00, -1.00, 90.1, 4.7)">n</text><text xml:space="preserve" font-family="Helvetica-Bold,Helvetica" font-weight="bold" font-size="14.0" fill="#280000" transform="matrix(1.00, 0.00, -0.00, -1.00, 98.7, 4.7)">d</text><text xml:space="preserve" font-family="Helvetica-Bold,Helvetica" font-weight="bold" font-size="14.0" fill="#280000" transform="matrix(1.00, 0.00, -0.00, -1.00, 107.2, 4.7)"> </text><text xml:space="preserve" font-family="Helvetica-Bold,Helvetica" font-weight="bold" font-size="14.0" fill="#280000" transform="matrix(1.00, 0.00, -0.00, -1.00, 111.1, 4.7)">S</text><text xml:space="preserve" font-family="Helvetica-Bold,Helvetica" font-weight="bold" font-size="14.0" fill="#280000" transform="matrix(1.00, 0.00, -0.00, -1.00, 120.5, 4.7)">h</text><text xml:space="preserve" font-family="Helvetica-Bold,Helvetica" font-weight="bold" font-size="14.0" fill="#280000" transform="matrix(1.00, 0.00, -0.00, -1.00, 129.0, 4.7)">a</text><text xml:space="preserve" font-family="Helvetica-Bold,Helvetica" font-weight="bold" font-size="14.0" fill="#280000" transform="matrix(1.00, 0.00, -0.00, -1.00, 136.8, 4.7)">p</text><text xml:space="preserve" font-family="Helvetica-Bold,Helvetica" font-weight="bold" font-size="14.0" fill="#280000" transform="matrix(1.00, 0.00, -0.00, -1.00, 145.3, 4.7)">e</text><text xml:space="preserve" font-family="Helvetica-Bold,Helvetica" font-weight="bold" font-size="14.0" fill="#280000" transform="matrix(1.00, 0.00, -0.00, -1.00, 153.1, 4.7)"> </text><text xml:space="preserve" font-family="Helvetica-Bold,Helvetica" font-weight="bold" font-size="14.0" fill="#280000" transform="matrix(1.00, 0.00, -0.00, -1.00, 157.0, 4.7)">R</text><text xml:space="preserve" font-family="Helvetica-Bold,Helvetica" font-weight="bold" font-size="14.0" fill="#280000" transform="matrix(1.00, 0.00, -0.00, -1.00, 167.1, 4.7)">e</text><text xml:space="preserve" font-family="Helvetica-Bold,Helvetica" font-weight="bold" font-size="14.0" fill="#280000" transform="matrix(1.00, 0.00, -0.00, -1.00, 174.9, 4.7)">c</text><text xml:space="preserve" font-family="Helvetica-Bold,Helvetica" font-weight="bold" font-size="14.0" fill="#280000" transform="matrix(1.00, 0.00, -0.00, -1.00, 182.7, 4.7)">o</text><text xml:space="preserve" font-family="Helvetica-Bold,Helvetica" font-weight="bold" font-size="14.0" fill="#280000" transform="matrix(1.00, 0.00, -0.00, -1.00, 191.3, 4.7)">g</text><text xml:space="preserve" font-family="Helvetica-Bold,Helvetica" font-weight="bold" font-size="14.0" fill="#280000" transform="matrix(1.00, 0.00, -0.00, -1.00, 199.8, 4.7)">n</text><text xml:space="preserve" font-family="Helvetica-Bold,Helvetica" font-weight="bold" font-size="14.0" fill="#280000" transform="matrix(1.00, 0.00, -0.00, -1.00, 208.4, 4.7)">i</text><text xml:space="preserve" font-family="Helvetica-Bold,Helvetica" font-weight="bold" font-size="14.0" fill="#280000" transform="matrix(1.00, 0.00, -0.00, -1.00, 212.2, 4.7)">s</text><text xml:space="preserve" font-family="Helvetica-Bold,Helvetica" font-weight="bold" font-size="14.0" fill="#280000" transform="matrix(1.00, 0.00, -0.00, -1.00, 220.0, 4.7)">e</text><text xml:space="preserve" font-family="Helvetica-Bold,Helvetica" font-weight="bold" font-size="14.0" fill="#280000" transform="matrix(1.00, 0.00, -0.00, -1.00, 227.8, 4.7)">r</text></g></svg>