<?xml version="1.0" encoding="UTF-8" standalone="no"?><svg xmlns="http://www.w3.org/2000/svg" xmlns:xlink="http://www.w3.org/1999/xlink" clip-rule="evenodd" stroke-miterlimit="10" viewBox="0 0 720 540"><desc>SVG generated by Keynote</desc><defs></defs><g transform="matrix(1.00, 0.00, -0.00, -1.00, 0.0, 540.0)"><path d="M 0.0 540.0 L 720.0 540.0 L 720.0 0.0 L 0.0 0.0 Z M 0.0 540.0 " fill="#FFFFFF"></path><path d="M 0.0 540.0 L 28.0 540.0 L 28.0 485.0 L 0.0 485.0 Z M 0.0 540.0 " fill="#4DC780"></path><path d="M 28.0 540.0 L 722.0 540.0 L 722.0 485.0 L 28.0 485.0 Z M 28.3 540.0 " fill="#009E60"></path><path d="M 0.0 27.0 L 722.0 27.0 L 722.0 -1.0 L 0.0 -1.0 Z M -0.0 27.0 " fill="#009E60"></path><path d="M 694.0 27.0 L 721.0 27.0 L 721.0 -1.0 L 694.0 -1.0 Z M 694.2 27.0 " fill="#4DC780"></path><path d="M 0.0 0.0 C 1.6 11.8 3.3 23.6 4.9 35.4 " fill="none" stroke="#F2F2F2" stroke-opacity="0.80" stroke-width="2.00" stroke-linejoin="round" transform="matrix(1.00, 0.00, 0.00, -1.00, 330.0, 383.9)"></path><path d="M 0.0 38.9 C 7.3 26.0 14.6 13.0 21.9 0.0 " fill="none" stroke="#F2F2F2" stroke-opacity="0.80" stroke-width="2.00" stroke-linejoin="round" transform="matrix(1.00, 0.00, 0.00, -1.00, 344.1, 385.7)"></path><path d="M 0.0 31.7 C 1.9 21.1 3.8 10.6 5.7 0.0 " fill="none" stroke="#F2F2F2" stroke-opacity="0.80" stroke-width="2.00" stroke-linejoin="round" transform="matrix(1.00, 0.00, 0.00, -1.00, 328.6, 319.5)"></path><path d="M 0.0 39.1 C 12.0 26.1 24.0 13.0 36.0 0.0 " fill="none" stroke="#F2F2F2" stroke-opacity="0.80" stroke-width="2.00" stroke-linejoin="round" transform="matrix(1.00, 0.00, 0.00, -1.00, 291.0, 323.2)"></path><path d="M 19.7 34.8 C 13.1 23.2 6.6 11.6 0.0 0.0 " fill="none" stroke="#F2F2F2" stroke-opacity="0.80" stroke-width="2.00" stroke-linejoin="round" transform="matrix(1.00, 0.00, 0.00, -1.00, 344.2, 321.2)"></path><path d="M 255.2 264.6 L 255.0 281.7 C 255.0 287.5 259.9 292.0 265.8 292.0 L 431.8 292.0 C 437.6 292.0 442.0 287.5 442.0 281.7 L 442.0 264.6 C 442.0 258.8 437.6 254.0 431.8 254.0 L 265.8 254.0 C 259.9 254.0 255.2 258.8 255.2 264.6 Z M 255.2 264.6 " fill="#D8D8D8"></path><path d="M 0.0 27.7 L -0.2 10.5 C -0.2 4.7 4.7 0.2 10.5 0.2 L 176.6 0.2 C 182.4 0.2 186.8 4.7 186.8 10.5 L 186.8 27.7 C 186.8 33.5 182.4 38.2 176.6 38.2 L 10.5 38.2 C 4.7 38.2 0.0 33.5 0.0 27.7 Z M 0.0 27.7 " fill="none" stroke="#000000" stroke-width="2.00" stroke-linejoin="round" transform="matrix(1.00, 0.00, 0.00, -1.00, 255.2, 292.2)"></path><path d="M 374.3 325.1 L 374.0 343.9 C 374.0 349.1 378.5 353.0 383.6 353.0 L 416.0 353.0 C 421.1 353.0 425.0 349.1 425.0 343.9 L 425.0 325.1 C 425.0 319.9 421.1 316.0 416.0 316.0 L 383.6 316.0 C 378.5 316.0 374.3 319.9 374.3 325.1 Z M 374.3 325.1 " fill="#FFFFFF"></path><path d="M 0.0 28.2 L -0.3 9.3 C -0.3 4.2 4.2 0.3 9.3 0.3 L 41.7 0.3 C 46.8 0.3 50.7 4.2 50.7 9.3 L 50.7 28.2 C 50.7 33.4 46.8 37.3 41.7 37.3 L 9.3 37.3 C 4.2 37.3 0.0 33.4 0.0 28.2 Z M 0.0 28.2 " fill="none" stroke="#000000" stroke-width="2.00" stroke-linejoin="round" transform="matrix(1.00, 0.00, 0.00, -1.00, 374.3, 353.3)"></path><path d="M 409.0 343.6 C 414.3 338.3 414.3 329.6 409.0 324.3 C 403.6 318.9 395.0 318.9 389.6 324.3 C 384.3 329.6 384.3 338.3 389.6 343.6 C 395.0 349.0 403.6 349.0 409.0 343.6 " fill="#FFFFFF"></path><path d="M 23.4 4.0 C 28.7 9.4 28.7 18.0 23.4 23.4 C 18.0 28.7 9.4 28.7 4.0 23.4 C -1.3 18.0 -1.3 9.4 4.0 4.0 C 9.4 -1.3 18.0 -1.3 23.4 4.0 " fill="none" stroke="#008000" stroke-width="5.00" stroke-linejoin="round" transform="matrix(1.00, 0.00, 0.00, -1.00, 385.6, 347.7)"></path><path d="M 272.2 325.1 L 272.0 343.9 C 272.0 349.1 276.4 353.0 281.6 353.0 L 353.6 353.0 C 358.8 353.0 363.0 349.1 363.0 343.9 L 363.0 325.1 C 363.0 319.9 358.8 316.0 353.6 316.0 L 281.6 316.0 C 276.4 316.0 272.2 319.9 272.2 325.1 Z M 272.2 325.1 " fill="#FFFFFF"></path><path d="M 0.0 28.2 L -0.2 9.3 C -0.2 4.2 4.2 0.3 9.3 0.3 L 81.4 0.3 C 86.5 0.3 90.8 4.2 90.8 9.3 L 90.8 28.2 C 90.8 33.4 86.5 37.3 81.4 37.3 L 9.3 37.3 C 4.2 37.3 0.0 33.4 0.0 28.2 Z M 0.0 28.2 " fill="none" stroke="#000000" stroke-width="2.00" stroke-linejoin="round" transform="matrix(1.00, 0.00, 0.00, -1.00, 272.2, 353.3)"></path><path d="M 306.9 343.6 C 312.3 338.3 312.3 329.6 306.9 324.3 C 301.6 318.9 292.9 318.9 287.6 324.3 C 282.2 329.6 282.2 338.3 287.6 343.6 C 292.9 349.0 301.6 349.0 306.9 343.6 " fill="#FFFFFF"></path><path d="M 23.4 4.0 C 28.7 9.4 28.7 18.0 23.4 23.4 C 18.0 28.7 9.4 28.7 4.0 23.4 C -1.3 18.0 -1.3 9.4 4.0 4.0 C 9.4 -1.3 18.0 -1.3 23.4 4.0 " fill="none" stroke="#800000" stroke-width="5.00" stroke-linejoin="round" transform="matrix(1.00, 0.00, 0.00, -1.00, 283.6, 347.7)"></path><path d="M 346.6 343.6 C 352.0 338.3 352.0 329.6 346.6 324.3 C 341.3 318.9 332.6 318.9 327.3 324.3 C 321.9 329.6 321.9 338.3 327.3 343.6 C 332.6 349.0 341.3 349.0 346.6 343.6 " fill="#FFFFFF"></path><path d="M 23.4 4.0 C 28.7 9.4 28.7 18.0 23.4 23.4 C 18.0 28.7 9.4 28.7 4.0 23.4 C -1.3 18.0 -1.3 9.4 4.0 4.0 C 9.4 -1.3 18.0 -1.3 23.4 4.0 " fill="none" stroke="#800000" stroke-width="2.00" stroke-linejoin="round" transform="matrix(1.00, 0.00, 0.00, -1.00, 323.3, 347.7)"></path><path d="M 8.4 0.0 C 5.6 10.4 2.8 20.7 0.0 31.1 " fill="none" stroke="#C00000" stroke-opacity="0.80" stroke-width="2.00" stroke-linejoin="round" transform="matrix(1.00, 0.00, 0.00, -1.00, 284.8, 318.6)"></path><path d="M 0.0 0.0 C 3.0 10.4 5.9 20.8 8.9 31.2 " fill="none" stroke="#009E60" stroke-opacity="0.80" stroke-width="2.00" stroke-linejoin="round" transform="matrix(1.00, 0.00, 0.00, -1.00, 403.7, 318.6)"></path><path d="M 0.0 0.0 C 5.2 11.0 10.3 22.0 15.5 32.9 " fill="none" stroke="#C00000" stroke-opacity="0.80" stroke-width="2.00" stroke-linejoin="round" transform="matrix(1.00, 0.00, 0.00, -1.00, 304.0, 319.5)"></path><path d="M 0.0 0.0 C 16.7 13.7 33.4 27.3 50.1 41.0 " fill="none" stroke="#C00000" stroke-opacity="0.80" stroke-width="2.00" stroke-linejoin="round" transform="matrix(1.00, 0.00, 0.00, -1.00, 309.6, 323.9)"></path><path d="M 15.0 0.0 C 10.0 10.8 5.0 21.7 0.0 32.5 " fill="none" stroke="#009E60" stroke-opacity="0.80" stroke-width="2.00" stroke-linejoin="round" transform="matrix(1.00, 0.00, 0.00, -1.00, 377.6, 319.5)"></path><path d="M 290.8 282.9 C 296.3 277.4 296.3 268.5 290.8 263.0 C 285.3 257.5 276.4 257.5 270.9 263.0 C 265.4 268.5 265.4 277.4 270.9 282.9 C 276.4 288.4 285.3 288.4 290.8 282.9 " fill="#7F7F7F"></path><path d="M 24.0 4.1 C 29.5 9.6 29.5 18.5 24.0 24.0 C 18.5 29.5 9.6 29.5 4.1 24.0 C -1.4 18.5 -1.4 9.6 4.1 4.1 C 9.6 -1.4 18.5 -1.4 24.0 4.1 " fill="none" stroke="#000000" stroke-width="2.00" stroke-linejoin="round" transform="matrix(1.00, 0.00, 0.00, -1.00, 266.8, 287.0)"></path><path d="M 335.9 282.9 C 341.4 277.4 341.4 268.5 335.9 263.0 C 330.4 257.5 321.5 257.5 316.0 263.0 C 310.5 268.5 310.5 277.4 316.0 282.9 C 321.5 288.4 330.4 288.4 335.9 282.9 " fill="#7F7F7F"></path><path d="M 24.0 4.1 C 29.5 9.6 29.5 18.5 24.0 24.0 C 18.5 29.5 9.6 29.5 4.1 24.0 C -1.4 18.5 -1.4 9.6 4.1 4.1 C 9.6 -1.4 18.5 -1.4 24.0 4.1 " fill="none" stroke="#000000" stroke-width="2.00" stroke-linejoin="round" transform="matrix(1.00, 0.00, 0.00, -1.00, 311.9, 287.0)"></path><path d="M 426.6 282.9 C 432.1 277.4 432.1 268.5 426.6 263.0 C 421.1 257.5 412.2 257.5 406.8 263.0 C 401.3 268.5 401.3 277.4 406.8 282.9 C 412.2 288.4 421.1 288.4 426.6 282.9 " fill="#7F7F7F"></path><path d="M 24.0 4.1 C 29.5 9.6 29.5 18.5 24.0 24.0 C 18.5 29.5 9.6 29.5 4.1 24.0 C -1.4 18.5 -1.4 9.6 4.1 4.1 C 9.6 -1.4 18.5 -1.4 24.0 4.1 " fill="none" stroke="#000000" stroke-width="2.00" stroke-linejoin="round" transform="matrix(1.00, 0.00, 0.00, -1.00, 402.6, 287.0)"></path><path d="M 299.9 389.6 L 300.0 408.5 C 300.0 413.6 304.1 418.0 309.2 418.0 L 387.0 418.0 C 392.1 418.0 396.0 413.6 396.0 408.5 L 396.0 389.6 C 396.0 384.4 392.1 380.0 387.0 380.0 L 309.2 380.0 C 304.1 380.0 299.9 384.4 299.9 389.6 Z M 299.9 389.6 " fill="#FFFFFF"></path><path d="M 0.0 28.2 L 0.1 9.3 C 0.1 4.2 4.2 -0.2 9.3 -0.2 L 87.1 -0.2 C 92.2 -0.2 96.1 4.2 96.1 9.3 L 96.1 28.2 C 96.1 33.4 92.2 37.8 87.1 37.8 L 9.3 37.8 C 4.2 37.8 0.0 33.4 0.0 28.2 Z M 0.0 28.2 " fill="none" stroke="#000000" stroke-width="2.00" stroke-linejoin="round" transform="matrix(1.00, 0.00, 0.00, -1.00, 299.9, 417.8)"></path><path d="M 337.6 408.2 C 343.0 402.8 343.0 394.1 337.6 388.8 C 332.3 383.5 323.6 383.5 318.3 388.8 C 312.9 394.1 312.9 402.8 318.3 408.2 C 323.6 413.5 332.3 413.5 337.6 408.2 " fill="#7F7F7F"></path><path d="M 23.4 4.0 C 28.7 9.4 28.7 18.0 23.4 23.4 C 18.0 28.7 9.4 28.7 4.0 23.4 C -1.3 18.0 -1.3 9.4 4.0 4.0 C 9.4 -1.3 18.0 -1.3 23.4 4.0 " fill="none" stroke="#000000" stroke-width="2.00" stroke-linejoin="round" transform="matrix(1.00, 0.00, 0.00, -1.00, 314.2, 412.2)"></path><path d="M 383.0 408.2 C 388.3 402.8 388.3 394.1 383.0 388.8 C 377.6 383.5 369.0 383.5 363.6 388.8 C 358.3 394.1 358.3 402.8 363.6 408.2 C 369.0 413.5 377.6 413.5 383.0 408.2 " fill="#7F7F7F"></path><path d="M 23.4 4.0 C 28.7 9.4 28.7 18.0 23.4 23.4 C 18.0 28.7 9.4 28.7 4.0 23.4 C -1.3 18.0 -1.3 9.4 4.0 4.0 C 9.4 -1.3 18.0 -1.3 23.4 4.0 " fill="none" stroke="#000000" stroke-width="2.00" stroke-linejoin="round" transform="matrix(1.00, 0.00, 0.00, -1.00, 359.6, 412.2)"></path><path d="M 381.3 283.3 C 386.8 277.8 386.8 268.9 381.3 263.4 C 375.8 257.9 366.9 257.9 361.4 263.4 C 355.9 268.9 355.9 277.8 361.4 283.3 C 366.9 288.8 375.8 288.8 381.3 283.3 " fill="#7F7F7F"></path><path d="M 24.0 4.1 C 29.5 9.6 29.5 18.5 24.0 24.0 C 18.5 29.5 9.6 29.5 4.1 24.0 C -1.4 18.5 -1.4 9.6 4.1 4.1 C 9.6 -1.4 18.5 -1.4 24.0 4.1 " fill="none" stroke="#000000" stroke-width="2.00" stroke-linejoin="round" transform="matrix(1.00, 0.00, 0.00, -1.00, 357.3, 287.4)"></path><path d="M 0.0 36.8 C 5.8 24.6 11.7 12.3 17.5 0.0 " fill="none" stroke="#C00000" stroke-opacity="0.80" stroke-width="2.00" stroke-linejoin="round" transform="matrix(1.00, 0.00, 0.00, -1.00, 304.1, 385.2)"></path><path d="M 48.7 44.0 C 32.4 29.3 16.2 14.7 0.0 0.0 " fill="none" stroke="#009E60" stroke-opacity="0.80" stroke-width="2.00" stroke-linejoin="round" transform="matrix(1.00, 0.00, 0.00, -1.00, 338.8, 388.6)"></path><path d="M 0.0 44.7 C 17.6 29.8 35.1 14.9 52.7 0.0 " fill="none" stroke="#C00000" stroke-opacity="0.80" stroke-width="2.00" stroke-linejoin="round" transform="matrix(1.00, 0.00, 0.00, -1.00, 309.4, 389.0)"></path><path d="M 14.6 36.1 C 9.7 24.1 4.9 12.0 0.0 0.0 " fill="none" stroke="#009E60" stroke-opacity="0.80" stroke-width="2.00" stroke-linejoin="round" transform="matrix(1.00, 0.00, 0.00, -1.00, 378.8, 384.9)"></path><image xlink:href="../../62F53CAE-A979-4322-99F2-75F6DF468AC5/assets/5083E88EBA7CAC1927B602BD4AF7A7B0.png" width="35.00" height="32.00" transform="matrix(0.65, 0.00, -0.00, -0.65, 265.9, 412.1)"></image><image xlink:href="../../528A306E-A883-4524-BD11-2FB448E23119/assets/FC4C69F471A9B3025F4C69E5FD3265C7.png" width="36.00" height="36.00" transform="matrix(0.63, 0.00, -0.00, -0.63, 243.2, 344.1)"></image><image xlink:href="../../62F53CAE-A979-4322-99F2-75F6DF468AC5/assets/BBBA4C59272A1AC9A2FA6AC09BDEAB99.png" width="37.00" height="37.00" transform="matrix(0.64, 0.00, -0.00, -0.64, 436.0, 344.1)"></image><image xlink:href="../../528A306E-A883-4524-BD11-2FB448E23119/assets/1138831F05AF4DD16312E0F567177AA2.png" width="21.00" height="17.00" transform="matrix(0.73, 0.00, -0.00, -0.73, 231.9, 277.1)"></image><text xml:space="preserve" font-family="Helvetica-Bold,Helvetica" font-weight="bold" font-size="36.0" fill="#FFFFFF" transform="matrix(1.00, 0.00, -0.00, -1.00, 31.9, 499.7)">C</text><text xml:space="preserve" font-family="Helvetica-Bold,Helvetica" font-weight="bold" font-size="36.0" fill="#FFFFFF" transform="matrix(1.00, 0.00, -0.00, -1.00, 58.0, 499.7)">o</text><text xml:space="preserve" font-family="Helvetica-Bold,Helvetica" font-weight="bold" font-size="36.0" fill="#FFFFFF" transform="matrix(1.00, 0.00, -0.00, -1.00, 79.9, 499.7)">n</text><text xml:space="preserve" font-family="Helvetica-Bold,Helvetica" font-weight="bold" font-size="36.0" fill="#FFFFFF" transform="matrix(1.00, 0.00, -0.00, -1.00, 101.9, 499.7)">d</text><text xml:space="preserve" font-family="Helvetica-Bold,Helvetica" font-weight="bold" font-size="36.0" fill="#FFFFFF" transform="matrix(1.00, 0.00, -0.00, -1.00, 123.9, 499.7)">i</text><text xml:space="preserve" font-family="Helvetica-Bold,Helvetica" font-weight="bold" font-size="36.0" fill="#FFFFFF" transform="matrix(1.00, 0.00, -0.00, -1.00, 133.9, 499.7)">t</text><text xml:space="preserve" font-family="Helvetica-Bold,Helvetica" font-weight="bold" font-size="36.0" fill="#FFFFFF" transform="matrix(1.00, 0.00, -0.00, -1.00, 145.9, 499.7)">i</text><text xml:space="preserve" font-family="Helvetica-Bold,Helvetica" font-weight="bold" font-size="36.0" fill="#FFFFFF" transform="matrix(1.00, 0.00, -0.00, -1.00, 155.9, 499.7)">o</text><text xml:space="preserve" font-family="Helvetica-Bold,Helvetica" font-weight="bold" font-size="36.0" fill="#FFFFFF" transform="matrix(1.00, 0.00, -0.00, -1.00, 177.9, 499.7)">n</text><text xml:space="preserve" font-family="Helvetica-Bold,Helvetica" font-weight="bold" font-size="36.0" fill="#FFFFFF" transform="matrix(1.00, 0.00, -0.00, -1.00, 199.8, 499.7)">a</text><text xml:space="preserve" font-family="Helvetica-Bold,Helvetica" font-weight="bold" font-size="36.0" fill="#FFFFFF" transform="matrix(1.00, 0.00, -0.00, -1.00, 219.9, 499.7)">l</text><text xml:space="preserve" font-family="Helvetica-Bold,Helvetica" font-weight="bold" font-size="36.0" fill="#FFFFFF" transform="matrix(1.00, 0.00, -0.00, -1.00, 229.9, 499.7)"> </text><text xml:space="preserve" font-family="Helvetica-Bold,Helvetica" font-weight="bold" font-size="36.0" fill="#FFFFFF" transform="matrix(1.00, 0.00, -0.00, -1.00, 239.9, 499.7)">I</text><text xml:space="preserve" font-family="Helvetica-Bold,Helvetica" font-weight="bold" font-size="36.0" fill="#FFFFFF" transform="matrix(1.00, 0.00, -0.00, -1.00, 249.9, 499.7)">n</text><text xml:space="preserve" font-family="Helvetica-Bold,Helvetica" font-weight="bold" font-size="36.0" fill="#FFFFFF" transform="matrix(1.00, 0.00, -0.00, -1.00, 271.8, 499.7)">d</text><text xml:space="preserve" font-family="Helvetica-Bold,Helvetica" font-weight="bold" font-size="36.0" fill="#FFFFFF" transform="matrix(1.00, 0.00, -0.00, -1.00, 293.8, 499.7)">e</text><text xml:space="preserve" font-family="Helvetica-Bold,Helvetica" font-weight="bold" font-size="36.0" fill="#FFFFFF" transform="matrix(1.00, 0.00, -0.00, -1.00, 313.9, 499.7)">p</text><text xml:space="preserve" font-family="Helvetica-Bold,Helvetica" font-weight="bold" font-size="36.0" fill="#FFFFFF" transform="matrix(1.00, 0.00, -0.00, -1.00, 335.8, 499.7)">e</text><text xml:space="preserve" font-family="Helvetica-Bold,Helvetica" font-weight="bold" font-size="36.0" fill="#FFFFFF" transform="matrix(1.00, 0.00, -0.00, -1.00, 355.9, 499.7)">n</text><text xml:space="preserve" font-family="Helvetica-Bold,Helvetica" font-weight="bold" font-size="36.0" fill="#FFFFFF" transform="matrix(1.00, 0.00, -0.00, -1.00, 377.8, 499.7)">d</text><text xml:space="preserve" font-family="Helvetica-Bold,Helvetica" font-weight="bold" font-size="36.0" fill="#FFFFFF" transform="matrix(1.00, 0.00, -0.00, -1.00, 399.8, 499.7)">e</text><text xml:space="preserve" font-family="Helvetica-Bold,Helvetica" font-weight="bold" font-size="36.0" fill="#FFFFFF" transform="matrix(1.00, 0.00, -0.00, -1.00, 419.9, 499.7)">n</text><text xml:space="preserve" font-family="Helvetica-Bold,Helvetica" font-weight="bold" font-size="36.0" fill="#FFFFFF" transform="matrix(1.00, 0.00, -0.00, -1.00, 441.8, 499.7)">c</text><text xml:space="preserve" font-family="Helvetica-Bold,Helvetica" font-weight="bold" font-size="36.0" fill="#FFFFFF" transform="matrix(1.00, 0.00, -0.00, -1.00, 461.9, 499.7)">y</text><text xml:space="preserve" font-family="Helvetica,Helvetica" font-size="12.0" fill="#000000" transform="matrix(1.00, 0.00, -0.00, -1.00, 701.1, 8.1)">2</text><text xml:space="preserve" font-family="Helvetica,Helvetica" font-size="12.0" fill="#000000" transform="matrix(1.00, 0.00, -0.00, -1.00, 707.8, 8.1)">4</text><text xml:space="preserve" font-family="Helvetica-Bold,Helvetica" font-weight="bold" font-size="14.0" fill="#DDDDDD" transform="matrix(1.00, 0.00, -0.00, -1.00, 7.6, 462.6)">N</text><text xml:space="preserve" font-family="Helvetica-Bold,Helvetica" font-weight="bold" font-size="14.0" fill="#DDDDDD" transform="matrix(1.00, 0.00, -0.00, -1.00, 17.7, 462.6)">U</text><text xml:space="preserve" font-family="Helvetica-Bold,Helvetica" font-weight="bold" font-size="14.0" fill="#DDDDDD" transform="matrix(1.00, 0.00, -0.00, -1.00, 27.8, 462.6)">I</text><text xml:space="preserve" font-family="Helvetica-Bold,Helvetica" font-weight="bold" font-size="14.0" fill="#DDDDDD" transform="matrix(1.00, 0.00, -0.00, -1.00, 55.1, 462.6)">G</text><text xml:space="preserve" font-family="Helvetica-Bold,Helvetica" font-weight="bold" font-size="14.0" fill="#DDDDDD" transform="matrix(1.00, 0.00, -0.00, -1.00, 66.0, 462.6)">e</text><text xml:space="preserve" font-family="Helvetica-Bold,Helvetica" font-weight="bold" font-size="14.0" fill="#DDDDDD" transform="matrix(1.00, 0.00, -0.00, -1.00, 73.8, 462.6)">s</text><text xml:space="preserve" font-family="Helvetica-Bold,Helvetica" font-weight="bold" font-size="14.0" fill="#DDDDDD" transform="matrix(1.00, 0.00, -0.00, -1.00, 81.6, 462.6)">t</text><text xml:space="preserve" font-family="Helvetica-Bold,Helvetica" font-weight="bold" font-size="14.0" fill="#DDDDDD" transform="matrix(1.00, 0.00, -0.00, -1.00, 86.2, 462.6)">u</text><text xml:space="preserve" font-family="Helvetica-Bold,Helvetica" font-weight="bold" font-size="14.0" fill="#DDDDDD" transform="matrix(1.00, 0.00, -0.00, -1.00, 94.8, 462.6)">r</text><text xml:space="preserve" font-family="Helvetica-Bold,Helvetica" font-weight="bold" font-size="14.0" fill="#DDDDDD" transform="matrix(1.00, 0.00, -0.00, -1.00, 100.2, 462.6)">e</text><text xml:space="preserve" font-family="Helvetica-Bold,Helvetica" font-weight="bold" font-size="14.0" fill="#DDDDDD" transform="matrix(1.00, 0.00, -0.00, -1.00, 41.0, 463.6)">&gt;</text><text xml:space="preserve" font-family="Helvetica-Bold,Helvetica" font-weight="bold" font-size="14.0" fill="#DDDDDD" transform="matrix(1.00, 0.00, -0.00, -1.00, 115.5, 463.6)">&gt;</text><text xml:space="preserve" font-family="Helvetica-Bold,Helvetica" font-weight="bold" font-size="14.0" fill="#DDDDDD" transform="matrix(1.00, 0.00, -0.00, -1.00, 131.3, 462.6)">H</text><text xml:space="preserve" font-family="Helvetica-Bold,Helvetica" font-weight="bold" font-size="14.0" fill="#DDDDDD" transform="matrix(1.00, 0.00, -0.00, -1.00, 141.5, 462.6)">a</text><text xml:space="preserve" font-family="Helvetica-Bold,Helvetica" font-weight="bold" font-size="14.0" fill="#DDDDDD" transform="matrix(1.00, 0.00, -0.00, -1.00, 149.3, 462.6)">n</text><text xml:space="preserve" font-family="Helvetica-Bold,Helvetica" font-weight="bold" font-size="14.0" fill="#DDDDDD" transform="matrix(1.00, 0.00, -0.00, -1.00, 157.8, 462.6)">d</text><text xml:space="preserve" font-family="Helvetica-Bold,Helvetica" font-weight="bold" font-size="14.0" fill="#DDDDDD" transform="matrix(1.00, 0.00, -0.00, -1.00, 166.3, 462.6)"> </text><text xml:space="preserve" font-family="Helvetica-Bold,Helvetica" font-weight="bold" font-size="14.0" fill="#DDDDDD" transform="matrix(1.00, 0.00, -0.00, -1.00, 170.2, 462.6)">S</text><text xml:space="preserve" font-family="Helvetica-Bold,Helvetica" font-weight="bold" font-size="14.0" fill="#DDDDDD" transform="matrix(1.00, 0.00, -0.00, -1.00, 179.6, 462.6)">h</text><text xml:space="preserve" font-family="Helvetica-Bold,Helvetica" font-weight="bold" font-size="14.0" fill="#DDDDDD" transform="matrix(1.00, 0.00, -0.00, -1.00, 188.1, 462.6)">a</text><text xml:space="preserve" font-family="Helvetica-Bold,Helvetica" font-weight="bold" font-size="14.0" fill="#DDDDDD" transform="matrix(1.00, 0.00, -0.00, -1.00, 195.9, 462.6)">p</text><text xml:space="preserve" font-family="Helvetica-Bold,Helvetica" font-weight="bold" font-size="14.0" fill="#DDDDDD" transform="matrix(1.00, 0.00, -0.00, -1.00, 204.5, 462.6)">e</text><text xml:space="preserve" font-family="Helvetica-Bold,Helvetica" font-weight="bold" font-size="14.0" fill="#DDDDDD" transform="matrix(1.00, 0.00, -0.00, -1.00, 212.3, 462.6)"> </text><text xml:space="preserve" font-family="Helvetica-Bold,Helvetica" font-weight="bold" font-size="14.0" fill="#DDDDDD" transform="matrix(1.00, 0.00, -0.00, -1.00, 216.1, 462.6)">R</text><text xml:space="preserve" font-family="Helvetica-Bold,Helvetica" font-weight="bold" font-size="14.0" fill="#DDDDDD" transform="matrix(1.00, 0.00, -0.00, -1.00, 226.3, 462.6)">e</text><text xml:space="preserve" font-family="Helvetica-Bold,Helvetica" font-weight="bold" font-size="14.0" fill="#DDDDDD" transform="matrix(1.00, 0.00, -0.00, -1.00, 234.0, 462.6)">c</text><text xml:space="preserve" font-family="Helvetica-Bold,Helvetica" font-weight="bold" font-size="14.0" fill="#DDDDDD" transform="matrix(1.00, 0.00, -0.00, -1.00, 241.8, 462.6)">o</text><text xml:space="preserve" font-family="Helvetica-Bold,Helvetica" font-weight="bold" font-size="14.0" fill="#DDDDDD" transform="matrix(1.00, 0.00, -0.00, -1.00, 250.4, 462.6)">g</text><text xml:space="preserve" font-family="Helvetica-Bold,Helvetica" font-weight="bold" font-size="14.0" fill="#DDDDDD" transform="matrix(1.00, 0.00, -0.00, -1.00, 258.9, 462.6)">n</text><text xml:space="preserve" font-family="Helvetica-Bold,Helvetica" font-weight="bold" font-size="14.0" fill="#DDDDDD" transform="matrix(1.00, 0.00, -0.00, -1.00, 267.5, 462.6)">i</text><text xml:space="preserve" font-family="Helvetica-Bold,Helvetica" font-weight="bold" font-size="14.0" fill="#DDDDDD" transform="matrix(1.00, 0.00, -0.00, -1.00, 271.4, 462.6)">t</text><text xml:space="preserve" font-family="Helvetica-Bold,Helvetica" font-weight="bold" font-size="14.0" fill="#DDDDDD" transform="matrix(1.00, 0.00, -0.00, -1.00, 276.0, 462.6)">i</text><text xml:space="preserve" font-family="Helvetica-Bold,Helvetica" font-weight="bold" font-size="14.0" fill="#DDDDDD" transform="matrix(1.00, 0.00, -0.00, -1.00, 279.9, 462.6)">o</text><text xml:space="preserve" font-family="Helvetica-Bold,Helvetica" font-weight="bold" font-size="14.0" fill="#DDDDDD" transform="matrix(1.00, 0.00, -0.00, -1.00, 288.5, 462.6)">n</text><text xml:space="preserve" font-family="Helvetica-Bold,Helvetica" font-weight="bold" font-size="14.0" fill="#DDDDDD" transform="matrix(1.00, 0.00, -0.00, -1.00, 302.3, 463.7)">&gt;</text><text xml:space="preserve" font-family="Helvetica-Bold,Helvetica" font-weight="bold" font-size="14.0" fill="#DDDDDD" transform="matrix(1.00, 0.00, -0.00, -1.00, 451.2, 463.6)">&gt;</text><text xml:space="preserve" font-family="Helvetica-Bold,Helvetica" font-weight="bold" font-size="14.0" fill="#000000" transform="matrix(1.00, 0.00, -0.00, -1.00, 466.3, 462.6)">P</text><text xml:space="preserve" font-family="Helvetica-Bold,Helvetica" font-weight="bold" font-size="14.0" fill="#000000" transform="matrix(1.00, 0.00, -0.00, -1.00, 475.7, 462.6)">r</text><text xml:space="preserve" font-family="Helvetica-Bold,Helvetica" font-weight="bold" font-size="14.0" fill="#000000" transform="matrix(1.00, 0.00, -0.00, -1.00, 481.1, 462.6)">o</text><text xml:space="preserve" font-family="Helvetica-Bold,Helvetica" font-weight="bold" font-size="14.0" fill="#000000" transform="matrix(1.00, 0.00, -0.00, -1.00, 489.7, 462.6)">b</text><text xml:space="preserve" font-family="Helvetica-Bold,Helvetica" font-weight="bold" font-size="14.0" fill="#000000" transform="matrix(1.00, 0.00, -0.00, -1.00, 498.2, 462.6)">a</text><text xml:space="preserve" font-family="Helvetica-Bold,Helvetica" font-weight="bold" font-size="14.0" fill="#000000" transform="matrix(1.00, 0.00, -0.00, -1.00, 506.0, 462.6)">b</text><text xml:space="preserve" font-family="Helvetica-Bold,Helvetica" font-weight="bold" font-size="14.0" fill="#000000" transform="matrix(1.00, 0.00, -0.00, -1.00, 514.6, 462.6)">i</text><text xml:space="preserve" font-family="Helvetica-Bold,Helvetica" font-weight="bold" font-size="14.0" fill="#000000" transform="matrix(1.00, 0.00, -0.00, -1.00, 518.5, 462.6)">l</text><text xml:space="preserve" font-family="Helvetica-Bold,Helvetica" font-weight="bold" font-size="14.0" fill="#000000" transform="matrix(1.00, 0.00, -0.00, -1.00, 522.3, 462.6)">i</text><text xml:space="preserve" font-family="Helvetica-Bold,Helvetica" font-weight="bold" font-size="14.0" fill="#000000" transform="matrix(1.00, 0.00, -0.00, -1.00, 526.2, 462.6)">s</text><text xml:space="preserve" font-family="Helvetica-Bold,Helvetica" font-weight="bold" font-size="14.0" fill="#000000" transform="matrix(1.00, 0.00, -0.00, -1.00, 534.0, 462.6)">t</text><text xml:space="preserve" font-family="Helvetica-Bold,Helvetica" font-weight="bold" font-size="14.0" fill="#000000" transform="matrix(1.00, 0.00, -0.00, -1.00, 538.7, 462.6)">i</text><text xml:space="preserve" font-family="Helvetica-Bold,Helvetica" font-weight="bold" font-size="14.0" fill="#000000" transform="matrix(1.00, 0.00, -0.00, -1.00, 542.6, 462.6)">c</text><text xml:space="preserve" font-family="Helvetica-Bold,Helvetica" font-weight="bold" font-size="14.0" fill="#000000" transform="matrix(1.00, 0.00, -0.00, -1.00, 550.4, 462.6)"> </text><text xml:space="preserve" font-family="Helvetica-Bold,Helvetica" font-weight="bold" font-size="14.0" fill="#000000" transform="matrix(1.00, 0.00, -0.00, -1.00, 554.2, 462.6)">S</text><text xml:space="preserve" font-family="Helvetica-Bold,Helvetica" font-weight="bold" font-size="14.0" fill="#000000" transform="matrix(1.00, 0.00, -0.00, -1.00, 563.6, 462.6)">h</text><text xml:space="preserve" font-family="Helvetica-Bold,Helvetica" font-weight="bold" font-size="14.0" fill="#000000" transform="matrix(1.00, 0.00, -0.00, -1.00, 572.1, 462.6)">a</text><text xml:space="preserve" font-family="Helvetica-Bold,Helvetica" font-weight="bold" font-size="14.0" fill="#000000" transform="matrix(1.00, 0.00, -0.00, -1.00, 579.9, 462.6)">p</text><text xml:space="preserve" font-family="Helvetica-Bold,Helvetica" font-weight="bold" font-size="14.0" fill="#000000" transform="matrix(1.00, 0.00, -0.00, -1.00, 588.5, 462.6)">e</text><text xml:space="preserve" font-family="Helvetica-Bold,Helvetica" font-weight="bold" font-size="14.0" fill="#000000" transform="matrix(1.00, 0.00, -0.00, -1.00, 596.3, 462.6)"> </text><text xml:space="preserve" font-family="Helvetica-Bold,Helvetica" font-weight="bold" font-size="14.0" fill="#000000" transform="matrix(1.00, 0.00, -0.00, -1.00, 600.1, 462.6)">M</text><text xml:space="preserve" font-family="Helvetica-Bold,Helvetica" font-weight="bold" font-size="14.0" fill="#000000" transform="matrix(1.00, 0.00, -0.00, -1.00, 611.8, 462.6)">o</text><text xml:space="preserve" font-family="Helvetica-Bold,Helvetica" font-weight="bold" font-size="14.0" fill="#000000" transform="matrix(1.00, 0.00, -0.00, -1.00, 620.4, 462.6)">d</text><text xml:space="preserve" font-family="Helvetica-Bold,Helvetica" font-weight="bold" font-size="14.0" fill="#000000" transform="matrix(1.00, 0.00, -0.00, -1.00, 628.9, 462.6)">e</text><text xml:space="preserve" font-family="Helvetica-Bold,Helvetica" font-weight="bold" font-size="14.0" fill="#000000" transform="matrix(1.00, 0.00, -0.00, -1.00, 636.7, 462.6)">l</text><text xml:space="preserve" font-family="Helvetica-Bold,Helvetica" font-weight="bold" font-size="14.0" fill="#DDDDDD" transform="matrix(1.00, 0.00, -0.00, -1.00, 318.2, 462.7)">H</text><text xml:space="preserve" font-family="Helvetica-Bold,Helvetica" font-weight="bold" font-size="14.0" fill="#DDDDDD" transform="matrix(1.00, 0.00, -0.00, -1.00, 328.3, 462.7)">a</text><text xml:space="preserve" font-family="Helvetica-Bold,Helvetica" font-weight="bold" font-size="14.0" fill="#DDDDDD" transform="matrix(1.00, 0.00, -0.00, -1.00, 336.1, 462.7)">n</text><text xml:space="preserve" font-family="Helvetica-Bold,Helvetica" font-weight="bold" font-size="14.0" fill="#DDDDDD" transform="matrix(1.00, 0.00, -0.00, -1.00, 344.7, 462.7)">d</text><text xml:space="preserve" font-family="Helvetica-Bold,Helvetica" font-weight="bold" font-size="14.0" fill="#DDDDDD" transform="matrix(1.00, 0.00, -0.00, -1.00, 353.2, 462.7)"> </text><text xml:space="preserve" font-family="Helvetica-Bold,Helvetica" font-weight="bold" font-size="14.0" fill="#DDDDDD" transform="matrix(1.00, 0.00, -0.00, -1.00, 357.1, 462.7)">S</text><text xml:space="preserve" font-family="Helvetica-Bold,Helvetica" font-weight="bold" font-size="14.0" fill="#DDDDDD" transform="matrix(1.00, 0.00, -0.00, -1.00, 366.4, 462.7)">h</text><text xml:space="preserve" font-family="Helvetica-Bold,Helvetica" font-weight="bold" font-size="14.0" fill="#DDDDDD" transform="matrix(1.00, 0.00, -0.00, -1.00, 375.0, 462.7)">a</text><text xml:space="preserve" font-family="Helvetica-Bold,Helvetica" font-weight="bold" font-size="14.0" fill="#DDDDDD" transform="matrix(1.00, 0.00, -0.00, -1.00, 382.8, 462.7)">p</text><text xml:space="preserve" font-family="Helvetica-Bold,Helvetica" font-weight="bold" font-size="14.0" fill="#DDDDDD" transform="matrix(1.00, 0.00, -0.00, -1.00, 391.3, 462.7)">e</text><text xml:space="preserve" font-family="Helvetica-Bold,Helvetica" font-weight="bold" font-size="14.0" fill="#DDDDDD" transform="matrix(1.00, 0.00, -0.00, -1.00, 399.1, 462.7)"> </text><text xml:space="preserve" font-family="Helvetica-Bold,Helvetica" font-weight="bold" font-size="14.0" fill="#DDDDDD" transform="matrix(1.00, 0.00, -0.00, -1.00, 403.0, 462.7)">S</text><text xml:space="preserve" font-family="Helvetica-Bold,Helvetica" font-weight="bold" font-size="14.0" fill="#DDDDDD" transform="matrix(1.00, 0.00, -0.00, -1.00, 412.4, 462.7)">p</text><text xml:space="preserve" font-family="Helvetica-Bold,Helvetica" font-weight="bold" font-size="14.0" fill="#DDDDDD" transform="matrix(1.00, 0.00, -0.00, -1.00, 420.9, 462.7)">a</text><text xml:space="preserve" font-family="Helvetica-Bold,Helvetica" font-weight="bold" font-size="14.0" fill="#DDDDDD" transform="matrix(1.00, 0.00, -0.00, -1.00, 428.7, 462.7)">c</text><text xml:space="preserve" font-family="Helvetica-Bold,Helvetica" font-weight="bold" font-size="14.0" fill="#DDDDDD" transform="matrix(1.00, 0.00, -0.00, -1.00, 436.5, 462.7)">e</text><path d="M 13.0 516.0 L 31.0 516.0 L 31.0 504.0 L 13.0 504.0 Z M 13.5 516.0 " fill="#149D66"></path><text xml:space="preserve" font-family="Helvetica-Bold,Helvetica" font-weight="bold" font-size="20.0" fill="#000000" transform="matrix(1.00, 0.00, -0.00, -1.00, 51.7, 181.2)">C</text><text xml:space="preserve" font-family="Helvetica-Bold,Helvetica" font-weight="bold" font-size="20.0" fill="#000000" transform="matrix(1.00, 0.00, -0.00, -1.00, 66.2, 181.2)">o</text><text xml:space="preserve" font-family="Helvetica-Bold,Helvetica" font-weight="bold" font-size="20.0" fill="#000000" transform="matrix(1.00, 0.00, -0.00, -1.00, 78.4, 181.2)">n</text><text xml:space="preserve" font-family="Helvetica-Bold,Helvetica" font-weight="bold" font-size="20.0" fill="#000000" transform="matrix(1.00, 0.00, -0.00, -1.00, 90.6, 181.2)">d</text><text xml:space="preserve" font-family="Helvetica-Bold,Helvetica" font-weight="bold" font-size="20.0" fill="#000000" transform="matrix(1.00, 0.00, -0.00, -1.00, 102.8, 181.2)">i</text><text xml:space="preserve" font-family="Helvetica-Bold,Helvetica" font-weight="bold" font-size="20.0" fill="#000000" transform="matrix(1.00, 0.00, -0.00, -1.00, 108.4, 181.2)">t</text><text xml:space="preserve" font-family="Helvetica-Bold,Helvetica" font-weight="bold" font-size="20.0" fill="#000000" transform="matrix(1.00, 0.00, -0.00, -1.00, 115.0, 181.2)">i</text><text xml:space="preserve" font-family="Helvetica-Bold,Helvetica" font-weight="bold" font-size="20.0" fill="#000000" transform="matrix(1.00, 0.00, -0.00, -1.00, 120.6, 181.2)">o</text><text xml:space="preserve" font-family="Helvetica-Bold,Helvetica" font-weight="bold" font-size="20.0" fill="#000000" transform="matrix(1.00, 0.00, -0.00, -1.00, 132.8, 181.2)">n</text><text xml:space="preserve" font-family="Helvetica-Bold,Helvetica" font-weight="bold" font-size="20.0" fill="#000000" transform="matrix(1.00, 0.00, -0.00, -1.00, 145.0, 181.2)">a</text><text xml:space="preserve" font-family="Helvetica-Bold,Helvetica" font-weight="bold" font-size="20.0" fill="#000000" transform="matrix(1.00, 0.00, -0.00, -1.00, 156.1, 181.2)">l</text><text xml:space="preserve" font-family="Helvetica-Bold,Helvetica" font-weight="bold" font-size="20.0" fill="#000000" transform="matrix(1.00, 0.00, -0.00, -1.00, 161.7, 181.2)"> </text><text xml:space="preserve" font-family="Helvetica-Bold,Helvetica" font-weight="bold" font-size="20.0" fill="#000000" transform="matrix(1.00, 0.00, -0.00, -1.00, 167.2, 181.2)">I</text><text xml:space="preserve" font-family="Helvetica-Bold,Helvetica" font-weight="bold" font-size="20.0" fill="#000000" transform="matrix(1.00, 0.00, -0.00, -1.00, 172.8, 181.2)">n</text><text xml:space="preserve" font-family="Helvetica-Bold,Helvetica" font-weight="bold" font-size="20.0" fill="#000000" transform="matrix(1.00, 0.00, -0.00, -1.00, 185.0, 181.2)">d</text><text xml:space="preserve" font-family="Helvetica-Bold,Helvetica" font-weight="bold" font-size="20.0" fill="#000000" transform="matrix(1.00, 0.00, -0.00, -1.00, 197.2, 181.2)">e</text><text xml:space="preserve" font-family="Helvetica-Bold,Helvetica" font-weight="bold" font-size="20.0" fill="#000000" transform="matrix(1.00, 0.00, -0.00, -1.00, 208.3, 181.2)">p</text><text xml:space="preserve" font-family="Helvetica-Bold,Helvetica" font-weight="bold" font-size="20.0" fill="#000000" transform="matrix(1.00, 0.00, -0.00, -1.00, 220.6, 181.2)">e</text><text xml:space="preserve" font-family="Helvetica-Bold,Helvetica" font-weight="bold" font-size="20.0" fill="#000000" transform="matrix(1.00, 0.00, -0.00, -1.00, 231.7, 181.2)">n</text><text xml:space="preserve" font-family="Helvetica-Bold,Helvetica" font-weight="bold" font-size="20.0" fill="#000000" transform="matrix(1.00, 0.00, -0.00, -1.00, 243.9, 181.2)">d</text><text xml:space="preserve" font-family="Helvetica-Bold,Helvetica" font-weight="bold" font-size="20.0" fill="#000000" transform="matrix(1.00, 0.00, -0.00, -1.00, 256.1, 181.2)">e</text><text xml:space="preserve" font-family="Helvetica-Bold,Helvetica" font-weight="bold" font-size="20.0" fill="#000000" transform="matrix(1.00, 0.00, -0.00, -1.00, 267.2, 181.2)">n</text><text xml:space="preserve" font-family="Helvetica-Bold,Helvetica" font-weight="bold" font-size="20.0" fill="#000000" transform="matrix(1.00, 0.00, -0.00, -1.00, 279.4, 181.2)">c</text><text xml:space="preserve" font-family="Helvetica-Bold,Helvetica" font-weight="bold" font-size="20.0" fill="#000000" transform="matrix(1.00, 0.00, -0.00, -1.00, 290.6, 181.2)">y</text><image xlink:href="../../6EC534F0-59CB-4440-8D70-13EE05247434/assets/D05B8EE8D953A820329F20DBC0D69419.png" width="426.00" height="166.00" transform="matrix(0.75, 0.00, -0.00, -0.75, 38.7, 159.2)"></image><image xlink:href="5DCECDD302B2612B450DD7E944AF419F.png" width="386.00" height="171.00" transform="matrix(0.75, 0.00, -0.00, -0.75, 360.3, 161.5)"></image></g></svg>