<?xml version="1.0" encoding="UTF-8" standalone="no"?><svg xmlns="http://www.w3.org/2000/svg" xmlns:xlink="http://www.w3.org/1999/xlink" clip-rule="evenodd" stroke-miterlimit="10" viewBox="0 0 214 104"><desc>SVG generated by Keynote</desc><defs></defs><g transform="matrix(1.00, 0.00, -0.00, -1.00, 0.0, 104.0)"><g><clipPath id="clip0x600002eab520"><path d="M 22.2 0.0 L 213.3 0.0 L 213.3 42.2 L 22.2 42.2 Z M 22.2 0.0 "></path></clipPath><g clip-path="url(#clip0x600002eab520)"><path d="M 24.2 12.6 L 24.0 29.7 C 24.0 35.5 28.9 40.0 34.8 40.0 L 200.8 40.0 C 206.6 40.0 211.0 35.5 211.0 29.7 L 211.0 12.6 C 211.0 6.8 206.6 2.0 200.8 2.0 L 34.8 2.0 C 28.9 2.0 24.2 6.8 24.2 12.6 Z M 24.2 12.6 " fill="#D8D8D8"></path><path d="M 0.0 27.7 L -0.2 10.5 C -0.2 4.7 4.7 0.2 10.5 0.2 L 176.6 0.2 C 182.4 0.2 186.8 4.7 186.8 10.5 L 186.8 27.7 C 186.8 33.5 182.4 38.2 176.6 38.2 L 10.5 38.2 C 4.7 38.2 0.0 33.5 0.0 27.7 Z M 0.0 27.7 " fill="none" stroke="#000000" stroke-width="2.00" stroke-linejoin="round" transform="matrix(1.00, 0.00, 0.00, -1.00, 24.2, 40.2)"></path></g></g><g><clipPath id="clip0x600002eac600"><path d="M 65.0 61.7 L 159.7 61.7 L 159.7 103.3 L 65.0 103.3 Z M 65.0 61.7 "></path></clipPath><g clip-path="url(#clip0x600002eac600)"><path d="M 67.0 73.1 L 67.0 91.9 C 67.0 97.1 71.2 101.0 76.4 101.0 L 148.4 101.0 C 153.6 101.0 158.0 97.1 158.0 91.9 L 158.0 73.1 C 158.0 67.9 153.6 64.0 148.4 64.0 L 76.4 64.0 C 71.2 64.0 67.0 67.9 67.0 73.1 Z M 67.0 73.1 " fill="#FFFFFF"></path><path d="M 0.0 28.2 L -0.0 9.3 C -0.0 4.2 4.2 0.3 9.3 0.3 L 81.4 0.3 C 86.5 0.3 91.0 4.2 91.0 9.3 L 91.0 28.2 C 91.0 33.4 86.5 37.3 81.4 37.3 L 9.3 37.3 C 4.2 37.3 0.0 33.4 0.0 28.2 Z M 0.0 28.2 " fill="none" stroke="#000000" stroke-width="2.00" stroke-linejoin="round" transform="matrix(1.00, 0.00, 0.00, -1.00, 67.0, 101.3)"></path></g></g><g><clipPath id="clip0x600002eae100"><path d="M 76.4 66.3 L 107.7 66.3 L 107.7 97.7 L 76.4 97.7 Z M 76.4 66.3 "></path></clipPath><g clip-path="url(#clip0x600002eae100)"><path d="M 101.7 91.6 C 107.1 86.3 107.1 77.6 101.7 72.3 C 96.4 66.9 87.7 66.9 82.4 72.3 C 77.0 77.6 77.0 86.3 82.4 91.6 C 87.7 97.0 96.4 97.0 101.7 91.6 " fill="#FFFFFF"></path><path d="M 23.4 4.0 C 28.7 9.4 28.7 18.0 23.4 23.4 C 18.0 28.7 9.4 28.7 4.0 23.4 C -1.3 18.0 -1.3 9.4 4.0 4.0 C 9.4 -1.3 18.0 -1.3 23.4 4.0 " fill="none" stroke="#000000" stroke-width="2.00" stroke-linejoin="round" transform="matrix(1.00, 0.00, 0.00, -1.00, 78.4, 95.7)"></path></g></g><g><clipPath id="clip0x600002eafc00"><path d="M 116.1 66.3 L 147.4 66.3 L 147.4 97.7 L 116.1 97.7 Z M 116.1 66.3 "></path></clipPath><g clip-path="url(#clip0x600002eafc00)"><path d="M 141.4 91.6 C 146.8 86.3 146.8 77.6 141.4 72.3 C 136.1 66.9 127.4 66.9 122.1 72.3 C 116.7 77.6 116.7 86.3 122.1 91.6 C 127.4 97.0 136.1 97.0 141.4 91.6 " fill="#FFFFFF"></path><path d="M 23.4 4.0 C 28.7 9.4 28.7 18.0 23.4 23.4 C 18.0 28.7 9.4 28.7 4.0 23.4 C -1.3 18.0 -1.3 9.4 4.0 4.0 C 9.4 -1.3 18.0 -1.3 23.4 4.0 " fill="none" stroke="#000000" stroke-width="2.00" stroke-linejoin="round" transform="matrix(1.00, 0.00, 0.00, -1.00, 118.1, 95.7)"></path></g></g><g><clipPath id="clip0x600002eafae0"><path d="M 93.9 67.5 L 50.1 33.0 L 48.0 35.8 L 91.8 70.3 Z M 93.9 67.5 "></path></clipPath><g clip-path="url(#clip0x600002eafae0)"><path d="M 0.0 0.0 L 53.7 0.0 " fill="none" stroke="#0C0C0C" stroke-opacity="0.80" stroke-width="1.50" stroke-linejoin="round" transform="matrix(-0.79, -0.62, -0.62, 0.79, 92.1, 68.3)"></path></g></g><g><clipPath id="clip0x600002eb0680"><path d="M 93.7 69.4 L 96.8 34.2 L 93.3 33.9 L 90.2 69.1 Z M 93.7 69.4 "></path></clipPath><g clip-path="url(#clip0x600002eb0680)"><path d="M 0.0 0.0 L 33.4 0.0 " fill="none" stroke="#0C0C0C" stroke-opacity="0.80" stroke-width="1.50" stroke-linejoin="round" transform="matrix(0.09, -1.00, -1.00, -0.09, 92.1, 68.3)"></path></g></g><g><clipPath id="clip0x600002eb0020"><path d="M 92.2 70.3 L 142.1 36.3 L 140.2 33.4 L 90.2 67.4 Z M 92.2 70.3 "></path></clipPath><g clip-path="url(#clip0x600002eb0020)"><path d="M 0.0 0.0 L 58.4 0.0 " fill="none" stroke="#0C0C0C" stroke-opacity="0.80" stroke-width="1.50" stroke-linejoin="round" transform="matrix(0.83, -0.56, -0.56, -0.83, 92.1, 68.3)"></path></g></g><g><clipPath id="clip0x600002eafd20"><path d="M 93.1 35.7 L 131.3 70.2 L 133.7 67.7 L 95.4 33.1 Z M 93.1 35.7 "></path></clipPath><g clip-path="url(#clip0x600002eafd20)"><path d="M 0.0 0.0 L 49.6 0.0 " fill="none" stroke="#0C0C0C" stroke-opacity="0.80" stroke-width="1.50" stroke-linejoin="round" transform="matrix(0.74, 0.67, 0.67, -0.74, 95.0, 35.0)"></path></g></g><g><clipPath id="clip0x600002eb08c0"><path d="M 48.3 36.3 L 132.0 70.3 L 133.3 67.0 L 49.6 33.0 Z M 48.3 36.3 "></path></clipPath><g clip-path="url(#clip0x600002eb08c0)"><path d="M 0.0 0.0 L 88.4 0.0 " fill="none" stroke="#0C0C0C" stroke-opacity="0.80" stroke-width="1.50" stroke-linejoin="round" transform="matrix(0.93, 0.38, 0.38, -0.93, 49.8, 35.0)"></path></g></g><g><clipPath id="clip0x600002eb0b60"><path d="M 138.9 34.0 L 129.8 68.8 L 133.2 69.7 L 142.3 34.9 Z M 138.9 34.0 "></path></clipPath><g clip-path="url(#clip0x600002eb0b60)"><path d="M 0.0 0.0 L 34.0 0.0 " fill="none" stroke="#0C0C0C" stroke-opacity="0.80" stroke-width="1.50" stroke-linejoin="round" transform="matrix(-0.25, 0.97, 0.97, 0.25, 140.3, 35.4)"></path></g></g><g><clipPath id="clip0x600002eb0da0"><path d="M 33.8 4.9 L 65.9 4.9 L 65.9 37.0 L 33.8 37.0 Z M 33.8 4.9 "></path></clipPath><g clip-path="url(#clip0x600002eb0da0)"><path d="M 59.8 30.9 C 65.3 25.4 65.3 16.5 59.8 11.0 C 54.3 5.5 45.4 5.5 39.9 11.0 C 34.4 16.5 34.4 25.4 39.9 30.9 C 45.4 36.4 54.3 36.4 59.8 30.9 " fill="#7F7F7F"></path><path d="M 24.0 4.1 C 29.5 9.6 29.5 18.5 24.0 24.0 C 18.5 29.5 9.6 29.5 4.1 24.0 C -1.4 18.5 -1.4 9.6 4.1 4.1 C 9.6 -1.4 18.5 -1.4 24.0 4.1 " fill="none" stroke="#000000" stroke-width="2.00" stroke-linejoin="round" transform="matrix(1.00, 0.00, 0.00, -1.00, 35.8, 35.0)"></path></g></g><g><clipPath id="clip0x600002eb1100"><path d="M 78.9 4.9 L 111.0 4.9 L 111.0 37.0 L 78.9 37.0 Z M 78.9 4.9 "></path></clipPath><g clip-path="url(#clip0x600002eb1100)"><path d="M 104.9 30.9 C 110.4 25.4 110.4 16.5 104.9 11.0 C 99.4 5.5 90.5 5.5 85.0 11.0 C 79.5 16.5 79.5 25.4 85.0 30.9 C 90.5 36.4 99.4 36.4 104.9 30.9 " fill="#7F7F7F"></path><path d="M 24.0 4.1 C 29.5 9.6 29.5 18.5 24.0 24.0 C 18.5 29.5 9.6 29.5 4.1 24.0 C -1.4 18.5 -1.4 9.6 4.1 4.1 C 9.6 -1.4 18.5 -1.4 24.0 4.1 " fill="none" stroke="#000000" stroke-width="2.00" stroke-linejoin="round" transform="matrix(1.00, 0.00, 0.00, -1.00, 80.9, 35.0)"></path></g></g><g><clipPath id="clip0x600002eb1400"><path d="M 169.6 4.9 L 201.8 4.9 L 201.8 37.0 L 169.6 37.0 Z M 169.6 4.9 "></path></clipPath><g clip-path="url(#clip0x600002eb1400)"><path d="M 195.6 30.9 C 201.1 25.4 201.1 16.5 195.6 11.0 C 190.1 5.5 181.2 5.5 175.8 11.0 C 170.3 16.5 170.3 25.4 175.8 30.9 C 181.2 36.4 190.1 36.4 195.6 30.9 " fill="#7F7F7F"></path><path d="M 24.0 4.1 C 29.5 9.6 29.5 18.5 24.0 24.0 C 18.5 29.5 9.6 29.5 4.1 24.0 C -1.4 18.5 -1.4 9.6 4.1 4.1 C 9.6 -1.4 18.5 -1.4 24.0 4.1 " fill="none" stroke="#000000" stroke-width="2.00" stroke-linejoin="round" transform="matrix(1.00, 0.00, 0.00, -1.00, 171.6, 35.0)"></path></g></g><g><clipPath id="clip0x600002eb1700"><path d="M 124.3 5.3 L 156.4 5.3 L 156.4 37.4 L 124.3 37.4 Z M 124.3 5.3 "></path></clipPath><g clip-path="url(#clip0x600002eb1700)"><path d="M 150.3 31.3 C 155.8 25.8 155.8 16.9 150.3 11.4 C 144.8 5.9 135.9 5.9 130.4 11.4 C 124.9 16.9 124.9 25.8 130.4 31.3 C 135.9 36.8 144.8 36.8 150.3 31.3 " fill="#7F7F7F"></path><path d="M 24.0 4.1 C 29.5 9.6 29.5 18.5 24.0 24.0 C 18.5 29.5 9.6 29.5 4.1 24.0 C -1.4 18.5 -1.4 9.6 4.1 4.1 C 9.6 -1.4 18.5 -1.4 24.0 4.1 " fill="none" stroke="#000000" stroke-width="2.00" stroke-linejoin="round" transform="matrix(1.00, 0.00, 0.00, -1.00, 126.3, 35.4)"></path></g></g><g><clipPath id="clip0x600002eb3b60"><path d="M 38.0 92.0 L 52.0 92.0 L 52.0 69.0 L 38.0 69.0 Z M 38.0 92.1 "></path></clipPath><g clip-path="url(#clip0x600002eb3b60)"><g><clipPath id="clip0x600002eb39e0"><path d="M 38.0 69.4 L 51.7 69.4 L 51.7 92.1 L 38.0 92.1 Z M 38.0 69.4 "></path></clipPath><g clip-path="url(#clip0x600002eb39e0)"><image xlink:href="../../528A306E-A883-4524-BD11-2FB448E23119/assets/FC4C69F471A9B3025F4C69E5FD3265C7.png" width="36.00" height="36.00" transform="matrix(0.63, 0.00, -0.00, -0.63, 38.0, 92.1)"></image></g></g></g></g><g><clipPath id="clip0x600002eb3980"><path d="M 0.9 12.7 L 16.2 12.7 L 16.2 25.1 L 0.9 25.1 Z M 0.9 12.7 "></path></clipPath><g clip-path="url(#clip0x600002eb3980)"><image xlink:href="../../528A306E-A883-4524-BD11-2FB448E23119/assets/1138831F05AF4DD16312E0F567177AA2.png" width="21.00" height="17.00" transform="matrix(0.73, 0.00, -0.00, -0.73, 0.9, 25.1)"></image></g></g><g><clipPath id="clip0x600002eb3500"><path d="M 185.6 33.0 L 130.0 67.3 L 131.8 70.3 L 187.5 36.0 Z M 185.6 33.0 "></path></clipPath><g clip-path="url(#clip0x600002eb3500)"><path d="M 0.0 0.0 L 63.4 0.0 " fill="none" stroke="#0C0C0C" stroke-opacity="0.80" stroke-width="1.50" stroke-linejoin="round" transform="matrix(-0.85, 0.52, 0.52, 0.85, 185.7, 35.0)"></path></g></g><g><clipPath id="clip0x600002eb3320"><path d="M 186.1 33.1 L 90.5 67.0 L 91.7 70.3 L 187.2 36.4 Z M 186.1 33.1 "></path></clipPath><g clip-path="url(#clip0x600002eb3320)"><path d="M 0.0 0.0 L 99.4 0.0 " fill="none" stroke="#0C0C0C" stroke-opacity="0.80" stroke-width="1.50" stroke-linejoin="round" transform="matrix(-0.94, 0.33, 0.33, 0.94, 185.7, 35.0)"></path></g></g></g></svg>