<?xml version="1.0" encoding="UTF-8" standalone="no"?><svg xmlns="http://www.w3.org/2000/svg" xmlns:xlink="http://www.w3.org/1999/xlink" clip-rule="evenodd" stroke-miterlimit="10" viewBox="0 0 172 17"><desc>SVG generated by Keynote</desc><defs></defs><g transform="matrix(1.00, 0.00, -0.00, -1.00, 0.0, 17.0)"><text xml:space="preserve" font-family="Helvetica-Bold,Helvetica" font-weight="bold" font-size="14.0" fill="#280000" transform="matrix(1.00, 0.00, -0.00, -1.00, 1.2, 4.7)">R</text><text xml:space="preserve" font-family="Helvetica-Bold,Helvetica" font-weight="bold" font-size="14.0" fill="#280000" transform="matrix(1.00, 0.00, -0.00, -1.00, 11.3, 4.7)">e</text><text xml:space="preserve" font-family="Helvetica-Bold,Helvetica" font-weight="bold" font-size="14.0" fill="#280000" transform="matrix(1.00, 0.00, -0.00, -1.00, 19.1, 4.7)">c</text><text xml:space="preserve" font-family="Helvetica-Bold,Helvetica" font-weight="bold" font-size="14.0" fill="#280000" transform="matrix(1.00, 0.00, -0.00, -1.00, 26.9, 4.7)">o</text><text xml:space="preserve" font-family="Helvetica-Bold,Helvetica" font-weight="bold" font-size="14.0" fill="#280000" transform="matrix(1.00, 0.00, -0.00, -1.00, 35.5, 4.7)">g</text><text xml:space="preserve" font-family="Helvetica-Bold,Helvetica" font-weight="bold" font-size="14.0" fill="#280000" transform="matrix(1.00, 0.00, -0.00, -1.00, 44.0, 4.7)">n</text><text xml:space="preserve" font-family="Helvetica-Bold,Helvetica" font-weight="bold" font-size="14.0" fill="#280000" transform="matrix(1.00, 0.00, -0.00, -1.00, 52.6, 4.7)">i</text><text xml:space="preserve" font-family="Helvetica-Bold,Helvetica" font-weight="bold" font-size="14.0" fill="#280000" transform="matrix(1.00, 0.00, -0.00, -1.00, 56.4, 4.7)">t</text><text xml:space="preserve" font-family="Helvetica-Bold,Helvetica" font-weight="bold" font-size="14.0" fill="#280000" transform="matrix(1.00, 0.00, -0.00, -1.00, 61.1, 4.7)">i</text><text xml:space="preserve" font-family="Helvetica-Bold,Helvetica" font-weight="bold" font-size="14.0" fill="#280000" transform="matrix(1.00, 0.00, -0.00, -1.00, 65.0, 4.7)">o</text><text xml:space="preserve" font-family="Helvetica-Bold,Helvetica" font-weight="bold" font-size="14.0" fill="#280000" transform="matrix(1.00, 0.00, -0.00, -1.00, 73.5, 4.7)">n</text><text xml:space="preserve" font-family="Helvetica-Bold,Helvetica" font-weight="bold" font-size="14.0" fill="#280000" transform="matrix(1.00, 0.00, -0.00, -1.00, 82.1, 4.7)"> </text><text xml:space="preserve" font-family="Helvetica-Bold,Helvetica" font-weight="bold" font-size="14.0" fill="#280000" transform="matrix(1.00, 0.00, -0.00, -1.00, 86.0, 4.7)">p</text><text xml:space="preserve" font-family="Helvetica-Bold,Helvetica" font-weight="bold" font-size="14.0" fill="#280000" transform="matrix(1.00, 0.00, -0.00, -1.00, 94.5, 4.7)">e</text><text xml:space="preserve" font-family="Helvetica-Bold,Helvetica" font-weight="bold" font-size="14.0" fill="#280000" transform="matrix(1.00, 0.00, -0.00, -1.00, 102.3, 4.7)">r</text><text xml:space="preserve" font-family="Helvetica-Bold,Helvetica" font-weight="bold" font-size="14.0" fill="#280000" transform="matrix(1.00, 0.00, -0.00, -1.00, 107.8, 4.7)">f</text><text xml:space="preserve" font-family="Helvetica-Bold,Helvetica" font-weight="bold" font-size="14.0" fill="#280000" transform="matrix(1.00, 0.00, -0.00, -1.00, 112.4, 4.7)">o</text><text xml:space="preserve" font-family="Helvetica-Bold,Helvetica" font-weight="bold" font-size="14.0" fill="#280000" transform="matrix(1.00, 0.00, -0.00, -1.00, 121.0, 4.7)">r</text><text xml:space="preserve" font-family="Helvetica-Bold,Helvetica" font-weight="bold" font-size="14.0" fill="#280000" transform="matrix(1.00, 0.00, -0.00, -1.00, 126.4, 4.7)">m</text><text xml:space="preserve" font-family="Helvetica-Bold,Helvetica" font-weight="bold" font-size="14.0" fill="#280000" transform="matrix(1.00, 0.00, -0.00, -1.00, 138.9, 4.7)">a</text><text xml:space="preserve" font-family="Helvetica-Bold,Helvetica" font-weight="bold" font-size="14.0" fill="#280000" transform="matrix(1.00, 0.00, -0.00, -1.00, 146.7, 4.7)">n</text><text xml:space="preserve" font-family="Helvetica-Bold,Helvetica" font-weight="bold" font-size="14.0" fill="#280000" transform="matrix(1.00, 0.00, -0.00, -1.00, 155.2, 4.7)">c</text><text xml:space="preserve" font-family="Helvetica-Bold,Helvetica" font-weight="bold" font-size="14.0" fill="#280000" transform="matrix(1.00, 0.00, -0.00, -1.00, 163.0, 4.7)">e</text></g></svg>