<?xml version="1.0" encoding="UTF-8" standalone="no"?><svg xmlns="http://www.w3.org/2000/svg" xmlns:xlink="http://www.w3.org/1999/xlink" clip-rule="evenodd" stroke-miterlimit="10" viewBox="0 0 468 408"><desc>SVG generated by Keynote</desc><defs></defs><g transform="matrix(1.00, 0.00, -0.00, -1.00, 0.0, 408.0)"><g><clipPath id="clip0x600003ca6f00"><path d="M 74.4 0.7 L 446.1 0.7 L 446.1 372.5 L 74.4 372.5 Z M 74.4 0.7 "></path></clipPath><g clip-path="url(#clip0x600003ca6f00)"><image xlink:href="../../18AEFA53-5962-4751-B48C-8EE8462EA4B2/assets/18CE391E9A207826084151ECF586B52C.png" width="751.00" height="751.00" transform="matrix(0.50, 0.00, -0.00, -0.50, 74.4, 372.5)"></image></g></g><g><clipPath id="clip0x600003ca6ba0"><path d="M 442.3 257.2 L 442.3 373.4 L 466.5 373.4 L 466.5 257.2 Z M 442.3 257.2 "></path></clipPath><g clip-path="url(#clip0x600003ca6ba0)"><text xml:space="preserve" font-family="Helvetica-Bold,Helvetica" font-weight="bold" font-size="14.0" fill="#000000" transform="matrix(0.00, 1.00, 1.00, -0.00, 459.7, 261.3)">V</text><text xml:space="preserve" font-family="Helvetica-Bold,Helvetica" font-weight="bold" font-size="14.0" fill="#000000" transform="matrix(0.00, 1.00, 1.00, -0.00, 459.7, 270.4)">i</text><text xml:space="preserve" font-family="Helvetica-Bold,Helvetica" font-weight="bold" font-size="14.0" fill="#000000" transform="matrix(0.00, 1.00, 1.00, -0.00, 459.7, 274.3)">s</text><text xml:space="preserve" font-family="Helvetica-Bold,Helvetica" font-weight="bold" font-size="14.0" fill="#000000" transform="matrix(0.00, 1.00, 1.00, -0.00, 459.7, 282.1)">u</text><text xml:space="preserve" font-family="Helvetica-Bold,Helvetica" font-weight="bold" font-size="14.0" fill="#000000" transform="matrix(0.00, 1.00, 1.00, -0.00, 459.7, 290.7)">a</text><text xml:space="preserve" font-family="Helvetica-Bold,Helvetica" font-weight="bold" font-size="14.0" fill="#000000" transform="matrix(0.00, 1.00, 1.00, -0.00, 459.7, 298.4)">l</text><text xml:space="preserve" font-family="Helvetica-Bold,Helvetica" font-weight="bold" font-size="14.0" fill="#000000" transform="matrix(0.00, 1.00, 1.00, -0.00, 459.7, 302.3)"> </text><text xml:space="preserve" font-family="Helvetica-Bold,Helvetica" font-weight="bold" font-size="14.0" fill="#000000" transform="matrix(0.00, 1.00, 1.00, -0.00, 459.7, 306.2)">C</text><text xml:space="preserve" font-family="Helvetica-Bold,Helvetica" font-weight="bold" font-size="14.0" fill="#000000" transform="matrix(0.00, 1.00, 1.00, -0.00, 459.7, 316.3)">l</text><text xml:space="preserve" font-family="Helvetica-Bold,Helvetica" font-weight="bold" font-size="14.0" fill="#000000" transform="matrix(0.00, 1.00, 1.00, -0.00, 459.7, 320.2)">a</text><text xml:space="preserve" font-family="Helvetica-Bold,Helvetica" font-weight="bold" font-size="14.0" fill="#000000" transform="matrix(0.00, 1.00, 1.00, -0.00, 459.7, 328.0)">s</text><text xml:space="preserve" font-family="Helvetica-Bold,Helvetica" font-weight="bold" font-size="14.0" fill="#000000" transform="matrix(0.00, 1.00, 1.00, -0.00, 459.7, 335.8)">s</text><text xml:space="preserve" font-family="Helvetica-Bold,Helvetica" font-weight="bold" font-size="14.0" fill="#000000" transform="matrix(0.00, 1.00, 1.00, -0.00, 459.7, 343.6)">i</text><text xml:space="preserve" font-family="Helvetica-Bold,Helvetica" font-weight="bold" font-size="14.0" fill="#000000" transform="matrix(0.00, 1.00, 1.00, -0.00, 459.7, 347.5)">f</text><text xml:space="preserve" font-family="Helvetica-Bold,Helvetica" font-weight="bold" font-size="14.0" fill="#000000" transform="matrix(0.00, 1.00, 1.00, -0.00, 459.7, 352.1)">i</text><text xml:space="preserve" font-family="Helvetica-Bold,Helvetica" font-weight="bold" font-size="14.0" fill="#000000" transform="matrix(0.00, 1.00, 1.00, -0.00, 459.7, 356.0)">e</text><text xml:space="preserve" font-family="Helvetica-Bold,Helvetica" font-weight="bold" font-size="14.0" fill="#000000" transform="matrix(0.00, 1.00, 1.00, -0.00, 459.7, 363.8)">r</text></g></g><g><clipPath id="clip0x600003ca74a0"><path d="M 46.2 347.8 L 70.3 347.8 L 70.3 371.9 L 46.2 371.9 Z M 46.2 347.8 "></path></clipPath><g clip-path="url(#clip0x600003ca74a0)"><image xlink:href="../../18AEFA53-5962-4751-B48C-8EE8462EA4B2/assets/6CEA5DB8F945C67F0C94DEED7D0811C5.png" width="32.00" height="32.00" transform="matrix(0.75, 0.00, -0.00, -0.75, 46.2, 371.9)"></image></g></g><g><clipPath id="clip0x600003ca7740"><path d="M 46.2 323.0 L 70.3 323.0 L 70.3 347.1 L 46.2 347.1 Z M 46.2 323.0 "></path></clipPath><g clip-path="url(#clip0x600003ca7740)"><image xlink:href="../../18AEFA53-5962-4751-B48C-8EE8462EA4B2/assets/9DA63CA6393CA5B3EE6F414258B60AB8.png" width="32.00" height="32.00" transform="matrix(0.75, 0.00, -0.00, -0.75, 46.2, 347.1)"></image></g></g><g><clipPath id="clip0x600003ca6540"><path d="M 46.2 298.3 L 70.3 298.3 L 70.3 322.4 L 46.2 322.4 Z M 46.2 298.3 "></path></clipPath><g clip-path="url(#clip0x600003ca6540)"><image xlink:href="../../18AEFA53-5962-4751-B48C-8EE8462EA4B2/assets/2506024484E88557B4982B6A56345CEC.png" width="32.00" height="32.00" transform="matrix(0.75, 0.00, -0.00, -0.75, 46.2, 322.4)"></image></g></g><g><clipPath id="clip0x600003ca6240"><path d="M 46.2 273.5 L 70.3 273.5 L 70.3 297.6 L 46.2 297.6 Z M 46.2 273.5 "></path></clipPath><g clip-path="url(#clip0x600003ca6240)"><image xlink:href="../../18AEFA53-5962-4751-B48C-8EE8462EA4B2/assets/082668C40DB9708144F8AD064D50AB23.png" width="32.00" height="32.00" transform="matrix(0.75, 0.00, -0.00, -0.75, 46.2, 297.6)"></image></g></g><g><clipPath id="clip0x600003ca6000"><path d="M 46.2 248.8 L 70.3 248.8 L 70.3 272.9 L 46.2 272.9 Z M 46.2 248.8 "></path></clipPath><g clip-path="url(#clip0x600003ca6000)"><image xlink:href="../../18AEFA53-5962-4751-B48C-8EE8462EA4B2/assets/D32E91D25A9231E604A138B33175AB74.png" width="32.00" height="32.00" transform="matrix(0.75, 0.00, -0.00, -0.75, 46.2, 272.9)"></image></g></g><g><clipPath id="clip0x600003ca5dc0"><path d="M 46.2 224.0 L 70.3 224.0 L 70.3 248.1 L 46.2 248.1 Z M 46.2 224.0 "></path></clipPath><g clip-path="url(#clip0x600003ca5dc0)"><image xlink:href="../../18AEFA53-5962-4751-B48C-8EE8462EA4B2/assets/80732EDD2BEDF483BB4A222351CAD6C4.png" width="32.00" height="32.00" transform="matrix(0.75, 0.00, -0.00, -0.75, 46.2, 248.1)"></image></g></g><g><clipPath id="clip0x600003ca5b80"><path d="M 46.2 199.2 L 70.3 199.2 L 70.3 223.3 L 46.2 223.3 Z M 46.2 199.2 "></path></clipPath><g clip-path="url(#clip0x600003ca5b80)"><image xlink:href="../../18AEFA53-5962-4751-B48C-8EE8462EA4B2/assets/C9662CDDC7D77D88B56184B8ED2BD7D6.png" width="32.00" height="32.00" transform="matrix(0.75, 0.00, -0.00, -0.75, 46.2, 223.3)"></image></g></g><g><clipPath id="clip0x600003ca5940"><path d="M 46.2 174.5 L 70.3 174.5 L 70.3 198.6 L 46.2 198.6 Z M 46.2 174.5 "></path></clipPath><g clip-path="url(#clip0x600003ca5940)"><image xlink:href="../../18AEFA53-5962-4751-B48C-8EE8462EA4B2/assets/2BBA83F13CF76C354D20017BDEA60414.png" width="32.00" height="32.00" transform="matrix(0.75, 0.00, -0.00, -0.75, 46.2, 198.6)"></image></g></g><g><clipPath id="clip0x600003ca5760"><path d="M 46.2 149.7 L 70.3 149.7 L 70.3 173.8 L 46.2 173.8 Z M 46.2 149.7 "></path></clipPath><g clip-path="url(#clip0x600003ca5760)"><image xlink:href="../../18AEFA53-5962-4751-B48C-8EE8462EA4B2/assets/8FED470C26610E9459E19A2DD9AA806C.png" width="32.00" height="32.00" transform="matrix(0.75, 0.00, -0.00, -0.75, 46.2, 173.8)"></image></g></g><g><clipPath id="clip0x600003ca58e0"><path d="M 46.2 124.9 L 70.3 124.9 L 70.3 149.0 L 46.2 149.0 Z M 46.2 124.9 "></path></clipPath><g clip-path="url(#clip0x600003ca58e0)"><image xlink:href="../../72E2EA7F-79A3-4CEB-B60B-9F125AFCE0DA/assets/598AEBCAB137FDB5BA8E801A4341CC08.png" width="32.00" height="32.00" transform="matrix(0.75, 0.00, -0.00, -0.75, 46.2, 149.0)"></image></g></g><g><clipPath id="clip0x600003ca7c80"><path d="M 46.2 100.2 L 70.3 100.2 L 70.3 124.3 L 46.2 124.3 Z M 46.2 100.2 "></path></clipPath><g clip-path="url(#clip0x600003ca7c80)"><image xlink:href="../../18AEFA53-5962-4751-B48C-8EE8462EA4B2/assets/4C8D928AFDFF77FBAAAB08F376A9942A.png" width="32.00" height="32.00" transform="matrix(0.75, 0.00, -0.00, -0.75, 46.2, 124.3)"></image></g></g><g><clipPath id="clip0x600003ca7e60"><path d="M 46.2 75.4 L 70.3 75.4 L 70.3 99.5 L 46.2 99.5 Z M 46.2 75.4 "></path></clipPath><g clip-path="url(#clip0x600003ca7e60)"><image xlink:href="../../18AEFA53-5962-4751-B48C-8EE8462EA4B2/assets/C38EF3BCFF49B2F44601F93726CFD6CD.png" width="32.00" height="32.00" transform="matrix(0.75, 0.00, -0.00, -0.75, 46.2, 99.5)"></image></g></g><g><clipPath id="clip0x600003ca8640"><path d="M 46.2 50.7 L 70.3 50.7 L 70.3 74.8 L 46.2 74.8 Z M 46.2 50.7 "></path></clipPath><g clip-path="url(#clip0x600003ca8640)"><image xlink:href="../../18AEFA53-5962-4751-B48C-8EE8462EA4B2/assets/A181C177A05B0D126A06EAD07D93DBAA.png" width="32.00" height="32.00" transform="matrix(0.75, 0.00, -0.00, -0.75, 46.2, 74.8)"></image></g></g><g><clipPath id="clip0x600003ca8a00"><path d="M 46.2 25.9 L 70.3 25.9 L 70.3 50.0 L 46.2 50.0 Z M 46.2 25.9 "></path></clipPath><g clip-path="url(#clip0x600003ca8a00)"><image xlink:href="../../18AEFA53-5962-4751-B48C-8EE8462EA4B2/assets/5ED23E0A5A73E91AD5273B7A3D14FC3C.png" width="32.00" height="32.00" transform="matrix(0.75, 0.00, -0.00, -0.75, 46.2, 50.0)"></image></g></g><g><clipPath id="clip0x600003ca84c0"><path d="M 46.2 1.1 L 70.3 1.1 L 70.3 25.2 L 46.2 25.2 Z M 46.2 1.1 "></path></clipPath><g clip-path="url(#clip0x600003ca84c0)"><image xlink:href="../../18AEFA53-5962-4751-B48C-8EE8462EA4B2/assets/45F7E481642B83E0840B967BAF34454B.png" width="32.00" height="32.00" transform="matrix(0.75, 0.00, -0.00, -0.75, 46.2, 25.2)"></image></g></g><g><clipPath id="clip0x600003ca8a60"><path d="M 74.0 376.2 L 98.1 376.2 L 98.1 400.3 L 74.0 400.3 Z M 74.0 376.2 "></path></clipPath><g clip-path="url(#clip0x600003ca8a60)"><image xlink:href="../../18AEFA53-5962-4751-B48C-8EE8462EA4B2/assets/A483835D8E36E24F3A3C2277F5A6719A.png" width="32.00" height="32.00" transform="matrix(0.75, 0.00, -0.00, -0.75, 74.0, 400.3)"></image></g></g><g><clipPath id="clip0x600003ca8280"><path d="M 98.9 376.2 L 123.0 376.2 L 123.0 400.3 L 98.9 400.3 Z M 98.9 376.2 "></path></clipPath><g clip-path="url(#clip0x600003ca8280)"><image xlink:href="../../18AEFA53-5962-4751-B48C-8EE8462EA4B2/assets/89EC65CF95AA56FA5F1271995429AE3F.png" width="32.00" height="32.00" transform="matrix(0.75, 0.00, -0.00, -0.75, 98.9, 400.3)"></image></g></g><g><clipPath id="clip0x600003ca8d00"><path d="M 123.7 376.2 L 147.8 376.2 L 147.8 400.3 L 123.7 400.3 Z M 123.7 376.2 "></path></clipPath><g clip-path="url(#clip0x600003ca8d00)"><image xlink:href="../../18AEFA53-5962-4751-B48C-8EE8462EA4B2/assets/338CA977E56D7AC37D35F802B6B82379.png" width="32.00" height="32.00" transform="matrix(0.75, 0.00, -0.00, -0.75, 123.7, 400.3)"></image></g></g><g><clipPath id="clip0x600003ca9120"><path d="M 148.6 376.2 L 172.7 376.2 L 172.7 400.3 L 148.6 400.3 Z M 148.6 376.2 "></path></clipPath><g clip-path="url(#clip0x600003ca9120)"><image xlink:href="../../18AEFA53-5962-4751-B48C-8EE8462EA4B2/assets/BFF7D378BFFBD29E493388EAEA8F9BAE.png" width="32.00" height="32.00" transform="matrix(0.75, 0.00, -0.00, -0.75, 148.6, 400.3)"></image></g></g><g><clipPath id="clip0x600003ca9660"><path d="M 173.4 376.2 L 197.5 376.2 L 197.5 400.3 L 173.4 400.3 Z M 173.4 376.2 "></path></clipPath><g clip-path="url(#clip0x600003ca9660)"><image xlink:href="../../18AEFA53-5962-4751-B48C-8EE8462EA4B2/assets/7F46FB8727B6306E1A9A60D4D6DA9038.png" width="32.00" height="32.00" transform="matrix(0.75, 0.00, -0.00, -0.75, 173.4, 400.3)"></image></g></g><g><clipPath id="clip0x600003ca9d80"><path d="M 198.3 376.2 L 222.4 376.2 L 222.4 400.3 L 198.3 400.3 Z M 198.3 376.2 "></path></clipPath><g clip-path="url(#clip0x600003ca9d80)"><image xlink:href="../../18AEFA53-5962-4751-B48C-8EE8462EA4B2/assets/22D1F9B9B76A3BE407D5300AA1D57057.png" width="32.00" height="32.00" transform="matrix(0.75, 0.00, -0.00, -0.75, 198.3, 400.3)"></image></g></g><g><clipPath id="clip0x600003ca9b40"><path d="M 223.1 376.2 L 247.2 376.2 L 247.2 400.3 L 223.1 400.3 Z M 223.1 376.2 "></path></clipPath><g clip-path="url(#clip0x600003ca9b40)"><image xlink:href="../../18AEFA53-5962-4751-B48C-8EE8462EA4B2/assets/2ECBCB223ABADCD6ADA938478E156C41.png" width="32.00" height="32.00" transform="matrix(0.75, 0.00, -0.00, -0.75, 223.1, 400.3)"></image></g></g><g><clipPath id="clip0x600003ca9900"><path d="M 248.0 376.2 L 272.1 376.2 L 272.1 400.3 L 248.0 400.3 Z M 248.0 376.2 "></path></clipPath><g clip-path="url(#clip0x600003ca9900)"><image xlink:href="../../18AEFA53-5962-4751-B48C-8EE8462EA4B2/assets/A6D677D9E93AF75E6C597952A2010177.png" width="32.00" height="32.00" transform="matrix(0.75, 0.00, -0.00, -0.75, 248.0, 400.3)"></image></g></g><g><clipPath id="clip0x600003ca9300"><path d="M 272.8 376.2 L 296.9 376.2 L 296.9 400.3 L 272.8 400.3 Z M 272.8 376.2 "></path></clipPath><g clip-path="url(#clip0x600003ca9300)"><image xlink:href="../../18AEFA53-5962-4751-B48C-8EE8462EA4B2/assets/650196E805B3629B994DA71B75A376E3.png" width="32.00" height="32.00" transform="matrix(0.75, 0.00, -0.00, -0.75, 272.8, 400.3)"></image></g></g><g><clipPath id="clip0x600003ca9180"><path d="M 297.7 376.2 L 321.8 376.2 L 321.8 400.3 L 297.7 400.3 Z M 297.7 376.2 "></path></clipPath><g clip-path="url(#clip0x600003ca9180)"><image xlink:href="../../18AEFA53-5962-4751-B48C-8EE8462EA4B2/assets/BF6D1847E991852D3EC8BE5FE7BF0CE8.png" width="32.00" height="32.00" transform="matrix(0.75, 0.00, -0.00, -0.75, 297.7, 400.3)"></image></g></g><g><clipPath id="clip0x600003ca91e0"><path d="M 322.5 376.2 L 346.6 376.2 L 346.6 400.3 L 322.5 400.3 Z M 322.5 376.2 "></path></clipPath><g clip-path="url(#clip0x600003ca91e0)"><image xlink:href="../../18AEFA53-5962-4751-B48C-8EE8462EA4B2/assets/0914AB016DB2E1CF498AB2DB2E83BF95.png" width="32.00" height="32.00" transform="matrix(0.75, 0.00, -0.00, -0.75, 322.5, 400.3)"></image></g></g><g><clipPath id="clip0x600003caa080"><path d="M 347.4 376.2 L 371.5 376.2 L 371.5 400.3 L 347.4 400.3 Z M 347.4 376.2 "></path></clipPath><g clip-path="url(#clip0x600003caa080)"><image xlink:href="../../18AEFA53-5962-4751-B48C-8EE8462EA4B2/assets/E40FD5B497A6EC10A3E5DDCAD4F9B4DB.png" width="32.00" height="32.00" transform="matrix(0.75, 0.00, -0.00, -0.75, 347.4, 400.3)"></image></g></g><g><clipPath id="clip0x600003caa380"><path d="M 372.2 376.2 L 396.3 376.2 L 396.3 400.3 L 372.2 400.3 Z M 372.2 376.2 "></path></clipPath><g clip-path="url(#clip0x600003caa380)"><image xlink:href="../../18AEFA53-5962-4751-B48C-8EE8462EA4B2/assets/1746DDECAFB78DBD838A5B638257C06A.png" width="32.00" height="32.00" transform="matrix(0.75, 0.00, -0.00, -0.75, 372.2, 400.3)"></image></g></g><g><clipPath id="clip0x600003caa680"><path d="M 397.1 376.2 L 421.2 376.2 L 421.2 400.3 L 397.1 400.3 Z M 397.1 376.2 "></path></clipPath><g clip-path="url(#clip0x600003caa680)"><image xlink:href="../../18AEFA53-5962-4751-B48C-8EE8462EA4B2/assets/89C173E0E69A8C11DC8F9B49CFA22EB4.png" width="32.00" height="32.00" transform="matrix(0.75, 0.00, -0.00, -0.75, 397.1, 400.3)"></image></g></g><g><clipPath id="clip0x600003caedc0"><path d="M 421.9 376.2 L 446.0 376.2 L 446.0 400.3 L 421.9 400.3 Z M 421.9 376.2 "></path></clipPath><g clip-path="url(#clip0x600003caedc0)"><image xlink:href="../../18AEFA53-5962-4751-B48C-8EE8462EA4B2/assets/B5A058A58EB0957C7538670C5E7CF691.png" width="32.00" height="32.00" transform="matrix(0.75, 0.00, -0.00, -0.75, 421.9, 400.3)"></image></g></g><g><clipPath id="clip0x600003caf180"><path d="M 1.4 356.8 L 45.7 356.8 L 45.7 377.0 L 1.4 377.0 Z M 1.4 356.8 "></path></clipPath><g clip-path="url(#clip0x600003caf180)"><text xml:space="preserve" font-family="Helvetica-Bold,Helvetica" font-weight="bold" font-size="11.0" fill="#000000" transform="matrix(1.00, 0.00, -0.00, -1.00, 5.0, 362.9)">S</text><text xml:space="preserve" font-family="Helvetica-Bold,Helvetica" font-weight="bold" font-size="11.0" fill="#000000" transform="matrix(1.00, 0.00, -0.00, -1.00, 12.3, 362.9)">k</text><text xml:space="preserve" font-family="Helvetica-Bold,Helvetica" font-weight="bold" font-size="11.0" fill="#000000" transform="matrix(1.00, 0.00, -0.00, -1.00, 18.4, 362.9)">e</text><text xml:space="preserve" font-family="Helvetica-Bold,Helvetica" font-weight="bold" font-size="11.0" fill="#000000" transform="matrix(1.00, 0.00, -0.00, -1.00, 24.6, 362.9)">t</text><text xml:space="preserve" font-family="Helvetica-Bold,Helvetica" font-weight="bold" font-size="11.0" fill="#000000" transform="matrix(1.00, 0.00, -0.00, -1.00, 28.2, 362.9)">c</text><text xml:space="preserve" font-family="Helvetica-Bold,Helvetica" font-weight="bold" font-size="11.0" fill="#000000" transform="matrix(1.00, 0.00, -0.00, -1.00, 34.4, 362.9)">h</text></g></g><g><clipPath id="clip0x600003cae520"><path d="M 31.7 386.1 L 72.9 386.1 L 72.9 406.3 L 31.7 406.3 Z M 31.7 386.1 "></path></clipPath><g clip-path="url(#clip0x600003cae520)"><text xml:space="preserve" font-family="Helvetica-Bold,Helvetica" font-weight="bold" font-size="11.0" fill="#000000" transform="matrix(1.00, 0.00, -0.00, -1.00, 35.3, 392.2)">S</text><text xml:space="preserve" font-family="Helvetica-Bold,Helvetica" font-weight="bold" font-size="11.0" fill="#000000" transform="matrix(1.00, 0.00, -0.00, -1.00, 42.6, 392.2)">h</text><text xml:space="preserve" font-family="Helvetica-Bold,Helvetica" font-weight="bold" font-size="11.0" fill="#000000" transform="matrix(1.00, 0.00, -0.00, -1.00, 49.3, 392.2)">a</text><text xml:space="preserve" font-family="Helvetica-Bold,Helvetica" font-weight="bold" font-size="11.0" fill="#000000" transform="matrix(1.00, 0.00, -0.00, -1.00, 55.4, 392.2)">p</text><text xml:space="preserve" font-family="Helvetica-Bold,Helvetica" font-weight="bold" font-size="11.0" fill="#000000" transform="matrix(1.00, 0.00, -0.00, -1.00, 62.2, 392.2)">e</text></g></g></g></svg>