<?xml version="1.0" encoding="UTF-8" standalone="no"?><svg xmlns="http://www.w3.org/2000/svg" xmlns:xlink="http://www.w3.org/1999/xlink" clip-rule="evenodd" stroke-miterlimit="10" viewBox="0 0 234 132"><desc>SVG generated by Keynote</desc><defs></defs><g transform="matrix(1.00, 0.00, -0.00, -1.00, 0.0, 132.0)"><g><clipPath id="clip0x6000024ae4c0"><path d="M 152.1 7.9 L 234.0 7.9 L 234.0 89.8 L 152.1 89.8 Z M 152.1 7.9 "></path></clipPath><g clip-path="url(#clip0x6000024ae4c0)"><image xlink:href="69B496A867F08A55CC9E85DA4E946CB8.png" width="32.00" height="32.00" transform="matrix(2.56, 0.00, -0.00, -2.56, 152.1, 89.8)"></image></g></g><g><clipPath id="clip0x6000024ae580"><path d="M 18.5 68.0 L 118.5 68.0 L 118.5 132.0 L 18.5 132.0 Z M 18.5 68.0 "></path></clipPath><g clip-path="url(#clip0x6000024ae580)"><image xlink:href="FCA4EECF26A508DBB52E40EB8A379717.png" width="100.00" height="64.00" transform="matrix(1.00, 0.00, -0.00, -1.00, 18.5, 132.0)"></image></g></g><g><clipPath id="clip0x6000024aee80"><path d="M 0.2 39.9 L 136.6 39.9 L 136.6 54.7 L 0.2 54.7 Z M 0.2 39.9 "></path></clipPath><g clip-path="url(#clip0x6000024aee80)"><image xlink:href="7B66C685F3402D3DDAFFACF17D7FD0C4.png" width="134.00" height="13.00" transform="matrix(1.00, 0.00, -0.00, -0.99, 1.2, 53.7)" opacity="0.38"></image><path d="M -0.2 -0.1 L 120.2 -0.1 L 120.8 -0.1 " fill="none" stroke="#009900" stroke-width="2.00" stroke-linejoin="round" transform="matrix(1.00, 0.00, 0.00, -1.00, 4.2, 48.9)"></path><path d="M 125.3 52.4 L 132.2 49.0 L 125.3 45.6 Z M 125.3 52.4 " fill="#009900"></path></g></g><g><clipPath id="clip0x6000024af480"><path d="M 20.7 1.8 L 160.7 1.8 L 160.7 43.0 L 20.7 43.0 Z M 20.7 1.8 "></path></clipPath><g clip-path="url(#clip0x6000024af480)"><text xml:space="preserve" font-family="Helvetica-Bold,Helvetica" font-weight="bold" font-size="14.0" fill="#000000" transform="matrix(1.00, 0.00, -0.00, -1.00, 53.5, 25.6)">H</text><text xml:space="preserve" font-family="Helvetica-Bold,Helvetica" font-weight="bold" font-size="14.0" fill="#000000" transform="matrix(1.00, 0.00, -0.00, -1.00, 63.6, 25.6)">a</text><text xml:space="preserve" font-family="Helvetica-Bold,Helvetica" font-weight="bold" font-size="14.0" fill="#000000" transform="matrix(1.00, 0.00, -0.00, -1.00, 71.4, 25.6)">n</text><text xml:space="preserve" font-family="Helvetica-Bold,Helvetica" font-weight="bold" font-size="14.0" fill="#000000" transform="matrix(1.00, 0.00, -0.00, -1.00, 80.0, 25.6)">d</text><text xml:space="preserve" font-family="Helvetica-Bold,Helvetica" font-weight="bold" font-size="14.0" fill="#000000" transform="matrix(1.00, 0.00, -0.00, -1.00, 24.8, 8.6)">S</text><text xml:space="preserve" font-family="Helvetica-Bold,Helvetica" font-weight="bold" font-size="14.0" fill="#000000" transform="matrix(1.00, 0.00, -0.00, -1.00, 34.1, 8.6)">e</text><text xml:space="preserve" font-family="Helvetica-Bold,Helvetica" font-weight="bold" font-size="14.0" fill="#000000" transform="matrix(1.00, 0.00, -0.00, -1.00, 41.9, 8.6)">g</text><text xml:space="preserve" font-family="Helvetica-Bold,Helvetica" font-weight="bold" font-size="14.0" fill="#000000" transform="matrix(1.00, 0.00, -0.00, -1.00, 50.4, 8.6)">m</text><text xml:space="preserve" font-family="Helvetica-Bold,Helvetica" font-weight="bold" font-size="14.0" fill="#000000" transform="matrix(1.00, 0.00, -0.00, -1.00, 62.9, 8.6)">e</text><text xml:space="preserve" font-family="Helvetica-Bold,Helvetica" font-weight="bold" font-size="14.0" fill="#000000" transform="matrix(1.00, 0.00, -0.00, -1.00, 70.7, 8.6)">n</text><text xml:space="preserve" font-family="Helvetica-Bold,Helvetica" font-weight="bold" font-size="14.0" fill="#000000" transform="matrix(1.00, 0.00, -0.00, -1.00, 79.2, 8.6)">t</text><text xml:space="preserve" font-family="Helvetica-Bold,Helvetica" font-weight="bold" font-size="14.0" fill="#000000" transform="matrix(1.00, 0.00, -0.00, -1.00, 83.9, 8.6)">a</text><text xml:space="preserve" font-family="Helvetica-Bold,Helvetica" font-weight="bold" font-size="14.0" fill="#000000" transform="matrix(1.00, 0.00, -0.00, -1.00, 91.7, 8.6)">t</text><text xml:space="preserve" font-family="Helvetica-Bold,Helvetica" font-weight="bold" font-size="14.0" fill="#000000" transform="matrix(1.00, 0.00, -0.00, -1.00, 96.3, 8.6)">i</text><text xml:space="preserve" font-family="Helvetica-Bold,Helvetica" font-weight="bold" font-size="14.0" fill="#000000" transform="matrix(1.00, 0.00, -0.00, -1.00, 100.2, 8.6)">o</text><text xml:space="preserve" font-family="Helvetica-Bold,Helvetica" font-weight="bold" font-size="14.0" fill="#000000" transform="matrix(1.00, 0.00, -0.00, -1.00, 108.8, 8.6)">n</text></g></g></g></svg>