<?xml version="1.0" encoding="UTF-8" standalone="no"?><svg xmlns="http://www.w3.org/2000/svg" xmlns:xlink="http://www.w3.org/1999/xlink" clip-rule="evenodd" stroke-miterlimit="10" viewBox="0 0 105 56"><desc>SVG generated by Keynote</desc><defs></defs><g transform="matrix(1.00, 0.00, -0.00, -1.00, 0.0, 56.0)"><g><clipPath id="clip0x6000034b8180"><path d="M 16.5 2.2 L 35.0 2.2 L 35.0 20.6 L 16.5 20.6 Z M 16.5 2.2 "></path></clipPath><g clip-path="url(#clip0x6000034b8180)"><image xlink:href="50AD479933021EADA16B06C9F5AB8A04.png" width="32.00" height="32.00" transform="matrix(0.58, 0.00, -0.00, -0.58, 16.5, 20.6)"></image></g></g><g><clipPath id="clip0x6000034b80c0"><path d="M 25.8 31.5 L 44.2 31.5 L 44.2 50.0 L 25.8 50.0 Z M 25.8 31.5 "></path></clipPath><g clip-path="url(#clip0x6000034b80c0)"><image xlink:href="D94415ED5E8C0FAC91664A9AEA69985C.png" width="32.00" height="32.00" transform="matrix(0.58, 0.00, -0.00, -0.58, 25.8, 50.0)"></image></g></g><g><clipPath id="clip0x6000034b7160"><path d="M 86.2 22.3 L 104.6 22.3 L 104.6 40.8 L 86.2 40.8 Z M 86.2 22.3 "></path></clipPath><g clip-path="url(#clip0x6000034b7160)"><image xlink:href="E6463B135426B3250C8BDED8FE6AF641.png" width="32.00" height="32.00" transform="matrix(0.58, 0.00, -0.00, -0.58, 86.2, 40.8)"></image></g></g><g><clipPath id="clip0x6100016af480"><path d="M 49.3 0.7 L 67.7 0.7 L 67.7 19.1 L 49.3 19.1 Z M 49.3 0.7 "></path></clipPath><g clip-path="url(#clip0x6100016af480)"><image xlink:href="C39E610E86FB89C28D0A9DDE870F1DA8.png" width="32.00" height="32.00" transform="matrix(0.58, 0.00, -0.00, -0.57, 49.3, 19.1)"></image></g></g><g><clipPath id="clip0x6180018ac480"><path d="M 9.6 36.8 L 28.0 36.8 L 28.0 55.2 L 9.6 55.2 Z M 9.6 36.8 "></path></clipPath><g clip-path="url(#clip0x6180018ac480)"><image xlink:href="F23A7CED2CF9E74E8475FCB6C8DBB3FE.png" width="32.00" height="32.00" transform="matrix(0.58, 0.00, -0.00, -0.58, 9.6, 55.2)"></image></g></g><g><clipPath id="clip0x6000034b8480"><path d="M 72.4 5.3 L 90.8 5.3 L 90.8 23.8 L 72.4 23.8 Z M 72.4 5.3 "></path></clipPath><g clip-path="url(#clip0x6000034b8480)"><image xlink:href="337C29C4434BC36E9BCFE21C11381103.png" width="32.00" height="32.00" transform="matrix(0.57, 0.00, -0.00, -0.58, 72.4, 23.8)"></image></g></g><g><clipPath id="clip0x6000034b8660"><path d="M 67.7 27.6 L 86.2 27.6 L 86.2 46.0 L 67.7 46.0 Z M 67.7 27.6 "></path></clipPath><g clip-path="url(#clip0x6000034b8660)"><image xlink:href="A4A64E59BA6479889FA66115752FB244.png" width="32.00" height="32.00" transform="matrix(0.58, 0.00, -0.00, -0.58, 67.7, 46.0)"></image></g></g><g><clipPath id="clip0x6100016af420"><path d="M 0.4 19.1 L 18.8 19.1 L 18.8 37.5 L 0.4 37.5 Z M 0.4 19.1 "></path></clipPath><g clip-path="url(#clip0x6100016af420)"><image xlink:href="1612C59E7BD34C708B30D1668B52EE2B.png" width="32.00" height="32.00" transform="matrix(0.58, 0.00, -0.00, -0.58, 0.4, 37.5)"></image></g></g><g><clipPath id="clip0x6000034b87e0"><path d="M 35.0 14.6 L 53.4 14.6 L 53.4 33.0 L 35.0 33.0 Z M 35.0 14.6 "></path></clipPath><g clip-path="url(#clip0x6000034b87e0)"><image xlink:href="85CC64679BB0D7C6AB91738D505F544E.png" width="32.00" height="32.00" transform="matrix(0.58, 0.00, -0.00, -0.58, 35.0, 33.0)"></image></g></g><g><clipPath id="clip0x6000034b8a20"><path d="M 49.3 31.5 L 67.7 31.5 L 67.7 50.0 L 49.3 50.0 Z M 49.3 31.5 "></path></clipPath><g clip-path="url(#clip0x6000034b8a20)"><image xlink:href="6F64664BF950F30B40275C3F41EED4D6.png" width="32.00" height="32.00" transform="matrix(0.58, 0.00, -0.00, -0.58, 49.3, 50.0)"></image></g></g></g></svg>